<svg width="81" height="14" viewBox="0 0 81 14" fill="none" xmlns="http://www.w3.org/2000/svg">
<path d="M9.13147 6.7577C11.0188 7.09295 11.9625 8.12353 11.9625 9.84945C11.9625 11.0911 11.5279 12.0348 10.6587 12.6804C9.80197 13.3261 8.57272 13.6489 6.97097 13.6489H0.433594V0.425197H6.80334C9.83301 0.425197 11.3478 1.49303 11.3478 3.6287C11.3478 4.42336 11.1678 5.06282 10.8077 5.54707C10.4476 6.03132 9.88889 6.42245 9.13147 6.72045V6.7577ZM7.92084 4.35507C7.92084 3.85841 7.76564 3.52316 7.45522 3.34932C7.15722 3.17549 6.74747 3.08857 6.22597 3.08857H3.99097V5.7147H6.24459C6.80334 5.7147 7.2193 5.61536 7.49247 5.4167C7.77805 5.20561 7.92084 4.85174 7.92084 4.35507ZM6.57984 10.9856C7.15101 10.9856 7.59801 10.88 7.92084 10.6689C8.25609 10.4579 8.42372 10.0792 8.42372 9.53282C8.42372 9.02374 8.26851 8.65745 7.95809 8.43395C7.66009 8.21045 7.22551 8.0987 6.65434 8.0987H3.99097V10.9856H6.57984Z" fill="#96B5CC"/>
<path d="M23.8657 10.6876V13.6489H13.5475V0.425197H23.8285V3.38657H17.1049V5.52845H23.2697V8.34082H17.1049V10.6876H23.8657Z" fill="#96B5CC"/>
<path d="M36.088 3.38657H32.3443V13.6489H28.787V3.38657H25.0247V0.425197H36.088V3.38657Z" fill="#96B5CC"/>
<path d="M47.8559 3.38657H44.1123V13.6489H40.5549V3.38657H36.7927V0.425197H47.8559V3.38657Z" fill="#96B5CC"/>
<path d="M49.3242 0.425197H52.8816V13.6489H49.3242V0.425197Z" fill="#96B5CC"/>
<path d="M66.4508 0.425197V13.6489H62.912L58.5165 6.03132V13.6489H55.1082V0.425197H58.6283L63.0424 8.1732V0.425197H66.4508Z" fill="#96B5CC"/>
<path d="M80.783 6.66457V8.04282C80.783 9.30932 80.5098 10.3896 79.9635 11.2836C79.4172 12.1652 78.6846 12.8294 77.7658 13.2764C76.8469 13.7234 75.8226 13.9469 74.6926 13.9469C73.2771 13.9469 72.0851 13.6489 71.1166 13.0529C70.1481 12.4569 69.4218 11.6437 68.9375 10.6131C68.4657 9.57007 68.2298 8.38428 68.2298 7.0557C68.2298 5.72711 68.4657 4.54132 68.9375 3.49832C69.4218 2.45532 70.1544 1.63582 71.1353 1.03982C72.1162 0.431405 73.3268 0.127197 74.7671 0.127197C75.7481 0.127197 76.6669 0.319655 77.5236 0.704572C78.3804 1.07707 79.0881 1.62961 79.6469 2.3622C80.2056 3.09478 80.5347 3.97636 80.634 5.00695H77.1884C77.1015 4.33645 76.8407 3.82736 76.4061 3.4797C75.984 3.11961 75.419 2.93957 74.7113 2.93957C73.7428 2.93957 73.0164 3.31207 72.5321 4.05707C72.0603 4.78966 71.8244 5.7892 71.8244 7.0557C71.8244 8.35945 72.0665 9.37761 72.5508 10.1102C73.035 10.8428 73.8049 11.2091 74.8603 11.2091C75.5556 11.2091 76.1268 11.0477 76.5738 10.7248C77.0208 10.402 77.3312 9.93637 77.505 9.32795H74.7485V6.66457H80.783Z" fill="#96B5CC"/>
</svg>
