<svg width="83" height="19" viewBox="0 0 83 19" fill="none" xmlns="http://www.w3.org/2000/svg">
<path d="M10.2491 6.7577C12.1365 7.09295 13.0801 8.12353 13.0801 9.84945C13.0801 11.0911 12.6456 12.0348 11.7764 12.6804C10.9196 13.3261 9.6904 13.6489 8.08865 13.6489H1.55127V0.425197H7.92102C10.9507 0.425197 12.4655 1.49303 12.4655 3.6287C12.4655 4.42336 12.2855 5.06282 11.9254 5.54707C11.5653 6.03132 11.0066 6.42245 10.2491 6.72045V6.7577ZM9.03852 4.35507C9.03852 3.85841 8.88331 3.52316 8.5729 3.34932C8.2749 3.17549 7.86515 3.08857 7.34365 3.08857H5.10865V5.7147H7.36227C7.92102 5.7147 8.33698 5.61536 8.61015 5.4167C8.89573 5.20561 9.03852 4.85174 9.03852 4.35507ZM7.69752 10.9856C8.26869 10.9856 8.71569 10.88 9.03852 10.6689C9.37377 10.4579 9.5414 10.0792 9.5414 9.53282C9.5414 9.02374 9.38619 8.65745 9.07577 8.43395C8.77777 8.21045 8.34319 8.0987 7.77202 8.0987H5.10865V10.9856H7.69752Z" fill="url(#paint0_linear)"/>
<path d="M24.9834 10.6876V13.6489H14.6652V0.425197H24.9462V3.38657H18.2225V5.52845H24.3874V8.34082H18.2225V10.6876H24.9834Z" fill="url(#paint1_linear)"/>
<path d="M37.2056 3.38657H33.462V13.6489H29.9046V3.38657H26.1424V0.425197H37.2056V3.38657Z" fill="url(#paint2_linear)"/>
<path d="M48.9736 3.38657H45.23V13.6489H41.6726V3.38657H37.9103V0.425197H48.9736V3.38657Z" fill="url(#paint3_linear)"/>
<path d="M50.4419 0.425197H53.9993V13.6489H50.4419V0.425197Z" fill="url(#paint4_linear)"/>
<path d="M67.5685 0.425197V13.6489H64.0297L59.6342 6.03132V13.6489H56.2258V0.425197H59.746L64.1601 8.1732V0.425197H67.5685Z" fill="url(#paint5_linear)"/>
<path d="M81.9007 6.66457V8.04282C81.9007 9.30932 81.6275 10.3896 81.0812 11.2836C80.5349 12.1652 79.8023 12.8294 78.8834 13.2764C77.9646 13.7234 76.9402 13.9469 75.8103 13.9469C74.3948 13.9469 73.2028 13.6489 72.2343 13.0529C71.2658 12.4569 70.5394 11.6437 70.0552 10.6131C69.5834 9.57007 69.3474 8.38428 69.3474 7.0557C69.3474 5.72711 69.5834 4.54132 70.0552 3.49832C70.5394 2.45532 71.272 1.63582 72.2529 1.03982C73.2339 0.431405 74.4445 0.127197 75.8848 0.127197C76.8657 0.127197 77.7846 0.319655 78.6413 0.704572C79.4981 1.07707 80.2058 1.62961 80.7646 2.3622C81.3233 3.09478 81.6524 3.97636 81.7517 5.00695H78.3061C78.2192 4.33645 77.9584 3.82736 77.5238 3.4797C77.1017 3.11961 76.5367 2.93957 75.8289 2.93957C74.8604 2.93957 74.1341 3.31207 73.6498 4.05707C73.178 4.78966 72.9421 5.7892 72.9421 7.0557C72.9421 8.35945 73.1842 9.37761 73.6684 10.1102C74.1527 10.8428 74.9225 11.2091 75.9779 11.2091C76.6733 11.2091 77.2444 11.0477 77.6914 10.7248C78.1384 10.402 78.4489 9.93637 78.6227 9.32795H75.8662V6.66457H81.9007Z" fill="url(#paint6_linear)"/>
<path d="M1.43359 17.6208H80.9003" stroke="url(#paint7_linear)" stroke-width="2.23845" stroke-linecap="round"/>
<defs>
<linearGradient id="paint0_linear" x1="1.55127" y1="13.9469" x2="6.16855" y2="-12.8984" gradientUnits="userSpaceOnUse">
<stop stop-color="#7CF930"/>
<stop offset="1" stop-color="#00D3D3"/>
</linearGradient>
<linearGradient id="paint1_linear" x1="1.55127" y1="13.9469" x2="6.16855" y2="-12.8984" gradientUnits="userSpaceOnUse">
<stop stop-color="#7CF930"/>
<stop offset="1" stop-color="#00D3D3"/>
</linearGradient>
<linearGradient id="paint2_linear" x1="1.55127" y1="13.9469" x2="6.16855" y2="-12.8984" gradientUnits="userSpaceOnUse">
<stop stop-color="#7CF930"/>
<stop offset="1" stop-color="#00D3D3"/>
</linearGradient>
<linearGradient id="paint3_linear" x1="1.55127" y1="13.9469" x2="6.16855" y2="-12.8984" gradientUnits="userSpaceOnUse">
<stop stop-color="#7CF930"/>
<stop offset="1" stop-color="#00D3D3"/>
</linearGradient>
<linearGradient id="paint4_linear" x1="1.55127" y1="13.9469" x2="6.16855" y2="-12.8984" gradientUnits="userSpaceOnUse">
<stop stop-color="#7CF930"/>
<stop offset="1" stop-color="#00D3D3"/>
</linearGradient>
<linearGradient id="paint5_linear" x1="1.55127" y1="13.9469" x2="6.16855" y2="-12.8984" gradientUnits="userSpaceOnUse">
<stop stop-color="#7CF930"/>
<stop offset="1" stop-color="#00D3D3"/>
</linearGradient>
<linearGradient id="paint6_linear" x1="1.55127" y1="13.9469" x2="6.16855" y2="-12.8984" gradientUnits="userSpaceOnUse">
<stop stop-color="#7CF930"/>
<stop offset="1" stop-color="#00D3D3"/>
</linearGradient>
<linearGradient id="paint7_linear" x1="1.43359" y1="18.6208" x2="80.9034" y2="18.0908" gradientUnits="userSpaceOnUse">
<stop stop-color="#7CF930"/>
<stop offset="1" stop-color="#00D3D3"/>
</linearGradient>
</defs>
</svg>
