<svg width="83" height="14" viewBox="0 0 83 14" fill="none" xmlns="http://www.w3.org/2000/svg">
<path d="M3.83667 3.25938V5.69925H9.40555V8.51163H3.83667V13.5218H0.279297V0.298H9.9643V3.25938H3.83667Z" fill="#96B5CC"/>
<path d="M17.7338 11.1005H13.4873L12.7237 13.5218H8.98008L14.0088 0.298H17.1937L22.2225 13.5218H18.4975L17.7338 11.1005ZM16.933 8.58613L15.6292 4.43275H15.592L14.2882 8.58613H16.933Z" fill="#96B5CC"/>
<path d="M34.5576 0.298V13.5218H31.0188L26.6233 5.90413V13.5218H23.215V0.298H26.7351L31.1492 8.046V0.298H34.5576Z" fill="#96B5CC"/>
<path d="M47.0832 3.25938H43.3396V13.5218H39.7822V3.25938H36.0199V0.298H47.0832V3.25938Z" fill="#96B5CC"/>
<path d="M54.4746 11.1005H50.2281L49.4644 13.5218H45.7208L50.7496 0.298H53.9344L58.9632 13.5218H55.2382L54.4746 11.1005ZM53.6737 8.58613L52.3699 4.43275H52.3327L51.0289 8.58613H53.6737Z" fill="#96B5CC"/>
<path d="M64.7796 13.8198C63.3144 13.8198 62.0169 13.4845 60.8869 12.814C59.757 12.1435 59.1796 10.9515 59.1548 9.238H62.6004C62.6377 9.9085 62.8612 10.4176 63.2709 10.7653C63.6807 11.1005 64.2394 11.2681 64.9472 11.2681C65.5804 11.2681 66.0957 11.1502 66.4931 10.9143C66.9028 10.6783 67.1077 10.3245 67.1077 9.85263C67.1077 9.54221 67.0146 9.28767 66.8283 9.089C66.6421 8.87792 66.3379 8.69788 65.9157 8.54888C65.4935 8.38746 64.8541 8.18879 63.9973 7.95288C62.9792 7.69213 62.1783 7.44379 61.5947 7.20788C61.0111 6.95954 60.5207 6.58083 60.1233 6.07175C59.726 5.56267 59.5273 4.87354 59.5273 4.00437C59.5273 3.12279 59.7757 2.384 60.2723 1.788C60.769 1.17958 61.4209 0.732583 62.2279 0.447C63.0474 0.149 63.929 0 64.8727 0C66.4248 0 67.7037 0.33525 68.7094 1.00575C69.7152 1.66383 70.2429 2.70063 70.2926 4.11613H66.8656C66.8159 3.59462 66.5986 3.2035 66.2137 2.94275C65.8412 2.682 65.3694 2.55162 64.7982 2.55162C64.3015 2.55162 63.8669 2.66337 63.4944 2.88687C63.1219 3.09796 62.9357 3.39596 62.9357 3.78088C62.9357 4.04163 63.0288 4.25892 63.2151 4.43275C63.4013 4.59417 63.6497 4.72454 63.9601 4.82388C64.2829 4.92321 64.7609 5.05358 65.3942 5.215C66.5489 5.48817 67.4988 5.79238 68.2438 6.12763C69.0012 6.46288 69.591 6.91608 70.0132 7.48725C70.4478 8.046 70.6651 8.76617 70.6651 9.64775C70.6651 11.1005 70.1063 12.1621 68.9888 12.8326C67.8837 13.4907 66.4807 13.8198 64.7796 13.8198Z" fill="#96B5CC"/>
<path d="M82.9446 0.298L78.158 9.0145V13.5218H74.6006V9.0145L69.814 0.298H73.6321L76.37 5.97863L79.1079 0.298H82.9446Z" fill="#96B5CC"/>
</svg>
