<svg width="60" height="20" viewBox="0 0 60 20" fill="none" xmlns="http://www.w3.org/2000/svg">
<path d="M6.87377 13.8489C5.40861 13.8489 4.11107 13.5137 2.98115 12.8432C1.85123 12.1727 1.27386 10.9807 1.24902 9.26718H4.69465C4.7319 9.93768 4.9554 10.4468 5.36515 10.7944C5.7749 11.1297 6.33365 11.2973 7.0414 11.2973C7.67465 11.2973 8.18994 11.1793 8.58727 10.9434C8.99703 10.7075 9.2019 10.3536 9.2019 9.8818C9.2019 9.57138 9.10877 9.31684 8.92252 9.11818C8.73627 8.90709 8.43207 8.72705 8.0099 8.57805C7.58773 8.41663 6.94827 8.21797 6.09152 7.98205C5.07336 7.7213 4.27248 7.47297 3.6889 7.23705C3.10532 6.98872 2.61486 6.61001 2.21752 6.10093C1.82019 5.59184 1.62152 4.90272 1.62152 4.03355C1.62152 3.15197 1.86986 2.41317 2.36652 1.81717C2.86319 1.20876 3.51507 0.761758 4.32215 0.476175C5.14165 0.178175 6.02323 0.0291748 6.9669 0.0291748C8.51898 0.0291748 9.7979 0.364425 10.8036 1.03492C11.8094 1.69301 12.3371 2.7298 12.3868 4.1453H8.95977C8.91011 3.6238 8.69282 3.23267 8.3079 2.97193C7.9354 2.71117 7.46357 2.5808 6.8924 2.5808C6.39573 2.5808 5.96115 2.69255 5.58865 2.91605C5.21615 3.12713 5.0299 3.42513 5.0299 3.81005C5.0299 4.0708 5.12302 4.28809 5.30927 4.46193C5.49552 4.62334 5.74386 4.75372 6.05427 4.85305C6.37711 4.95238 6.85515 5.08276 7.4884 5.24418C8.64315 5.51734 9.59302 5.82155 10.338 6.1568C11.0954 6.49205 11.6852 6.94526 12.1074 7.51643C12.542 8.07518 12.7593 8.79534 12.7593 9.67693C12.7593 11.1297 12.2005 12.1913 11.083 12.8618C9.97794 13.5199 8.57486 13.8489 6.87377 13.8489Z" fill="url(#paint0_linear)"/>
<path d="M24.4994 3.28855H20.7558V13.5509H17.1984V3.28855H13.4362V0.327174H24.4994V3.28855Z" fill="url(#paint1_linear)"/>
<path d="M31.8908 11.1297H27.6443L26.8807 13.5509H23.137L28.1658 0.327174H31.3507L36.3794 13.5509H32.6544L31.8908 11.1297ZM31.0899 8.6153L29.7862 4.46193H29.7489L28.4452 8.6153H31.0899Z" fill="url(#paint2_linear)"/>
<path d="M46.1073 3.28855H42.3637V13.5509H38.8063V3.28855H35.0441V0.327174H46.1073V3.28855Z" fill="url(#paint3_linear)"/>
<path d="M52.3995 13.8489C50.9344 13.8489 49.6368 13.5137 48.5069 12.8432C47.377 12.1727 46.7996 10.9807 46.7748 9.26718H50.2204C50.2577 9.93768 50.4812 10.4468 50.8909 10.7944C51.3007 11.1297 51.8594 11.2973 52.5672 11.2973C53.2004 11.2973 53.7157 11.1793 54.113 10.9434C54.5228 10.7075 54.7277 10.3536 54.7277 9.8818C54.7277 9.57138 54.6345 9.31684 54.4483 9.11818C54.262 8.90709 53.9578 8.72705 53.5357 8.57805C53.1135 8.41663 52.474 8.21797 51.6173 7.98205C50.5991 7.7213 49.7982 7.47297 49.2147 7.23705C48.6311 6.98872 48.1406 6.61001 47.7433 6.10093C47.346 5.59184 47.1473 4.90272 47.1473 4.03355C47.1473 3.15197 47.3956 2.41317 47.8923 1.81717C48.389 1.20876 49.0408 0.761758 49.8479 0.476175C50.6674 0.178175 51.549 0.0291748 52.4927 0.0291748C54.0447 0.0291748 55.3237 0.364425 56.3294 1.03492C57.3352 1.69301 57.8629 2.7298 57.9125 4.1453H54.4855C54.4359 3.6238 54.2186 3.23267 53.8337 2.97193C53.4612 2.71117 52.9893 2.5808 52.4182 2.5808C51.9215 2.5808 51.4869 2.69255 51.1144 2.91605C50.7419 3.12713 50.5557 3.42513 50.5557 3.81005C50.5557 4.0708 50.6488 4.28809 50.835 4.46193C51.0213 4.62334 51.2696 4.75372 51.58 4.85305C51.9029 4.95238 52.3809 5.08276 53.0142 5.24418C54.1689 5.51734 55.1188 5.82155 55.8638 6.1568C56.6212 6.49205 57.211 6.94526 57.6332 7.51643C58.0677 8.07518 58.285 8.79534 58.285 9.67693C58.285 11.1297 57.7263 12.1913 56.6088 12.8618C55.5037 13.5199 54.1006 13.8489 52.3995 13.8489Z" fill="url(#paint4_linear)"/>
<path d="M2 18L58 18" stroke="url(#paint5_linear)" stroke-width="2.23845" stroke-linecap="round"/>
<defs>
<linearGradient id="paint0_linear" x1="-10.5" y1="16.5" x2="71.5" y2="2.49319e-07" gradientUnits="userSpaceOnUse">
<stop stop-color="#E57BFF"/>
<stop offset="1" stop-color="#45FAFA"/>
</linearGradient>
<linearGradient id="paint1_linear" x1="-10.5" y1="16.5" x2="71.5" y2="2.49319e-07" gradientUnits="userSpaceOnUse">
<stop stop-color="#E57BFF"/>
<stop offset="1" stop-color="#45FAFA"/>
</linearGradient>
<linearGradient id="paint2_linear" x1="-10.5" y1="16.5" x2="71.5" y2="2.49319e-07" gradientUnits="userSpaceOnUse">
<stop stop-color="#E57BFF"/>
<stop offset="1" stop-color="#45FAFA"/>
</linearGradient>
<linearGradient id="paint3_linear" x1="-10.5" y1="16.5" x2="71.5" y2="2.49319e-07" gradientUnits="userSpaceOnUse">
<stop stop-color="#E57BFF"/>
<stop offset="1" stop-color="#45FAFA"/>
</linearGradient>
<linearGradient id="paint4_linear" x1="-10.5" y1="16.5" x2="71.5" y2="2.49319e-07" gradientUnits="userSpaceOnUse">
<stop stop-color="#E57BFF"/>
<stop offset="1" stop-color="#45FAFA"/>
</linearGradient>
<linearGradient id="paint5_linear" x1="2" y1="19" x2="58.0035" y2="18.7368" gradientUnits="userSpaceOnUse">
<stop stop-color="#CC90FF"/>
<stop offset="1" stop-color="#61E4FB"/>
</linearGradient>
</defs>
</svg>
