<svg width="58" height="14" viewBox="0 0 58 14" fill="none" xmlns="http://www.w3.org/2000/svg">
<path d="M5.87377 13.8489C4.40861 13.8489 3.11107 13.5137 1.98115 12.8432C0.851232 12.1727 0.273857 10.9807 0.249023 9.26718H3.69465C3.7319 9.93768 3.9554 10.4468 4.36515 10.7944C4.7749 11.1297 5.33365 11.2973 6.0414 11.2973C6.67465 11.2973 7.18994 11.1793 7.58727 10.9434C7.99702 10.7075 8.2019 10.3536 8.2019 9.8818C8.2019 9.57138 8.10877 9.31684 7.92252 9.11818C7.73627 8.90709 7.43207 8.72705 7.0099 8.57805C6.58773 8.41663 5.94827 8.21797 5.09152 7.98205C4.07336 7.7213 3.27248 7.47297 2.6889 7.23705C2.10532 6.98872 1.61486 6.61001 1.21752 6.10093C0.82019 5.59184 0.621523 4.90272 0.621523 4.03355C0.621523 3.15197 0.869857 2.41317 1.36652 1.81717C1.86319 1.20876 2.51507 0.761758 3.32215 0.476175C4.14165 0.178175 5.02323 0.0291748 5.9669 0.0291748C7.51898 0.0291748 8.7979 0.364425 9.80365 1.03492C10.8094 1.69301 11.3371 2.7298 11.3868 4.1453H7.95977C7.91011 3.6238 7.69282 3.23267 7.3079 2.97193C6.9354 2.71117 6.46357 2.5808 5.8924 2.5808C5.39573 2.5808 4.96115 2.69255 4.58865 2.91605C4.21615 3.12713 4.0299 3.42513 4.0299 3.81005C4.0299 4.0708 4.12302 4.28809 4.30927 4.46193C4.49552 4.62334 4.74386 4.75372 5.05427 4.85305C5.37711 4.95238 5.85515 5.08276 6.4884 5.24418C7.64315 5.51734 8.59302 5.82155 9.33802 6.1568C10.0954 6.49205 10.6852 6.94526 11.1074 7.51643C11.542 8.07518 11.7593 8.79534 11.7593 9.67693C11.7593 11.1297 11.2005 12.1913 10.083 12.8618C8.97794 13.5199 7.57486 13.8489 5.87377 13.8489Z" fill="#96B5CC"/>
<path d="M23.4994 3.28855H19.7558V13.5509H16.1984V3.28855H12.4362V0.327174H23.4994V3.28855Z" fill="#96B5CC"/>
<path d="M30.8908 11.1297H26.6443L25.8807 13.5509H22.137L27.1658 0.327174H30.3507L35.3794 13.5509H31.6544L30.8908 11.1297ZM30.0899 8.6153L28.7862 4.46193H28.7489L27.4452 8.6153H30.0899Z" fill="#96B5CC"/>
<path d="M45.1073 3.28855H41.3637V13.5509H37.8063V3.28855H34.0441V0.327174H45.1073V3.28855Z" fill="#96B5CC"/>
<path d="M51.3995 13.8489C49.9344 13.8489 48.6368 13.5137 47.5069 12.8432C46.377 12.1727 45.7996 10.9807 45.7748 9.26718H49.2204C49.2577 9.93768 49.4812 10.4468 49.8909 10.7944C50.3007 11.1297 50.8594 11.2973 51.5672 11.2973C52.2004 11.2973 52.7157 11.1793 53.113 10.9434C53.5228 10.7075 53.7277 10.3536 53.7277 9.8818C53.7277 9.57138 53.6345 9.31684 53.4483 9.11818C53.262 8.90709 52.9578 8.72705 52.5357 8.57805C52.1135 8.41663 51.474 8.21797 50.6173 7.98205C49.5991 7.7213 48.7982 7.47297 48.2147 7.23705C47.6311 6.98872 47.1406 6.61001 46.7433 6.10093C46.346 5.59184 46.1473 4.90272 46.1473 4.03355C46.1473 3.15197 46.3956 2.41317 46.8923 1.81717C47.389 1.20876 48.0408 0.761758 48.8479 0.476175C49.6674 0.178175 50.549 0.0291748 51.4927 0.0291748C53.0447 0.0291748 54.3237 0.364425 55.3294 1.03492C56.3352 1.69301 56.8629 2.7298 56.9125 4.1453H53.4855C53.4359 3.6238 53.2186 3.23267 52.8337 2.97193C52.4612 2.71117 51.9893 2.5808 51.4182 2.5808C50.9215 2.5808 50.4869 2.69255 50.1144 2.91605C49.7419 3.12713 49.5557 3.42513 49.5557 3.81005C49.5557 4.0708 49.6488 4.28809 49.835 4.46193C50.0213 4.62334 50.2696 4.75372 50.58 4.85305C50.9029 4.95238 51.3809 5.08276 52.0142 5.24418C53.1689 5.51734 54.1188 5.82155 54.8638 6.1568C55.6212 6.49205 56.211 6.94526 56.6332 7.51643C57.0677 8.07518 57.285 8.79534 57.285 9.67693C57.285 11.1297 56.7263 12.1913 55.6088 12.8618C54.5037 13.5199 53.1006 13.8489 51.3995 13.8489Z" fill="#96B5CC"/>
</svg>
