<svg width="188" height="66" viewBox="0 0 188 66" fill="none" xmlns="http://www.w3.org/2000/svg">
<rect x="0.85791" y="0.583374" width="186.25" height="64.5667" rx="2.48333" fill="#10212E"/>
<rect x="0.85791" y="0.583374" width="132.336" height="64.5667" rx="2.48333" fill="#193347"/>
<path d="M147.338 28.961V38.6584H145.658V30.8595L143.281 31.9932V30.4771L146.409 28.961H147.338ZM152.072 38.8497C151.771 38.8497 151.512 38.7404 151.293 38.5219C151.075 38.3033 150.966 38.0438 150.966 37.7433C150.966 37.4338 151.075 37.1742 151.293 36.9648C151.512 36.7463 151.771 36.637 152.072 36.637C152.382 36.637 152.641 36.7463 152.851 36.9648C153.069 37.1742 153.178 37.4338 153.178 37.7433C153.178 38.0438 153.069 38.3033 152.851 38.5219C152.641 38.7404 152.382 38.8497 152.072 38.8497ZM152.072 33.7278C151.771 33.7278 151.512 33.6185 151.293 33.4C151.075 33.1815 150.966 32.9219 150.966 32.6215C150.966 32.3119 151.075 32.0524 151.293 31.8429C151.512 31.6244 151.771 31.5151 152.072 31.5151C152.382 31.5151 152.641 31.6244 152.851 31.8429C153.069 32.0524 153.178 32.3119 153.178 32.6215C153.178 32.9219 153.069 33.1815 152.851 33.4C152.641 33.6185 152.382 33.7278 152.072 33.7278ZM158.398 38.877C157.369 38.877 156.549 38.5765 155.939 37.9755C155.329 37.3746 155.024 36.546 155.024 35.4897V32.1298C155.024 31.0735 155.329 30.2449 155.939 29.6439C156.549 29.043 157.369 28.7425 158.398 28.7425C159.427 28.7425 160.246 29.043 160.856 29.6439C161.466 30.2449 161.771 31.0735 161.771 32.1298V35.4897C161.771 36.546 161.466 37.3746 160.856 37.9755C160.246 38.5765 159.427 38.877 158.398 38.877ZM158.398 37.4838C158.971 37.4838 159.409 37.3154 159.709 36.9785C160.009 36.6416 160.16 36.1499 160.16 35.5034V32.1161C160.16 31.4696 160.009 30.9779 159.709 30.641C159.409 30.3041 158.971 30.1356 158.398 30.1356C157.824 30.1356 157.387 30.3041 157.087 30.641C156.786 30.9779 156.636 31.4696 156.636 32.1161V35.5034C156.636 36.1499 156.786 36.6416 157.087 36.9785C157.387 37.3154 157.824 37.4838 158.398 37.4838ZM166.751 32.3756C167.398 32.3756 167.949 32.5168 168.404 32.799C168.859 33.0813 169.201 33.4683 169.428 33.96C169.665 34.4426 169.784 34.9844 169.784 35.5853C169.784 36.2682 169.647 36.8601 169.374 37.3609C169.101 37.8526 168.714 38.2305 168.213 38.4945C167.721 38.7495 167.147 38.877 166.492 38.877C165.545 38.877 164.78 38.6402 164.197 38.1667C163.615 37.6842 163.323 36.9739 163.323 36.036H164.853C164.853 36.5004 165.003 36.8601 165.304 37.1151C165.604 37.3609 166.005 37.4838 166.506 37.4838C167.07 37.4838 167.498 37.3108 167.789 36.9648C168.081 36.6188 168.226 36.159 168.226 35.5853C168.226 34.957 168.058 34.4744 167.721 34.1375C167.393 33.8006 166.961 33.6322 166.424 33.6322C166.178 33.6322 165.914 33.6777 165.631 33.7688C165.358 33.8507 165.108 33.9736 164.88 34.1375H163.61V28.961H169.265V30.3542H165.044V32.7717C165.281 32.6533 165.549 32.5577 165.85 32.4849C166.15 32.412 166.451 32.3756 166.751 32.3756ZM175.283 31.5288C176.157 31.5288 176.84 31.852 177.331 32.4985C177.832 33.145 178.082 34.0283 178.082 35.1483C178.082 35.8858 177.96 36.5323 177.714 37.0877C177.468 37.6432 177.117 38.0711 176.662 38.3716C176.216 38.6721 175.697 38.8223 175.105 38.8223C174.24 38.8223 173.557 38.449 173.056 37.7024V41.3901H171.499V31.6927H172.879L173.015 32.7444C173.279 32.3437 173.607 32.0433 173.999 31.8429C174.399 31.6335 174.827 31.5288 175.283 31.5288ZM174.791 37.5521C175.301 37.5521 175.71 37.3427 176.02 36.9238C176.33 36.505 176.484 35.9131 176.484 35.1483C176.484 34.3743 176.339 33.7915 176.047 33.4C175.765 32.9993 175.369 32.799 174.859 32.799C174.631 32.799 174.377 32.8673 174.094 33.0039C173.821 33.1405 173.58 33.3863 173.37 33.7414C173.161 34.0966 173.056 34.5746 173.056 35.1756C173.056 35.7765 173.152 36.2546 173.343 36.6097C173.543 36.9648 173.776 37.2107 174.04 37.3472C174.304 37.4838 174.554 37.5521 174.791 37.5521Z" fill="white"/>
<path d="M25.7393 44.3536C26.4445 44.4728 26.976 44.7459 27.3336 45.1731C27.7011 45.6002 27.8849 46.1565 27.8849 46.8419C27.8849 47.7359 27.5819 48.466 26.976 49.0322C26.38 49.5884 25.5158 49.8666 24.3834 49.8666H19.4366V39.2876H23.8917C24.9744 39.2876 25.8485 39.4713 26.5141 39.8389C27.1895 40.2064 27.5273 40.8719 27.5273 41.8355C27.5273 43.0374 26.9313 43.8668 25.7393 44.3238V44.3536ZM25.7095 42.1782C25.7095 41.761 25.6101 41.453 25.4115 41.2544C25.2128 41.0458 24.9794 40.9166 24.7112 40.867C24.443 40.8074 24.1251 40.7776 23.7576 40.7776H21.2991V43.7427H23.7725C25.0638 43.7427 25.7095 43.2212 25.7095 42.1782ZM24.2344 48.3766C24.8105 48.3766 25.2575 48.2425 25.5754 47.9743C25.8932 47.7061 26.0522 47.3038 26.0522 46.7674C26.0522 46.2012 25.8684 45.7889 25.5009 45.5307C25.1333 45.2724 24.6416 45.1433 24.0258 45.1433H21.2991V48.3766H24.2344ZM31.0252 43.7576C31.6907 42.645 32.6145 42.1285 33.7966 42.208V43.8917C33.6178 43.8619 33.4489 43.847 33.29 43.847C32.6046 43.847 32.0582 44.0655 31.651 44.5026C31.2437 44.9297 31.0401 45.5406 31.0401 46.3353V49.8666H29.3415V42.2676H30.8464L31.0252 43.7576ZM37.8605 50.0454C37.046 50.0454 36.3556 49.8715 35.7894 49.5239C35.2232 49.1762 34.7961 48.7044 34.508 48.1084C34.2299 47.5124 34.0908 46.8319 34.0908 46.0671C34.0908 45.3022 34.2299 44.6218 34.508 44.0258C34.7862 43.4198 35.2083 42.948 35.7745 42.6103C36.3407 42.2626 37.0361 42.0888 37.8605 42.0888C38.6751 42.0888 39.3654 42.2626 39.9316 42.6103C40.4978 42.9579 40.92 43.4298 41.1981 44.0258C41.4763 44.6218 41.6153 45.3022 41.6153 46.0671C41.6153 46.8319 41.4713 47.5124 41.1832 48.1084C40.9051 48.7044 40.4829 49.1762 39.9167 49.5239C39.3605 49.8715 38.6751 50.0454 37.8605 50.0454ZM37.8605 48.6895C38.5062 48.6895 38.9979 48.4709 39.3356 48.0339C39.6833 47.5968 39.8571 46.9412 39.8571 46.0671C39.8571 45.1929 39.6833 44.5373 39.3356 44.1003C38.9979 43.6632 38.5062 43.4447 37.8605 43.4447C37.2049 43.4447 36.7033 43.6632 36.3556 44.1003C36.0179 44.5373 35.849 45.1929 35.849 46.0671C35.849 46.9412 36.0229 47.5968 36.3705 48.0339C36.7182 48.4709 37.2149 48.6895 37.8605 48.6895ZM47.2802 42.0888C47.9954 42.0888 48.5765 42.2924 49.0235 42.6997C49.4805 43.097 49.7089 43.6831 49.7089 44.4579V49.8666H48.0103V44.7857C48.0103 43.9215 47.5931 43.4894 46.7587 43.4894C46.4806 43.4894 46.1876 43.5589 45.8796 43.698C45.5717 43.8271 45.3035 44.0754 45.075 44.443C44.8466 44.8006 44.7323 45.2972 44.7323 45.933V49.8666H43.0337V42.2676H44.5386L44.6727 43.4298C44.9807 42.9927 45.3631 42.6599 45.82 42.4315C46.277 42.203 46.7637 42.0888 47.2802 42.0888ZM54.8843 50.0454C54.0797 50.0454 53.3943 49.8715 52.8281 49.5239C52.2718 49.1762 51.8496 48.7044 51.5616 48.1084C51.2834 47.5124 51.1444 46.8319 51.1444 46.0671C51.1444 45.3022 51.2834 44.6218 51.5616 44.0258C51.8496 43.4298 52.2718 42.9579 52.8281 42.6103C53.3943 42.2626 54.0797 42.0888 54.8843 42.0888C55.8776 42.0888 56.6673 42.3321 57.2534 42.8189C57.8394 43.3056 58.1722 43.9562 58.2517 44.7708H56.5978C56.419 43.8867 55.8577 43.4447 54.9141 43.4447C54.2783 43.4447 53.7817 43.6632 53.4241 44.1003C53.0764 44.5373 52.9026 45.1929 52.9026 46.0671C52.9026 46.9412 53.0764 47.5968 53.4241 48.0339C53.7817 48.4709 54.2783 48.6895 54.9141 48.6895C55.8577 48.6895 56.419 48.2474 56.5978 47.3634H58.2517C58.1722 48.1779 57.8394 48.8285 57.2534 49.3153C56.6673 49.802 55.8776 50.0454 54.8843 50.0454ZM63.0625 50.0454C62.248 50.0454 61.5576 49.8715 60.9914 49.5239C60.4252 49.1762 59.9981 48.7044 59.71 48.1084C59.4319 47.5124 59.2928 46.8319 59.2928 46.0671C59.2928 45.3022 59.4319 44.6218 59.71 44.0258C59.9881 43.4198 60.4103 42.948 60.9765 42.6103C61.5427 42.2626 62.238 42.0888 63.0625 42.0888C63.877 42.0888 64.5674 42.2626 65.1336 42.6103C65.6998 42.9579 66.122 43.4298 66.4001 44.0258C66.6782 44.6218 66.8173 45.3022 66.8173 46.0671C66.8173 46.8319 66.6733 47.5124 66.3852 48.1084C66.1071 48.7044 65.6849 49.1762 65.1187 49.5239C64.5624 49.8715 63.877 50.0454 63.0625 50.0454ZM63.0625 48.6895C63.7082 48.6895 64.1999 48.4709 64.5376 48.0339C64.8853 47.5968 65.0591 46.9412 65.0591 46.0671C65.0591 45.1929 64.8853 44.5373 64.5376 44.1003C64.1999 43.6632 63.7082 43.4447 63.0625 43.4447C62.4069 43.4447 61.9053 43.6632 61.5576 44.1003C61.2199 44.5373 61.051 45.1929 61.051 46.0671C61.051 46.9412 61.2248 47.5968 61.5725 48.0339C61.9202 48.4709 62.4168 48.6895 63.0625 48.6895ZM71.0071 50.0454C69.974 50.0454 69.1744 49.8219 68.6082 49.3749C68.042 48.9279 67.7589 48.317 67.7589 47.5422H69.5171C69.527 47.8898 69.6611 48.1779 69.9194 48.4064C70.1876 48.6249 70.5849 48.7342 71.1114 48.7342C71.5882 48.7342 71.9557 48.6547 72.214 48.4958C72.4723 48.3269 72.6014 48.0786 72.6014 47.7508C72.6014 47.5223 72.5368 47.3435 72.4077 47.2144C72.2786 47.0753 72.1047 46.971 71.8862 46.9015C71.6776 46.822 71.3597 46.7326 70.9326 46.6333L70.5452 46.5439C70.0585 46.4247 69.6413 46.2955 69.2936 46.1565C68.9559 46.0174 68.6579 45.7989 68.3996 45.5009C68.1513 45.2029 68.0271 44.8155 68.0271 44.3387C68.0271 43.6334 68.3052 43.0821 68.8615 42.6848C69.4178 42.2874 70.1479 42.0888 71.0518 42.0888C71.9955 42.0888 72.7355 42.3023 73.2719 42.7295C73.8083 43.1467 74.1113 43.7178 74.1808 44.443L72.4524 44.4281C72.3233 43.6831 71.8365 43.3106 70.9922 43.3106C70.6247 43.3106 70.3217 43.3851 70.0833 43.5341C69.8548 43.6731 69.7406 43.8718 69.7406 44.1301C69.7406 44.4281 69.8797 44.6466 70.1578 44.7857C70.4359 44.9247 70.868 45.0638 71.4541 45.2029C72.06 45.3419 72.5567 45.4909 72.9441 45.6499C73.3414 45.7989 73.6742 46.0273 73.9424 46.3353C74.2106 46.6432 74.3447 47.0554 74.3447 47.572C74.3447 48.3269 74.0318 48.9279 73.406 49.3749C72.7802 49.8219 71.9806 50.0454 71.0071 50.0454Z" fill="white"/>
<path d="M23.996 27.7549C22.8934 27.7549 21.9596 27.5165 21.1948 27.0397C20.4398 26.5529 19.8687 25.8924 19.4813 25.058C19.1038 24.2236 18.9151 23.2799 18.9151 22.227C18.9151 21.174 19.1038 20.2304 19.4813 19.396C19.8687 18.5616 20.4398 17.906 21.1948 17.4292C21.9596 16.9424 22.8934 16.6991 23.996 16.6991C24.7509 16.6991 25.4462 16.8332 26.082 17.1014C26.7276 17.3696 27.2591 17.7768 27.6763 18.3232C28.1034 18.8596 28.3617 19.5251 28.4511 20.3198H26.5886C26.5091 19.6344 26.2359 19.1129 25.7691 18.7553C25.3022 18.3977 24.7012 18.2189 23.9662 18.2189C22.9331 18.2189 22.1434 18.5814 21.5971 19.3066C21.0507 20.0317 20.7776 21.0052 20.7776 22.227C20.7776 23.4488 21.0507 24.4222 21.5971 25.1474C22.1434 25.8725 22.9331 26.2351 23.9662 26.2351C24.7012 26.2351 25.3022 26.0563 25.7691 25.6987C26.2359 25.3411 26.5091 24.8196 26.5886 24.1342H28.4511C28.3617 24.9288 28.1034 25.5993 27.6763 26.1457C27.2591 26.6821 26.7276 27.0844 26.082 27.3526C25.4462 27.6208 24.7509 27.7549 23.996 27.7549ZM34.1118 19.7387C34.827 19.7387 35.4081 19.9423 35.8551 20.3496C36.312 20.7469 36.5405 21.333 36.5405 22.1078V27.5165H34.8419V22.4356C34.8419 21.5714 34.4247 21.1393 33.5903 21.1393C33.3122 21.1393 33.0191 21.2088 32.7112 21.3479C32.4033 21.477 32.1351 21.7253 31.9066 22.0929C31.6781 22.4505 31.5639 22.9471 31.5639 23.5829V27.5165H29.8653V16.6395H31.5639V21.0052C31.8718 20.5979 32.2443 20.285 32.6814 20.0665C33.1284 19.8479 33.6052 19.7387 34.1118 19.7387ZM44.4872 25.3411C44.4872 25.6788 44.5369 25.9222 44.6362 26.0712C44.7355 26.2102 44.9243 26.2798 45.2024 26.2798L45.1279 27.5165C44.9094 27.5463 44.7107 27.5612 44.5319 27.5612C44.0551 27.5612 43.6925 27.4569 43.4442 27.2483C43.1959 27.0297 43.0518 26.7268 43.0121 26.3394H42.9972C42.6992 26.8062 42.3317 27.1489 41.8946 27.3675C41.4575 27.586 40.941 27.6953 40.345 27.6953C39.6298 27.6953 39.0487 27.5065 38.6017 27.1291C38.1547 26.7417 37.9312 26.2003 37.9312 25.505C37.9312 24.5712 38.3236 23.9206 39.1083 23.5531C39.893 23.1855 40.8466 23.0018 41.9691 23.0018C42.1678 23.0018 42.4459 23.0117 42.8035 23.0316V22.3015C42.8035 21.8445 42.6843 21.5167 42.4459 21.3181C42.2075 21.1095 41.84 21.0052 41.3433 21.0052C40.8268 21.0052 40.4294 21.1244 40.1513 21.3628C39.8732 21.6012 39.7341 21.8892 39.7341 22.227H38.0951C38.0951 21.7402 38.2342 21.3081 38.5123 20.9307C38.8004 20.5532 39.1927 20.2602 39.6894 20.0516C40.196 19.843 40.7622 19.7387 41.388 19.7387C42.3416 19.7387 43.0965 19.9572 43.6528 20.3943C44.2091 20.8214 44.4872 21.4373 44.4872 22.2419V25.3411ZM40.8218 26.4288C41.3979 26.4288 41.8698 26.2549 42.2373 25.9073C42.6148 25.5497 42.8035 25.1176 42.8035 24.611V24.0597C42.6545 24.0497 42.4459 24.0448 42.1777 24.0448C41.3234 24.0448 40.6927 24.154 40.2854 24.3726C39.8881 24.5812 39.6894 24.9139 39.6894 25.3709C39.6894 25.7285 39.7887 25.9967 39.9874 26.1755C40.196 26.3443 40.4741 26.4288 40.8218 26.4288ZM48.0496 21.4075C48.7151 20.2949 49.6389 19.7784 50.821 19.8579V21.5416C50.6422 21.5118 50.4733 21.4969 50.3144 21.4969C49.629 21.4969 49.0826 21.7154 48.6754 22.1525C48.2681 22.5796 48.0645 23.1905 48.0645 23.9852V27.5165H46.3659V19.9175H47.8708L48.0496 21.4075ZM58.2971 19.9175V27.6655C58.2971 28.7681 57.9544 29.5528 57.269 30.0197C56.5836 30.4965 55.6846 30.7349 54.5721 30.7349C53.539 30.7349 52.7493 30.5114 52.203 30.0644C51.6566 29.6174 51.3835 29.0412 51.3835 28.336H53.0374C53.0473 28.6936 53.1864 28.9717 53.4546 29.1704C53.7327 29.379 54.1201 29.4833 54.6168 29.4833C55.9379 29.4833 56.5985 28.932 56.5985 27.8294V26.399C56.3104 26.8162 55.9528 27.1291 55.5257 27.3377C55.1085 27.5463 54.6565 27.6506 54.1698 27.6506C53.2162 27.6506 52.4662 27.3029 51.9199 26.6076C51.3835 25.9023 51.1153 24.9487 51.1153 23.7468C51.1153 22.9422 51.2444 22.2369 51.5027 21.631C51.7709 21.025 52.1483 20.5582 52.6351 20.2304C53.1218 19.9026 53.688 19.7387 54.3337 19.7387C55.3369 19.7387 56.1068 20.1757 56.6432 21.0499L56.7922 19.9175H58.2971ZM54.6317 26.2649C54.8899 26.2649 55.1681 26.1953 55.4661 26.0563C55.7641 25.9172 56.0273 25.6589 56.2558 25.2815C56.4842 24.8941 56.5985 24.3726 56.5985 23.717C56.5985 23.0614 56.4892 22.5399 56.2707 22.1525C56.0521 21.7651 55.7939 21.4969 55.4959 21.3479C55.2078 21.1989 54.9346 21.1244 54.6764 21.1244C54.13 21.1244 53.688 21.3528 53.3503 21.8098C53.0225 22.2667 52.8586 22.9124 52.8586 23.7468C52.8586 24.5613 53.0125 25.1871 53.3205 25.6242C53.6383 26.0513 54.0754 26.2649 54.6317 26.2649ZM63.2762 19.7387C64.0609 19.7387 64.7265 19.9224 65.2728 20.29C65.8191 20.6476 66.2264 21.1542 66.4946 21.8098C66.7727 22.4654 66.8969 23.2302 66.8671 24.1044H61.4584C61.4981 24.8692 61.6918 25.4404 62.0395 25.8179C62.3872 26.1953 62.854 26.3841 63.4401 26.3841C64.3043 26.3841 64.8655 26.0016 65.1238 25.2368H66.7032C66.5939 25.9818 66.2512 26.5778 65.6751 27.0248C65.1089 27.4718 64.3391 27.6953 63.3656 27.6953C62.5709 27.6953 61.8955 27.5214 61.3392 27.1738C60.7929 26.8261 60.3806 26.3543 60.1025 25.7583C59.8343 25.1623 59.7002 24.4818 59.7002 23.717C59.7002 22.962 59.8343 22.2866 60.1025 21.6906C60.3806 21.0846 60.7879 20.6078 61.3243 20.2602C61.8607 19.9125 62.5113 19.7387 63.2762 19.7387ZM63.306 21.0499C62.7994 21.0499 62.3822 21.2038 62.0544 21.5118C61.7365 21.8197 61.5428 22.2816 61.4733 22.8975H65.1238C65.0543 22.2816 64.8556 21.8197 64.5278 21.5118C64.2099 21.2038 63.8027 21.0499 63.306 21.0499ZM69.8175 21.4075C70.4831 20.2949 71.4069 19.7784 72.5889 19.8579V21.5416C72.4101 21.5118 72.2413 21.4969 72.0823 21.4969C71.3969 21.4969 70.8506 21.7154 70.4433 22.1525C70.0361 22.5796 69.8324 23.1905 69.8324 23.9852V27.5165H68.1338V19.9175H69.6387L69.8175 21.4075ZM76.2599 27.6953C75.2269 27.6953 74.4272 27.4718 73.861 27.0248C73.2948 26.5778 73.0117 25.9669 73.0117 25.1921H74.7699C74.7799 25.5397 74.914 25.8278 75.1722 26.0563C75.4404 26.2748 75.8378 26.3841 76.3642 26.3841C76.841 26.3841 77.2086 26.3046 77.4668 26.1457C77.7251 25.9768 77.8542 25.7285 77.8542 25.4007C77.8542 25.1722 77.7897 24.9934 77.6605 24.8643C77.5314 24.7252 77.3576 24.6209 77.139 24.5514C76.9304 24.4719 76.6126 24.3825 76.1854 24.2832L75.798 24.1938C75.3113 24.0746 74.8941 23.9454 74.5464 23.8064C74.2087 23.6673 73.9107 23.4488 73.6524 23.1508C73.4041 22.8528 73.2799 22.4654 73.2799 21.9886C73.2799 21.2833 73.5581 20.732 74.1143 20.3347C74.6706 19.9373 75.4007 19.7387 76.3046 19.7387C77.2483 19.7387 77.9883 19.9522 78.5247 20.3794C79.0611 20.7966 79.3641 21.3677 79.4336 22.0929L77.7052 22.078C77.5761 21.333 77.0894 20.9605 76.245 20.9605C75.8775 20.9605 75.5745 21.035 75.3361 21.184C75.1077 21.323 74.9934 21.5217 74.9934 21.78C74.9934 22.078 75.1325 22.2965 75.4106 22.4356C75.6888 22.5746 76.1209 22.7137 76.7069 22.8528C77.3129 22.9918 77.8095 23.1408 78.1969 23.2998C78.5943 23.4488 78.927 23.6772 79.1952 23.9852C79.4634 24.2931 79.5975 24.7053 79.5975 25.2219C79.5975 25.9768 79.2846 26.5778 78.6588 27.0248C78.033 27.4718 77.2334 27.6953 76.2599 27.6953Z" fill="white"/>
</svg>
