<svg width="190" height="67" viewBox="0 0 190 67" fill="none" xmlns="http://www.w3.org/2000/svg">
<rect x="2.16602" y="0.583374" width="186.25" height="64.5667" rx="2.48333" fill="#10212E"/>
<rect x="2.16602" y="0.583374" width="132.336" height="64.5667" rx="2.48333" fill="#193347"/>
<path d="M156.064 25.9636H160.891V27.4834H153.71V26.0828L157.718 22.3131C158.234 21.8264 158.612 21.4092 158.85 21.0615C159.098 20.7039 159.223 20.2966 159.223 19.8397C159.223 19.3331 159.064 18.9308 158.746 18.6328C158.438 18.3249 157.996 18.1709 157.42 18.1709C156.834 18.1709 156.357 18.3398 155.989 18.6775C155.622 19.0053 155.438 19.4722 155.438 20.0781H153.71C153.71 19.3828 153.864 18.7768 154.171 18.2603C154.489 17.7438 154.926 17.3464 155.483 17.0683C156.049 16.7902 156.695 16.6511 157.42 16.6511C158.115 16.6511 158.731 16.7852 159.267 17.0534C159.804 17.3117 160.216 17.6792 160.504 18.156C160.802 18.6229 160.951 19.1642 160.951 19.7801C160.951 20.2867 160.852 20.7536 160.653 21.1807C160.454 21.5979 160.231 21.9456 159.982 22.2237C159.744 22.4919 159.421 22.8147 159.014 23.1922L156.064 25.9636ZM170.064 25.3378H169.036V27.4834H167.218V25.3378H162.51V24.0117L167.322 16.9044H169.036V23.8478H170.064V25.3378ZM167.218 23.8478V19.5864L164.327 23.8478H167.218Z" fill="white"/>
<path d="M156.064 48.3135H160.891V49.8333H153.71V48.4327L157.718 44.663C158.234 44.1762 158.612 43.759 158.85 43.4114C159.098 43.0538 159.223 42.6465 159.223 42.1896C159.223 41.683 159.064 41.2807 158.746 40.9827C158.438 40.6747 157.996 40.5208 157.42 40.5208C156.834 40.5208 156.357 40.6896 155.989 41.0274C155.622 41.3552 155.438 41.822 155.438 42.428H153.71C153.71 41.7326 153.864 41.1267 154.171 40.6102C154.489 40.0936 154.926 39.6963 155.483 39.4182C156.049 39.14 156.695 39.001 157.42 39.001C158.115 39.001 158.731 39.1351 159.267 39.4033C159.804 39.6615 160.216 40.0291 160.504 40.5059C160.802 40.9727 160.951 41.5141 160.951 42.13C160.951 42.6366 160.852 43.1034 160.653 43.5306C160.454 43.9478 160.231 44.2954 159.982 44.5736C159.744 44.8418 159.421 45.1646 159.014 45.5421L156.064 48.3135ZM168.023 39.2543V49.8333H166.19V41.3254L163.597 42.5621V40.9082L167.009 39.2543H168.023Z" fill="white"/>
<path d="M24.5139 50.105C23.749 50.105 23.0338 49.9808 22.3683 49.7325C21.7127 49.4841 21.1763 49.0918 20.7591 48.5554C20.3419 48.009 20.1283 47.3187 20.1184 46.4843H21.9511C21.9809 47.1895 22.2292 47.7259 22.6961 48.0935C23.163 48.461 23.7838 48.6448 24.5586 48.6448C25.2639 48.6448 25.84 48.5107 26.287 48.2425C26.7439 47.9743 26.9724 47.5571 26.9724 46.9909C26.9724 46.6333 26.8681 46.3502 26.6595 46.1416C26.4509 45.923 26.1579 45.7442 25.7804 45.6052C25.4029 45.4562 24.8069 45.2625 23.9924 45.0241L23.6646 44.9347C22.9395 44.7261 22.3633 44.5324 21.9362 44.3536C21.519 44.1648 21.1713 43.8867 20.8932 43.5192C20.6151 43.1516 20.476 42.6649 20.476 42.059C20.476 41.4034 20.6548 40.8521 21.0124 40.4051C21.37 39.9481 21.8468 39.6104 22.4428 39.3919C23.0388 39.1634 23.6944 39.0492 24.4096 39.0492C25.5718 39.0492 26.5304 39.3223 27.2853 39.8687C28.0502 40.415 28.4624 41.2444 28.522 42.357H26.6893C26.6396 41.7312 26.4112 41.2693 26.0039 40.9713C25.6066 40.6633 25.0702 40.5094 24.3947 40.5094C23.7987 40.5094 23.2971 40.6335 22.8898 40.8819C22.4825 41.1302 22.2789 41.4928 22.2789 41.9696C22.2789 42.2477 22.3683 42.4762 22.5471 42.655C22.7259 42.8338 22.9494 42.9728 23.2176 43.0722C23.4957 43.1715 23.8732 43.2808 24.35 43.4L24.8715 43.549C25.8152 43.8072 26.5651 44.0754 27.1214 44.3536C27.6777 44.6218 28.0998 44.9595 28.3879 45.3668C28.676 45.774 28.82 46.2856 28.82 46.9015C28.82 47.9941 28.4127 48.8037 27.5982 49.3302C26.7936 49.8467 25.7655 50.105 24.5139 50.105ZM33.2834 48.615C33.5516 48.615 33.8198 48.5752 34.088 48.4958L33.9986 49.8219C33.5615 49.9311 33.189 49.9858 32.8811 49.9858C32.1659 49.9858 31.6295 49.802 31.2719 49.4345C30.9143 49.0669 30.7355 48.4709 30.7355 47.6465V43.5937H29.3796L29.4094 42.2676H30.7355L30.8845 39.9879H32.4341V42.2676H34.0731L34.0433 43.5937H32.4341V47.5571C32.4341 47.9544 32.4986 48.2325 32.6278 48.3915C32.7569 48.5405 32.9754 48.615 33.2834 48.615ZM38.5379 42.0888C39.3227 42.0888 39.9882 42.2725 40.5345 42.6401C41.0809 42.9977 41.4881 43.5043 41.7563 44.1599C42.0345 44.8155 42.1586 45.5803 42.1288 46.4545H36.7201C36.7599 47.2193 36.9536 47.7905 37.3012 48.168C37.6489 48.5454 38.1158 48.7342 38.7018 48.7342C39.566 48.7342 40.1273 48.3517 40.3855 47.5869H41.9649C41.8557 48.3319 41.513 48.9279 40.9368 49.3749C40.3706 49.8219 39.6008 50.0454 38.6273 50.0454C37.8327 50.0454 37.1572 49.8715 36.6009 49.5239C36.0546 49.1762 35.6424 48.7044 35.3642 48.1084C35.096 47.5124 34.9619 46.8319 34.9619 46.0671C34.9619 45.3121 35.096 44.6367 35.3642 44.0407C35.6424 43.4347 36.0496 42.9579 36.586 42.6103C37.1224 42.2626 37.7731 42.0888 38.5379 42.0888ZM38.5677 43.4C38.0611 43.4 37.6439 43.5539 37.3161 43.8619C36.9983 44.1698 36.8046 44.6317 36.735 45.2476H40.3855C40.316 44.6317 40.1173 44.1698 39.7895 43.8619C39.4717 43.5539 39.0644 43.4 38.5677 43.4ZM46.5991 42.0888C47.3838 42.0888 48.0493 42.2725 48.5957 42.6401C49.142 42.9977 49.5493 43.5043 49.8175 44.1599C50.0956 44.8155 50.2198 45.5803 50.19 46.4545H44.7813C44.821 47.2193 45.0147 47.7905 45.3624 48.168C45.71 48.5454 46.1769 48.7342 46.763 48.7342C47.6272 48.7342 48.1884 48.3517 48.4467 47.5869H50.0261C49.9168 48.3319 49.5741 48.9279 48.998 49.3749C48.4318 49.8219 47.6619 50.0454 46.6885 50.0454C45.8938 50.0454 45.2183 49.8715 44.6621 49.5239C44.1157 49.1762 43.7035 48.7044 43.4254 48.1084C43.1572 47.5124 43.0231 46.8319 43.0231 46.0671C43.0231 45.3121 43.1572 44.6367 43.4254 44.0407C43.7035 43.4347 44.1108 42.9579 44.6472 42.6103C45.1836 42.2626 45.8342 42.0888 46.5991 42.0888ZM46.6289 43.4C46.1223 43.4 45.7051 43.5539 45.3773 43.8619C45.0594 44.1698 44.8657 44.6317 44.7962 45.2476H48.4467C48.3771 44.6317 48.1785 44.1698 47.8507 43.8619C47.5328 43.5539 47.1255 43.4 46.6289 43.4ZM53.8407 49.8666C53.5427 49.9162 53.2993 49.9411 53.1106 49.9411C52.5444 49.9411 52.1272 49.7921 51.859 49.4941C51.5908 49.1861 51.4567 48.7093 51.4567 48.0637V38.9896H53.1553V47.6763C53.1553 48.0537 53.205 48.307 53.3043 48.4362C53.4036 48.5653 53.6073 48.6299 53.9152 48.6299L53.8407 49.8666ZM58.4143 42.0888C59.199 42.0888 59.8646 42.2725 60.4109 42.6401C60.9572 42.9977 61.3645 43.5043 61.6327 44.1599C61.9108 44.8155 62.035 45.5803 62.0052 46.4545H56.5965C56.6362 47.2193 56.8299 47.7905 57.1776 48.168C57.5253 48.5454 57.9921 48.7342 58.5782 48.7342C59.4424 48.7342 60.0036 48.3517 60.2619 47.5869H61.8413C61.732 48.3319 61.3893 48.9279 60.8132 49.3749C60.247 49.8219 59.4772 50.0454 58.5037 50.0454C57.709 50.0454 57.0336 49.8715 56.4773 49.5239C55.931 49.1762 55.5187 48.7044 55.2406 48.1084C54.9724 47.5124 54.8383 46.8319 54.8383 46.0671C54.8383 45.3121 54.9724 44.6367 55.2406 44.0407C55.5187 43.4347 55.926 42.9579 56.4624 42.6103C56.9988 42.2626 57.6494 42.0888 58.4143 42.0888ZM58.4441 43.4C57.9375 43.4 57.5203 43.5539 57.1925 43.8619C56.8746 44.1698 56.6809 44.6317 56.6114 45.2476H60.2619C60.1924 44.6317 59.9937 44.1698 59.6659 43.8619C59.348 43.5539 58.9408 43.4 58.4441 43.4ZM64.9556 43.7576C65.6212 42.645 66.545 42.1285 67.727 42.208V43.8917C67.5482 43.8619 67.3794 43.847 67.2204 43.847C66.535 43.847 65.9887 44.0655 65.5814 44.5026C65.1742 44.9297 64.9705 45.5406 64.9705 46.3353V49.8666H63.2719V42.2676H64.7768L64.9556 43.7576ZM71.398 50.0454C70.365 50.0454 69.5653 49.8219 68.9991 49.3749C68.4329 48.9279 68.1498 48.317 68.1498 47.5422H69.908C69.918 47.8898 70.0521 48.1779 70.3103 48.4064C70.5785 48.6249 70.9759 48.7342 71.5023 48.7342C71.9791 48.7342 72.3467 48.6547 72.6049 48.4958C72.8632 48.3269 72.9923 48.0786 72.9923 47.7508C72.9923 47.5223 72.9278 47.3435 72.7986 47.2144C72.6695 47.0753 72.4957 46.971 72.2771 46.9015C72.0685 46.822 71.7507 46.7326 71.3235 46.6333L70.9361 46.5439C70.4494 46.4247 70.0322 46.2955 69.6845 46.1565C69.3468 46.0174 69.0488 45.7989 68.7905 45.5009C68.5422 45.2029 68.418 44.8155 68.418 44.3387C68.418 43.6334 68.6962 43.0821 69.2524 42.6848C69.8087 42.2874 70.5388 42.0888 71.4427 42.0888C72.3864 42.0888 73.1264 42.3023 73.6628 42.7295C74.1992 43.1467 74.5022 43.7178 74.5717 44.443L72.8433 44.4281C72.7142 43.6831 72.2275 43.3106 71.3831 43.3106C71.0156 43.3106 70.7126 43.3851 70.4742 43.5341C70.2458 43.6731 70.1315 43.8718 70.1315 44.1301C70.1315 44.4281 70.2706 44.6466 70.5487 44.7857C70.8269 44.9247 71.259 45.0638 71.845 45.2029C72.451 45.3419 72.9476 45.4909 73.335 45.6499C73.7324 45.7989 74.0651 46.0273 74.3333 46.3353C74.6015 46.6432 74.7356 47.0554 74.7356 47.572C74.7356 48.3269 74.4227 48.9279 73.7969 49.3749C73.1711 49.8219 72.3715 50.0454 71.398 50.0454Z" fill="white"/>
<path d="M25.3036 27.7549C24.201 27.7549 23.2673 27.5165 22.5024 27.0397C21.7475 26.5529 21.1763 25.8924 20.7889 25.058C20.4114 24.2236 20.2227 23.2799 20.2227 22.227C20.2227 21.174 20.4114 20.2304 20.7889 19.396C21.1763 18.5616 21.7475 17.906 22.5024 17.4292C23.2673 16.9424 24.201 16.6991 25.3036 16.6991C26.0585 16.6991 26.7539 16.8332 27.3896 17.1014C28.0353 17.3696 28.5667 17.7768 28.9839 18.3232C29.411 18.8596 29.6693 19.5251 29.7587 20.3198H27.8962C27.8167 19.6344 27.5436 19.1129 27.0767 18.7553C26.6098 18.3977 26.0089 18.2189 25.2738 18.2189C24.2407 18.2189 23.451 18.5814 22.9047 19.3066C22.3584 20.0317 22.0852 21.0052 22.0852 22.227C22.0852 23.4488 22.3584 24.4222 22.9047 25.1474C23.451 25.8725 24.2407 26.2351 25.2738 26.2351C26.0089 26.2351 26.6098 26.0563 27.0767 25.6987C27.5436 25.3411 27.8167 24.8196 27.8962 24.1342H29.7587C29.6693 24.9288 29.411 25.5993 28.9839 26.1457C28.5667 26.6821 28.0353 27.0844 27.3896 27.3526C26.7539 27.6208 26.0585 27.7549 25.3036 27.7549ZM34.5701 27.6953C33.7556 27.6953 33.0652 27.5214 32.499 27.1738C31.9328 26.8261 31.5057 26.3543 31.2176 25.7583C30.9395 25.1623 30.8004 24.4818 30.8004 23.717C30.8004 22.9521 30.9395 22.2717 31.2176 21.6757C31.4957 21.0697 31.9179 20.5979 32.4841 20.2602C33.0503 19.9125 33.7456 19.7387 34.5701 19.7387C35.3846 19.7387 36.075 19.9125 36.6412 20.2602C37.2074 20.6078 37.6296 21.0797 37.9077 21.6757C38.1858 22.2717 38.3249 22.9521 38.3249 23.717C38.3249 24.4818 38.1809 25.1623 37.8928 25.7583C37.6147 26.3543 37.1925 26.8261 36.6263 27.1738C36.07 27.5214 35.3846 27.6953 34.5701 27.6953ZM34.5701 26.3394C35.2158 26.3394 35.7075 26.1208 36.0452 25.6838C36.3929 25.2467 36.5667 24.5911 36.5667 23.717C36.5667 22.8428 36.3929 22.1872 36.0452 21.7502C35.7075 21.3131 35.2158 21.0946 34.5701 21.0946C33.9145 21.0946 33.4129 21.3131 33.0652 21.7502C32.7275 22.1872 32.5586 22.8428 32.5586 23.717C32.5586 24.5911 32.7324 25.2467 33.0801 25.6838C33.4278 26.1208 33.9244 26.3394 34.5701 26.3394ZM42.1273 27.5165C41.8293 27.5661 41.586 27.591 41.3972 27.591C40.831 27.591 40.4138 27.442 40.1456 27.144C39.8774 26.836 39.7433 26.3592 39.7433 25.7136V16.6395H41.4419V25.3262C41.4419 25.7036 41.4916 25.9569 41.5909 26.0861C41.6903 26.2152 41.8939 26.2798 42.2018 26.2798L42.1273 27.5165ZM46.6264 26.2649C46.8946 26.2649 47.1628 26.2251 47.431 26.1457L47.3416 27.4718C46.9046 27.581 46.5321 27.6357 46.2241 27.6357C45.5089 27.6357 44.9725 27.4519 44.6149 27.0844C44.2573 26.7168 44.0785 26.1208 44.0785 25.2964V21.2436H42.7226L42.7524 19.9175H44.0785L44.2275 17.6378H45.7771V19.9175H47.4161L47.3863 21.2436H45.7771V25.207C45.7771 25.6043 45.8417 25.8824 45.9708 26.0414C46.1 26.1904 46.3185 26.2649 46.6264 26.2649ZM51.4489 27.6953C50.4158 27.6953 49.6162 27.4718 49.05 27.0248C48.4838 26.5778 48.2007 25.9669 48.2007 25.1921H49.9589C49.9688 25.5397 50.1029 25.8278 50.3612 26.0563C50.6294 26.2748 51.0267 26.3841 51.5532 26.3841C52.03 26.3841 52.3975 26.3046 52.6558 26.1457C52.9141 25.9768 53.0432 25.7285 53.0432 25.4007C53.0432 25.1722 52.9786 24.9934 52.8495 24.8643C52.7204 24.7252 52.5465 24.6209 52.328 24.5514C52.1194 24.4719 51.8015 24.3825 51.3744 24.2832L50.987 24.1938C50.5003 24.0746 50.0831 23.9454 49.7354 23.8064C49.3977 23.6673 49.0997 23.4488 48.8414 23.1508C48.5931 22.8528 48.4689 22.4654 48.4689 21.9886C48.4689 21.2833 48.747 20.732 49.3033 20.3347C49.8596 19.9373 50.5897 19.7387 51.4936 19.7387C52.4373 19.7387 53.1773 19.9522 53.7137 20.3794C54.2501 20.7966 54.5531 21.3677 54.6226 22.0929L52.8942 22.078C52.7651 21.333 52.2783 20.9605 51.434 20.9605C51.0665 20.9605 50.7635 21.035 50.5251 21.184C50.2966 21.323 50.1824 21.5217 50.1824 21.78C50.1824 22.078 50.3215 22.2965 50.5996 22.4356C50.8777 22.5746 51.3098 22.7137 51.8959 22.8528C52.5018 22.9918 52.9985 23.1408 53.3859 23.2998C53.7832 23.4488 54.116 23.6772 54.3842 23.9852C54.6524 24.2931 54.7865 24.7053 54.7865 25.2219C54.7865 25.9768 54.4736 26.5778 53.8478 27.0248C53.222 27.4718 52.4224 27.6953 51.4489 27.6953Z" fill="white"/>
<path d="M2.08301 65L188.333 65" stroke="#F96E8F" stroke-width="2.48333" stroke-linecap="round"/>
</svg>
