<svg width="192" height="70" viewBox="0 0 192 70" fill="none" xmlns="http://www.w3.org/2000/svg">
<rect x="1.84134" y="1.34171" width="188.733" height="67.05" rx="3.725" fill="#10212E" stroke="url(#paint0_linear)" stroke-width="2.48333"/>
<rect x="3.08301" y="2.58337" width="132.336" height="64.5667" rx="2.48333" fill="#193347"/>
<path d="M156.981 27.9636H161.808V29.4834H154.627V28.0828L158.635 24.3131C159.151 23.8264 159.529 23.4092 159.767 23.0615C160.015 22.7039 160.14 22.2966 160.14 21.8397C160.14 21.3331 159.981 20.9308 159.663 20.6328C159.355 20.3249 158.913 20.1709 158.337 20.1709C157.751 20.1709 157.274 20.3398 156.906 20.6775C156.539 21.0053 156.355 21.4722 156.355 22.0781H154.627C154.627 21.3828 154.781 20.7768 155.088 20.2603C155.406 19.7438 155.843 19.3464 156.4 19.0683C156.966 18.7902 157.612 18.6511 158.337 18.6511C159.032 18.6511 159.648 18.7852 160.184 19.0534C160.721 19.3117 161.133 19.6792 161.421 20.156C161.719 20.6229 161.868 21.1642 161.868 21.7801C161.868 22.2867 161.769 22.7536 161.57 23.1807C161.371 23.5979 161.148 23.9456 160.899 24.2237C160.661 24.4919 160.338 24.8147 159.931 25.1922L156.981 27.9636ZM170.981 27.3378H169.953V29.4834H168.135V27.3378H163.427V26.0117L168.239 18.9044H169.953V25.8478H170.981V27.3378ZM168.135 25.8478V21.5864L165.244 25.8478H168.135Z" fill="white"/>
<path d="M160.005 41.2543V51.8333H158.173V43.3254L155.58 44.5621V42.9082L158.992 41.2543H160.005ZM170.981 49.6877H169.953V51.8333H168.135V49.6877H163.427V48.3616L168.239 41.2543H169.953V48.1977H170.981V49.6877ZM168.135 48.1977V43.9363L165.244 48.1977H168.135Z" fill="white"/>
<path d="M25.4309 52.105C24.666 52.105 23.9508 51.9808 23.2853 51.7325C22.6297 51.4841 22.0933 51.0918 21.6761 50.5554C21.2589 50.009 21.0453 49.3187 21.0354 48.4843H22.8681C22.8979 49.1895 23.1462 49.7259 23.6131 50.0935C24.0799 50.461 24.7008 50.6448 25.4756 50.6448C26.1808 50.6448 26.757 50.5107 27.204 50.2425C27.6609 49.9743 27.8894 49.5571 27.8894 48.9909C27.8894 48.6333 27.7851 48.3502 27.5765 48.1416C27.3679 47.923 27.0748 47.7442 26.6974 47.6052C26.3199 47.4562 25.7239 47.2625 24.9094 47.0241L24.5816 46.9347C23.8564 46.7261 23.2803 46.5324 22.8532 46.3536C22.436 46.1648 22.0883 45.8867 21.8102 45.5192C21.532 45.1516 21.393 44.6649 21.393 44.059C21.393 43.4034 21.5718 42.8521 21.9294 42.4051C22.287 41.9481 22.7638 41.6104 23.3598 41.3919C23.9558 41.1634 24.6114 41.0492 25.3266 41.0492C26.4888 41.0492 27.4473 41.3223 28.2023 41.8687C28.9671 42.415 29.3794 43.2444 29.439 44.357H27.6063C27.5566 43.7312 27.3281 43.2693 26.9209 42.9713C26.5235 42.6633 25.9871 42.5094 25.3117 42.5094C24.7157 42.5094 24.214 42.6335 23.8068 42.8819C23.3995 43.1302 23.1959 43.4928 23.1959 43.9696C23.1959 44.2477 23.2853 44.4762 23.4641 44.655C23.6429 44.8338 23.8664 44.9728 24.1346 45.0722C24.4127 45.1715 24.7902 45.2808 25.267 45.4L25.7885 45.549C26.7321 45.8072 27.4821 46.0754 28.0384 46.3536C28.5946 46.6218 29.0168 46.9595 29.3049 47.3668C29.5929 47.774 29.737 48.2856 29.737 48.9015C29.737 49.9941 29.3297 50.8037 28.5152 51.3302C27.7106 51.8467 26.6825 52.105 25.4309 52.105ZM34.2003 50.615C34.4685 50.615 34.7367 50.5752 35.0049 50.4958L34.9155 51.8219C34.4785 51.9311 34.106 51.9858 33.798 51.9858C33.0828 51.9858 32.5464 51.802 32.1888 51.4345C31.8312 51.0669 31.6524 50.4709 31.6524 49.6465V45.5937H30.2965L30.3263 44.2676H31.6524L31.8014 41.9879H33.351V44.2676H34.99L34.9602 45.5937H33.351V49.5571C33.351 49.9544 33.4156 50.2325 33.5447 50.3915C33.6739 50.5405 33.8924 50.615 34.2003 50.615ZM39.4549 44.0888C40.2397 44.0888 40.9052 44.2725 41.4515 44.6401C41.9979 44.9977 42.4051 45.5043 42.6733 46.1599C42.9515 46.8155 43.0756 47.5803 43.0458 48.4545H37.6371C37.6769 49.2193 37.8706 49.7905 38.2182 50.168C38.5659 50.5454 39.0328 50.7342 39.6188 50.7342C40.483 50.7342 41.0443 50.3517 41.3025 49.5869H42.8819C42.7727 50.3319 42.43 50.9279 41.8538 51.3749C41.2876 51.8219 40.5178 52.0454 39.5443 52.0454C38.7497 52.0454 38.0742 51.8715 37.5179 51.5239C36.9716 51.1762 36.5594 50.7044 36.2812 50.1084C36.013 49.5124 35.8789 48.8319 35.8789 48.0671C35.8789 47.3121 36.013 46.6367 36.2812 46.0407C36.5594 45.4347 36.9666 44.9579 37.503 44.6103C38.0394 44.2626 38.6901 44.0888 39.4549 44.0888ZM39.4847 45.4C38.9781 45.4 38.5609 45.5539 38.2331 45.8619C37.9153 46.1698 37.7216 46.6317 37.652 47.2476H41.3025C41.233 46.6317 41.0343 46.1698 40.7065 45.8619C40.3887 45.5539 39.9814 45.4 39.4847 45.4ZM47.5161 44.0888C48.3008 44.0888 48.9663 44.2725 49.5127 44.6401C50.059 44.9977 50.4663 45.5043 50.7345 46.1599C51.0126 46.8155 51.1368 47.5803 51.107 48.4545H45.6983C45.738 49.2193 45.9317 49.7905 46.2794 50.168C46.627 50.5454 47.0939 50.7342 47.68 50.7342C48.5442 50.7342 49.1054 50.3517 49.3637 49.5869H50.9431C50.8338 50.3319 50.4911 50.9279 49.915 51.3749C49.3488 51.8219 48.5789 52.0454 47.6055 52.0454C46.8108 52.0454 46.1353 51.8715 45.5791 51.5239C45.0327 51.1762 44.6205 50.7044 44.3424 50.1084C44.0742 49.5124 43.9401 48.8319 43.9401 48.0671C43.9401 47.3121 44.0742 46.6367 44.3424 46.0407C44.6205 45.4347 45.0278 44.9579 45.5642 44.6103C46.1006 44.2626 46.7512 44.0888 47.5161 44.0888ZM47.5459 45.4C47.0393 45.4 46.6221 45.5539 46.2943 45.8619C45.9764 46.1698 45.7827 46.6317 45.7132 47.2476H49.3637C49.2941 46.6317 49.0955 46.1698 48.7677 45.8619C48.4498 45.5539 48.0425 45.4 47.5459 45.4ZM54.7577 51.8666C54.4597 51.9162 54.2163 51.9411 54.0276 51.9411C53.4614 51.9411 53.0442 51.7921 52.776 51.4941C52.5078 51.1861 52.3737 50.7093 52.3737 50.0637V40.9896H54.0723V49.6763C54.0723 50.0537 54.122 50.307 54.2213 50.4362C54.3206 50.5653 54.5243 50.6299 54.8322 50.6299L54.7577 51.8666ZM59.3313 44.0888C60.116 44.0888 60.7816 44.2725 61.3279 44.6401C61.8742 44.9977 62.2815 45.5043 62.5497 46.1599C62.8278 46.8155 62.952 47.5803 62.9222 48.4545H57.5135C57.5532 49.2193 57.7469 49.7905 58.0946 50.168C58.4423 50.5454 58.9091 50.7342 59.4952 50.7342C60.3594 50.7342 60.9206 50.3517 61.1789 49.5869H62.7583C62.649 50.3319 62.3063 50.9279 61.7302 51.3749C61.164 51.8219 60.3942 52.0454 59.4207 52.0454C58.626 52.0454 57.9506 51.8715 57.3943 51.5239C56.848 51.1762 56.4357 50.7044 56.1576 50.1084C55.8894 49.5124 55.7553 48.8319 55.7553 48.0671C55.7553 47.3121 55.8894 46.6367 56.1576 46.0407C56.4357 45.4347 56.843 44.9579 57.3794 44.6103C57.9158 44.2626 58.5664 44.0888 59.3313 44.0888ZM59.3611 45.4C58.8545 45.4 58.4373 45.5539 58.1095 45.8619C57.7916 46.1698 57.5979 46.6317 57.5284 47.2476H61.1789C61.1094 46.6317 60.9107 46.1698 60.5829 45.8619C60.265 45.5539 59.8578 45.4 59.3611 45.4ZM65.8726 45.7576C66.5382 44.645 67.462 44.1285 68.644 44.208V45.8917C68.4652 45.8619 68.2964 45.847 68.1374 45.847C67.452 45.847 66.9057 46.0655 66.4984 46.5026C66.0912 46.9297 65.8875 47.5406 65.8875 48.3353V51.8666H64.1889V44.2676H65.6938L65.8726 45.7576ZM72.315 52.0454C71.2819 52.0454 70.4823 51.8219 69.9161 51.3749C69.3499 50.9279 69.0668 50.317 69.0668 49.5422H70.825C70.8349 49.8898 70.969 50.1779 71.2273 50.4064C71.4955 50.6249 71.8928 50.7342 72.4193 50.7342C72.8961 50.7342 73.2636 50.6547 73.5219 50.4958C73.7802 50.3269 73.9093 50.0786 73.9093 49.7508C73.9093 49.5223 73.8447 49.3435 73.7156 49.2144C73.5865 49.0753 73.4126 48.971 73.1941 48.9015C72.9855 48.822 72.6676 48.7326 72.2405 48.6333L71.8531 48.5439C71.3664 48.4247 70.9492 48.2955 70.6015 48.1565C70.2638 48.0174 69.9658 47.7989 69.7075 47.5009C69.4592 47.2029 69.335 46.8155 69.335 46.3387C69.335 45.6334 69.6131 45.0821 70.1694 44.6848C70.7257 44.2874 71.4558 44.0888 72.3597 44.0888C73.3034 44.0888 74.0434 44.3023 74.5798 44.7295C75.1162 45.1467 75.4192 45.7178 75.4887 46.443L73.7603 46.4281C73.6312 45.6831 73.1444 45.3106 72.3001 45.3106C71.9326 45.3106 71.6296 45.3851 71.3912 45.5341C71.1627 45.6731 71.0485 45.8718 71.0485 46.1301C71.0485 46.4281 71.1876 46.6466 71.4657 46.7857C71.7438 46.9247 72.1759 47.0638 72.762 47.2029C73.3679 47.3419 73.8646 47.4909 74.252 47.6499C74.6493 47.7989 74.9821 48.0273 75.2503 48.3353C75.5185 48.6432 75.6526 49.0554 75.6526 49.572C75.6526 50.3269 75.3397 50.9279 74.7139 51.3749C74.0881 51.8219 73.2885 52.0454 72.315 52.0454Z" fill="white"/>
<path d="M26.2206 29.7549C25.118 29.7549 24.1842 29.5165 23.4194 29.0397C22.6644 28.5529 22.0933 27.8924 21.7059 27.058C21.3284 26.2236 21.1397 25.2799 21.1397 24.227C21.1397 23.174 21.3284 22.2304 21.7059 21.396C22.0933 20.5616 22.6644 19.906 23.4194 19.4292C24.1842 18.9424 25.118 18.6991 26.2206 18.6991C26.9755 18.6991 27.6708 18.8332 28.3066 19.1014C28.9522 19.3696 29.4837 19.7768 29.9009 20.3232C30.328 20.8596 30.5863 21.5251 30.6757 22.3198H28.8132C28.7337 21.6344 28.4605 21.1129 27.9937 20.7553C27.5268 20.3977 26.9258 20.2189 26.1908 20.2189C25.1577 20.2189 24.368 20.5814 23.8217 21.3066C23.2753 22.0317 23.0022 23.0052 23.0022 24.227C23.0022 25.4488 23.2753 26.4222 23.8217 27.1474C24.368 27.8725 25.1577 28.2351 26.1908 28.2351C26.9258 28.2351 27.5268 28.0563 27.9937 27.6987C28.4605 27.3411 28.7337 26.8196 28.8132 26.1342H30.6757C30.5863 26.9288 30.328 27.5993 29.9009 28.1457C29.4837 28.6821 28.9522 29.0844 28.3066 29.3526C27.6708 29.6208 26.9755 29.7549 26.2206 29.7549ZM35.4871 29.6953C34.6726 29.6953 33.9822 29.5214 33.416 29.1738C32.8498 28.8261 32.4227 28.3543 32.1346 27.7583C31.8565 27.1623 31.7174 26.4818 31.7174 25.717C31.7174 24.9521 31.8565 24.2717 32.1346 23.6757C32.4127 23.0697 32.8349 22.5979 33.4011 22.2602C33.9673 21.9125 34.6626 21.7387 35.4871 21.7387C36.3016 21.7387 36.992 21.9125 37.5582 22.2602C38.1244 22.6078 38.5466 23.0797 38.8247 23.6757C39.1028 24.2717 39.2419 24.9521 39.2419 25.717C39.2419 26.4818 39.0979 27.1623 38.8098 27.7583C38.5317 28.3543 38.1095 28.8261 37.5433 29.1738C36.987 29.5214 36.3016 29.6953 35.4871 29.6953ZM35.4871 28.3394C36.1328 28.3394 36.6245 28.1208 36.9622 27.6838C37.3099 27.2467 37.4837 26.5911 37.4837 25.717C37.4837 24.8428 37.3099 24.1872 36.9622 23.7502C36.6245 23.3131 36.1328 23.0946 35.4871 23.0946C34.8315 23.0946 34.3299 23.3131 33.9822 23.7502C33.6445 24.1872 33.4756 24.8428 33.4756 25.717C33.4756 26.5911 33.6494 27.2467 33.9971 27.6838C34.3448 28.1208 34.8414 28.3394 35.4871 28.3394ZM43.0443 29.5165C42.7463 29.5661 42.5029 29.591 42.3142 29.591C41.748 29.591 41.3308 29.442 41.0626 29.144C40.7944 28.836 40.6603 28.3592 40.6603 27.7136V18.6395H42.3589V27.3262C42.3589 27.7036 42.4086 27.9569 42.5079 28.0861C42.6072 28.2152 42.8109 28.2798 43.1188 28.2798L43.0443 29.5165ZM47.5434 28.2649C47.8116 28.2649 48.0798 28.2251 48.348 28.1457L48.2586 29.4718C47.8215 29.581 47.449 29.6357 47.1411 29.6357C46.4259 29.6357 45.8895 29.4519 45.5319 29.0844C45.1743 28.7168 44.9955 28.1208 44.9955 27.2964V23.2436H43.6396L43.6694 21.9175H44.9955L45.1445 19.6378H46.6941V21.9175H48.3331L48.3033 23.2436H46.6941V27.207C46.6941 27.6043 46.7587 27.8824 46.8878 28.0414C47.0169 28.1904 47.2355 28.2649 47.5434 28.2649ZM52.3659 29.6953C51.3328 29.6953 50.5332 29.4718 49.967 29.0248C49.4008 28.5778 49.1177 27.9669 49.1177 27.1921H50.8759C50.8858 27.5397 51.0199 27.8278 51.2782 28.0563C51.5464 28.2748 51.9437 28.3841 52.4702 28.3841C52.947 28.3841 53.3145 28.3046 53.5728 28.1457C53.8311 27.9768 53.9602 27.7285 53.9602 27.4007C53.9602 27.1722 53.8956 26.9934 53.7665 26.8643C53.6374 26.7252 53.4635 26.6209 53.245 26.5514C53.0364 26.4719 52.7185 26.3825 52.2914 26.2832L51.904 26.1938C51.4173 26.0746 51.0001 25.9454 50.6524 25.8064C50.3147 25.6673 50.0167 25.4488 49.7584 25.1508C49.5101 24.8528 49.3859 24.4654 49.3859 23.9886C49.3859 23.2833 49.664 22.732 50.2203 22.3347C50.7766 21.9373 51.5067 21.7387 52.4106 21.7387C53.3543 21.7387 54.0943 21.9522 54.6307 22.3794C55.1671 22.7966 55.4701 23.3677 55.5396 24.0929L53.8112 24.078C53.6821 23.333 53.1953 22.9605 52.351 22.9605C51.9835 22.9605 51.6805 23.035 51.4421 23.184C51.2136 23.323 51.0994 23.5217 51.0994 23.78C51.0994 24.078 51.2385 24.2965 51.5166 24.4356C51.7947 24.5746 52.2268 24.7137 52.8129 24.8528C53.4188 24.9918 53.9155 25.1408 54.3029 25.2998C54.7002 25.4488 55.033 25.6772 55.3012 25.9852C55.5694 26.2931 55.7035 26.7053 55.7035 27.2219C55.7035 27.9768 55.3906 28.5778 54.7648 29.0248C54.139 29.4718 53.3394 29.6953 52.3659 29.6953Z" fill="white"/>
<defs>
<linearGradient id="paint0_linear" x1="3.08301" y1="67.15" x2="43.0465" y2="-48.1293" gradientUnits="userSpaceOnUse">
<stop stop-color="#E47AFF"/>
<stop offset="1" stop-color="#45FAFA"/>
</linearGradient>
</defs>
</svg>
