<svg width="304" height="180" viewBox="0 0 304 180" fill="none" xmlns="http://www.w3.org/2000/svg">
<g filter="url(#filter0_d)">
<rect x="33" y="38" width="266" height="104" rx="4" fill="#10212E"/>
</g>
<g filter="url(#filter1_d)">
<rect x="33" y="38" width="189" height="104" rx="4" fill="#193347"/>
</g>
<path d="M251.745 79.552H259.521V82H247.953V79.744L254.409 73.672C255.241 72.888 255.849 72.216 256.233 71.656C256.633 71.08 256.833 70.424 256.833 69.688C256.833 68.872 256.577 68.224 256.065 67.744C255.569 67.248 254.857 67 253.929 67C252.985 67 252.217 67.272 251.625 67.816C251.033 68.344 250.737 69.096 250.737 70.072H247.953C247.953 68.952 248.201 67.976 248.697 67.144C249.209 66.312 249.913 65.672 250.809 65.224C251.721 64.776 252.761 64.552 253.929 64.552C255.049 64.552 256.041 64.768 256.905 65.2C257.769 65.616 258.433 66.208 258.897 66.976C259.377 67.728 259.617 68.6 259.617 69.592C259.617 70.408 259.457 71.16 259.137 71.848C258.817 72.52 258.457 73.08 258.057 73.528C257.673 73.96 257.153 74.48 256.497 75.088L251.745 79.552ZM274.296 78.544H272.64V82H269.712V78.544H262.128V76.408L269.88 64.96H272.64V76.144H274.296V78.544ZM269.712 76.144V69.28L265.056 76.144H269.712Z" fill="white"/>
<path d="M251.745 115.552H259.521V118H247.953V115.744L254.409 109.672C255.241 108.888 255.849 108.216 256.233 107.656C256.633 107.08 256.833 106.424 256.833 105.688C256.833 104.872 256.577 104.224 256.065 103.744C255.569 103.248 254.857 103 253.929 103C252.985 103 252.217 103.272 251.625 103.816C251.033 104.344 250.737 105.096 250.737 106.072H247.953C247.953 104.952 248.201 103.976 248.697 103.144C249.209 102.312 249.913 101.672 250.809 101.224C251.721 100.776 252.761 100.552 253.929 100.552C255.049 100.552 256.041 100.768 256.905 101.2C257.769 101.616 258.433 102.208 258.897 102.976C259.377 103.728 259.617 104.6 259.617 105.592C259.617 106.408 259.457 107.16 259.137 107.848C258.817 108.52 258.457 109.08 258.057 109.528C257.673 109.96 257.153 110.48 256.497 111.088L251.745 115.552ZM271.008 100.96V118H268.056V104.296L263.88 106.288V103.624L269.376 100.96H271.008Z" fill="white"/>
<path d="M65.8 118.384C64.568 118.384 63.416 118.184 62.344 117.784C61.288 117.384 60.424 116.752 59.752 115.888C59.08 115.008 58.736 113.896 58.72 112.552H61.672C61.72 113.688 62.12 114.552 62.872 115.144C63.624 115.736 64.624 116.032 65.872 116.032C67.008 116.032 67.936 115.816 68.656 115.384C69.392 114.952 69.76 114.28 69.76 113.368C69.76 112.792 69.592 112.336 69.256 112C68.92 111.648 68.448 111.36 67.84 111.136C67.232 110.896 66.272 110.584 64.96 110.2L64.432 110.056C63.264 109.72 62.336 109.408 61.648 109.12C60.976 108.816 60.416 108.368 59.968 107.776C59.52 107.184 59.296 106.4 59.296 105.424C59.296 104.368 59.584 103.48 60.16 102.76C60.736 102.024 61.504 101.48 62.464 101.128C63.424 100.76 64.48 100.576 65.632 100.576C67.504 100.576 69.048 101.016 70.264 101.896C71.496 102.776 72.16 104.112 72.256 105.904H69.304C69.224 104.896 68.856 104.152 68.2 103.672C67.56 103.176 66.696 102.928 65.608 102.928C64.648 102.928 63.84 103.128 63.184 103.528C62.528 103.928 62.2 104.512 62.2 105.28C62.2 105.728 62.344 106.096 62.632 106.384C62.92 106.672 63.28 106.896 63.712 107.056C64.16 107.216 64.768 107.392 65.536 107.584L66.376 107.824C67.896 108.24 69.104 108.672 70 109.12C70.896 109.552 71.576 110.096 72.04 110.752C72.504 111.408 72.736 112.232 72.736 113.224C72.736 114.984 72.08 116.288 70.768 117.136C69.472 117.968 67.816 118.384 65.8 118.384ZM79.9253 115.984C80.3573 115.984 80.7893 115.92 81.2213 115.792L81.0773 117.928C80.3733 118.104 79.7733 118.192 79.2773 118.192C78.1253 118.192 77.2613 117.896 76.6853 117.304C76.1093 116.712 75.8213 115.752 75.8213 114.424V107.896H73.6373L73.6853 105.76H75.8213L76.0613 102.088H78.5573V105.76H81.1973L81.1493 107.896H78.5573V114.28C78.5573 114.92 78.6613 115.368 78.8693 115.624C79.0773 115.864 79.4293 115.984 79.9253 115.984ZM88.3891 105.472C89.6531 105.472 90.7251 105.768 91.6051 106.36C92.4851 106.936 93.1411 107.752 93.5731 108.808C94.0211 109.864 94.2211 111.096 94.1731 112.504H85.4611C85.5251 113.736 85.8371 114.656 86.3971 115.264C86.9571 115.872 87.7091 116.176 88.6531 116.176C90.0451 116.176 90.9491 115.56 91.3651 114.328H93.9091C93.7331 115.528 93.1811 116.488 92.2531 117.208C91.3411 117.928 90.1011 118.288 88.5331 118.288C87.2531 118.288 86.1651 118.008 85.2691 117.448C84.3891 116.888 83.7251 116.128 83.2771 115.168C82.8451 114.208 82.6291 113.112 82.6291 111.88C82.6291 110.664 82.8451 109.576 83.2771 108.616C83.7251 107.64 84.3811 106.872 85.2451 106.312C86.1091 105.752 87.1571 105.472 88.3891 105.472ZM88.4371 107.584C87.6211 107.584 86.9491 107.832 86.4211 108.328C85.9091 108.824 85.5971 109.568 85.4851 110.56H91.3651C91.2531 109.568 90.9331 108.824 90.4051 108.328C89.8931 107.832 89.2371 107.584 88.4371 107.584ZM101.373 105.472C102.637 105.472 103.709 105.768 104.589 106.36C105.469 106.936 106.125 107.752 106.557 108.808C107.005 109.864 107.205 111.096 107.157 112.504H98.4454C98.5094 113.736 98.8214 114.656 99.3814 115.264C99.9414 115.872 100.693 116.176 101.637 116.176C103.029 116.176 103.933 115.56 104.349 114.328H106.893C106.717 115.528 106.165 116.488 105.237 117.208C104.325 117.928 103.085 118.288 101.517 118.288C100.237 118.288 99.1494 118.008 98.2534 117.448C97.3734 116.888 96.7094 116.128 96.2614 115.168C95.8294 114.208 95.6134 113.112 95.6134 111.88C95.6134 110.664 95.8294 109.576 96.2614 108.616C96.7094 107.64 97.3654 106.872 98.2294 106.312C99.0934 105.752 100.141 105.472 101.373 105.472ZM101.421 107.584C100.605 107.584 99.9334 107.832 99.4054 108.328C98.8934 108.824 98.5814 109.568 98.4694 110.56H104.349C104.237 109.568 103.917 108.824 103.389 108.328C102.877 107.832 102.221 107.584 101.421 107.584ZM113.038 118C112.558 118.08 112.166 118.12 111.862 118.12C110.95 118.12 110.278 117.88 109.846 117.4C109.414 116.904 109.198 116.136 109.198 115.096V100.48H111.934V114.472C111.934 115.08 112.014 115.488 112.174 115.696C112.334 115.904 112.662 116.008 113.158 116.008L113.038 118ZM120.405 105.472C121.669 105.472 122.741 105.768 123.621 106.36C124.501 106.936 125.157 107.752 125.589 108.808C126.037 109.864 126.237 111.096 126.189 112.504H117.477C117.541 113.736 117.853 114.656 118.413 115.264C118.973 115.872 119.725 116.176 120.669 116.176C122.061 116.176 122.965 115.56 123.381 114.328H125.925C125.749 115.528 125.197 116.488 124.269 117.208C123.357 117.928 122.117 118.288 120.549 118.288C119.269 118.288 118.181 118.008 117.285 117.448C116.405 116.888 115.741 116.128 115.293 115.168C114.861 114.208 114.645 113.112 114.645 111.88C114.645 110.664 114.861 109.576 115.293 108.616C115.741 107.64 116.397 106.872 117.261 106.312C118.125 105.752 119.173 105.472 120.405 105.472ZM120.453 107.584C119.637 107.584 118.965 107.832 118.437 108.328C117.925 108.824 117.613 109.568 117.501 110.56H123.381C123.269 109.568 122.949 108.824 122.421 108.328C121.909 107.832 121.253 107.584 120.453 107.584ZM130.941 108.16C132.013 106.368 133.501 105.536 135.405 105.664V108.376C135.117 108.328 134.845 108.304 134.589 108.304C133.485 108.304 132.605 108.656 131.949 109.36C131.293 110.048 130.965 111.032 130.965 112.312V118H128.229V105.76H130.653L130.941 108.16ZM141.318 118.288C139.654 118.288 138.366 117.928 137.454 117.208C136.542 116.488 136.086 115.504 136.086 114.256H138.918C138.934 114.816 139.15 115.28 139.566 115.648C139.998 116 140.638 116.176 141.486 116.176C142.254 116.176 142.846 116.048 143.262 115.792C143.678 115.52 143.886 115.12 143.886 114.592C143.886 114.224 143.782 113.936 143.574 113.728C143.366 113.504 143.086 113.336 142.734 113.224C142.398 113.096 141.886 112.952 141.198 112.792L140.574 112.648C139.79 112.456 139.118 112.248 138.558 112.024C138.014 111.8 137.534 111.448 137.118 110.968C136.718 110.488 136.518 109.864 136.518 109.096C136.518 107.96 136.966 107.072 137.862 106.432C138.758 105.792 139.934 105.472 141.39 105.472C142.91 105.472 144.102 105.816 144.966 106.504C145.83 107.176 146.318 108.096 146.43 109.264L143.646 109.24C143.438 108.04 142.654 107.44 141.294 107.44C140.702 107.44 140.214 107.56 139.83 107.8C139.462 108.024 139.278 108.344 139.278 108.76C139.278 109.24 139.502 109.592 139.95 109.816C140.398 110.04 141.094 110.264 142.038 110.488C143.014 110.712 143.814 110.952 144.438 111.208C145.078 111.448 145.614 111.816 146.046 112.312C146.478 112.808 146.694 113.472 146.694 114.304C146.694 115.52 146.19 116.488 145.182 117.208C144.174 117.928 142.886 118.288 141.318 118.288Z" fill="white"/>
<path d="M67.072 82.384C65.296 82.384 63.792 82 62.56 81.232C61.344 80.448 60.424 79.384 59.8 78.04C59.192 76.696 58.888 75.176 58.888 73.48C58.888 71.784 59.192 70.264 59.8 68.92C60.424 67.576 61.344 66.52 62.56 65.752C63.792 64.968 65.296 64.576 67.072 64.576C68.288 64.576 69.408 64.792 70.432 65.224C71.472 65.656 72.328 66.312 73 67.192C73.688 68.056 74.104 69.128 74.248 70.408H71.248C71.12 69.304 70.68 68.464 69.928 67.888C69.176 67.312 68.208 67.024 67.024 67.024C65.36 67.024 64.088 67.608 63.208 68.776C62.328 69.944 61.888 71.512 61.888 73.48C61.888 75.448 62.328 77.016 63.208 78.184C64.088 79.352 65.36 79.936 67.024 79.936C68.208 79.936 69.176 79.648 69.928 79.072C70.68 78.496 71.12 77.656 71.248 76.552H74.248C74.104 77.832 73.688 78.912 73 79.792C72.328 80.656 71.472 81.304 70.432 81.736C69.408 82.168 68.288 82.384 67.072 82.384ZM81.9979 82.288C80.6859 82.288 79.5739 82.008 78.6619 81.448C77.7499 80.888 77.0619 80.128 76.5979 79.168C76.1499 78.208 75.9259 77.112 75.9259 75.88C75.9259 74.648 76.1499 73.552 76.5979 72.592C77.0459 71.616 77.7259 70.856 78.6379 70.312C79.5499 69.752 80.6699 69.472 81.9979 69.472C83.3099 69.472 84.4219 69.752 85.3339 70.312C86.2459 70.872 86.9259 71.632 87.3739 72.592C87.8219 73.552 88.0459 74.648 88.0459 75.88C88.0459 77.112 87.8139 78.208 87.3499 79.168C86.9019 80.128 86.2219 80.888 85.3099 81.448C84.4139 82.008 83.3099 82.288 81.9979 82.288ZM81.9979 80.104C83.0379 80.104 83.8299 79.752 84.3739 79.048C84.9339 78.344 85.2139 77.288 85.2139 75.88C85.2139 74.472 84.9339 73.416 84.3739 72.712C83.8299 72.008 83.0379 71.656 81.9979 71.656C80.9419 71.656 80.1339 72.008 79.5739 72.712C79.0299 73.416 78.7579 74.472 78.7579 75.88C78.7579 77.288 79.0379 78.344 79.5979 79.048C80.1579 79.752 80.9579 80.104 81.9979 80.104ZM94.1706 82C93.6906 82.08 93.2986 82.12 92.9946 82.12C92.0826 82.12 91.4106 81.88 90.9786 81.4C90.5466 80.904 90.3306 80.136 90.3306 79.096V64.48H93.0666V78.472C93.0666 79.08 93.1466 79.488 93.3066 79.696C93.4666 79.904 93.7946 80.008 94.2906 80.008L94.1706 82ZM101.418 79.984C101.85 79.984 102.282 79.92 102.714 79.792L102.57 81.928C101.866 82.104 101.266 82.192 100.77 82.192C99.6175 82.192 98.7535 81.896 98.1775 81.304C97.6015 80.712 97.3135 79.752 97.3135 78.424V71.896H95.1295L95.1775 69.76H97.3135L97.5535 66.088H100.05V69.76H102.69L102.642 71.896H100.05V78.28C100.05 78.92 100.154 79.368 100.362 79.624C100.57 79.864 100.922 79.984 101.418 79.984ZM109.185 82.288C107.521 82.288 106.233 81.928 105.321 81.208C104.409 80.488 103.953 79.504 103.953 78.256H106.785C106.801 78.816 107.017 79.28 107.433 79.648C107.865 80 108.505 80.176 109.353 80.176C110.121 80.176 110.713 80.048 111.129 79.792C111.545 79.52 111.753 79.12 111.753 78.592C111.753 78.224 111.649 77.936 111.441 77.728C111.233 77.504 110.953 77.336 110.601 77.224C110.265 77.096 109.753 76.952 109.065 76.792L108.441 76.648C107.657 76.456 106.985 76.248 106.425 76.024C105.881 75.8 105.401 75.448 104.985 74.968C104.585 74.488 104.385 73.864 104.385 73.096C104.385 71.96 104.833 71.072 105.729 70.432C106.625 69.792 107.801 69.472 109.257 69.472C110.777 69.472 111.969 69.816 112.833 70.504C113.697 71.176 114.185 72.096 114.297 73.264L111.513 73.24C111.305 72.04 110.521 71.44 109.161 71.44C108.569 71.44 108.081 71.56 107.697 71.8C107.329 72.024 107.145 72.344 107.145 72.76C107.145 73.24 107.369 73.592 107.817 73.816C108.265 74.04 108.961 74.264 109.905 74.488C110.881 74.712 111.681 74.952 112.305 75.208C112.945 75.448 113.481 75.816 113.913 76.312C114.345 76.808 114.561 77.472 114.561 78.304C114.561 79.52 114.057 80.488 113.049 81.208C112.041 81.928 110.753 82.288 109.185 82.288Z" fill="white"/>
<defs>
<filter id="filter0_d" x="28" y="37" width="276" height="114" filterUnits="userSpaceOnUse" color-interpolation-filters="sRGB">
<feFlood flood-opacity="0" result="BackgroundImageFix"/>
<feColorMatrix in="SourceAlpha" type="matrix" values="0 0 0 0 0 0 0 0 0 0 0 0 0 0 0 0 0 0 127 0" result="hardAlpha"/>
<feOffset dy="4"/>
<feGaussianBlur stdDeviation="2.5"/>
<feColorMatrix type="matrix" values="0 0 0 0 0 0 0 0 0 0 0 0 0 0 0 0 0 0 0.25 0"/>
<feBlend mode="normal" in2="BackgroundImageFix" result="effect1_dropShadow"/>
<feBlend mode="normal" in="SourceGraphic" in2="effect1_dropShadow" result="shape"/>
</filter>
<filter id="filter1_d" x="0" y="0" width="265" height="180" filterUnits="userSpaceOnUse" color-interpolation-filters="sRGB">
<feFlood flood-opacity="0" result="BackgroundImageFix"/>
<feColorMatrix in="SourceAlpha" type="matrix" values="0 0 0 0 0 0 0 0 0 0 0 0 0 0 0 0 0 0 127 0" result="hardAlpha"/>
<feOffset dx="5"/>
<feGaussianBlur stdDeviation="19"/>
<feColorMatrix type="matrix" values="0 0 0 0 0 0 0 0 0 0 0 0 0 0 0 0 0 0 0.1 0"/>
<feBlend mode="normal" in2="BackgroundImageFix" result="effect1_dropShadow"/>
<feBlend mode="normal" in="SourceGraphic" in2="effect1_dropShadow" result="shape"/>
</filter>
</defs>
</svg>
