<svg width="188" height="66" viewBox="0 0 188 66" fill="none" xmlns="http://www.w3.org/2000/svg">
<rect x="0.78418" y="0.583374" width="186.25" height="64.5667" rx="2.48333" fill="#10212E"/>
<rect x="0.78418" y="0.583374" width="132.336" height="64.5667" rx="2.48333" fill="#193347"/>
<path d="M147.263 28.961V38.6584H145.583V30.8595L143.207 31.9932V30.4771L146.334 28.961H147.263ZM151.997 38.8497C151.697 38.8497 151.437 38.7404 151.219 38.5219C151 38.3033 150.891 38.0438 150.891 37.7433C150.891 37.4338 151 37.1742 151.219 36.9648C151.437 36.7463 151.697 36.637 151.997 36.637C152.307 36.637 152.566 36.7463 152.776 36.9648C152.994 37.1742 153.104 37.4338 153.104 37.7433C153.104 38.0438 152.994 38.3033 152.776 38.5219C152.566 38.7404 152.307 38.8497 151.997 38.8497ZM151.997 33.7278C151.697 33.7278 151.437 33.6185 151.219 33.4C151 33.1815 150.891 32.9219 150.891 32.6215C150.891 32.3119 151 32.0524 151.219 31.8429C151.437 31.6244 151.697 31.5151 151.997 31.5151C152.307 31.5151 152.566 31.6244 152.776 31.8429C152.994 32.0524 153.104 32.3119 153.104 32.6215C153.104 32.9219 152.994 33.1815 152.776 33.4C152.566 33.6185 152.307 33.7278 151.997 33.7278ZM157.148 37.2653H161.574V38.6584H154.99V37.3746L158.665 33.919C159.138 33.4728 159.484 33.0904 159.703 32.7717C159.93 32.4439 160.044 32.0706 160.044 31.6517C160.044 31.1873 159.898 30.8186 159.607 30.5454C159.325 30.2631 158.92 30.122 158.391 30.122C157.854 30.122 157.417 30.2768 157.08 30.5864C156.743 30.8869 156.575 31.3148 156.575 31.8703H154.99C154.99 31.2329 155.132 30.6774 155.414 30.2039C155.705 29.7305 156.106 29.3662 156.616 29.1113C157.135 28.8563 157.727 28.7288 158.391 28.7288C159.029 28.7288 159.593 28.8518 160.085 29.0976C160.577 29.3344 160.955 29.6713 161.219 30.1083C161.492 30.5363 161.628 31.0325 161.628 31.5971C161.628 32.0615 161.537 32.4894 161.355 32.881C161.173 33.2634 160.968 33.5821 160.741 33.8371C160.522 34.0829 160.226 34.3788 159.853 34.7248L157.148 37.2653ZM166.677 32.3756C167.323 32.3756 167.874 32.5168 168.329 32.799C168.785 33.0813 169.126 33.4683 169.354 33.96C169.59 34.4426 169.709 34.9844 169.709 35.5853C169.709 36.2682 169.572 36.8601 169.299 37.3609C169.026 37.8526 168.639 38.2305 168.138 38.4945C167.646 38.7495 167.073 38.877 166.417 38.877C165.47 38.877 164.705 38.6402 164.123 38.1667C163.54 37.6842 163.248 36.9739 163.248 36.036H164.778C164.778 36.5004 164.928 36.8601 165.229 37.1151C165.529 37.3609 165.93 37.4838 166.431 37.4838C166.995 37.4838 167.423 37.3108 167.715 36.9648C168.006 36.6188 168.152 36.159 168.152 35.5853C168.152 34.957 167.983 34.4744 167.646 34.1375C167.319 33.8006 166.886 33.6322 166.349 33.6322C166.103 33.6322 165.839 33.6777 165.557 33.7688C165.284 33.8507 165.033 33.9736 164.805 34.1375H163.535V28.961H169.19V30.3542H164.969V32.7717C165.206 32.6533 165.475 32.5577 165.775 32.4849C166.076 32.412 166.376 32.3756 166.677 32.3756ZM175.208 31.5288C176.082 31.5288 176.765 31.852 177.257 32.4985C177.757 33.145 178.008 34.0283 178.008 35.1483C178.008 35.8858 177.885 36.5323 177.639 37.0877C177.393 37.6432 177.043 38.0711 176.587 38.3716C176.141 38.6721 175.622 38.8223 175.03 38.8223C174.165 38.8223 173.482 38.449 172.981 37.7024V41.3901H171.424V31.6927H172.804L172.941 32.7444C173.205 32.3437 173.532 32.0433 173.924 31.8429C174.325 31.6335 174.753 31.5288 175.208 31.5288ZM174.716 37.5521C175.226 37.5521 175.636 37.3427 175.945 36.9238C176.255 36.505 176.41 35.9131 176.41 35.1483C176.41 34.3743 176.264 33.7915 175.973 33.4C175.69 32.9993 175.294 32.799 174.784 32.799C174.557 32.799 174.302 32.8673 174.02 33.0039C173.746 33.1405 173.505 33.3863 173.296 33.7414C173.086 34.0966 172.981 34.5746 172.981 35.1756C172.981 35.7765 173.077 36.2546 173.268 36.6097C173.469 36.9648 173.701 37.2107 173.965 37.3472C174.229 37.4838 174.479 37.5521 174.716 37.5521Z" fill="white"/>
<path d="M26.7816 48.3021V49.8666H19.3614V39.2876H26.7518V40.8521H21.2239V43.6831H26.3048V45.2178H21.2239V48.3021H26.7816ZM34.4011 47.6912C34.4011 48.0289 34.4507 48.2723 34.5501 48.4213C34.6494 48.5603 34.8381 48.6299 35.1163 48.6299L35.0418 49.8666C34.8232 49.8964 34.6246 49.9113 34.4458 49.9113C33.969 49.9113 33.6064 49.807 33.3581 49.5984C33.1097 49.3798 32.9657 49.0769 32.926 48.6895H32.9111C32.6131 49.1563 32.2455 49.499 31.8085 49.7176C31.3714 49.9361 30.8549 50.0454 30.2589 50.0454C29.5437 50.0454 28.9626 49.8566 28.5156 49.4792C28.0686 49.0918 27.8451 48.5504 27.8451 47.8551C27.8451 46.9213 28.2374 46.2707 29.0222 45.9032C29.8069 45.5356 30.7605 45.3519 31.883 45.3519C32.0816 45.3519 32.3598 45.3618 32.7174 45.3817V44.6516C32.7174 44.1946 32.5982 43.8668 32.3598 43.6682C32.1214 43.4596 31.7538 43.3553 31.2572 43.3553C30.7406 43.3553 30.3433 43.4745 30.0652 43.7129C29.787 43.9513 29.648 44.2393 29.648 44.5771H28.009C28.009 44.0903 28.148 43.6582 28.4262 43.2808C28.7142 42.9033 29.1066 42.6103 29.6033 42.4017C30.1099 42.1931 30.6761 42.0888 31.3019 42.0888C32.2555 42.0888 33.0104 42.3073 33.5667 42.7444C34.1229 43.1715 34.4011 43.7874 34.4011 44.592V47.6912ZM30.7357 48.7789C31.3118 48.7789 31.7836 48.605 32.1512 48.2574C32.5286 47.8998 32.7174 47.4677 32.7174 46.9611V46.4098C32.5684 46.3998 32.3598 46.3949 32.0916 46.3949C31.2373 46.3949 30.6065 46.5041 30.1993 46.7227C29.8019 46.9313 29.6033 47.264 29.6033 47.721C29.6033 48.0786 29.7026 48.3468 29.9013 48.5256C30.1099 48.6944 30.388 48.7789 30.7357 48.7789ZM43.089 42.2676V50.0156C43.089 51.1182 42.7463 51.9029 42.0609 52.3698C41.3755 52.8466 40.4766 53.085 39.364 53.085C38.331 53.085 37.5413 52.8615 36.9949 52.4145C36.4486 51.9675 36.1754 51.3913 36.1754 50.6861H37.8293C37.8393 51.0437 37.9783 51.3218 38.2465 51.5205C38.5247 51.7291 38.9121 51.8334 39.4087 51.8334C40.7299 51.8334 41.3904 51.2821 41.3904 50.1795V48.7491C41.1024 49.1663 40.7448 49.4792 40.3176 49.6878C39.9004 49.8964 39.4485 50.0007 38.9617 50.0007C38.0081 50.0007 37.2582 49.653 36.7118 48.9577C36.1754 48.2524 35.9072 47.2988 35.9072 46.0969C35.9072 45.2923 36.0364 44.587 36.2946 43.9811C36.5628 43.3751 36.9403 42.9083 37.427 42.5805C37.9138 42.2527 38.48 42.0888 39.1256 42.0888C40.1289 42.0888 40.8987 42.5258 41.4351 43.4L41.5841 42.2676H43.089ZM39.4236 48.615C39.6819 48.615 39.96 48.5454 40.258 48.4064C40.556 48.2673 40.8193 48.009 41.0477 47.6316C41.2762 47.2442 41.3904 46.7227 41.3904 46.0671C41.3904 45.4115 41.2812 44.89 41.0626 44.5026C40.8441 44.1152 40.5858 43.847 40.2878 43.698C39.9998 43.549 39.7266 43.4745 39.4683 43.4745C38.922 43.4745 38.48 43.7029 38.1422 44.1599C37.8144 44.6168 37.6505 45.2625 37.6505 46.0969C37.6505 46.9114 37.8045 47.5372 38.1124 47.9743C38.4303 48.4014 38.8674 48.615 39.4236 48.615ZM47.2487 49.8666C46.9507 49.9162 46.7073 49.9411 46.5186 49.9411C45.9524 49.9411 45.5352 49.7921 45.267 49.4941C44.9988 49.1861 44.8647 48.7093 44.8647 48.0637V38.9896H46.5633V47.6763C46.5633 48.0537 46.613 48.307 46.7123 48.4362C46.8116 48.5653 47.0153 48.6299 47.3232 48.6299L47.2487 49.8666ZM51.8223 42.0888C52.607 42.0888 53.2726 42.2725 53.8189 42.6401C54.3652 42.9977 54.7725 43.5043 55.0407 44.1599C55.3188 44.8155 55.443 45.5803 55.4132 46.4545H50.0045C50.0442 47.2193 50.2379 47.7905 50.5856 48.168C50.9333 48.5454 51.4001 48.7342 51.9862 48.7342C52.8504 48.7342 53.4116 48.3517 53.6699 47.5869H55.2493C55.14 48.3319 54.7973 48.9279 54.2212 49.3749C53.655 49.8219 52.8852 50.0454 51.9117 50.0454C51.117 50.0454 50.4416 49.8715 49.8853 49.5239C49.339 49.1762 48.9267 48.7044 48.6486 48.1084C48.3804 47.5124 48.2463 46.8319 48.2463 46.0671C48.2463 45.3121 48.3804 44.6367 48.6486 44.0407C48.9267 43.4347 49.334 42.9579 49.8704 42.6103C50.4068 42.2626 51.0574 42.0888 51.8223 42.0888ZM51.8521 43.4C51.3455 43.4 50.9283 43.5539 50.6005 43.8619C50.2826 44.1698 50.0889 44.6317 50.0194 45.2476H53.6699C53.6004 44.6317 53.4017 44.1698 53.0739 43.8619C52.756 43.5539 52.3488 43.4 51.8521 43.4ZM59.4513 50.0454C58.4183 50.0454 57.6186 49.8219 57.0524 49.3749C56.4862 48.9279 56.2031 48.317 56.2031 47.5422H57.9613C57.9713 47.8898 58.1054 48.1779 58.3636 48.4064C58.6318 48.6249 59.0292 48.7342 59.5556 48.7342C60.0324 48.7342 60.4 48.6547 60.6582 48.4958C60.9165 48.3269 61.0456 48.0786 61.0456 47.7508C61.0456 47.5223 60.9811 47.3435 60.8519 47.2144C60.7228 47.0753 60.549 46.971 60.3304 46.9015C60.1218 46.822 59.804 46.7326 59.3768 46.6333L58.9894 46.5439C58.5027 46.4247 58.0855 46.2955 57.7378 46.1565C57.4001 46.0174 57.1021 45.7989 56.8438 45.5009C56.5955 45.2029 56.4713 44.8155 56.4713 44.3387C56.4713 43.6334 56.7495 43.0821 57.3057 42.6848C57.862 42.2874 58.5921 42.0888 59.496 42.0888C60.4397 42.0888 61.1797 42.3023 61.7161 42.7295C62.2525 43.1467 62.5555 43.7178 62.625 44.443L60.8966 44.4281C60.7675 43.6831 60.2808 43.3106 59.4364 43.3106C59.0689 43.3106 58.7659 43.3851 58.5275 43.5341C58.2991 43.6731 58.1848 43.8718 58.1848 44.1301C58.1848 44.4281 58.3239 44.6466 58.602 44.7857C58.8802 44.9247 59.3123 45.0638 59.8983 45.2029C60.5043 45.3419 61.0009 45.4909 61.3883 45.6499C61.7857 45.7989 62.1184 46.0273 62.3866 46.3353C62.6548 46.6432 62.7889 47.0554 62.7889 47.572C62.7889 48.3269 62.476 48.9279 61.8502 49.3749C61.2244 49.8219 60.4248 50.0454 59.4513 50.0454Z" fill="white"/>
<path d="M23.9208 27.7549C22.8182 27.7549 21.8844 27.5165 21.1196 27.0397C20.3646 26.5529 19.7935 25.8924 19.4061 25.058C19.0286 24.2236 18.8399 23.2799 18.8399 22.227C18.8399 21.174 19.0286 20.2304 19.4061 19.396C19.7935 18.5616 20.3646 17.906 21.1196 17.4292C21.8844 16.9424 22.8182 16.6991 23.9208 16.6991C24.6757 16.6991 25.371 16.8332 26.0068 17.1014C26.6524 17.3696 27.1839 17.7768 27.6011 18.3232C28.0282 18.8596 28.2865 19.5251 28.3759 20.3198H26.5134C26.4339 19.6344 26.1607 19.1129 25.6939 18.7553C25.227 18.3977 24.626 18.2189 23.891 18.2189C22.8579 18.2189 22.0682 18.5814 21.5219 19.3066C20.9755 20.0317 20.7024 21.0052 20.7024 22.227C20.7024 23.4488 20.9755 24.4222 21.5219 25.1474C22.0682 25.8725 22.8579 26.2351 23.891 26.2351C24.626 26.2351 25.227 26.0563 25.6939 25.6987C26.1607 25.3411 26.4339 24.8196 26.5134 24.1342H28.3759C28.2865 24.9288 28.0282 25.5993 27.6011 26.1457C27.1839 26.6821 26.6524 27.0844 26.0068 27.3526C25.371 27.6208 24.6757 27.7549 23.9208 27.7549ZM33.1873 27.6953C32.3728 27.6953 31.6824 27.5214 31.1162 27.1738C30.55 26.8261 30.1229 26.3543 29.8348 25.7583C29.5567 25.1623 29.4176 24.4818 29.4176 23.717C29.4176 22.9521 29.5567 22.2717 29.8348 21.6757C30.1129 21.0697 30.5351 20.5979 31.1013 20.2602C31.6675 19.9125 32.3628 19.7387 33.1873 19.7387C34.0018 19.7387 34.6922 19.9125 35.2584 20.2602C35.8246 20.6078 36.2468 21.0797 36.5249 21.6757C36.803 22.2717 36.9421 22.9521 36.9421 23.717C36.9421 24.4818 36.7981 25.1623 36.51 25.7583C36.2319 26.3543 35.8097 26.8261 35.2435 27.1738C34.6872 27.5214 34.0018 27.6953 33.1873 27.6953ZM33.1873 26.3394C33.833 26.3394 34.3247 26.1208 34.6624 25.6838C35.0101 25.2467 35.1839 24.5911 35.1839 23.717C35.1839 22.8428 35.0101 22.1872 34.6624 21.7502C34.3247 21.3131 33.833 21.0946 33.1873 21.0946C32.5317 21.0946 32.0301 21.3131 31.6824 21.7502C31.3447 22.1872 31.1758 22.8428 31.1758 23.717C31.1758 24.5911 31.3496 25.2467 31.6973 25.6838C32.045 26.1208 32.5416 26.3394 33.1873 26.3394ZM48.9291 19.9175L46.4706 27.5165H44.7124L43.1777 22.0482L41.643 27.5165H39.8848L37.4263 19.9175H39.2739L40.8086 25.4454L42.3731 19.9175H43.9972L45.5617 25.4454L47.0815 19.9175H48.9291ZM54.1735 19.7387C55.1271 19.7387 55.8721 20.0913 56.4085 20.7966C56.9449 21.5018 57.2131 22.4654 57.2131 23.6872C57.2131 24.4918 57.079 25.197 56.8108 25.803C56.5525 26.4089 56.175 26.8758 55.6784 27.2036C55.1916 27.5314 54.6254 27.6953 53.9798 27.6953C53.0063 27.6953 52.2464 27.2632 51.7001 26.399L51.5511 27.5165H50.0462V16.6395H51.7448V20.9903C52.0328 20.5731 52.3855 20.2602 52.8027 20.0516C53.2298 19.843 53.6867 19.7387 54.1735 19.7387ZM53.6371 26.3096C54.1933 26.3096 54.6403 26.0811 54.9781 25.6242C55.3158 25.1672 55.4847 24.5216 55.4847 23.6872C55.4847 22.8528 55.3257 22.217 55.0079 21.78C54.69 21.3429 54.2529 21.1244 53.6967 21.1244C53.4483 21.1244 53.1702 21.1989 52.8623 21.3479C52.5643 21.4969 52.301 21.7651 52.0726 22.1525C51.854 22.5399 51.7448 23.0614 51.7448 23.717C51.7448 24.3825 51.8491 24.909 52.0577 25.2964C52.2762 25.6738 52.5295 25.9371 52.8176 26.0861C53.1056 26.2351 53.3788 26.3096 53.6371 26.3096ZM62.0269 27.6953C61.2124 27.6953 60.522 27.5214 59.9558 27.1738C59.3896 26.8261 58.9625 26.3543 58.6744 25.7583C58.3963 25.1623 58.2572 24.4818 58.2572 23.717C58.2572 22.9521 58.3963 22.2717 58.6744 21.6757C58.9526 21.0697 59.3747 20.5979 59.9409 20.2602C60.5071 19.9125 61.2025 19.7387 62.0269 19.7387C62.8415 19.7387 63.5318 19.9125 64.098 20.2602C64.6642 20.6078 65.0864 21.0797 65.3645 21.6757C65.6427 22.2717 65.7817 22.9521 65.7817 23.717C65.7817 24.4818 65.6377 25.1623 65.3496 25.7583C65.0715 26.3543 64.6493 26.8261 64.0831 27.1738C63.5269 27.5214 62.8415 27.6953 62.0269 27.6953ZM62.0269 26.3394C62.6726 26.3394 63.1643 26.1208 63.502 25.6838C63.8497 25.2467 64.0235 24.5911 64.0235 23.717C64.0235 22.8428 63.8497 22.1872 63.502 21.7502C63.1643 21.3131 62.6726 21.0946 62.0269 21.0946C61.3713 21.0946 60.8697 21.3131 60.522 21.7502C60.1843 22.1872 60.0154 22.8428 60.0154 23.717C60.0154 24.5911 60.1893 25.2467 60.5369 25.6838C60.8846 26.1208 61.3813 26.3394 62.0269 26.3394ZM73.5261 19.9175L69.4584 30.4965H67.6406L69.0859 27.5165H69.0412L66.0016 19.9175H67.8492L69.8458 25.5944L71.6785 19.9175H73.5261ZM77.1596 27.6953C76.1266 27.6953 75.3269 27.4718 74.7607 27.0248C74.1945 26.5778 73.9114 25.9669 73.9114 25.1921H75.6696C75.6796 25.5397 75.8137 25.8278 76.0719 26.0563C76.3401 26.2748 76.7375 26.3841 77.2639 26.3841C77.7407 26.3841 78.1083 26.3046 78.3665 26.1457C78.6248 25.9768 78.7539 25.7285 78.7539 25.4007C78.7539 25.1722 78.6894 24.9934 78.5602 24.8643C78.4311 24.7252 78.2573 24.6209 78.0387 24.5514C77.8301 24.4719 77.5123 24.3825 77.0851 24.2832L76.6977 24.1938C76.211 24.0746 75.7938 23.9454 75.4461 23.8064C75.1084 23.6673 74.8104 23.4488 74.5521 23.1508C74.3038 22.8528 74.1796 22.4654 74.1796 21.9886C74.1796 21.2833 74.4578 20.732 75.014 20.3347C75.5703 19.9373 76.3004 19.7387 77.2043 19.7387C78.148 19.7387 78.888 19.9522 79.4244 20.3794C79.9608 20.7966 80.2638 21.3677 80.3333 22.0929L78.6049 22.078C78.4758 21.333 77.9891 20.9605 77.1447 20.9605C76.7772 20.9605 76.4742 21.035 76.2358 21.184C76.0074 21.323 75.8931 21.5217 75.8931 21.78C75.8931 22.078 76.0322 22.2965 76.3103 22.4356C76.5885 22.5746 77.0206 22.7137 77.6066 22.8528C78.2126 22.9918 78.7092 23.1408 79.0966 23.2998C79.494 23.4488 79.8267 23.6772 80.0949 23.9852C80.3631 24.2931 80.4972 24.7053 80.4972 25.2219C80.4972 25.9768 80.1843 26.5778 79.5585 27.0248C78.9327 27.4718 78.1331 27.6953 77.1596 27.6953Z" fill="white"/>
</svg>
