<svg width="192" height="70" viewBox="0 0 192 70" fill="none" xmlns="http://www.w3.org/2000/svg">
<rect x="1.38675" y="1.34171" width="188.733" height="67.05" rx="3.725" fill="#10212E" stroke="url(#paint0_linear)" stroke-width="2.48333"/>
<rect x="2.62842" y="2.58337" width="132.336" height="64.5667" rx="2.48333" fill="#193347"/>
<path d="M159.55 18.9044V29.4834H157.717V20.9755L155.125 22.2122V20.5583L158.537 18.9044H159.55ZM170.525 27.3378H169.497V29.4834H167.679V27.3378H162.971V26.0117L167.784 18.9044H169.497V25.8478H170.525V27.3378ZM167.679 25.8478V21.5864L164.789 25.8478H167.679Z" fill="white"/>
<path d="M159.666 41.2543V51.8333H157.834V43.3254L155.241 44.5621V42.9082L158.653 41.2543H159.666ZM170.171 41.2543V42.6996L166.073 51.8333H164.27L168.308 42.7741H163.138V41.2543H170.171Z" fill="white"/>
<path d="M25.765 52.105C24.6624 52.105 23.7287 51.8666 22.9638 51.3898C22.2089 50.903 21.6377 50.2425 21.2503 49.4081C20.8728 48.5737 20.6841 47.63 20.6841 46.5771C20.6841 45.5241 20.8728 44.5805 21.2503 43.7461C21.6377 42.9117 22.2089 42.2561 22.9638 41.7793C23.7287 41.2925 24.6624 41.0492 25.765 41.0492C26.5199 41.0492 27.2153 41.1833 27.851 41.4515C28.4967 41.7197 29.0281 42.1269 29.4453 42.6733C29.8724 43.2097 30.1307 43.8752 30.2201 44.6699H28.3576C28.2781 43.9845 28.005 43.463 27.5381 43.1054C27.0712 42.7478 26.4703 42.569 25.7352 42.569C24.7021 42.569 23.9124 42.9315 23.3661 43.6567C22.8198 44.3818 22.5466 45.3553 22.5466 46.5771C22.5466 47.7989 22.8198 48.7723 23.3661 49.4975C23.9124 50.2226 24.7021 50.5852 25.7352 50.5852C26.4703 50.5852 27.0712 50.4064 27.5381 50.0488C28.005 49.6912 28.2781 49.1697 28.3576 48.4843H30.2201C30.1307 49.2789 29.8724 49.9494 29.4453 50.4958C29.0281 51.0322 28.4967 51.4345 27.851 51.7027C27.2153 51.9709 26.5199 52.105 25.765 52.105ZM35.8808 44.0888C36.596 44.0888 37.1771 44.2924 37.6241 44.6997C38.0811 45.097 38.3095 45.6831 38.3095 46.4579V51.8666H36.6109V46.7857C36.6109 45.9215 36.1937 45.4894 35.3593 45.4894C35.0812 45.4894 34.7882 45.5589 34.4802 45.698C34.1723 45.8271 33.9041 46.0754 33.6756 46.443C33.4472 46.8006 33.3329 47.2972 33.3329 47.933V51.8666H31.6343V40.9896H33.3329V45.3553C33.6409 44.948 34.0134 44.6351 34.4504 44.4166C34.8974 44.198 35.3742 44.0888 35.8808 44.0888ZM41.1753 43.0756C40.8575 43.0756 40.5992 42.9762 40.4005 42.7776C40.2118 42.5789 40.1174 42.3306 40.1174 42.0326C40.1174 41.7445 40.2118 41.5011 40.4005 41.3025C40.5992 41.0939 40.8575 40.9896 41.1753 40.9896C41.4833 40.9896 41.7366 41.0939 41.9352 41.3025C42.1339 41.5011 42.2332 41.7445 42.2332 42.0326C42.2332 42.3306 42.1339 42.5789 41.9352 42.7776C41.7465 42.9762 41.4932 43.0756 41.1753 43.0756ZM40.326 44.2676H42.0246V51.8666H40.326V44.2676ZM47.1914 44.0888C47.9762 44.0888 48.6417 44.2725 49.188 44.6401C49.7344 44.9977 50.1416 45.5043 50.4098 46.1599C50.688 46.8155 50.8121 47.5803 50.7823 48.4545H45.3736C45.4134 49.2193 45.6071 49.7905 45.9547 50.168C46.3024 50.5454 46.7693 50.7342 47.3553 50.7342C48.2195 50.7342 48.7808 50.3517 49.039 49.5869H50.6184C50.5092 50.3319 50.1665 50.9279 49.5903 51.3749C49.0241 51.8219 48.2543 52.0454 47.2808 52.0454C46.4862 52.0454 45.8107 51.8715 45.2544 51.5239C44.7081 51.1762 44.2959 50.7044 44.0177 50.1084C43.7495 49.5124 43.6154 48.8319 43.6154 48.0671C43.6154 47.3121 43.7495 46.6367 44.0177 46.0407C44.2959 45.4347 44.7031 44.9579 45.2395 44.6103C45.7759 44.2626 46.4266 44.0888 47.1914 44.0888ZM47.2212 45.4C46.7146 45.4 46.2974 45.5539 45.9696 45.8619C45.6518 46.1698 45.4581 46.6317 45.3885 47.2476H49.039C48.9695 46.6317 48.7708 46.1698 48.443 45.8619C48.1252 45.5539 47.7179 45.4 47.2212 45.4ZM55.2536 42.2412C54.9258 42.2412 54.6874 42.3256 54.5384 42.4945C54.3894 42.6633 54.3149 42.9514 54.3149 43.3587V44.2676H55.8943L55.8645 45.5937H54.3149V51.8666H52.6163V45.5937H51.2604L51.2902 44.2676H52.6163V43.3289C52.6163 42.4746 52.8051 41.8488 53.1825 41.4515C53.56 41.0541 54.151 40.8555 54.9556 40.8555C55.3232 40.8555 55.7056 40.9002 56.1029 40.9896L56.0284 42.3455C55.79 42.2759 55.5318 42.2412 55.2536 42.2412ZM59.7532 52.0454C58.7201 52.0454 57.9205 51.8219 57.3543 51.3749C56.7881 50.9279 56.505 50.317 56.505 49.5422H58.2632C58.2731 49.8898 58.4072 50.1779 58.6655 50.4064C58.9337 50.6249 59.331 50.7342 59.8575 50.7342C60.3343 50.7342 60.7018 50.6547 60.9601 50.4958C61.2184 50.3269 61.3475 50.0786 61.3475 49.7508C61.3475 49.5223 61.2829 49.3435 61.1538 49.2144C61.0247 49.0753 60.8508 48.971 60.6323 48.9015C60.4237 48.822 60.1058 48.7326 59.6787 48.6333L59.2913 48.5439C58.8046 48.4247 58.3874 48.2955 58.0397 48.1565C57.702 48.0174 57.404 47.7989 57.1457 47.5009C56.8974 47.2029 56.7732 46.8155 56.7732 46.3387C56.7732 45.6334 57.0513 45.0821 57.6076 44.6848C58.1639 44.2874 58.894 44.0888 59.7979 44.0888C60.7416 44.0888 61.4816 44.3023 62.018 44.7295C62.5544 45.1467 62.8574 45.7178 62.9269 46.443L61.1985 46.4281C61.0694 45.6831 60.5826 45.3106 59.7383 45.3106C59.3708 45.3106 59.0678 45.3851 58.8294 45.5341C58.6009 45.6731 58.4867 45.8718 58.4867 46.1301C58.4867 46.4281 58.6258 46.6466 58.9039 46.7857C59.182 46.9247 59.6141 47.0638 60.2002 47.2029C60.8061 47.3419 61.3028 47.4909 61.6902 47.6499C62.0875 47.7989 62.4203 48.0273 62.6885 48.3353C62.9567 48.6432 63.0908 49.0554 63.0908 49.572C63.0908 50.3269 62.7779 50.9279 62.1521 51.3749C61.5263 51.8219 60.7267 52.0454 59.7532 52.0454Z" fill="white"/>
<path d="M23.0681 20.502V23.4224H27.6424V24.9422H23.0681V29.5165H21.2056V18.9375H28.0894V20.502H23.0681ZM35.4014 27.3411C35.4014 27.6788 35.451 27.9222 35.5504 28.0712C35.6497 28.2102 35.8384 28.2798 36.1166 28.2798L36.0421 29.5165C35.8235 29.5463 35.6249 29.5612 35.4461 29.5612C34.9693 29.5612 34.6067 29.4569 34.3584 29.2483C34.11 29.0297 33.966 28.7268 33.9263 28.3394H33.9114C33.6134 28.8062 33.2458 29.1489 32.8088 29.3675C32.3717 29.586 31.8552 29.6953 31.2592 29.6953C30.544 29.6953 29.9629 29.5065 29.5159 29.1291C29.0689 28.7417 28.8454 28.2003 28.8454 27.505C28.8454 26.5712 29.2377 25.9206 30.0225 25.5531C30.8072 25.1855 31.7608 25.0018 32.8833 25.0018C33.0819 25.0018 33.3601 25.0117 33.7177 25.0316V24.3015C33.7177 23.8445 33.5985 23.5167 33.3601 23.3181C33.1217 23.1095 32.7541 23.0052 32.2575 23.0052C31.7409 23.0052 31.3436 23.1244 31.0655 23.3628C30.7873 23.6012 30.6483 23.8892 30.6483 24.227H29.0093C29.0093 23.7402 29.1483 23.3081 29.4265 22.9307C29.7145 22.5532 30.1069 22.2602 30.6036 22.0516C31.1102 21.843 31.6764 21.7387 32.3022 21.7387C33.2558 21.7387 34.0107 21.9572 34.567 22.3943C35.1232 22.8214 35.4014 23.4373 35.4014 24.2419V27.3411ZM31.736 28.4288C32.3121 28.4288 32.7839 28.2549 33.1515 27.9073C33.5289 27.5497 33.7177 27.1176 33.7177 26.611V26.0597C33.5687 26.0497 33.3601 26.0448 33.0919 26.0448C32.2376 26.0448 31.6068 26.154 31.1996 26.3726C30.8022 26.5812 30.6036 26.9139 30.6036 27.3709C30.6036 27.7285 30.7029 27.9967 30.9016 28.1755C31.1102 28.3443 31.3883 28.4288 31.736 28.4288ZM39.664 29.5165C39.366 29.5661 39.1227 29.591 38.9339 29.591C38.3677 29.591 37.9505 29.442 37.6823 29.144C37.4141 28.836 37.28 28.3592 37.28 27.7136V18.6395H38.9786V27.3262C38.9786 27.7036 39.0283 27.9569 39.1276 28.0861C39.227 28.2152 39.4306 28.2798 39.7385 28.2798L39.664 29.5165ZM44.4015 29.6953C43.5969 29.6953 42.9115 29.5214 42.3453 29.1738C41.7891 28.8261 41.3669 28.3543 41.0788 27.7583C40.8007 27.1623 40.6616 26.4818 40.6616 25.717C40.6616 24.9521 40.8007 24.2717 41.0788 23.6757C41.3669 23.0797 41.7891 22.6078 42.3453 22.2602C42.9115 21.9125 43.5969 21.7387 44.4015 21.7387C45.3949 21.7387 46.1846 21.982 46.7706 22.4688C47.3567 22.9555 47.6895 23.6061 47.7689 24.4207H46.115C45.9362 23.5366 45.375 23.0946 44.4313 23.0946C43.7956 23.0946 43.2989 23.3131 42.9413 23.7502C42.5937 24.1872 42.4198 24.8428 42.4198 25.717C42.4198 26.5911 42.5937 27.2467 42.9413 27.6838C43.2989 28.1208 43.7956 28.3394 44.4313 28.3394C45.375 28.3394 45.9362 27.8973 46.115 27.0133H47.7689C47.6895 27.8278 47.3567 28.4784 46.7706 28.9652C46.1846 29.4519 45.3949 29.6953 44.4015 29.6953ZM52.5798 29.6953C51.7652 29.6953 51.0749 29.5214 50.5087 29.1738C49.9425 28.8261 49.5153 28.3543 49.2273 27.7583C48.9491 27.1623 48.8101 26.4818 48.8101 25.717C48.8101 24.9521 48.9491 24.2717 49.2273 23.6757C49.5054 23.0697 49.9276 22.5979 50.4938 22.2602C51.06 21.9125 51.7553 21.7387 52.5798 21.7387C53.3943 21.7387 54.0847 21.9125 54.6509 22.2602C55.2171 22.6078 55.6392 23.0797 55.9174 23.6757C56.1955 24.2717 56.3346 24.9521 56.3346 25.717C56.3346 26.4818 56.1905 27.1623 55.9025 27.7583C55.6243 28.3543 55.2022 28.8261 54.636 29.1738C54.0797 29.5214 53.3943 29.6953 52.5798 29.6953ZM52.5798 28.3394C53.2254 28.3394 53.7171 28.1208 54.0549 27.6838C54.4025 27.2467 54.5764 26.5911 54.5764 25.717C54.5764 24.8428 54.4025 24.1872 54.0549 23.7502C53.7171 23.3131 53.2254 23.0946 52.5798 23.0946C51.9242 23.0946 51.4225 23.3131 51.0749 23.7502C50.7371 24.1872 50.5683 24.8428 50.5683 25.717C50.5683 26.5911 50.7421 27.2467 51.0898 27.6838C51.4374 28.1208 51.9341 28.3394 52.5798 28.3394ZM61.9995 21.7387C62.7147 21.7387 63.2958 21.9423 63.7428 22.3496C64.1997 22.7469 64.4282 23.333 64.4282 24.1078V29.5165H62.7296V24.4356C62.7296 23.5714 62.3124 23.1393 61.478 23.1393C61.1999 23.1393 60.9068 23.2088 60.5989 23.3479C60.291 23.477 60.0228 23.7253 59.7943 24.0929C59.5658 24.4505 59.4516 24.9471 59.4516 25.5829V29.5165H57.753V21.9175H59.2579L59.392 23.0797C59.6999 22.6426 60.0824 22.3098 60.5393 22.0814C60.9962 21.8529 61.483 21.7387 61.9995 21.7387ZM69.0075 29.6953C67.9744 29.6953 67.1748 29.4718 66.6086 29.0248C66.0424 28.5778 65.7593 27.9669 65.7593 27.1921H67.5175C67.5274 27.5397 67.6615 27.8278 67.9198 28.0563C68.188 28.2748 68.5853 28.3841 69.1118 28.3841C69.5886 28.3841 69.9561 28.3046 70.2144 28.1457C70.4727 27.9768 70.6018 27.7285 70.6018 27.4007C70.6018 27.1722 70.5372 26.9934 70.4081 26.8643C70.279 26.7252 70.1051 26.6209 69.8866 26.5514C69.678 26.4719 69.3601 26.3825 68.933 26.2832L68.5456 26.1938C68.0589 26.0746 67.6417 25.9454 67.294 25.8064C66.9563 25.6673 66.6583 25.4488 66.4 25.1508C66.1517 24.8528 66.0275 24.4654 66.0275 23.9886C66.0275 23.2833 66.3056 22.732 66.8619 22.3347C67.4182 21.9373 68.1483 21.7387 69.0522 21.7387C69.9959 21.7387 70.7359 21.9522 71.2723 22.3794C71.8087 22.7966 72.1117 23.3677 72.1812 24.0929L70.4528 24.078C70.3237 23.333 69.8369 22.9605 68.9926 22.9605C68.6251 22.9605 68.3221 23.035 68.0837 23.184C67.8552 23.323 67.741 23.5217 67.741 23.78C67.741 24.078 67.8801 24.2965 68.1582 24.4356C68.4363 24.5746 68.8684 24.7137 69.4545 24.8528C70.0604 24.9918 70.5571 25.1408 70.9445 25.2998C71.3418 25.4488 71.6746 25.6772 71.9428 25.9852C72.211 26.2931 72.3451 26.7053 72.3451 27.2219C72.3451 27.9768 72.0322 28.5778 71.4064 29.0248C70.7806 29.4718 69.981 29.6953 69.0075 29.6953Z" fill="white"/>
<defs>
<linearGradient id="paint0_linear" x1="196.5" y1="-2.50002" x2="-1.50001" y2="72" gradientUnits="userSpaceOnUse">
<stop stop-color="#45FAFA"/>
<stop offset="1" stop-color="#E57BFF"/>
</linearGradient>
</defs>
</svg>
