<svg width="187" height="66" viewBox="0 0 187 66" fill="none" xmlns="http://www.w3.org/2000/svg">
<rect x="0.54541" y="0.583374" width="186.25" height="64.5667" rx="2.48333" fill="#10212E"/>
<rect x="0.54541" y="0.583374" width="132.336" height="64.5667" rx="2.48333" fill="#193347"/>
<path d="M157.467 16.9044V27.4834H155.634V18.9755L153.042 20.2122V18.5583L156.454 16.9044H157.467ZM168.442 25.3378H167.414V27.4834H165.596V25.3378H160.888V24.0117L165.701 16.9044H167.414V23.8478H168.442V25.3378ZM165.596 23.8478V19.5864L162.706 23.8478H165.596Z" fill="white"/>
<path d="M157.467 39.2543V49.8333H155.634V41.3254L153.042 42.5621V40.9082L156.454 39.2543H157.467ZM164.658 50.0717C163.535 50.0717 162.641 49.7439 161.976 49.0883C161.31 48.4327 160.977 47.5287 160.977 46.3765V42.7111C160.977 41.5588 161.31 40.6549 161.976 39.9993C162.641 39.3437 163.535 39.0159 164.658 39.0159C165.78 39.0159 166.674 39.3437 167.34 39.9993C168.005 40.6549 168.338 41.5588 168.338 42.7111V46.3765C168.338 47.5287 168.005 48.4327 167.34 49.0883C166.674 49.7439 165.78 50.0717 164.658 50.0717ZM164.658 48.5519C165.284 48.5519 165.76 48.3681 166.088 48.0006C166.416 47.633 166.58 47.0966 166.58 46.3914V42.6962C166.58 41.9909 166.416 41.4545 166.088 41.087C165.76 40.7194 165.284 40.5357 164.658 40.5357C164.032 40.5357 163.555 40.7194 163.227 41.087C162.9 41.4545 162.736 41.9909 162.736 42.6962V46.3914C162.736 47.0966 162.9 47.633 163.227 48.0006C163.555 48.3681 164.032 48.5519 164.658 48.5519Z" fill="white"/>
<path d="M23.682 50.105C22.5794 50.105 21.6457 49.8666 20.8808 49.3898C20.1259 48.903 19.5547 48.2425 19.1673 47.4081C18.7898 46.5737 18.6011 45.63 18.6011 44.5771C18.6011 43.5241 18.7898 42.5805 19.1673 41.7461C19.5547 40.9117 20.1259 40.2561 20.8808 39.7793C21.6457 39.2925 22.5794 39.0492 23.682 39.0492C24.4369 39.0492 25.1323 39.1833 25.768 39.4515C26.4137 39.7197 26.9451 40.1269 27.3623 40.6733C27.7894 41.2097 28.0477 41.8752 28.1371 42.6699H26.2746C26.1951 41.9845 25.922 41.463 25.4551 41.1054C24.9882 40.7478 24.3873 40.569 23.6522 40.569C22.6191 40.569 21.8294 40.9315 21.2831 41.6567C20.7368 42.3818 20.4636 43.3553 20.4636 44.5771C20.4636 45.7989 20.7368 46.7723 21.2831 47.4975C21.8294 48.2226 22.6191 48.5852 23.6522 48.5852C24.3873 48.5852 24.9882 48.4064 25.4551 48.0488C25.922 47.6912 26.1951 47.1697 26.2746 46.4843H28.1371C28.0477 47.2789 27.7894 47.9494 27.3623 48.4958C26.9451 49.0322 26.4137 49.4345 25.768 49.7027C25.1323 49.9709 24.4369 50.105 23.682 50.105ZM33.7978 42.0888C34.513 42.0888 35.0941 42.2924 35.5411 42.6997C35.9981 43.097 36.2265 43.6831 36.2265 44.4579V49.8666H34.5279V44.7857C34.5279 43.9215 34.1107 43.4894 33.2763 43.4894C32.9982 43.4894 32.7052 43.5589 32.3972 43.698C32.0893 43.8271 31.8211 44.0754 31.5926 44.443C31.3642 44.8006 31.2499 45.2972 31.2499 45.933V49.8666H29.5513V38.9896H31.2499V43.3553C31.5579 42.948 31.9304 42.6351 32.3674 42.4166C32.8144 42.198 33.2912 42.0888 33.7978 42.0888ZM39.0923 41.0756C38.7745 41.0756 38.5162 40.9762 38.3175 40.7776C38.1288 40.5789 38.0344 40.3306 38.0344 40.0326C38.0344 39.7445 38.1288 39.5011 38.3175 39.3025C38.5162 39.0939 38.7745 38.9896 39.0923 38.9896C39.4003 38.9896 39.6536 39.0939 39.8522 39.3025C40.0509 39.5011 40.1502 39.7445 40.1502 40.0326C40.1502 40.3306 40.0509 40.5789 39.8522 40.7776C39.6635 40.9762 39.4102 41.0756 39.0923 41.0756ZM38.243 42.2676H39.9416V49.8666H38.243V42.2676ZM45.1084 42.0888C45.8932 42.0888 46.5587 42.2725 47.105 42.6401C47.6514 42.9977 48.0586 43.5043 48.3268 44.1599C48.605 44.8155 48.7291 45.5803 48.6993 46.4545H43.2906C43.3304 47.2193 43.5241 47.7905 43.8717 48.168C44.2194 48.5454 44.6863 48.7342 45.2723 48.7342C46.1365 48.7342 46.6978 48.3517 46.956 47.5869H48.5354C48.4262 48.3319 48.0835 48.9279 47.5073 49.3749C46.9411 49.8219 46.1713 50.0454 45.1978 50.0454C44.4032 50.0454 43.7277 49.8715 43.1714 49.5239C42.6251 49.1762 42.2129 48.7044 41.9347 48.1084C41.6665 47.5124 41.5324 46.8319 41.5324 46.0671C41.5324 45.3121 41.6665 44.6367 41.9347 44.0407C42.2129 43.4347 42.6201 42.9579 43.1565 42.6103C43.6929 42.2626 44.3436 42.0888 45.1084 42.0888ZM45.1382 43.4C44.6316 43.4 44.2144 43.5539 43.8866 43.8619C43.5688 44.1698 43.3751 44.6317 43.3055 45.2476H46.956C46.8865 44.6317 46.6878 44.1698 46.36 43.8619C46.0422 43.5539 45.6349 43.4 45.1382 43.4ZM53.1706 40.2412C52.8428 40.2412 52.6044 40.3256 52.4554 40.4945C52.3064 40.6633 52.2319 40.9514 52.2319 41.3587V42.2676H53.8113L53.7815 43.5937H52.2319V49.8666H50.5333V43.5937H49.1774L49.2072 42.2676H50.5333V41.3289C50.5333 40.4746 50.7221 39.8488 51.0995 39.4515C51.477 39.0541 52.068 38.8555 52.8726 38.8555C53.2402 38.8555 53.6226 38.9002 54.0199 38.9896L53.9454 40.3455C53.707 40.2759 53.4488 40.2412 53.1706 40.2412ZM57.6702 50.0454C56.6371 50.0454 55.8375 49.8219 55.2713 49.3749C54.7051 48.9279 54.422 48.317 54.422 47.5422H56.1802C56.1901 47.8898 56.3242 48.1779 56.5825 48.4064C56.8507 48.6249 57.248 48.7342 57.7745 48.7342C58.2513 48.7342 58.6188 48.6547 58.8771 48.4958C59.1354 48.3269 59.2645 48.0786 59.2645 47.7508C59.2645 47.5223 59.1999 47.3435 59.0708 47.2144C58.9417 47.0753 58.7678 46.971 58.5493 46.9015C58.3407 46.822 58.0228 46.7326 57.5957 46.6333L57.2083 46.5439C56.7216 46.4247 56.3044 46.2955 55.9567 46.1565C55.619 46.0174 55.321 45.7989 55.0627 45.5009C54.8144 45.2029 54.6902 44.8155 54.6902 44.3387C54.6902 43.6334 54.9683 43.0821 55.5246 42.6848C56.0809 42.2874 56.811 42.0888 57.7149 42.0888C58.6586 42.0888 59.3986 42.3023 59.935 42.7295C60.4714 43.1467 60.7744 43.7178 60.8439 44.443L59.1155 44.4281C58.9864 43.6831 58.4996 43.3106 57.6553 43.3106C57.2878 43.3106 56.9848 43.3851 56.7464 43.5341C56.5179 43.6731 56.4037 43.8718 56.4037 44.1301C56.4037 44.4281 56.5428 44.6466 56.8209 44.7857C57.099 44.9247 57.5311 45.0638 58.1172 45.2029C58.7231 45.3419 59.2198 45.4909 59.6072 45.6499C60.0045 45.7989 60.3373 46.0273 60.6055 46.3353C60.8737 46.6432 61.0078 47.0554 61.0078 47.572C61.0078 48.3269 60.6949 48.9279 60.0691 49.3749C59.4433 49.8219 58.6437 50.0454 57.6702 50.0454Z" fill="white"/>
<path d="M20.9851 18.502V21.4224H25.5594V22.9422H20.9851V27.5165H19.1226V16.9375H26.0064V18.502H20.9851ZM33.3183 25.3411C33.3183 25.6788 33.368 25.9222 33.4673 26.0712C33.5667 26.2102 33.7554 26.2798 34.0335 26.2798L33.959 27.5165C33.7405 27.5463 33.5418 27.5612 33.363 27.5612C32.8862 27.5612 32.5237 27.4569 32.2753 27.2483C32.027 27.0297 31.883 26.7268 31.8432 26.3394H31.8283C31.5303 26.8062 31.1628 27.1489 30.7257 27.3675C30.2887 27.586 29.7721 27.6953 29.1761 27.6953C28.4609 27.6953 27.8798 27.5065 27.4328 27.1291C26.9858 26.7417 26.7623 26.2003 26.7623 25.505C26.7623 24.5712 27.1547 23.9206 27.9394 23.5531C28.7242 23.1855 29.6778 23.0018 30.8002 23.0018C30.9989 23.0018 31.277 23.0117 31.6346 23.0316V22.3015C31.6346 21.8445 31.5154 21.5167 31.277 21.3181C31.0386 21.1095 30.6711 21.0052 30.1744 21.0052C29.6579 21.0052 29.2606 21.1244 28.9824 21.3628C28.7043 21.6012 28.5652 21.8892 28.5652 22.227H26.9262C26.9262 21.7402 27.0653 21.3081 27.3434 20.9307C27.6315 20.5532 28.0239 20.2602 28.5205 20.0516C29.0271 19.843 29.5933 19.7387 30.2191 19.7387C31.1727 19.7387 31.9277 19.9572 32.4839 20.3943C33.0402 20.8214 33.3183 21.4373 33.3183 22.2419V25.3411ZM29.6529 26.4288C30.2291 26.4288 30.7009 26.2549 31.0684 25.9073C31.4459 25.5497 31.6346 25.1176 31.6346 24.611V24.0597C31.4856 24.0497 31.277 24.0448 31.0088 24.0448C30.1546 24.0448 29.5238 24.154 29.1165 24.3726C28.7192 24.5812 28.5205 24.9139 28.5205 25.3709C28.5205 25.7285 28.6199 25.9967 28.8185 26.1755C29.0271 26.3443 29.3053 26.4288 29.6529 26.4288ZM37.581 27.5165C37.283 27.5661 37.0397 27.591 36.8509 27.591C36.2847 27.591 35.8675 27.442 35.5993 27.144C35.3311 26.836 35.197 26.3592 35.197 25.7136V16.6395H36.8956V25.3262C36.8956 25.7036 36.9453 25.9569 37.0446 26.0861C37.144 26.2152 37.3476 26.2798 37.6555 26.2798L37.581 27.5165ZM42.3185 27.6953C41.5139 27.6953 40.8285 27.5214 40.2623 27.1738C39.7061 26.8261 39.2839 26.3543 38.9958 25.7583C38.7177 25.1623 38.5786 24.4818 38.5786 23.717C38.5786 22.9521 38.7177 22.2717 38.9958 21.6757C39.2839 21.0797 39.7061 20.6078 40.2623 20.2602C40.8285 19.9125 41.5139 19.7387 42.3185 19.7387C43.3119 19.7387 44.1016 19.982 44.6876 20.4688C45.2737 20.9555 45.6065 21.6061 45.6859 22.4207H44.032C43.8532 21.5366 43.292 21.0946 42.3483 21.0946C41.7126 21.0946 41.2159 21.3131 40.8583 21.7502C40.5107 22.1872 40.3368 22.8428 40.3368 23.717C40.3368 24.5911 40.5107 25.2467 40.8583 25.6838C41.2159 26.1208 41.7126 26.3394 42.3483 26.3394C43.292 26.3394 43.8532 25.8973 44.032 25.0133H45.6859C45.6065 25.8278 45.2737 26.4784 44.6876 26.9652C44.1016 27.4519 43.3119 27.6953 42.3185 27.6953ZM50.4968 27.6953C49.6822 27.6953 48.9919 27.5214 48.4257 27.1738C47.8595 26.8261 47.4323 26.3543 47.1443 25.7583C46.8661 25.1623 46.7271 24.4818 46.7271 23.717C46.7271 22.9521 46.8661 22.2717 47.1443 21.6757C47.4224 21.0697 47.8446 20.5979 48.4108 20.2602C48.977 19.9125 49.6723 19.7387 50.4968 19.7387C51.3113 19.7387 52.0017 19.9125 52.5679 20.2602C53.1341 20.6078 53.5562 21.0797 53.8344 21.6757C54.1125 22.2717 54.2516 22.9521 54.2516 23.717C54.2516 24.4818 54.1075 25.1623 53.8195 25.7583C53.5413 26.3543 53.1192 26.8261 52.553 27.1738C51.9967 27.5214 51.3113 27.6953 50.4968 27.6953ZM50.4968 26.3394C51.1424 26.3394 51.6341 26.1208 51.9719 25.6838C52.3195 25.2467 52.4934 24.5911 52.4934 23.717C52.4934 22.8428 52.3195 22.1872 51.9719 21.7502C51.6341 21.3131 51.1424 21.0946 50.4968 21.0946C49.8412 21.0946 49.3395 21.3131 48.9919 21.7502C48.6541 22.1872 48.4853 22.8428 48.4853 23.717C48.4853 24.5911 48.6591 25.2467 49.0068 25.6838C49.3544 26.1208 49.8511 26.3394 50.4968 26.3394ZM59.9165 19.7387C60.6317 19.7387 61.2128 19.9423 61.6598 20.3496C62.1167 20.7469 62.3452 21.333 62.3452 22.1078V27.5165H60.6466V22.4356C60.6466 21.5714 60.2294 21.1393 59.395 21.1393C59.1168 21.1393 58.8238 21.2088 58.5159 21.3479C58.2079 21.477 57.9397 21.7253 57.7113 22.0929C57.4828 22.4505 57.3686 22.9471 57.3686 23.5829V27.5165H55.67V19.9175H57.1749L57.309 21.0797C57.6169 20.6426 57.9993 20.3098 58.4563 20.0814C58.9132 19.8529 59.3999 19.7387 59.9165 19.7387ZM66.9245 27.6953C65.8914 27.6953 65.0918 27.4718 64.5256 27.0248C63.9594 26.5778 63.6763 25.9669 63.6763 25.1921H65.4345C65.4444 25.5397 65.5785 25.8278 65.8368 26.0563C66.105 26.2748 66.5023 26.3841 67.0288 26.3841C67.5056 26.3841 67.8731 26.3046 68.1314 26.1457C68.3896 25.9768 68.5188 25.7285 68.5188 25.4007C68.5188 25.1722 68.4542 24.9934 68.3251 24.8643C68.1959 24.7252 68.0221 24.6209 67.8036 24.5514C67.595 24.4719 67.2771 24.3825 66.85 24.2832L66.4626 24.1938C65.9758 24.0746 65.5586 23.9454 65.211 23.8064C64.8732 23.6673 64.5752 23.4488 64.317 23.1508C64.0686 22.8528 63.9445 22.4654 63.9445 21.9886C63.9445 21.2833 64.2226 20.732 64.7789 20.3347C65.3351 19.9373 66.0652 19.7387 66.9692 19.7387C67.9128 19.7387 68.6529 19.9522 69.1893 20.3794C69.7257 20.7966 70.0287 21.3677 70.0982 22.0929L68.3698 22.078C68.2406 21.333 67.7539 20.9605 66.9096 20.9605C66.542 20.9605 66.2391 21.035 66.0007 21.184C65.7722 21.323 65.658 21.5217 65.658 21.78C65.658 22.078 65.797 22.2965 66.0752 22.4356C66.3533 22.5746 66.7854 22.7137 67.3715 22.8528C67.9774 22.9918 68.4741 23.1408 68.8615 23.2998C69.2588 23.4488 69.5916 23.6772 69.8598 23.9852C70.128 24.2931 70.2621 24.7053 70.2621 25.2219C70.2621 25.9768 69.9492 26.5778 69.3234 27.0248C68.6976 27.4718 67.8979 27.6953 66.9245 27.6953Z" fill="white"/>
<path d="M2 64L185 64" stroke="#F96E8F" stroke-width="2.48333" stroke-linecap="round"/>
</svg>
