<svg width="188" height="66" viewBox="0 0 188 66" fill="none" xmlns="http://www.w3.org/2000/svg">
<rect x="0.933105" y="0.583374" width="186.25" height="64.5667" rx="2.48333" fill="#10212E"/>
<rect x="0.933105" y="0.583374" width="132.336" height="64.5667" rx="2.48333" fill="#193347"/>
<path d="M157.855 16.9044V27.4834H156.022V18.9755L153.43 20.2122V18.5583L156.842 16.9044H157.855ZM165.046 27.7218C163.923 27.7218 163.029 27.394 162.364 26.7384C161.698 26.0828 161.366 25.1789 161.366 24.0266V20.3612C161.366 19.2089 161.698 18.305 162.364 17.6494C163.029 16.9938 163.923 16.666 165.046 16.666C166.168 16.666 167.062 16.9938 167.728 17.6494C168.394 18.305 168.726 19.2089 168.726 20.3612V24.0266C168.726 25.1789 168.394 26.0828 167.728 26.7384C167.062 27.394 166.168 27.7218 165.046 27.7218ZM165.046 26.202C165.672 26.202 166.149 26.0182 166.476 25.6507C166.804 25.2832 166.968 24.7468 166.968 24.0415V20.3463C166.968 19.641 166.804 19.1046 166.476 18.7371C166.149 18.3696 165.672 18.1858 165.046 18.1858C164.42 18.1858 163.943 18.3696 163.616 18.7371C163.288 19.1046 163.124 19.641 163.124 20.3463V24.0415C163.124 24.7468 163.288 25.2832 163.616 25.6507C163.943 26.0182 164.42 26.202 165.046 26.202Z" fill="white"/>
<path d="M157.974 44.3948C158.54 44.6431 158.973 44.9908 159.271 45.4378C159.569 45.8748 159.718 46.3864 159.718 46.9725C159.718 47.5784 159.569 48.1148 159.271 48.5817C158.973 49.0485 158.545 49.4161 157.989 49.6843C157.443 49.9425 156.792 50.0717 156.037 50.0717C154.935 50.0717 154.061 49.7836 153.415 49.2075C152.779 48.6214 152.461 47.8019 152.461 46.749H154.19C154.19 47.345 154.359 47.7969 154.696 48.1049C155.034 48.4029 155.496 48.5519 156.082 48.5519C156.688 48.5519 157.155 48.3979 157.483 48.09C157.82 47.782 157.989 47.3698 157.989 46.8533C157.989 46.3367 157.825 45.9195 157.497 45.6017C157.18 45.2739 156.693 45.11 156.037 45.11H154.994L154.979 43.7392H156.037C156.663 43.7392 157.125 43.5852 157.423 43.2773C157.721 42.9693 157.87 42.567 157.87 42.0704C157.87 41.5936 157.716 41.2211 157.408 40.9529C157.11 40.6747 156.673 40.5357 156.097 40.5357C155.521 40.5357 155.069 40.6847 154.741 40.9827C154.423 41.2707 154.264 41.6929 154.264 42.2492H152.595C152.595 41.5538 152.749 40.9628 153.057 40.4761C153.375 39.9893 153.802 39.6268 154.339 39.3884C154.875 39.14 155.476 39.0159 156.142 39.0159C156.787 39.0159 157.368 39.1351 157.885 39.3735C158.411 39.6119 158.824 39.9546 159.122 40.4016C159.43 40.8486 159.583 41.3701 159.583 41.9661C159.583 42.5323 159.444 43.024 159.166 43.4412C158.888 43.8484 158.491 44.1663 157.974 44.3948ZM168.831 47.6877H167.802V49.8333H165.985V47.6877H161.276V46.3616L166.089 39.2543H167.802V46.1977H168.831V47.6877ZM165.985 46.1977V41.9363L163.094 46.1977H165.985Z" fill="white"/>
<path d="M25.8135 44.3536C26.5188 44.4728 27.0502 44.7459 27.4078 45.1731C27.7753 45.6002 27.9591 46.1565 27.9591 46.8419C27.9591 47.7359 27.6561 48.466 27.0502 49.0322C26.4542 49.5884 25.59 49.8666 24.4576 49.8666H19.5108V39.2876H23.9659C25.0486 39.2876 25.9228 39.4713 26.5883 39.8389C27.2638 40.2064 27.6015 40.8719 27.6015 41.8355C27.6015 43.0374 27.0055 43.8668 25.8135 44.3238V44.3536ZM25.7837 42.1782C25.7837 41.761 25.6844 41.453 25.4857 41.2544C25.287 41.0458 25.0536 40.9166 24.7854 40.867C24.5172 40.8074 24.1993 40.7776 23.8318 40.7776H21.3733V43.7427H23.8467C25.138 43.7427 25.7837 43.2212 25.7837 42.1782ZM24.3086 48.3766C24.8847 48.3766 25.3317 48.2425 25.6496 47.9743C25.9675 47.7061 26.1264 47.3038 26.1264 46.7674C26.1264 46.2012 25.9426 45.7889 25.5751 45.5307C25.2076 45.2724 24.7159 45.1433 24.1 45.1433H21.3733V48.3766H24.3086ZM32.6192 42.0888C33.4039 42.0888 34.0694 42.2725 34.6158 42.6401C35.1621 42.9977 35.5694 43.5043 35.8376 44.1599C36.1157 44.8155 36.2399 45.5803 36.2101 46.4545H30.8014C30.8411 47.2193 31.0348 47.7905 31.3825 48.168C31.7301 48.5454 32.197 48.7342 32.7831 48.7342C33.6473 48.7342 34.2085 48.3517 34.4668 47.5869H36.0462C35.9369 48.3319 35.5942 48.9279 35.0181 49.3749C34.4519 49.8219 33.682 50.0454 32.7086 50.0454C31.9139 50.0454 31.2384 49.8715 30.6822 49.5239C30.1358 49.1762 29.7236 48.7044 29.4455 48.1084C29.1773 47.5124 29.0432 46.8319 29.0432 46.0671C29.0432 45.3121 29.1773 44.6367 29.4455 44.0407C29.7236 43.4347 30.1309 42.9579 30.6673 42.6103C31.2037 42.2626 31.8543 42.0888 32.6192 42.0888ZM32.649 43.4C32.1424 43.4 31.7252 43.5539 31.3974 43.8619C31.0795 44.1698 30.8858 44.6317 30.8163 45.2476H34.4668C34.3972 44.6317 34.1986 44.1698 33.8708 43.8619C33.5529 43.5539 33.1456 43.4 32.649 43.4ZM43.6156 47.6912C43.6156 48.0289 43.6653 48.2723 43.7646 48.4213C43.8639 48.5603 44.0527 48.6299 44.3308 48.6299L44.2563 49.8666C44.0378 49.8964 43.8391 49.9113 43.6603 49.9113C43.1835 49.9113 42.8209 49.807 42.5726 49.5984C42.3243 49.3798 42.1802 49.0769 42.1405 48.6895H42.1256C41.8276 49.1563 41.4601 49.499 41.023 49.7176C40.5859 49.9361 40.0694 50.0454 39.4734 50.0454C38.7582 50.0454 38.1771 49.8566 37.7301 49.4792C37.2831 49.0918 37.0596 48.5504 37.0596 47.8551C37.0596 46.9213 37.452 46.2707 38.2367 45.9032C39.0214 45.5356 39.975 45.3519 41.0975 45.3519C41.2962 45.3519 41.5743 45.3618 41.9319 45.3817V44.6516C41.9319 44.1946 41.8127 43.8668 41.5743 43.6682C41.3359 43.4596 40.9684 43.3553 40.4717 43.3553C39.9552 43.3553 39.5578 43.4745 39.2797 43.7129C39.0016 43.9513 38.8625 44.2393 38.8625 44.5771H37.2235C37.2235 44.0903 37.3626 43.6582 37.6407 43.2808C37.9288 42.9033 38.3211 42.6103 38.8178 42.4017C39.3244 42.1931 39.8906 42.0888 40.5164 42.0888C41.47 42.0888 42.2249 42.3073 42.7812 42.7444C43.3375 43.1715 43.6156 43.7874 43.6156 44.592V47.6912ZM39.9502 48.7789C40.5263 48.7789 40.9982 48.605 41.3657 48.2574C41.7432 47.8998 41.9319 47.4677 41.9319 46.9611V46.4098C41.7829 46.3998 41.5743 46.3949 41.3061 46.3949C40.4518 46.3949 39.8211 46.5041 39.4138 46.7227C39.0165 46.9313 38.8178 47.264 38.8178 47.721C38.8178 48.0786 38.9171 48.3468 39.1158 48.5256C39.3244 48.6944 39.6025 48.7789 39.9502 48.7789ZM47.178 43.7576C47.8435 42.645 48.7673 42.1285 49.9494 42.208V43.8917C49.7706 43.8619 49.6017 43.847 49.4428 43.847C48.7574 43.847 48.2111 44.0655 47.8038 44.5026C47.3965 44.9297 47.1929 45.5406 47.1929 46.3353V49.8666H45.4943V42.2676H46.9992L47.178 43.7576ZM53.6204 50.0454C52.5873 50.0454 51.7877 49.8219 51.2215 49.3749C50.6553 48.9279 50.3722 48.317 50.3722 47.5422H52.1304C52.1403 47.8898 52.2744 48.1779 52.5327 48.4064C52.8009 48.6249 53.1982 48.7342 53.7247 48.7342C54.2015 48.7342 54.569 48.6547 54.8273 48.4958C55.0855 48.3269 55.2147 48.0786 55.2147 47.7508C55.2147 47.5223 55.1501 47.3435 55.021 47.2144C54.8918 47.0753 54.718 46.971 54.4995 46.9015C54.2909 46.822 53.973 46.7326 53.5459 46.6333L53.1585 46.5439C52.6717 46.4247 52.2545 46.2955 51.9069 46.1565C51.5691 46.0174 51.2711 45.7989 51.0129 45.5009C50.7645 45.2029 50.6404 44.8155 50.6404 44.3387C50.6404 43.6334 50.9185 43.0821 51.4748 42.6848C52.031 42.2874 52.7611 42.0888 53.6651 42.0888C54.6087 42.0888 55.3488 42.3023 55.8852 42.7295C56.4216 43.1467 56.7246 43.7178 56.7941 44.443L55.0657 44.4281C54.9365 43.6831 54.4498 43.3106 53.6055 43.3106C53.2379 43.3106 52.935 43.3851 52.6966 43.5341C52.4681 43.6731 52.3539 43.8718 52.3539 44.1301C52.3539 44.4281 52.4929 44.6466 52.7711 44.7857C53.0492 44.9247 53.4813 45.0638 54.0674 45.2029C54.6733 45.3419 55.17 45.4909 55.5574 45.6499C55.9547 45.7989 56.2875 46.0273 56.5557 46.3353C56.8239 46.6432 56.958 47.0554 56.958 47.572C56.958 48.3269 56.6451 48.9279 56.0193 49.3749C55.3935 49.8219 54.5938 50.0454 53.6204 50.0454Z" fill="white"/>
<path d="M22.5504 27.7549C21.3783 27.7549 20.4545 27.442 19.779 26.8162C19.1135 26.1904 18.7807 25.3063 18.7807 24.164H20.6283C20.6283 24.8196 20.7972 25.3262 21.1349 25.6838C21.4726 26.0414 21.9395 26.2202 22.5355 26.2202C23.1514 26.2202 23.6282 26.0116 23.9659 25.5944C24.3036 25.1672 24.4725 24.5464 24.4725 23.7319V16.9375H26.3201V23.7915C26.3201 25.0927 25.9923 26.0811 25.3367 26.7566C24.691 27.4221 23.7623 27.7549 22.5504 27.7549ZM34.3904 25.3411C34.3904 25.6788 34.4401 25.9222 34.5394 26.0712C34.6388 26.2102 34.8275 26.2798 35.1056 26.2798L35.0311 27.5165C34.8126 27.5463 34.6139 27.5612 34.4351 27.5612C33.9583 27.5612 33.5958 27.4569 33.3474 27.2483C33.0991 27.0297 32.9551 26.7268 32.9153 26.3394H32.9004C32.6024 26.8062 32.2349 27.1489 31.7978 27.3675C31.3608 27.586 30.8442 27.6953 30.2482 27.6953C29.533 27.6953 28.9519 27.5065 28.5049 27.1291C28.0579 26.7417 27.8344 26.2003 27.8344 25.505C27.8344 24.5712 28.2268 23.9206 29.0115 23.5531C29.7963 23.1855 30.7499 23.0018 31.8723 23.0018C32.071 23.0018 32.3491 23.0117 32.7067 23.0316V22.3015C32.7067 21.8445 32.5875 21.5167 32.3491 21.3181C32.1107 21.1095 31.7432 21.0052 31.2465 21.0052C30.73 21.0052 30.3327 21.1244 30.0545 21.3628C29.7764 21.6012 29.6373 21.8892 29.6373 22.227H27.9983C27.9983 21.7402 28.1374 21.3081 28.4155 20.9307C28.7036 20.5532 29.096 20.2602 29.5926 20.0516C30.0992 19.843 30.6654 19.7387 31.2912 19.7387C32.2448 19.7387 32.9998 19.9572 33.556 20.3943C34.1123 20.8214 34.3904 21.4373 34.3904 22.2419V25.3411ZM30.725 26.4288C31.3012 26.4288 31.773 26.2549 32.1405 25.9073C32.518 25.5497 32.7067 25.1176 32.7067 24.611V24.0597C32.5577 24.0497 32.3491 24.0448 32.0809 24.0448C31.2267 24.0448 30.5959 24.154 30.1886 24.3726C29.7913 24.5812 29.5926 24.9139 29.5926 25.3709C29.5926 25.7285 29.692 25.9967 29.8906 26.1755C30.0992 26.3443 30.3774 26.4288 30.725 26.4288ZM43.0784 19.9175V27.6655C43.0784 28.7681 42.7357 29.5528 42.0503 30.0197C41.3649 30.4965 40.4659 30.7349 39.3534 30.7349C38.3203 30.7349 37.5306 30.5114 36.9843 30.0644C36.438 29.6174 36.1648 29.0412 36.1648 28.336H37.8187C37.8286 28.6936 37.9677 28.9717 38.2359 29.1704C38.514 29.379 38.9014 29.4833 39.3981 29.4833C40.7192 29.4833 41.3798 28.932 41.3798 27.8294V26.399C41.0917 26.8162 40.7341 27.1291 40.307 27.3377C39.8898 27.5463 39.4378 27.6506 38.9511 27.6506C37.9975 27.6506 37.2475 27.3029 36.7012 26.6076C36.1648 25.9023 35.8966 24.9487 35.8966 23.7468C35.8966 22.9422 36.0257 22.2369 36.284 21.631C36.5522 21.025 36.9297 20.5582 37.4164 20.2304C37.9031 19.9026 38.4693 19.7387 39.115 19.7387C40.1183 19.7387 40.8881 20.1757 41.4245 21.0499L41.5735 19.9175H43.0784ZM39.413 26.2649C39.6713 26.2649 39.9494 26.1953 40.2474 26.0563C40.5454 25.9172 40.8086 25.6589 41.0371 25.2815C41.2656 24.8941 41.3798 24.3726 41.3798 23.717C41.3798 23.0614 41.2705 22.5399 41.052 22.1525C40.8335 21.7651 40.5752 21.4969 40.2772 21.3479C39.9891 21.1989 39.716 21.1244 39.4577 21.1244C38.9114 21.1244 38.4693 21.3528 38.1316 21.8098C37.8038 22.2667 37.6399 22.9124 37.6399 23.7468C37.6399 24.5613 37.7939 25.1871 38.1018 25.6242C38.4197 26.0513 38.8567 26.2649 39.413 26.2649ZM51.5293 19.9175V27.5165H50.0244L49.8903 26.3692C49.5823 26.7963 49.1999 27.1241 48.743 27.3526C48.286 27.581 47.7993 27.6953 47.2828 27.6953C46.5676 27.6953 45.9815 27.4966 45.5246 27.0993C45.0776 26.692 44.8541 26.101 44.8541 25.3262V19.9175H46.5527V24.9984C46.5527 25.8626 46.9748 26.2947 47.8192 26.2947C48.0973 26.2947 48.3854 26.2301 48.6834 26.101C48.9913 25.9619 49.2595 25.7136 49.488 25.356C49.7164 24.9884 49.8307 24.4868 49.8307 23.8511V19.9175H51.5293ZM59.5051 25.3411C59.5051 25.6788 59.5547 25.9222 59.6541 26.0712C59.7534 26.2102 59.9421 26.2798 60.2203 26.2798L60.1458 27.5165C59.9272 27.5463 59.7286 27.5612 59.5498 27.5612C59.073 27.5612 58.7104 27.4569 58.4621 27.2483C58.2137 27.0297 58.0697 26.7268 58.03 26.3394H58.0151C57.7171 26.8062 57.3495 27.1489 56.9125 27.3675C56.4754 27.586 55.9589 27.6953 55.3629 27.6953C54.6477 27.6953 54.0666 27.5065 53.6196 27.1291C53.1726 26.7417 52.9491 26.2003 52.9491 25.505C52.9491 24.5712 53.3414 23.9206 54.1262 23.5531C54.9109 23.1855 55.8645 23.0018 56.987 23.0018C57.1856 23.0018 57.4638 23.0117 57.8214 23.0316V22.3015C57.8214 21.8445 57.7022 21.5167 57.4638 21.3181C57.2254 21.1095 56.8578 21.0052 56.3612 21.0052C55.8446 21.0052 55.4473 21.1244 55.1692 21.3628C54.891 21.6012 54.752 21.8892 54.752 22.227H53.113C53.113 21.7402 53.252 21.3081 53.5302 20.9307C53.8182 20.5532 54.2106 20.2602 54.7073 20.0516C55.2139 19.843 55.7801 19.7387 56.4059 19.7387C57.3595 19.7387 58.1144 19.9572 58.6707 20.3943C59.2269 20.8214 59.5051 21.4373 59.5051 22.2419V25.3411ZM55.8397 26.4288C56.4158 26.4288 56.8876 26.2549 57.2552 25.9073C57.6326 25.5497 57.8214 25.1176 57.8214 24.611V24.0597C57.6724 24.0497 57.4638 24.0448 57.1956 24.0448C56.3413 24.0448 55.7105 24.154 55.3033 24.3726C54.9059 24.5812 54.7073 24.9139 54.7073 25.3709C54.7073 25.7285 54.8066 25.9967 55.0053 26.1755C55.2139 26.3443 55.492 26.4288 55.8397 26.4288ZM63.0674 21.4075C63.733 20.2949 64.6568 19.7784 65.8388 19.8579V21.5416C65.66 21.5118 65.4912 21.4969 65.3322 21.4969C64.6468 21.4969 64.1005 21.7154 63.6932 22.1525C63.286 22.5796 63.0823 23.1905 63.0823 23.9852V27.5165H61.3837V19.9175H62.8886L63.0674 21.4075ZM69.5098 27.6953C68.4768 27.6953 67.6771 27.4718 67.1109 27.0248C66.5447 26.5778 66.2616 25.9669 66.2616 25.1921H68.0198C68.0298 25.5397 68.1639 25.8278 68.4221 26.0563C68.6903 26.2748 69.0877 26.3841 69.6141 26.3841C70.0909 26.3841 70.4585 26.3046 70.7167 26.1457C70.975 25.9768 71.1041 25.7285 71.1041 25.4007C71.1041 25.1722 71.0396 24.9934 70.9104 24.8643C70.7813 24.7252 70.6075 24.6209 70.3889 24.5514C70.1803 24.4719 69.8625 24.3825 69.4353 24.2832L69.0479 24.1938C68.5612 24.0746 68.144 23.9454 67.7963 23.8064C67.4586 23.6673 67.1606 23.4488 66.9023 23.1508C66.654 22.8528 66.5298 22.4654 66.5298 21.9886C66.5298 21.2833 66.808 20.732 67.3642 20.3347C67.9205 19.9373 68.6506 19.7387 69.5545 19.7387C70.4982 19.7387 71.2382 19.9522 71.7746 20.3794C72.311 20.7966 72.614 21.3677 72.6835 22.0929L70.9551 22.078C70.826 21.333 70.3393 20.9605 69.4949 20.9605C69.1274 20.9605 68.8244 21.035 68.586 21.184C68.3576 21.323 68.2433 21.5217 68.2433 21.78C68.2433 22.078 68.3824 22.2965 68.6605 22.4356C68.9387 22.5746 69.3708 22.7137 69.9568 22.8528C70.5628 22.9918 71.0594 23.1408 71.4468 23.2998C71.8442 23.4488 72.1769 23.6772 72.4451 23.9852C72.7133 24.2931 72.8474 24.7053 72.8474 25.2219C72.8474 25.9768 72.5345 26.5778 71.9087 27.0248C71.2829 27.4718 70.4833 27.6953 69.5098 27.6953Z" fill="white"/>
<path d="M2.17529 63.9082L186 63.9082" stroke="#F96E8F" stroke-width="2.48333" stroke-linecap="round"/>
</svg>
