<svg width="187" height="66" viewBox="0 0 187 66" fill="none" xmlns="http://www.w3.org/2000/svg">
<rect x="0.395508" y="0.583374" width="186.25" height="64.5667" rx="2.48333" fill="#10212E"/>
<rect x="0.395508" y="0.583374" width="132.336" height="64.5667" rx="2.48333" fill="#193347"/>
<path d="M154.293 25.9636H159.121V27.4834H151.939V26.0828L155.947 22.3131C156.464 21.8264 156.841 21.4092 157.08 21.0615C157.328 20.7039 157.452 20.2966 157.452 19.8397C157.452 19.3331 157.293 18.9308 156.975 18.6328C156.667 18.3249 156.225 18.1709 155.649 18.1709C155.063 18.1709 154.586 18.3398 154.219 18.6775C153.851 19.0053 153.667 19.4722 153.667 20.0781H151.939C151.939 19.3828 152.093 18.7768 152.401 18.2603C152.719 17.7438 153.156 17.3464 153.712 17.0683C154.278 16.7902 154.924 16.6511 155.649 16.6511C156.345 16.6511 156.96 16.7852 157.497 17.0534C158.033 17.3117 158.445 17.6792 158.733 18.156C159.031 18.6229 159.18 19.1642 159.18 19.7801C159.18 20.2867 159.081 20.7536 158.882 21.1807C158.684 21.5979 158.46 21.9456 158.212 22.2237C157.974 22.4919 157.651 22.8147 157.243 23.1922L154.293 25.9636ZM164.509 27.7218C163.386 27.7218 162.492 27.394 161.827 26.7384C161.161 26.0828 160.829 25.1789 160.829 24.0266V20.3612C160.829 19.2089 161.161 18.305 161.827 17.6494C162.492 16.9938 163.386 16.666 164.509 16.666C165.631 16.666 166.525 16.9938 167.191 17.6494C167.856 18.305 168.189 19.2089 168.189 20.3612V24.0266C168.189 25.1789 167.856 26.0828 167.191 26.7384C166.525 27.394 165.631 27.7218 164.509 27.7218ZM164.509 26.202C165.135 26.202 165.611 26.0182 165.939 25.6507C166.267 25.2832 166.431 24.7468 166.431 24.0415V20.3463C166.431 19.641 166.267 19.1046 165.939 18.7371C165.611 18.3696 165.135 18.1858 164.509 18.1858C163.883 18.1858 163.406 18.3696 163.078 18.7371C162.751 19.1046 162.587 19.641 162.587 20.3463V24.0415C162.587 24.7468 162.751 25.2832 163.078 25.6507C163.406 26.0182 163.883 26.202 164.509 26.202Z" fill="white"/>
<path d="M157.318 39.2543V49.8333H155.485V41.3254L152.893 42.5621V40.9082L156.305 39.2543H157.318ZM164.509 50.0717C163.386 50.0717 162.492 49.7439 161.827 49.0883C161.161 48.4327 160.829 47.5287 160.829 46.3765V42.7111C160.829 41.5588 161.161 40.6549 161.827 39.9993C162.492 39.3437 163.386 39.0159 164.509 39.0159C165.631 39.0159 166.525 39.3437 167.191 39.9993C167.856 40.6549 168.189 41.5588 168.189 42.7111V46.3765C168.189 47.5287 167.856 48.4327 167.191 49.0883C166.525 49.7439 165.631 50.0717 164.509 50.0717ZM164.509 48.5519C165.135 48.5519 165.611 48.3681 165.939 48.0006C166.267 47.633 166.431 47.0966 166.431 46.3914V42.6962C166.431 41.9909 166.267 41.4545 165.939 41.087C165.611 40.7194 165.135 40.5357 164.509 40.5357C163.883 40.5357 163.406 40.7194 163.078 41.087C162.751 41.4545 162.587 41.9909 162.587 42.6962V46.3914C162.587 47.0966 162.751 47.633 163.078 48.0006C163.406 48.3681 163.883 48.5519 164.509 48.5519Z" fill="white"/>
<path d="M25.2764 44.3536C25.9816 44.4728 26.5131 44.7459 26.8707 45.1731C27.2382 45.6002 27.422 46.1565 27.422 46.8419C27.422 47.7359 27.119 48.466 26.5131 49.0322C25.9171 49.5884 25.0529 49.8666 23.9205 49.8666H18.9737V39.2876H23.4288C24.5115 39.2876 25.3856 39.4713 26.0512 39.8389C26.7266 40.2064 27.0644 40.8719 27.0644 41.8355C27.0644 43.0374 26.4684 43.8668 25.2764 44.3238V44.3536ZM25.2466 42.1782C25.2466 41.761 25.1472 41.453 24.9486 41.2544C24.7499 41.0458 24.5165 40.9166 24.2483 40.867C23.9801 40.8074 23.6622 40.7776 23.2947 40.7776H20.8362V43.7427H23.3096C24.6009 43.7427 25.2466 43.2212 25.2466 42.1782ZM23.7715 48.3766C24.3476 48.3766 24.7946 48.2425 25.1125 47.9743C25.4303 47.7061 25.5893 47.3038 25.5893 46.7674C25.5893 46.2012 25.4055 45.7889 25.038 45.5307C24.6704 45.2724 24.1787 45.1433 23.5629 45.1433H20.8362V48.3766H23.7715ZM30.5623 43.7576C31.2278 42.645 32.1516 42.1285 33.3337 42.208V43.8917C33.1549 43.8619 32.986 43.847 32.8271 43.847C32.1417 43.847 31.5953 44.0655 31.1881 44.5026C30.7808 44.9297 30.5772 45.5406 30.5772 46.3353V49.8666H28.8786V42.2676H30.3835L30.5623 43.7576ZM37.3976 50.0454C36.5831 50.0454 35.8927 49.8715 35.3265 49.5239C34.7603 49.1762 34.3332 48.7044 34.0451 48.1084C33.767 47.5124 33.6279 46.8319 33.6279 46.0671C33.6279 45.3022 33.767 44.6218 34.0451 44.0258C34.3233 43.4198 34.7454 42.948 35.3116 42.6103C35.8778 42.2626 36.5732 42.0888 37.3976 42.0888C38.2122 42.0888 38.9025 42.2626 39.4687 42.6103C40.0349 42.9579 40.4571 43.4298 40.7352 44.0258C41.0134 44.6218 41.1524 45.3022 41.1524 46.0671C41.1524 46.8319 41.0084 47.5124 40.7203 48.1084C40.4422 48.7044 40.02 49.1762 39.4538 49.5239C38.8976 49.8715 38.2122 50.0454 37.3976 50.0454ZM37.3976 48.6895C38.0433 48.6895 38.535 48.4709 38.8727 48.0339C39.2204 47.5968 39.3942 46.9412 39.3942 46.0671C39.3942 45.1929 39.2204 44.5373 38.8727 44.1003C38.535 43.6632 38.0433 43.4447 37.3976 43.4447C36.742 43.4447 36.2404 43.6632 35.8927 44.1003C35.555 44.5373 35.3861 45.1929 35.3861 46.0671C35.3861 46.9412 35.56 47.5968 35.9076 48.0339C36.2553 48.4709 36.752 48.6895 37.3976 48.6895ZM53.1395 42.2676L50.681 49.8666H48.9228L47.3881 44.3983L45.8534 49.8666H44.0952L41.6367 42.2676H43.4843L45.019 47.7955L46.5835 42.2676H48.2076L49.7721 47.7955L51.2919 42.2676H53.1395ZM58.4434 42.0888C59.1586 42.0888 59.7397 42.2924 60.1867 42.6997C60.6437 43.097 60.8721 43.6831 60.8721 44.4579V49.8666H59.1735V44.7857C59.1735 43.9215 58.7563 43.4894 57.9219 43.4894C57.6438 43.4894 57.3508 43.5589 57.0428 43.698C56.7349 43.8271 56.4667 44.0754 56.2382 44.443C56.0098 44.8006 55.8955 45.2972 55.8955 45.933V49.8666H54.1969V42.2676H55.7018L55.8359 43.4298C56.1439 42.9927 56.5263 42.6599 56.9832 42.4315C57.4402 42.203 57.9269 42.0888 58.4434 42.0888ZM65.4514 50.0454C64.4184 50.0454 63.6187 49.8219 63.0525 49.3749C62.4863 48.9279 62.2032 48.317 62.2032 47.5422H63.9614C63.9714 47.8898 64.1055 48.1779 64.3637 48.4064C64.6319 48.6249 65.0293 48.7342 65.5557 48.7342C66.0325 48.7342 66.4001 48.6547 66.6583 48.4958C66.9166 48.3269 67.0457 48.0786 67.0457 47.7508C67.0457 47.5223 66.9812 47.3435 66.852 47.2144C66.7229 47.0753 66.5491 46.971 66.3305 46.9015C66.1219 46.822 65.8041 46.7326 65.3769 46.6333L64.9895 46.5439C64.5028 46.4247 64.0856 46.2955 63.7379 46.1565C63.4002 46.0174 63.1022 45.7989 62.8439 45.5009C62.5956 45.2029 62.4714 44.8155 62.4714 44.3387C62.4714 43.6334 62.7496 43.0821 63.3058 42.6848C63.8621 42.2874 64.5922 42.0888 65.4961 42.0888C66.4398 42.0888 67.1798 42.3023 67.7162 42.7295C68.2526 43.1467 68.5556 43.7178 68.6251 44.443L66.8967 44.4281C66.7676 43.6831 66.2809 43.3106 65.4365 43.3106C65.069 43.3106 64.766 43.3851 64.5276 43.5341C64.2992 43.6731 64.1849 43.8718 64.1849 44.1301C64.1849 44.4281 64.324 44.6466 64.6021 44.7857C64.8803 44.9247 65.3124 45.0638 65.8984 45.2029C66.5044 45.3419 67.001 45.4909 67.3884 45.6499C67.7858 45.7989 68.1185 46.0273 68.3867 46.3353C68.6549 46.6432 68.789 47.0554 68.789 47.572C68.789 48.3269 68.4761 48.9279 67.8503 49.3749C67.2245 49.8219 66.4249 50.0454 65.4514 50.0454Z" fill="white"/>
<path d="M22.0133 27.7549C20.8411 27.7549 19.9173 27.442 19.2419 26.8162C18.5763 26.1904 18.2436 25.3063 18.2436 24.164H20.0912C20.0912 24.8196 20.26 25.3262 20.5978 25.6838C20.9355 26.0414 21.4024 26.2202 21.9984 26.2202C22.6142 26.2202 23.091 26.0116 23.4288 25.5944C23.7665 25.1672 23.9354 24.5464 23.9354 23.7319V16.9375H25.783V23.7915C25.783 25.0927 25.4552 26.0811 24.7996 26.7566C24.1539 27.4221 23.2251 27.7549 22.0133 27.7549ZM30.918 19.7387C31.7027 19.7387 32.3683 19.9224 32.9146 20.29C33.4609 20.6476 33.8682 21.1542 34.1364 21.8098C34.4145 22.4654 34.5387 23.2302 34.5089 24.1044H29.1002C29.1399 24.8692 29.3336 25.4404 29.6813 25.8179C30.029 26.1953 30.4958 26.3841 31.0819 26.3841C31.9461 26.3841 32.5073 26.0016 32.7656 25.2368H34.345C34.2357 25.9818 33.893 26.5778 33.3169 27.0248C32.7507 27.4718 31.9809 27.6953 31.0074 27.6953C30.2127 27.6953 29.5373 27.5214 28.981 27.1738C28.4347 26.8261 28.0224 26.3543 27.7443 25.7583C27.4761 25.1623 27.342 24.4818 27.342 23.717C27.342 22.962 27.4761 22.2866 27.7443 21.6906C28.0224 21.0846 28.4297 20.6078 28.9661 20.2602C29.5025 19.9125 30.1531 19.7387 30.918 19.7387ZM30.9478 21.0499C30.4412 21.0499 30.024 21.2038 29.6962 21.5118C29.3783 21.8197 29.1846 22.2816 29.1151 22.8975H32.7656C32.6961 22.2816 32.4974 21.8197 32.1696 21.5118C31.8517 21.2038 31.4445 21.0499 30.9478 21.0499ZM38.6573 26.2649C38.9255 26.2649 39.1937 26.2251 39.4619 26.1457L39.3725 27.4718C38.9354 27.581 38.5629 27.6357 38.255 27.6357C37.5398 27.6357 37.0034 27.4519 36.6458 27.0844C36.2882 26.7168 36.1094 26.1208 36.1094 25.2964V21.2436H34.7535L34.7833 19.9175H36.1094L36.2584 17.6378H37.808V19.9175H39.447L39.4172 21.2436H37.808V25.207C37.808 25.6043 37.8725 25.8824 38.0017 26.0414C38.1308 26.1904 38.3493 26.2649 38.6573 26.2649ZM43.4798 27.6953C42.4467 27.6953 41.6471 27.4718 41.0809 27.0248C40.5147 26.5778 40.2316 25.9669 40.2316 25.1921H41.9898C41.9997 25.5397 42.1338 25.8278 42.3921 26.0563C42.6603 26.2748 43.0576 26.3841 43.5841 26.3841C44.0609 26.3841 44.4284 26.3046 44.6867 26.1457C44.9449 25.9768 45.0741 25.7285 45.0741 25.4007C45.0741 25.1722 45.0095 24.9934 44.8804 24.8643C44.7512 24.7252 44.5774 24.6209 44.3589 24.5514C44.1503 24.4719 43.8324 24.3825 43.4053 24.2832L43.0179 24.1938C42.5311 24.0746 42.1139 23.9454 41.7663 23.8064C41.4285 23.6673 41.1305 23.4488 40.8723 23.1508C40.6239 22.8528 40.4998 22.4654 40.4998 21.9886C40.4998 21.2833 40.7779 20.732 41.3342 20.3347C41.8904 19.9373 42.6205 19.7387 43.5245 19.7387C44.4681 19.7387 45.2082 19.9522 45.7446 20.3794C46.281 20.7966 46.5839 21.3677 46.6535 22.0929L44.9251 22.078C44.7959 21.333 44.3092 20.9605 43.4649 20.9605C43.0973 20.9605 42.7944 21.035 42.556 21.184C42.3275 21.323 42.2133 21.5217 42.2133 21.78C42.2133 22.078 42.3523 22.2965 42.6305 22.4356C42.9086 22.5746 43.3407 22.7137 43.9268 22.8528C44.5327 22.9918 45.0294 23.1408 45.4168 23.2998C45.8141 23.4488 46.1469 23.6772 46.4151 23.9852C46.6833 24.2931 46.8174 24.7053 46.8174 25.2219C46.8174 25.9768 46.5045 26.5778 45.8787 27.0248C45.2529 27.4718 44.4532 27.6953 43.4798 27.6953Z" fill="white"/>
<path d="M2 64L185 64" stroke="#F96E8F" stroke-width="2.48333" stroke-linecap="round"/>
</svg>
