<svg width="187" height="66" viewBox="0 0 187 66" fill="none" xmlns="http://www.w3.org/2000/svg">
<rect x="0.708984" y="0.583374" width="186.25" height="64.5667" rx="2.48333" fill="#10212E"/>
<path d="M145.754 32.3756C146.4 32.3756 146.951 32.5168 147.407 32.799C147.862 33.0813 148.203 33.4683 148.431 33.96C148.668 34.4426 148.786 34.9844 148.786 35.5853C148.786 36.2682 148.649 36.8601 148.376 37.3609C148.103 37.8526 147.716 38.2305 147.215 38.4945C146.724 38.7495 146.15 38.877 145.494 38.877C144.547 38.877 143.782 38.6402 143.2 38.1667C142.617 37.6842 142.326 36.9739 142.326 36.036H143.855C143.855 36.5004 144.006 36.8601 144.306 37.1151C144.607 37.3609 145.007 37.4838 145.508 37.4838C146.073 37.4838 146.501 37.3108 146.792 36.9648C147.083 36.6188 147.229 36.159 147.229 35.5853C147.229 34.957 147.06 34.4744 146.724 34.1375C146.396 33.8006 145.963 33.6322 145.426 33.6322C145.18 33.6322 144.916 33.6777 144.634 33.7688C144.361 33.8507 144.11 33.9736 143.883 34.1375H142.612V28.961H148.267V30.3542H144.047V32.7717C144.283 32.6533 144.552 32.5577 144.852 32.4849C145.153 32.412 145.453 32.3756 145.754 32.3756ZM151.922 38.8497C151.622 38.8497 151.362 38.7404 151.144 38.5219C150.925 38.3033 150.816 38.0438 150.816 37.7433C150.816 37.4338 150.925 37.1742 151.144 36.9648C151.362 36.7463 151.622 36.637 151.922 36.637C152.232 36.637 152.491 36.7463 152.701 36.9648C152.919 37.1742 153.028 37.4338 153.028 37.7433C153.028 38.0438 152.919 38.3033 152.701 38.5219C152.491 38.7404 152.232 38.8497 151.922 38.8497ZM151.922 33.7278C151.622 33.7278 151.362 33.6185 151.144 33.4C150.925 33.1815 150.816 32.9219 150.816 32.6215C150.816 32.3119 150.925 32.0524 151.144 31.8429C151.362 31.6244 151.622 31.5151 151.922 31.5151C152.232 31.5151 152.491 31.6244 152.701 31.8429C152.919 32.0524 153.028 32.3119 153.028 32.6215C153.028 32.9219 152.919 33.1815 152.701 33.4C152.491 33.6185 152.232 33.7278 151.922 33.7278ZM157.073 37.2653H161.499V38.6584H154.915V37.3746L158.589 33.919C159.063 33.4728 159.409 33.0904 159.627 32.7717C159.855 32.4439 159.969 32.0706 159.969 31.6517C159.969 31.1873 159.823 30.8186 159.532 30.5454C159.25 30.2631 158.844 30.122 158.316 30.122C157.779 30.122 157.342 30.2768 157.005 30.5864C156.668 30.8869 156.5 31.3148 156.5 31.8703H154.915C154.915 31.2329 155.056 30.6774 155.339 30.2039C155.63 29.7305 156.031 29.3662 156.541 29.1113C157.06 28.8563 157.651 28.7288 158.316 28.7288C158.954 28.7288 159.518 28.8518 160.01 29.0976C160.502 29.3344 160.879 29.6713 161.143 30.1083C161.417 30.5363 161.553 31.0325 161.553 31.5971C161.553 32.0615 161.462 32.4894 161.28 32.881C161.098 33.2634 160.893 33.5821 160.665 33.8371C160.447 34.0829 160.151 34.3788 159.778 34.7248L157.073 37.2653ZM166.438 38.877C165.409 38.877 164.589 38.5765 163.979 37.9755C163.369 37.3746 163.064 36.546 163.064 35.4897V32.1298C163.064 31.0735 163.369 30.2449 163.979 29.6439C164.589 29.043 165.409 28.7425 166.438 28.7425C167.467 28.7425 168.286 29.043 168.896 29.6439C169.506 30.2449 169.811 31.0735 169.811 32.1298V35.4897C169.811 36.546 169.506 37.3746 168.896 37.9755C168.286 38.5765 167.467 38.877 166.438 38.877ZM166.438 37.4838C167.011 37.4838 167.448 37.3154 167.749 36.9785C168.049 36.6416 168.2 36.1499 168.2 35.5034V32.1161C168.2 31.4696 168.049 30.9779 167.749 30.641C167.448 30.3041 167.011 30.1356 166.438 30.1356C165.864 30.1356 165.427 30.3041 165.126 30.641C164.826 30.9779 164.676 31.4696 164.676 32.1161V35.5034C164.676 36.1499 164.826 36.6416 165.126 36.9785C165.427 37.3154 165.864 37.4838 166.438 37.4838ZM175.133 31.5288C176.007 31.5288 176.69 31.852 177.181 32.4985C177.682 33.145 177.933 34.0283 177.933 35.1483C177.933 35.8858 177.81 36.5323 177.564 37.0877C177.318 37.6432 176.967 38.0711 176.512 38.3716C176.066 38.6721 175.547 38.8223 174.955 38.8223C174.09 38.8223 173.407 38.449 172.906 37.7024V41.3901H171.349V31.6927H172.729L172.865 32.7444C173.129 32.3437 173.457 32.0433 173.849 31.8429C174.249 31.6335 174.677 31.5288 175.133 31.5288ZM174.641 37.5521C175.151 37.5521 175.561 37.3427 175.87 36.9238C176.18 36.505 176.335 35.9131 176.335 35.1483C176.335 34.3743 176.189 33.7915 175.897 33.4C175.615 32.9993 175.219 32.799 174.709 32.799C174.482 32.799 174.227 32.8673 173.944 33.0039C173.671 33.1405 173.43 33.3863 173.22 33.7414C173.011 34.0966 172.906 34.5746 172.906 35.1756C172.906 35.7765 173.002 36.2546 173.193 36.6097C173.393 36.9648 173.626 37.2107 173.89 37.3472C174.154 37.4838 174.404 37.5521 174.641 37.5521Z" fill="white"/>
<rect x="0.708984" y="0.583374" width="132.336" height="64.5667" rx="2.48333" fill="#193347"/>
<path d="M26.7958 40.8521H23.5029V49.8666H21.6404V40.8521H18.3326V39.2876H26.7958V40.8521ZM28.8521 41.0756C28.5342 41.0756 28.276 40.9762 28.0773 40.7776C27.8886 40.5789 27.7942 40.3306 27.7942 40.0326C27.7942 39.7445 27.8886 39.5011 28.0773 39.3025C28.276 39.0939 28.5342 38.9896 28.8521 38.9896C29.16 38.9896 29.4133 39.0939 29.612 39.3025C29.8107 39.5011 29.91 39.7445 29.91 40.0326C29.91 40.3306 29.8107 40.5789 29.612 40.7776C29.4233 40.9762 29.17 41.0756 28.8521 41.0756ZM28.0028 42.2676H29.7014V49.8666H28.0028V42.2676ZM34.7937 48.615C35.0619 48.615 35.3301 48.5752 35.5983 48.4958L35.5089 49.8219C35.0718 49.9311 34.6993 49.9858 34.3914 49.9858C33.6762 49.9858 33.1398 49.802 32.7822 49.4345C32.4246 49.0669 32.2458 48.4709 32.2458 47.6465V43.5937H30.8899L30.9197 42.2676H32.2458L32.3948 39.9879H33.9444V42.2676H35.5834L35.5536 43.5937H33.9444V47.5571C33.9444 47.9544 34.009 48.2325 34.1381 48.3915C34.2672 48.5405 34.4858 48.615 34.7937 48.615ZM42.9836 47.6912C42.9836 48.0289 43.0333 48.2723 43.1326 48.4213C43.2319 48.5603 43.4207 48.6299 43.6988 48.6299L43.6243 49.8666C43.4058 49.8964 43.2071 49.9113 43.0283 49.9113C42.5515 49.9113 42.1889 49.807 41.9406 49.5984C41.6922 49.3798 41.5482 49.0769 41.5085 48.6895H41.4936C41.1956 49.1563 40.828 49.499 40.391 49.7176C39.9539 49.9361 39.4374 50.0454 38.8414 50.0454C38.1262 50.0454 37.5451 49.8566 37.0981 49.4792C36.6511 49.0918 36.4276 48.5504 36.4276 47.8551C36.4276 46.9213 36.8199 46.2707 37.6047 45.9032C38.3894 45.5356 39.343 45.3519 40.4655 45.3519C40.6641 45.3519 40.9423 45.3618 41.2999 45.3817V44.6516C41.2999 44.1946 41.1807 43.8668 40.9423 43.6682C40.7039 43.4596 40.3363 43.3553 39.8397 43.3553C39.3231 43.3553 38.9258 43.4745 38.6477 43.7129C38.3695 43.9513 38.2305 44.2393 38.2305 44.5771H36.5915C36.5915 44.0903 36.7305 43.6582 37.0087 43.2808C37.2967 42.9033 37.6891 42.6103 38.1858 42.4017C38.6924 42.1931 39.2586 42.0888 39.8844 42.0888C40.838 42.0888 41.5929 42.3073 42.1492 42.7444C42.7055 43.1715 42.9836 43.7874 42.9836 44.592V47.6912ZM39.3182 48.7789C39.8943 48.7789 40.3661 48.605 40.7337 48.2574C41.1111 47.8998 41.2999 47.4677 41.2999 46.9611V46.4098C41.1509 46.3998 40.9423 46.3949 40.6741 46.3949C39.8198 46.3949 39.189 46.5041 38.7818 46.7227C38.3844 46.9313 38.1858 47.264 38.1858 47.721C38.1858 48.0786 38.2851 48.3468 38.4838 48.5256C38.6924 48.6944 38.9705 48.7789 39.3182 48.7789ZM49.1088 42.0888C49.824 42.0888 50.4051 42.2924 50.8521 42.6997C51.309 43.097 51.5375 43.6831 51.5375 44.4579V49.8666H49.8389V44.7857C49.8389 43.9215 49.4217 43.4894 48.5873 43.4894C48.3091 43.4894 48.0161 43.5589 47.7082 43.698C47.4002 43.8271 47.132 44.0754 46.9036 44.443C46.6751 44.8006 46.5609 45.2972 46.5609 45.933V49.8666H44.8623V42.2676H46.3672L46.5013 43.4298C46.8092 42.9927 47.1916 42.6599 47.6486 42.4315C48.1055 42.203 48.5922 42.0888 49.1088 42.0888ZM56.1168 50.0454C55.0837 50.0454 54.2841 49.8219 53.7179 49.3749C53.1517 48.9279 52.8686 48.317 52.8686 47.5422H54.6268C54.6367 47.8898 54.7708 48.1779 55.0291 48.4064C55.2973 48.6249 55.6946 48.7342 56.2211 48.7342C56.6979 48.7342 57.0654 48.6547 57.3237 48.4958C57.5819 48.3269 57.7111 48.0786 57.7111 47.7508C57.7111 47.5223 57.6465 47.3435 57.5174 47.2144C57.3882 47.0753 57.2144 46.971 56.9959 46.9015C56.7873 46.822 56.4694 46.7326 56.0423 46.6333L55.6549 46.5439C55.1681 46.4247 54.7509 46.2955 54.4033 46.1565C54.0655 46.0174 53.7675 45.7989 53.5093 45.5009C53.2609 45.2029 53.1368 44.8155 53.1368 44.3387C53.1368 43.6334 53.4149 43.0821 53.9712 42.6848C54.5274 42.2874 55.2575 42.0888 56.1615 42.0888C57.1051 42.0888 57.8452 42.3023 58.3816 42.7295C58.918 43.1467 59.2209 43.7178 59.2905 44.443L57.5621 44.4281C57.4329 43.6831 56.9462 43.3106 56.1019 43.3106C55.7343 43.3106 55.4314 43.3851 55.193 43.5341C54.9645 43.6731 54.8503 43.8718 54.8503 44.1301C54.8503 44.4281 54.9893 44.6466 55.2675 44.7857C55.5456 44.9247 55.9777 45.0638 56.5638 45.2029C57.1697 45.3419 57.6664 45.4909 58.0538 45.6499C58.4511 45.7989 58.7839 46.0273 59.0521 46.3353C59.3203 46.6432 59.4544 47.0554 59.4544 47.572C59.4544 48.3269 59.1415 48.9279 58.5157 49.3749C57.8899 49.8219 57.0902 50.0454 56.1168 50.0454Z" fill="white"/>
<path d="M23.6668 16.9375C24.8687 16.9375 25.7875 17.2355 26.4233 17.8315C27.059 18.4175 27.3769 19.2271 27.3769 20.2602C27.3769 21.323 27.0441 22.1475 26.3786 22.7336C25.723 23.3196 24.7942 23.6077 23.5923 23.5978H21.1487V27.5165H19.2862V16.9375H23.6668ZM23.4284 22.078C24.1336 22.078 24.6651 21.924 25.0227 21.6161C25.3902 21.3081 25.574 20.8562 25.574 20.2602C25.574 19.6443 25.3952 19.1923 25.0376 18.9043C24.6899 18.6063 24.1535 18.4573 23.4284 18.4573H21.1487V22.078H23.4284ZM34.6169 25.3411C34.6169 25.6788 34.6665 25.9222 34.7659 26.0712C34.8652 26.2102 35.0539 26.2798 35.3321 26.2798L35.2576 27.5165C35.0391 27.5463 34.8404 27.5612 34.6616 27.5612C34.1848 27.5612 33.8222 27.4569 33.5739 27.2483C33.3255 27.0297 33.1815 26.7268 33.1418 26.3394H33.1269C32.8289 26.8062 32.4613 27.1489 32.0243 27.3675C31.5872 27.586 31.0707 27.6953 30.4747 27.6953C29.7595 27.6953 29.1784 27.5065 28.7314 27.1291C28.2844 26.7417 28.0609 26.2003 28.0609 25.505C28.0609 24.5712 28.4532 23.9206 29.238 23.5531C30.0227 23.1855 30.9763 23.0018 32.0988 23.0018C32.2974 23.0018 32.5756 23.0117 32.9332 23.0316V22.3015C32.9332 21.8445 32.814 21.5167 32.5756 21.3181C32.3372 21.1095 31.9696 21.0052 31.473 21.0052C30.9564 21.0052 30.5591 21.1244 30.281 21.3628C30.0028 21.6012 29.8638 21.8892 29.8638 22.227H28.2248C28.2248 21.7402 28.3638 21.3081 28.642 20.9307C28.93 20.5532 29.3224 20.2602 29.8191 20.0516C30.3257 19.843 30.8919 19.7387 31.5177 19.7387C32.4713 19.7387 33.2262 19.9572 33.7825 20.3943C34.3387 20.8214 34.6169 21.4373 34.6169 22.2419V25.3411ZM30.9515 26.4288C31.5276 26.4288 31.9994 26.2549 32.367 25.9073C32.7444 25.5497 32.9332 25.1176 32.9332 24.611V24.0597C32.7842 24.0497 32.5756 24.0448 32.3074 24.0448C31.4531 24.0448 30.8223 24.154 30.4151 24.3726C30.0177 24.5812 29.8191 24.9139 29.8191 25.3709C29.8191 25.7285 29.9184 25.9967 30.1171 26.1755C30.3257 26.3443 30.6038 26.4288 30.9515 26.4288ZM39.863 27.6953C39.0584 27.6953 38.373 27.5214 37.8068 27.1738C37.2505 26.8261 36.8283 26.3543 36.5403 25.7583C36.2621 25.1623 36.1231 24.4818 36.1231 23.717C36.1231 22.9521 36.2621 22.2717 36.5403 21.6757C36.8283 21.0797 37.2505 20.6078 37.8068 20.2602C38.373 19.9125 39.0584 19.7387 39.863 19.7387C40.8563 19.7387 41.646 19.982 42.2321 20.4688C42.8181 20.9555 43.1509 21.6061 43.2304 22.4207H41.5765C41.3977 21.5366 40.8364 21.0946 39.8928 21.0946C39.257 21.0946 38.7604 21.3131 38.4028 21.7502C38.0551 22.1872 37.8813 22.8428 37.8813 23.717C37.8813 24.5911 38.0551 25.2467 38.4028 25.6838C38.7604 26.1208 39.257 26.3394 39.8928 26.3394C40.8364 26.3394 41.3977 25.8973 41.5765 25.0133H43.2304C43.1509 25.8278 42.8181 26.4784 42.2321 26.9652C41.646 27.4519 40.8563 27.6953 39.863 27.6953ZM47.2366 24.1193L46.3426 25.0729V27.5165H44.644V16.6395H46.3426V23.1657L49.2034 19.9175H51.1702L48.3094 22.9869L51.6768 27.5165H49.7249L47.2366 24.1193ZM55.3412 19.7387C56.1259 19.7387 56.7914 19.9224 57.3378 20.29C57.8841 20.6476 58.2914 21.1542 58.5596 21.8098C58.8377 22.4654 58.9619 23.2302 58.9321 24.1044H53.5234C53.5631 24.8692 53.7568 25.4404 54.1045 25.8179C54.4521 26.1953 54.919 26.3841 55.5051 26.3841C56.3693 26.3841 56.9305 26.0016 57.1888 25.2368H58.7682C58.6589 25.9818 58.3162 26.5778 57.7401 27.0248C57.1739 27.4718 56.404 27.6953 55.4306 27.6953C54.6359 27.6953 53.9604 27.5214 53.4042 27.1738C52.8578 26.8261 52.4456 26.3543 52.1675 25.7583C51.8993 25.1623 51.7652 24.4818 51.7652 23.717C51.7652 22.962 51.8993 22.2866 52.1675 21.6906C52.4456 21.0846 52.8529 20.6078 53.3893 20.2602C53.9257 19.9125 54.5763 19.7387 55.3412 19.7387ZM55.371 21.0499C54.8644 21.0499 54.4472 21.2038 54.1194 21.5118C53.8015 21.8197 53.6078 22.2816 53.5383 22.8975H57.1888C57.1192 22.2816 56.9206 21.8197 56.5928 21.5118C56.2749 21.2038 55.8676 21.0499 55.371 21.0499ZM61.8825 21.4075C62.548 20.2949 63.4718 19.7784 64.6539 19.8579V21.5416C64.4751 21.5118 64.3062 21.4969 64.1473 21.4969C63.4619 21.4969 62.9156 21.7154 62.5083 22.1525C62.101 22.5796 61.8974 23.1905 61.8974 23.9852V27.5165H60.1988V19.9175H61.7037L61.8825 21.4075ZM68.3249 27.6953C67.2918 27.6953 66.4922 27.4718 65.926 27.0248C65.3598 26.5778 65.0767 25.9669 65.0767 25.1921H66.8349C66.8448 25.5397 66.9789 25.8278 67.2372 26.0563C67.5054 26.2748 67.9027 26.3841 68.4292 26.3841C68.906 26.3841 69.2735 26.3046 69.5318 26.1457C69.79 25.9768 69.9192 25.7285 69.9192 25.4007C69.9192 25.1722 69.8546 24.9934 69.7255 24.8643C69.5963 24.7252 69.4225 24.6209 69.204 24.5514C68.9954 24.4719 68.6775 24.3825 68.2504 24.2832L67.863 24.1938C67.3762 24.0746 66.959 23.9454 66.6114 23.8064C66.2736 23.6673 65.9756 23.4488 65.7174 23.1508C65.469 22.8528 65.3449 22.4654 65.3449 21.9886C65.3449 21.2833 65.623 20.732 66.1793 20.3347C66.7355 19.9373 67.4656 19.7387 68.3696 19.7387C69.3132 19.7387 70.0533 19.9522 70.5897 20.3794C71.1261 20.7966 71.429 21.3677 71.4986 22.0929L69.7702 22.078C69.641 21.333 69.1543 20.9605 68.31 20.9605C67.9424 20.9605 67.6395 21.035 67.4011 21.184C67.1726 21.323 67.0584 21.5217 67.0584 21.78C67.0584 22.078 67.1974 22.2965 67.4756 22.4356C67.7537 22.5746 68.1858 22.7137 68.7719 22.8528C69.3778 22.9918 69.8745 23.1408 70.2619 23.2998C70.6592 23.4488 70.992 23.6772 71.2602 23.9852C71.5284 24.2931 71.6625 24.7053 71.6625 25.2219C71.6625 25.9768 71.3496 26.5778 70.7238 27.0248C70.098 27.4718 69.2983 27.6953 68.3249 27.6953Z" fill="white"/>
</svg>
