<svg width="188" height="66" viewBox="0 0 188 66" fill="none" xmlns="http://www.w3.org/2000/svg">
<rect x="1.0083" y="0.583374" width="186.25" height="64.5667" rx="2.48333" fill="#10212E"/>
<rect x="1.0083" y="0.583374" width="132.336" height="64.5667" rx="2.48333" fill="#193347"/>
<path d="M154.905 25.9636H159.732V27.4834H152.55V26.0828L156.559 22.3131C157.075 21.8264 157.453 21.4092 157.691 21.0615C157.939 20.7039 158.063 20.2966 158.063 19.8397C158.063 19.3331 157.904 18.9308 157.587 18.6328C157.279 18.3249 156.837 18.1709 156.261 18.1709C155.674 18.1709 155.198 18.3398 154.83 18.6775C154.463 19.0053 154.279 19.4722 154.279 20.0781H152.55C152.55 19.3828 152.704 18.7768 153.012 18.2603C153.33 17.7438 153.767 17.3464 154.324 17.0683C154.89 16.7902 155.535 16.6511 156.261 16.6511C156.956 16.6511 157.572 16.7852 158.108 17.0534C158.645 17.3117 159.057 17.6792 159.345 18.156C159.643 18.6229 159.792 19.1642 159.792 19.7801C159.792 20.2867 159.692 20.7536 159.494 21.1807C159.295 21.5979 159.072 21.9456 158.823 22.2237C158.585 22.4919 158.262 22.8147 157.855 23.1922L154.905 25.9636ZM168.666 16.9044V18.3497L164.569 27.4834H162.766L166.804 18.4242H161.634V16.9044H168.666Z" fill="white"/>
<path d="M161.085 43.0091C161.741 43.0091 162.312 43.1581 162.799 43.4561C163.295 43.7441 163.673 44.1564 163.931 44.6928C164.189 45.2192 164.318 45.8202 164.318 46.4957C164.318 47.191 164.165 47.8118 163.857 48.3582C163.559 48.8946 163.126 49.3167 162.56 49.6247C162.004 49.9227 161.353 50.0717 160.608 50.0717C159.873 50.0717 159.233 49.9227 158.686 49.6247C158.14 49.3267 157.718 48.9095 157.42 48.3731C157.122 47.8367 156.973 47.2208 156.973 46.5255C156.973 46.1182 157.047 45.6911 157.196 45.2441C157.345 44.7871 157.539 44.3054 157.777 43.7988L159.953 39.2543H161.815L159.923 43.1879C160.261 43.0687 160.648 43.0091 161.085 43.0091ZM160.608 48.5519C161.224 48.5519 161.706 48.3681 162.054 48.0006C162.411 47.6231 162.59 47.1264 162.59 46.5106C162.59 45.8649 162.416 45.3583 162.069 44.9908C161.731 44.6232 161.269 44.4395 160.683 44.4395C160.097 44.4395 159.62 44.6332 159.252 45.0206C158.885 45.408 158.701 45.9046 158.701 46.5106C158.701 47.1165 158.88 47.6082 159.238 47.9857C159.595 48.3631 160.052 48.5519 160.608 48.5519Z" fill="white"/>
<path d="M28.7187 44.4132V45.4562C28.7187 46.4495 28.5051 47.2988 28.078 48.0041C27.6608 48.6994 27.0896 49.2259 26.3645 49.5835C25.6493 49.9311 24.8497 50.105 23.9656 50.105C22.9226 50.105 22.0286 49.8765 21.2836 49.4196C20.5485 48.9527 19.9923 48.307 19.6148 47.4826C19.2473 46.6581 19.0635 45.7095 19.0635 44.6367C19.0635 43.5639 19.2522 42.6103 19.6297 41.7759C20.0171 40.9315 20.5883 40.266 21.3432 39.7793C22.1081 39.2925 23.0418 39.0492 24.1444 39.0492C24.8993 39.0492 25.5947 39.1833 26.2304 39.4515C26.8761 39.7197 27.4075 40.122 27.8247 40.6584C28.2518 41.1848 28.5101 41.8355 28.5995 42.6103H26.7519C26.6625 41.9447 26.3794 41.4381 25.9026 41.0905C25.4357 40.7428 24.8397 40.569 24.1146 40.569C23.0815 40.569 22.2918 40.9365 21.7455 41.6716C21.1992 42.3967 20.926 43.3851 20.926 44.6367C20.926 45.8982 21.1892 46.8766 21.7157 47.572C22.2422 48.2574 23.0418 48.6001 24.1146 48.6001C24.9689 48.6001 25.6543 48.3666 26.1708 47.8998C26.6873 47.423 26.9754 46.7574 27.035 45.9032H24.0699V44.4132H28.7187ZM31.188 41.0756C30.8702 41.0756 30.6119 40.9762 30.4132 40.7776C30.2245 40.5789 30.1301 40.3306 30.1301 40.0326C30.1301 39.7445 30.2245 39.5011 30.4132 39.3025C30.6119 39.0939 30.8702 38.9896 31.188 38.9896C31.496 38.9896 31.7493 39.0939 31.9479 39.3025C32.1466 39.5011 32.2459 39.7445 32.2459 40.0326C32.2459 40.3306 32.1466 40.5789 31.9479 40.7776C31.7592 40.9762 31.5059 41.0756 31.188 41.0756ZM30.3387 42.2676H32.0373V49.8666H30.3387V42.2676ZM40.1394 47.6912C40.1394 48.0289 40.1891 48.2723 40.2884 48.4213C40.3878 48.5603 40.5765 48.6299 40.8546 48.6299L40.7801 49.8666C40.5616 49.8964 40.3629 49.9113 40.1841 49.9113C39.7073 49.9113 39.3448 49.807 39.0964 49.5984C38.8481 49.3798 38.7041 49.0769 38.6643 48.6895H38.6494C38.3514 49.1563 37.9839 49.499 37.5468 49.7176C37.1098 49.9361 36.5932 50.0454 35.9972 50.0454C35.282 50.0454 34.7009 49.8566 34.2539 49.4792C33.8069 49.0918 33.5834 48.5504 33.5834 47.8551C33.5834 46.9213 33.9758 46.2707 34.7605 45.9032C35.5453 45.5356 36.4989 45.3519 37.6213 45.3519C37.82 45.3519 38.0981 45.3618 38.4557 45.3817V44.6516C38.4557 44.1946 38.3365 43.8668 38.0981 43.6682C37.8597 43.4596 37.4922 43.3553 36.9955 43.3553C36.479 43.3553 36.0817 43.4745 35.8035 43.7129C35.5254 43.9513 35.3863 44.2393 35.3863 44.5771H33.7473C33.7473 44.0903 33.8864 43.6582 34.1645 43.2808C34.4526 42.9033 34.845 42.6103 35.3416 42.4017C35.8482 42.1931 36.4144 42.0888 37.0402 42.0888C37.9938 42.0888 38.7488 42.3073 39.305 42.7444C39.8613 43.1715 40.1394 43.7874 40.1394 44.592V47.6912ZM36.474 48.7789C37.0502 48.7789 37.522 48.605 37.8895 48.2574C38.267 47.8998 38.4557 47.4677 38.4557 46.9611V46.4098C38.3067 46.3998 38.0981 46.3949 37.8299 46.3949C36.9757 46.3949 36.3449 46.5041 35.9376 46.7227C35.5403 46.9313 35.3416 47.264 35.3416 47.721C35.3416 48.0786 35.441 48.3468 35.6396 48.5256C35.8482 48.6944 36.1264 48.7789 36.474 48.7789ZM46.2646 42.0888C46.9798 42.0888 47.5609 42.2924 48.0079 42.6997C48.4649 43.097 48.6933 43.6831 48.6933 44.4579V49.8666H46.9947V44.7857C46.9947 43.9215 46.5775 43.4894 45.7431 43.4894C45.465 43.4894 45.172 43.5589 44.864 43.698C44.5561 43.8271 44.2879 44.0754 44.0594 44.443C43.831 44.8006 43.7167 45.2972 43.7167 45.933V49.8666H42.0181V42.2676H43.523L43.6571 43.4298C43.9651 42.9927 44.3475 42.6599 44.8044 42.4315C45.2614 42.203 45.7481 42.0888 46.2646 42.0888ZM53.5866 48.615C53.8548 48.615 54.123 48.5752 54.3912 48.4958L54.3018 49.8219C53.8647 49.9311 53.4922 49.9858 53.1843 49.9858C52.4691 49.9858 51.9327 49.802 51.5751 49.4345C51.2175 49.0669 51.0387 48.4709 51.0387 47.6465V43.5937H49.6828L49.7126 42.2676H51.0387L51.1877 39.9879H52.7373V42.2676H54.3763L54.3465 43.5937H52.7373V47.5571C52.7373 47.9544 52.8018 48.2325 52.931 48.3915C53.0601 48.5405 53.2786 48.615 53.5866 48.615ZM58.4091 50.0454C57.376 50.0454 56.5764 49.8219 56.0102 49.3749C55.444 48.9279 55.1609 48.317 55.1609 47.5422H56.9191C56.929 47.8898 57.0631 48.1779 57.3214 48.4064C57.5896 48.6249 57.9869 48.7342 58.5134 48.7342C58.9902 48.7342 59.3577 48.6547 59.616 48.4958C59.8742 48.3269 60.0034 48.0786 60.0034 47.7508C60.0034 47.5223 59.9388 47.3435 59.8097 47.2144C59.6805 47.0753 59.5067 46.971 59.2882 46.9015C59.0796 46.822 58.7617 46.7326 58.3346 46.6333L57.9472 46.5439C57.4604 46.4247 57.0432 46.2955 56.6956 46.1565C56.3578 46.0174 56.0598 45.7989 55.8016 45.5009C55.5532 45.2029 55.4291 44.8155 55.4291 44.3387C55.4291 43.6334 55.7072 43.0821 56.2635 42.6848C56.8197 42.2874 57.5498 42.0888 58.4538 42.0888C59.3974 42.0888 60.1375 42.3023 60.6739 42.7295C61.2103 43.1467 61.5132 43.7178 61.5828 44.443L59.8544 44.4281C59.7252 43.6831 59.2385 43.3106 58.3942 43.3106C58.0266 43.3106 57.7237 43.3851 57.4853 43.5341C57.2568 43.6731 57.1426 43.8718 57.1426 44.1301C57.1426 44.4281 57.2816 44.6466 57.5598 44.7857C57.8379 44.9247 58.27 45.0638 58.8561 45.2029C59.462 45.3419 59.9587 45.4909 60.3461 45.6499C60.7434 45.7989 61.0762 46.0273 61.3444 46.3353C61.6126 46.6432 61.7467 47.0554 61.7467 47.572C61.7467 48.3269 61.4338 48.9279 60.808 49.3749C60.1822 49.8219 59.3825 50.0454 58.4091 50.0454Z" fill="white"/>
<path d="M23.5335 23.419L21.4475 23.4041V27.5165H19.585V16.9375H24.0699C25.252 16.9375 26.1658 17.2255 26.8115 17.8017C27.4671 18.3679 27.7949 19.1576 27.7949 20.1708C27.7949 20.9555 27.5913 21.6111 27.184 22.1376C26.7767 22.664 26.1758 23.0316 25.3811 23.2402L28.1376 27.5165H26.0516L23.5335 23.419ZM21.4475 21.9588H23.8464C24.5417 21.9588 25.0732 21.8048 25.4407 21.4969C25.8082 21.1889 25.992 20.7519 25.992 20.1857C25.992 19.0334 25.2768 18.4573 23.8464 18.4573H21.4475V21.9588ZM35.3086 25.3411C35.3086 25.6788 35.3582 25.9222 35.4576 26.0712C35.5569 26.2102 35.7456 26.2798 36.0238 26.2798L35.9493 27.5165C35.7307 27.5463 35.5321 27.5612 35.3533 27.5612C34.8765 27.5612 34.5139 27.4569 34.2656 27.2483C34.0172 27.0297 33.8732 26.7268 33.8335 26.3394H33.8186C33.5206 26.8062 33.153 27.1489 32.716 27.3675C32.2789 27.586 31.7624 27.6953 31.1664 27.6953C30.4512 27.6953 29.8701 27.5065 29.4231 27.1291C28.9761 26.7417 28.7526 26.2003 28.7526 25.505C28.7526 24.5712 29.1449 23.9206 29.9297 23.5531C30.7144 23.1855 31.668 23.0018 32.7905 23.0018C32.9891 23.0018 33.2673 23.0117 33.6249 23.0316V22.3015C33.6249 21.8445 33.5057 21.5167 33.2673 21.3181C33.0289 21.1095 32.6613 21.0052 32.1647 21.0052C31.6481 21.0052 31.2508 21.1244 30.9727 21.3628C30.6945 21.6012 30.5555 21.8892 30.5555 22.227H28.9165C28.9165 21.7402 29.0555 21.3081 29.3337 20.9307C29.6217 20.5532 30.0141 20.2602 30.5108 20.0516C31.0174 19.843 31.5836 19.7387 32.2094 19.7387C33.163 19.7387 33.9179 19.9572 34.4742 20.3943C35.0304 20.8214 35.3086 21.4373 35.3086 22.2419V25.3411ZM31.6432 26.4288C32.2193 26.4288 32.6911 26.2549 33.0587 25.9073C33.4361 25.5497 33.6249 25.1176 33.6249 24.611V24.0597C33.4759 24.0497 33.2673 24.0448 32.9991 24.0448C32.1448 24.0448 31.514 24.154 31.1068 24.3726C30.7094 24.5812 30.5108 24.9139 30.5108 25.3709C30.5108 25.7285 30.6101 25.9967 30.8088 26.1755C31.0174 26.3443 31.2955 26.4288 31.6432 26.4288ZM43.7038 19.9175L40.7834 27.5165H39.1146L36.1942 19.9175H38.0418L39.949 25.6987L41.8562 19.9175H43.7038ZM47.5643 19.7387C48.349 19.7387 49.0146 19.9224 49.5609 20.29C50.1072 20.6476 50.5145 21.1542 50.7827 21.8098C51.0608 22.4654 51.185 23.2302 51.1552 24.1044H45.7465C45.7862 24.8692 45.9799 25.4404 46.3276 25.8179C46.6753 26.1953 47.1421 26.3841 47.7282 26.3841C48.5924 26.3841 49.1536 26.0016 49.4119 25.2368H50.9913C50.882 25.9818 50.5393 26.5778 49.9632 27.0248C49.397 27.4718 48.6272 27.6953 47.6537 27.6953C46.859 27.6953 46.1836 27.5214 45.6273 27.1738C45.081 26.8261 44.6687 26.3543 44.3906 25.7583C44.1224 25.1623 43.9883 24.4818 43.9883 23.717C43.9883 22.962 44.1224 22.2866 44.3906 21.6906C44.6687 21.0846 45.076 20.6078 45.6124 20.2602C46.1488 19.9125 46.7994 19.7387 47.5643 19.7387ZM47.5941 21.0499C47.0875 21.0499 46.6703 21.2038 46.3425 21.5118C46.0246 21.8197 45.8309 22.2816 45.7614 22.8975H49.4119C49.3424 22.2816 49.1437 21.8197 48.8159 21.5118C48.498 21.2038 48.0908 21.0499 47.5941 21.0499ZM56.6684 19.7387C57.3836 19.7387 57.9647 19.9423 58.4117 20.3496C58.8687 20.7469 59.0971 21.333 59.0971 22.1078V27.5165H57.3985V22.4356C57.3985 21.5714 56.9813 21.1393 56.1469 21.1393C55.8688 21.1393 55.5758 21.2088 55.2678 21.3479C54.9599 21.477 54.6917 21.7253 54.4632 22.0929C54.2348 22.4505 54.1205 22.9471 54.1205 23.5829V27.5165H52.4219V19.9175H53.9268L54.0609 21.0797C54.3689 20.6426 54.7513 20.3098 55.2082 20.0814C55.6652 19.8529 56.1519 19.7387 56.6684 19.7387ZM63.6764 27.6953C62.6434 27.6953 61.8437 27.4718 61.2775 27.0248C60.7113 26.5778 60.4282 25.9669 60.4282 25.1921H62.1864C62.1964 25.5397 62.3305 25.8278 62.5887 26.0563C62.8569 26.2748 63.2543 26.3841 63.7807 26.3841C64.2575 26.3841 64.6251 26.3046 64.8833 26.1457C65.1416 25.9768 65.2707 25.7285 65.2707 25.4007C65.2707 25.1722 65.2062 24.9934 65.077 24.8643C64.9479 24.7252 64.7741 24.6209 64.5555 24.5514C64.3469 24.4719 64.0291 24.3825 63.6019 24.2832L63.2145 24.1938C62.7278 24.0746 62.3106 23.9454 61.9629 23.8064C61.6252 23.6673 61.3272 23.4488 61.0689 23.1508C60.8206 22.8528 60.6964 22.4654 60.6964 21.9886C60.6964 21.2833 60.9746 20.732 61.5308 20.3347C62.0871 19.9373 62.8172 19.7387 63.7211 19.7387C64.6648 19.7387 65.4048 19.9522 65.9412 20.3794C66.4776 20.7966 66.7806 21.3677 66.8501 22.0929L65.1217 22.078C64.9926 21.333 64.5059 20.9605 63.6615 20.9605C63.294 20.9605 62.991 21.035 62.7526 21.184C62.5242 21.323 62.4099 21.5217 62.4099 21.78C62.4099 22.078 62.549 22.2965 62.8271 22.4356C63.1053 22.5746 63.5374 22.7137 64.1234 22.8528C64.7294 22.9918 65.226 23.1408 65.6134 23.2998C66.0108 23.4488 66.3435 23.6772 66.6117 23.9852C66.8799 24.2931 67.014 24.7053 67.014 25.2219C67.014 25.9768 66.7011 26.5778 66.0753 27.0248C65.4495 27.4718 64.6499 27.6953 63.6764 27.6953Z" fill="white"/>
<path d="M2 64L186 64" stroke="#F96E8F" stroke-width="2.48333" stroke-linecap="round"/>
</svg>
