<svg width="187" height="66" viewBox="0 0 187 66" fill="none" xmlns="http://www.w3.org/2000/svg">
<rect x="0.246582" y="0.583374" width="186.25" height="64.5667" rx="2.48333" fill="#10212E"/>
<path d="M146.726 28.961V38.6584H145.046V30.8595L142.669 31.9932V30.4771L145.797 28.961H146.726ZM151.46 38.8497C151.159 38.8497 150.9 38.7404 150.681 38.5219C150.463 38.3033 150.353 38.0438 150.353 37.7433C150.353 37.4338 150.463 37.1742 150.681 36.9648C150.9 36.7463 151.159 36.637 151.46 36.637C151.769 36.637 152.029 36.7463 152.238 36.9648C152.457 37.1742 152.566 37.4338 152.566 37.7433C152.566 38.0438 152.457 38.3033 152.238 38.5219C152.029 38.7404 151.769 38.8497 151.46 38.8497ZM151.46 33.7278C151.159 33.7278 150.9 33.6185 150.681 33.4C150.463 33.1815 150.353 32.9219 150.353 32.6215C150.353 32.3119 150.463 32.0524 150.681 31.8429C150.9 31.6244 151.159 31.5151 151.46 31.5151C151.769 31.5151 152.029 31.6244 152.238 31.8429C152.457 32.0524 152.566 32.3119 152.566 32.6215C152.566 32.9219 152.457 33.1815 152.238 33.4C152.029 33.6185 151.769 33.7278 151.46 33.7278ZM156.611 37.2653H161.036V38.6584H154.453V37.3746L158.127 33.919C158.6 33.4728 158.946 33.0904 159.165 32.7717C159.393 32.4439 159.506 32.0706 159.506 31.6517C159.506 31.1873 159.361 30.8186 159.069 30.5454C158.787 30.2631 158.382 30.122 157.854 30.122C157.317 30.122 156.88 30.2768 156.543 30.5864C156.206 30.8869 156.037 31.3148 156.037 31.8703H154.453C154.453 31.2329 154.594 30.6774 154.876 30.2039C155.168 29.7305 155.568 29.3662 156.078 29.1113C156.597 28.8563 157.189 28.7288 157.854 28.7288C158.491 28.7288 159.056 28.8518 159.547 29.0976C160.039 29.3344 160.417 29.6713 160.681 30.1083C160.954 30.5363 161.091 31.0325 161.091 31.5971C161.091 32.0615 161 32.4894 160.818 32.881C160.636 33.2634 160.431 33.5821 160.203 33.8371C159.985 34.0829 159.689 34.3788 159.315 34.7248L156.611 37.2653ZM166.139 32.3756C166.786 32.3756 167.336 32.5168 167.792 32.799C168.247 33.0813 168.588 33.4683 168.816 33.96C169.053 34.4426 169.171 34.9844 169.171 35.5853C169.171 36.2682 169.035 36.8601 168.761 37.3609C168.488 37.8526 168.101 38.2305 167.601 38.4945C167.109 38.7495 166.535 38.877 165.88 38.877C164.933 38.877 164.168 38.6402 163.585 38.1667C163.002 37.6842 162.711 36.9739 162.711 36.036H164.241C164.241 36.5004 164.391 36.8601 164.691 37.1151C164.992 37.3609 165.392 37.4838 165.893 37.4838C166.458 37.4838 166.886 37.3108 167.177 36.9648C167.468 36.6188 167.614 36.159 167.614 35.5853C167.614 34.957 167.446 34.4744 167.109 34.1375C166.781 33.8006 166.349 33.6322 165.811 33.6322C165.565 33.6322 165.301 33.6777 165.019 33.7688C164.746 33.8507 164.496 33.9736 164.268 34.1375H162.998V28.961H168.652V30.3542H164.432V32.7717C164.669 32.6533 164.937 32.5577 165.238 32.4849C165.538 32.412 165.839 32.3756 166.139 32.3756ZM174.67 31.5288C175.544 31.5288 176.227 31.852 176.719 32.4985C177.22 33.145 177.47 34.0283 177.47 35.1483C177.47 35.8858 177.347 36.5323 177.101 37.0877C176.856 37.6432 176.505 38.0711 176.05 38.3716C175.604 38.6721 175.085 38.8223 174.493 38.8223C173.628 38.8223 172.945 38.449 172.444 37.7024V41.3901H170.887V31.6927H172.266L172.403 32.7444C172.667 32.3437 172.995 32.0433 173.386 31.8429C173.787 31.6335 174.215 31.5288 174.67 31.5288ZM174.178 37.5521C174.688 37.5521 175.098 37.3427 175.408 36.9238C175.717 36.505 175.872 35.9131 175.872 35.1483C175.872 34.3743 175.726 33.7915 175.435 33.4C175.153 32.9993 174.757 32.799 174.247 32.799C174.019 32.799 173.764 32.8673 173.482 33.0039C173.209 33.1405 172.967 33.3863 172.758 33.7414C172.549 34.0966 172.444 34.5746 172.444 35.1756C172.444 35.7765 172.539 36.2546 172.731 36.6097C172.931 36.9648 173.163 37.2107 173.427 37.3472C173.691 37.4838 173.942 37.5521 174.178 37.5521Z" fill="white"/>
<rect x="0.246582" y="0.583374" width="132.336" height="64.5667" rx="2.48333" fill="#193347"/>
<path d="M22.7723 45.7691L20.6863 45.7542V49.8666H18.8238V39.2876H23.3087C24.4907 39.2876 25.4046 39.5756 26.0503 40.1518C26.7059 40.718 27.0337 41.5077 27.0337 42.5209C27.0337 43.3056 26.83 43.9612 26.4228 44.4877C26.0155 45.0141 25.4145 45.3817 24.6199 45.5903L27.3764 49.8666H25.2904L22.7723 45.7691ZM20.6863 44.3089H23.0852C23.7805 44.3089 24.3119 44.1549 24.6795 43.847C25.047 43.539 25.2308 43.102 25.2308 42.5358C25.2308 41.3835 24.5156 40.8074 23.0852 40.8074H20.6863V44.3089ZM34.5474 47.6912C34.5474 48.0289 34.597 48.2723 34.6964 48.4213C34.7957 48.5603 34.9844 48.6299 35.2626 48.6299L35.1881 49.8666C34.9695 49.8964 34.7709 49.9113 34.5921 49.9113C34.1153 49.9113 33.7527 49.807 33.5044 49.5984C33.256 49.3798 33.112 49.0769 33.0723 48.6895H33.0574C32.7594 49.1563 32.3918 49.499 31.9548 49.7176C31.5177 49.9361 31.0012 50.0454 30.4052 50.0454C29.69 50.0454 29.1089 49.8566 28.6619 49.4792C28.2149 49.0918 27.9914 48.5504 27.9914 47.8551C27.9914 46.9213 28.3837 46.2707 29.1685 45.9032C29.9532 45.5356 30.9068 45.3519 32.0293 45.3519C32.2279 45.3519 32.5061 45.3618 32.8637 45.3817V44.6516C32.8637 44.1946 32.7445 43.8668 32.5061 43.6682C32.2677 43.4596 31.9001 43.3553 31.4035 43.3553C30.8869 43.3553 30.4896 43.4745 30.2115 43.7129C29.9333 43.9513 29.7943 44.2393 29.7943 44.5771H28.1553C28.1553 44.0903 28.2943 43.6582 28.5725 43.2808C28.8605 42.9033 29.2529 42.6103 29.7496 42.4017C30.2562 42.1931 30.8224 42.0888 31.4482 42.0888C32.4018 42.0888 33.1567 42.3073 33.713 42.7444C34.2692 43.1715 34.5474 43.7874 34.5474 44.592V47.6912ZM30.882 48.7789C31.4581 48.7789 31.9299 48.605 32.2975 48.2574C32.6749 47.8998 32.8637 47.4677 32.8637 46.9611V46.4098C32.7147 46.3998 32.5061 46.3949 32.2379 46.3949C31.3836 46.3949 30.7528 46.5041 30.3456 46.7227C29.9482 46.9313 29.7496 47.264 29.7496 47.721C29.7496 48.0786 29.8489 48.3468 30.0476 48.5256C30.2562 48.6944 30.5343 48.7789 30.882 48.7789ZM45.4107 42.0888C46.0961 42.0888 46.6673 42.2924 47.1242 42.6997C47.5812 43.1069 47.8096 43.693 47.8096 44.4579V49.8666H46.111V44.7857C46.111 44.4579 46.0266 44.1599 45.8577 43.8917C45.6889 43.6235 45.3611 43.4894 44.8743 43.4894C44.6061 43.4894 44.328 43.5589 44.0399 43.698C43.7519 43.8271 43.4986 44.0754 43.28 44.443C43.0714 44.8006 42.9671 45.2972 42.9671 45.933V49.8666H41.2685V44.7857C41.2685 44.4579 41.1841 44.1599 41.0152 43.8917C40.8464 43.6235 40.5186 43.4894 40.0318 43.4894C39.7636 43.4894 39.4855 43.5589 39.1974 43.698C38.9094 43.8271 38.6561 44.0754 38.4375 44.443C38.2289 44.8006 38.1246 45.2972 38.1246 45.933V49.8666H36.426V42.2676H37.9309L38.065 43.4C38.363 42.9728 38.7256 42.65 39.1527 42.4315C39.5799 42.203 40.0517 42.0888 40.5682 42.0888C41.0947 42.0888 41.5566 42.2129 41.9539 42.4613C42.3612 42.6997 42.6493 43.0573 42.8181 43.5341C43.1161 43.0672 43.4886 42.7096 43.9356 42.4613C44.3826 42.2129 44.8743 42.0888 45.4107 42.0888ZM52.3804 50.0454C51.3474 50.0454 50.5477 49.8219 49.9815 49.3749C49.4153 48.9279 49.1322 48.317 49.1322 47.5422H50.8904C50.9004 47.8898 51.0345 48.1779 51.2927 48.4064C51.5609 48.6249 51.9583 48.7342 52.4847 48.7342C52.9615 48.7342 53.3291 48.6547 53.5873 48.4958C53.8456 48.3269 53.9747 48.0786 53.9747 47.7508C53.9747 47.5223 53.9102 47.3435 53.781 47.2144C53.6519 47.0753 53.4781 46.971 53.2595 46.9015C53.0509 46.822 52.7331 46.7326 52.3059 46.6333L51.9185 46.5439C51.4318 46.4247 51.0146 46.2955 50.6669 46.1565C50.3292 46.0174 50.0312 45.7989 49.7729 45.5009C49.5246 45.2029 49.4004 44.8155 49.4004 44.3387C49.4004 43.6334 49.6786 43.0821 50.2348 42.6848C50.7911 42.2874 51.5212 42.0888 52.4251 42.0888C53.3688 42.0888 54.1088 42.3023 54.6452 42.7295C55.1816 43.1467 55.4846 43.7178 55.5541 44.443L53.8257 44.4281C53.6966 43.6831 53.2099 43.3106 52.3655 43.3106C51.998 43.3106 51.695 43.3851 51.4566 43.5341C51.2282 43.6731 51.1139 43.8718 51.1139 44.1301C51.1139 44.4281 51.253 44.6466 51.5311 44.7857C51.8093 44.9247 52.2414 45.0638 52.8274 45.2029C53.4334 45.3419 53.93 45.4909 54.3174 45.6499C54.7148 45.7989 55.0475 46.0273 55.3157 46.3353C55.5839 46.6432 55.718 47.0554 55.718 47.572C55.718 48.3269 55.4051 48.9279 54.7793 49.3749C54.1535 49.8219 53.3539 50.0454 52.3804 50.0454Z" fill="white"/>
<path d="M22.5935 27.7549C21.8286 27.7549 21.1134 27.6307 20.4479 27.3824C19.7923 27.134 19.2559 26.7417 18.8387 26.2053C18.4215 25.6589 18.2079 24.9686 18.198 24.1342H20.0307C20.0605 24.8394 20.3088 25.3758 20.7757 25.7434C21.2425 26.1109 21.8634 26.2947 22.6382 26.2947C23.3434 26.2947 23.9196 26.1606 24.3666 25.8924C24.8235 25.6242 25.052 25.207 25.052 24.6408C25.052 24.2832 24.9477 24.0001 24.7391 23.7915C24.5305 23.5729 24.2374 23.3941 23.86 23.2551C23.4825 23.1061 22.8865 22.9124 22.072 22.674L21.7442 22.5846C21.019 22.376 20.4429 22.1823 20.0158 22.0035C19.5986 21.8147 19.2509 21.5366 18.9728 21.1691C18.6946 20.8015 18.5556 20.3148 18.5556 19.7089C18.5556 19.0533 18.7344 18.502 19.092 18.055C19.4496 17.598 19.9264 17.2603 20.5224 17.0418C21.1184 16.8133 21.774 16.6991 22.4892 16.6991C23.6514 16.6991 24.6099 16.9722 25.3649 17.5186C26.1297 18.0649 26.542 18.8943 26.6016 20.0069H24.7689C24.7192 19.3811 24.4907 18.9192 24.0835 18.6212C23.6861 18.3132 23.1497 18.1593 22.4743 18.1593C21.8783 18.1593 21.3766 18.2834 20.9694 18.5318C20.5621 18.7801 20.3585 19.1427 20.3585 19.6195C20.3585 19.8976 20.4479 20.1261 20.6267 20.3049C20.8055 20.4837 21.029 20.6227 21.2972 20.7221C21.5753 20.8214 21.9528 20.9307 22.4296 21.0499L22.9511 21.1989C23.8947 21.4571 24.6447 21.7253 25.201 22.0035C25.7572 22.2717 26.1794 22.6094 26.4675 23.0167C26.7555 23.4239 26.8996 23.9355 26.8996 24.5514C26.8996 25.644 26.4923 26.4536 25.6778 26.9801C24.8732 27.4966 23.8451 27.7549 22.5935 27.7549ZM31.4374 19.7387C32.2222 19.7387 32.8877 19.9224 33.434 20.29C33.9804 20.6476 34.3876 21.1542 34.6558 21.8098C34.934 22.4654 35.0581 23.2302 35.0283 24.1044H29.6196C29.6594 24.8692 29.8531 25.4404 30.2007 25.8179C30.5484 26.1953 31.0153 26.3841 31.6013 26.3841C32.4655 26.3841 33.0268 26.0016 33.285 25.2368H34.8644C34.7552 25.9818 34.4125 26.5778 33.8363 27.0248C33.2701 27.4718 32.5003 27.6953 31.5268 27.6953C30.7322 27.6953 30.0567 27.5214 29.5004 27.1738C28.9541 26.8261 28.5419 26.3543 28.2637 25.7583C27.9955 25.1623 27.8614 24.4818 27.8614 23.717C27.8614 22.962 27.9955 22.2866 28.2637 21.6906C28.5419 21.0846 28.9491 20.6078 29.4855 20.2602C30.0219 19.9125 30.6726 19.7387 31.4374 19.7387ZM31.4672 21.0499C30.9606 21.0499 30.5434 21.2038 30.2156 21.5118C29.8978 21.8197 29.7041 22.2816 29.6345 22.8975H33.285C33.2155 22.2816 33.0168 21.8197 32.689 21.5118C32.3712 21.2038 31.9639 21.0499 31.4672 21.0499ZM42.4339 25.3411C42.4339 25.6788 42.4835 25.9222 42.5829 26.0712C42.6822 26.2102 42.8709 26.2798 43.1491 26.2798L43.0746 27.5165C42.856 27.5463 42.6574 27.5612 42.4786 27.5612C42.0018 27.5612 41.6392 27.4569 41.3909 27.2483C41.1425 27.0297 40.9985 26.7268 40.9588 26.3394H40.9439C40.6459 26.8062 40.2783 27.1489 39.8413 27.3675C39.4042 27.586 38.8877 27.6953 38.2917 27.6953C37.5765 27.6953 36.9954 27.5065 36.5484 27.1291C36.1014 26.7417 35.8779 26.2003 35.8779 25.505C35.8779 24.5712 36.2702 23.9206 37.055 23.5531C37.8397 23.1855 38.7933 23.0018 39.9158 23.0018C40.1144 23.0018 40.3926 23.0117 40.7502 23.0316V22.3015C40.7502 21.8445 40.631 21.5167 40.3926 21.3181C40.1542 21.1095 39.7866 21.0052 39.29 21.0052C38.7734 21.0052 38.3761 21.1244 38.098 21.3628C37.8198 21.6012 37.6808 21.8892 37.6808 22.227H36.0418C36.0418 21.7402 36.1808 21.3081 36.459 20.9307C36.747 20.5532 37.1394 20.2602 37.6361 20.0516C38.1427 19.843 38.7089 19.7387 39.3347 19.7387C40.2883 19.7387 41.0432 19.9572 41.5995 20.3943C42.1557 20.8214 42.4339 21.4373 42.4339 22.2419V25.3411ZM38.7685 26.4288C39.3446 26.4288 39.8164 26.2549 40.184 25.9073C40.5614 25.5497 40.7502 25.1176 40.7502 24.611V24.0597C40.6012 24.0497 40.3926 24.0448 40.1244 24.0448C39.2701 24.0448 38.6393 24.154 38.2321 24.3726C37.8347 24.5812 37.6361 24.9139 37.6361 25.3709C37.6361 25.7285 37.7354 25.9967 37.9341 26.1755C38.1427 26.3443 38.4208 26.4288 38.7685 26.4288ZM48.5591 19.7387C49.2743 19.7387 49.8554 19.9423 50.3024 20.3496C50.7593 20.7469 50.9878 21.333 50.9878 22.1078V27.5165H49.2892V22.4356C49.2892 21.5714 48.872 21.1393 48.0376 21.1393C47.7594 21.1393 47.4664 21.2088 47.1585 21.3479C46.8505 21.477 46.5823 21.7253 46.3539 22.0929C46.1254 22.4505 46.0112 22.9471 46.0112 23.5829V27.5165H44.3126V16.6395H46.0112V21.0052C46.3191 20.5979 46.6916 20.285 47.1287 20.0665C47.5757 19.8479 48.0525 19.7387 48.5591 19.7387ZM58.9345 25.3411C58.9345 25.6788 58.9841 25.9222 59.0835 26.0712C59.1828 26.2102 59.3715 26.2798 59.6497 26.2798L59.5752 27.5165C59.3566 27.5463 59.158 27.5612 58.9792 27.5612C58.5024 27.5612 58.1398 27.4569 57.8915 27.2483C57.6431 27.0297 57.4991 26.7268 57.4594 26.3394H57.4445C57.1465 26.8062 56.7789 27.1489 56.3419 27.3675C55.9048 27.586 55.3883 27.6953 54.7923 27.6953C54.0771 27.6953 53.496 27.5065 53.049 27.1291C52.602 26.7417 52.3785 26.2003 52.3785 25.505C52.3785 24.5712 52.7708 23.9206 53.5556 23.5531C54.3403 23.1855 55.2939 23.0018 56.4164 23.0018C56.615 23.0018 56.8932 23.0117 57.2508 23.0316V22.3015C57.2508 21.8445 57.1316 21.5167 56.8932 21.3181C56.6548 21.1095 56.2872 21.0052 55.7906 21.0052C55.274 21.0052 54.8767 21.1244 54.5986 21.3628C54.3204 21.6012 54.1814 21.8892 54.1814 22.227H52.5424C52.5424 21.7402 52.6814 21.3081 52.9596 20.9307C53.2476 20.5532 53.64 20.2602 54.1367 20.0516C54.6433 19.843 55.2095 19.7387 55.8353 19.7387C56.7889 19.7387 57.5438 19.9572 58.1001 20.3943C58.6563 20.8214 58.9345 21.4373 58.9345 22.2419V25.3411ZM55.2691 26.4288C55.8452 26.4288 56.317 26.2549 56.6846 25.9073C57.062 25.5497 57.2508 25.1176 57.2508 24.611V24.0597C57.1018 24.0497 56.8932 24.0448 56.625 24.0448C55.7707 24.0448 55.1399 24.154 54.7327 24.3726C54.3353 24.5812 54.1367 24.9139 54.1367 25.3709C54.1367 25.7285 54.236 25.9967 54.4347 26.1755C54.6433 26.3443 54.9214 26.4288 55.2691 26.4288ZM71.4691 19.9175L69.0106 27.5165H67.2524L65.7177 22.0482L64.183 27.5165H62.4248L59.9663 19.9175H61.8139L63.3486 25.4454L64.9131 19.9175H66.5372L68.1017 25.4454L69.6215 19.9175H71.4691ZM75.1191 24.1193L74.2251 25.0729V27.5165H72.5265V16.6395H74.2251V23.1657L77.0859 19.9175H79.0527L76.1919 22.9869L79.5593 27.5165H77.6074L75.1191 24.1193ZM83.1408 27.6953C82.1077 27.6953 81.3081 27.4718 80.7419 27.0248C80.1757 26.5778 79.8926 25.9669 79.8926 25.1921H81.6508C81.6607 25.5397 81.7948 25.8278 82.0531 26.0563C82.3213 26.2748 82.7186 26.3841 83.2451 26.3841C83.7219 26.3841 84.0894 26.3046 84.3477 26.1457C84.606 25.9768 84.7351 25.7285 84.7351 25.4007C84.7351 25.1722 84.6705 24.9934 84.5414 24.8643C84.4123 24.7252 84.2384 24.6209 84.0199 24.5514C83.8113 24.4719 83.4934 24.3825 83.0663 24.2832L82.6789 24.1938C82.1922 24.0746 81.775 23.9454 81.4273 23.8064C81.0896 23.6673 80.7916 23.4488 80.5333 23.1508C80.285 22.8528 80.1608 22.4654 80.1608 21.9886C80.1608 21.2833 80.4389 20.732 80.9952 20.3347C81.5515 19.9373 82.2816 19.7387 83.1855 19.7387C84.1292 19.7387 84.8692 19.9522 85.4056 20.3794C85.942 20.7966 86.245 21.3677 86.3145 22.0929L84.5861 22.078C84.457 21.333 83.9702 20.9605 83.1259 20.9605C82.7584 20.9605 82.4554 21.035 82.217 21.184C81.9885 21.323 81.8743 21.5217 81.8743 21.78C81.8743 22.078 82.0134 22.2965 82.2915 22.4356C82.5696 22.5746 83.0017 22.7137 83.5878 22.8528C84.1937 22.9918 84.6904 23.1408 85.0778 23.2998C85.4751 23.4488 85.8079 23.6772 86.0761 23.9852C86.3443 24.2931 86.4784 24.7053 86.4784 25.2219C86.4784 25.9768 86.1655 26.5778 85.5397 27.0248C84.9139 27.4718 84.1143 27.6953 83.1408 27.6953Z" fill="white"/>
</svg>
