<svg width="187" height="66" viewBox="0 0 187 66" fill="none" xmlns="http://www.w3.org/2000/svg">
<rect x="0.470703" y="0.583374" width="186.25" height="64.5667" rx="2.48333" fill="#10212E"/>
<rect x="0.470703" y="0.583374" width="132.336" height="64.5667" rx="2.48333" fill="#193347"/>
<path d="M25.3506 44.3536C26.0559 44.4728 26.5873 44.7459 26.9449 45.1731C27.3124 45.6002 27.4962 46.1565 27.4962 46.8419C27.4962 47.7359 27.1932 48.466 26.5873 49.0322C25.9913 49.5884 25.1271 49.8666 23.9947 49.8666H19.0479V39.2876H23.503C24.5857 39.2876 25.4599 39.4713 26.1254 39.8389C26.8009 40.2064 27.1386 40.8719 27.1386 41.8355C27.1386 43.0374 26.5426 43.8668 25.3506 44.3238V44.3536ZM25.3208 42.1782C25.3208 41.761 25.2215 41.453 25.0228 41.2544C24.8241 41.0458 24.5907 40.9166 24.3225 40.867C24.0543 40.8074 23.7364 40.7776 23.3689 40.7776H20.9104V43.7427H23.3838C24.6751 43.7427 25.3208 43.2212 25.3208 42.1782ZM23.8457 48.3766C24.4218 48.3766 24.8688 48.2425 25.1867 47.9743C25.5046 47.7061 25.6635 47.3038 25.6635 46.7674C25.6635 46.2012 25.4797 45.7889 25.1122 45.5307C24.7447 45.2724 24.253 45.1433 23.6371 45.1433H20.9104V48.3766H23.8457ZM32.1563 42.0888C32.941 42.0888 33.6066 42.2725 34.1529 42.6401C34.6992 42.9977 35.1065 43.5043 35.3747 44.1599C35.6528 44.8155 35.777 45.5803 35.7472 46.4545H30.3385C30.3782 47.2193 30.5719 47.7905 30.9196 48.168C31.2673 48.5454 31.7341 48.7342 32.3202 48.7342C33.1844 48.7342 33.7456 48.3517 34.0039 47.5869H35.5833C35.474 48.3319 35.1313 48.9279 34.5552 49.3749C33.989 49.8219 33.2192 50.0454 32.2457 50.0454C31.451 50.0454 30.7756 49.8715 30.2193 49.5239C29.673 49.1762 29.2607 48.7044 28.9826 48.1084C28.7144 47.5124 28.5803 46.8319 28.5803 46.0671C28.5803 45.3121 28.7144 44.6367 28.9826 44.0407C29.2607 43.4347 29.668 42.9579 30.2044 42.6103C30.7408 42.2626 31.3914 42.0888 32.1563 42.0888ZM32.1861 43.4C31.6795 43.4 31.2623 43.5539 30.9345 43.8619C30.6166 44.1698 30.4229 44.6317 30.3534 45.2476H34.0039C33.9344 44.6317 33.7357 44.1698 33.4079 43.8619C33.09 43.5539 32.6828 43.4 32.1861 43.4ZM41.2604 42.0888C41.9756 42.0888 42.5567 42.2924 43.0037 42.6997C43.4607 43.097 43.6891 43.6831 43.6891 44.4579V49.8666H41.9905V44.7857C41.9905 43.9215 41.5733 43.4894 40.7389 43.4894C40.4608 43.4894 40.1678 43.5589 39.8598 43.698C39.5519 43.8271 39.2837 44.0754 39.0552 44.443C38.8268 44.8006 38.7125 45.2972 38.7125 45.933V49.8666H37.0139V42.2676H38.5188L38.6529 43.4298C38.9609 42.9927 39.3433 42.6599 39.8002 42.4315C40.2572 42.203 40.7439 42.0888 41.2604 42.0888ZM52.3063 42.2676V50.0156C52.3063 51.1182 51.9636 51.9029 51.2782 52.3698C50.5928 52.8466 49.6939 53.085 48.5813 53.085C47.5483 53.085 46.7586 52.8615 46.2122 52.4145C45.6659 51.9675 45.3927 51.3913 45.3927 50.6861H47.0466C47.0566 51.0437 47.1956 51.3218 47.4638 51.5205C47.742 51.7291 48.1294 51.8334 48.626 51.8334C49.9472 51.8334 50.6077 51.2821 50.6077 50.1795V48.7491C50.3197 49.1663 49.9621 49.4792 49.5349 49.6878C49.1177 49.8964 48.6658 50.0007 48.179 50.0007C47.2254 50.0007 46.4755 49.653 45.9291 48.9577C45.3927 48.2524 45.1245 47.2988 45.1245 46.0969C45.1245 45.2923 45.2537 44.587 45.5119 43.9811C45.7801 43.3751 46.1576 42.9083 46.6443 42.5805C47.1311 42.2527 47.6973 42.0888 48.3429 42.0888C49.3462 42.0888 50.116 42.5258 50.6524 43.4L50.8014 42.2676H52.3063ZM48.6409 48.615C48.8992 48.615 49.1773 48.5454 49.4753 48.4064C49.7733 48.2673 50.0366 48.009 50.265 47.6316C50.4935 47.2442 50.6077 46.7227 50.6077 46.0671C50.6077 45.4115 50.4985 44.89 50.2799 44.5026C50.0614 44.1152 49.8031 43.847 49.5051 43.698C49.2171 43.549 48.9439 43.4745 48.6856 43.4745C48.1393 43.4745 47.6973 43.7029 47.3595 44.1599C47.0317 44.6168 46.8678 45.2625 46.8678 46.0969C46.8678 46.9114 47.0218 47.5372 47.3297 47.9743C47.6476 48.4014 48.0847 48.615 48.6409 48.615ZM60.2208 47.6912C60.2208 48.0289 60.2705 48.2723 60.3698 48.4213C60.4691 48.5603 60.6579 48.6299 60.936 48.6299L60.8615 49.8666C60.643 49.8964 60.4443 49.9113 60.2655 49.9113C59.7887 49.9113 59.4261 49.807 59.1778 49.5984C58.9295 49.3798 58.7854 49.0769 58.7457 48.6895H58.7308C58.4328 49.1563 58.0653 49.499 57.6282 49.7176C57.1911 49.9361 56.6746 50.0454 56.0786 50.0454C55.3634 50.0454 54.7823 49.8566 54.3353 49.4792C53.8883 49.0918 53.6648 48.5504 53.6648 47.8551C53.6648 46.9213 54.0572 46.2707 54.8419 45.9032C55.6266 45.5356 56.5802 45.3519 57.7027 45.3519C57.9014 45.3519 58.1795 45.3618 58.5371 45.3817V44.6516C58.5371 44.1946 58.4179 43.8668 58.1795 43.6682C57.9411 43.4596 57.5736 43.3553 57.0769 43.3553C56.5604 43.3553 56.163 43.4745 55.8849 43.7129C55.6068 43.9513 55.4677 44.2393 55.4677 44.5771H53.8287C53.8287 44.0903 53.9678 43.6582 54.2459 43.2808C54.534 42.9033 54.9263 42.6103 55.423 42.4017C55.9296 42.1931 56.4958 42.0888 57.1216 42.0888C58.0752 42.0888 58.8301 42.3073 59.3864 42.7444C59.9427 43.1715 60.2208 43.7874 60.2208 44.592V47.6912ZM56.5554 48.7789C57.1315 48.7789 57.6034 48.605 57.9709 48.2574C58.3484 47.8998 58.5371 47.4677 58.5371 46.9611V46.4098C58.3881 46.3998 58.1795 46.3949 57.9113 46.3949C57.057 46.3949 56.4263 46.5041 56.019 46.7227C55.6217 46.9313 55.423 47.264 55.423 47.721C55.423 48.0786 55.5223 48.3468 55.721 48.5256C55.9296 48.6944 56.2077 48.7789 56.5554 48.7789ZM64.4835 49.8666C64.1855 49.9162 63.9421 49.9411 63.7534 49.9411C63.1872 49.9411 62.77 49.7921 62.5018 49.4941C62.2336 49.1861 62.0995 48.7093 62.0995 48.0637V38.9896H63.7981V47.6763C63.7981 48.0537 63.8477 48.307 63.9471 48.4362C64.0464 48.5653 64.25 48.6299 64.558 48.6299L64.4835 49.8666ZM68.625 50.0454C67.5919 50.0454 66.7923 49.8219 66.2261 49.3749C65.6599 48.9279 65.3768 48.317 65.3768 47.5422H67.135C67.1449 47.8898 67.279 48.1779 67.5373 48.4064C67.8055 48.6249 68.2028 48.7342 68.7293 48.7342C69.2061 48.7342 69.5736 48.6547 69.8319 48.4958C70.0901 48.3269 70.2193 48.0786 70.2193 47.7508C70.2193 47.5223 70.1547 47.3435 70.0256 47.2144C69.8964 47.0753 69.7226 46.971 69.5041 46.9015C69.2955 46.822 68.9776 46.7326 68.5505 46.6333L68.1631 46.5439C67.6763 46.4247 67.2591 46.2955 66.9115 46.1565C66.5737 46.0174 66.2757 45.7989 66.0175 45.5009C65.7691 45.2029 65.645 44.8155 65.645 44.3387C65.645 43.6334 65.9231 43.0821 66.4794 42.6848C67.0356 42.2874 67.7657 42.0888 68.6697 42.0888C69.6133 42.0888 70.3534 42.3023 70.8898 42.7295C71.4262 43.1467 71.7291 43.7178 71.7987 44.443L70.0703 44.4281C69.9411 43.6831 69.4544 43.3106 68.6101 43.3106C68.2425 43.3106 67.9396 43.3851 67.7012 43.5341C67.4727 43.6731 67.3585 43.8718 67.3585 44.1301C67.3585 44.4281 67.4975 44.6466 67.7757 44.7857C68.0538 44.9247 68.4859 45.0638 69.072 45.2029C69.6779 45.3419 70.1746 45.4909 70.562 45.6499C70.9593 45.7989 71.2921 46.0273 71.5603 46.3353C71.8285 46.6432 71.9626 47.0554 71.9626 47.572C71.9626 48.3269 71.6497 48.9279 71.0239 49.3749C70.3981 49.8219 69.5984 50.0454 68.625 50.0454Z" fill="white"/>
<path d="M26.5575 18.502H23.2646V27.5165H21.4021V18.502H18.0943V16.9375H26.5575V18.502ZM29.4935 19.7387C30.2782 19.7387 30.9438 19.9224 31.4901 20.29C32.0364 20.6476 32.4437 21.1542 32.7119 21.8098C32.99 22.4654 33.1142 23.2302 33.0844 24.1044H27.6757C27.7154 24.8692 27.9091 25.4404 28.2568 25.8179C28.6045 26.1953 29.0713 26.3841 29.6574 26.3841C30.5216 26.3841 31.0828 26.0016 31.3411 25.2368H32.9205C32.8112 25.9818 32.4685 26.5778 31.8924 27.0248C31.3262 27.4718 30.5564 27.6953 29.5829 27.6953C28.7882 27.6953 28.1128 27.5214 27.5565 27.1738C27.0102 26.8261 26.5979 26.3543 26.3198 25.7583C26.0516 25.1623 25.9175 24.4818 25.9175 23.717C25.9175 22.962 26.0516 22.2866 26.3198 21.6906C26.5979 21.0846 27.0052 20.6078 27.5416 20.2602C28.078 19.9125 28.7286 19.7387 29.4935 19.7387ZM29.5233 21.0499C29.0167 21.0499 28.5995 21.2038 28.2717 21.5118C27.9538 21.8197 27.7601 22.2816 27.6906 22.8975H31.3411C31.2716 22.2816 31.0729 21.8197 30.7451 21.5118C30.4272 21.2038 30.02 21.0499 29.5233 21.0499ZM38.6972 27.5165L36.8049 24.7451L35.0467 27.5165H33.0948L35.9556 23.5233L33.2885 19.9175H35.2702L36.9241 22.376L38.5482 19.9175H40.4852L37.7585 23.568L40.6789 27.5165H38.6972ZM47.7653 25.3411C47.7653 25.6788 47.815 25.9222 47.9143 26.0712C48.0137 26.2102 48.2024 26.2798 48.4805 26.2798L48.406 27.5165C48.1875 27.5463 47.9888 27.5612 47.81 27.5612C47.3332 27.5612 46.9707 27.4569 46.7223 27.2483C46.474 27.0297 46.33 26.7268 46.2902 26.3394H46.2753C45.9773 26.8062 45.6098 27.1489 45.1727 27.3675C44.7357 27.586 44.2191 27.6953 43.6231 27.6953C42.9079 27.6953 42.3268 27.5065 41.8798 27.1291C41.4328 26.7417 41.2093 26.2003 41.2093 25.505C41.2093 24.5712 41.6017 23.9206 42.3864 23.5531C43.1712 23.1855 44.1248 23.0018 45.2472 23.0018C45.4459 23.0018 45.724 23.0117 46.0816 23.0316V22.3015C46.0816 21.8445 45.9624 21.5167 45.724 21.3181C45.4856 21.1095 45.1181 21.0052 44.6214 21.0052C44.1049 21.0052 43.7076 21.1244 43.4294 21.3628C43.1513 21.6012 43.0122 21.8892 43.0122 22.227H41.3732C41.3732 21.7402 41.5123 21.3081 41.7904 20.9307C42.0785 20.5532 42.4709 20.2602 42.9675 20.0516C43.4741 19.843 44.0403 19.7387 44.6661 19.7387C45.6197 19.7387 46.3747 19.9572 46.9309 20.3943C47.4872 20.8214 47.7653 21.4373 47.7653 22.2419V25.3411ZM44.0999 26.4288C44.6761 26.4288 45.1479 26.2549 45.5154 25.9073C45.8929 25.5497 46.0816 25.1176 46.0816 24.611V24.0597C45.9326 24.0497 45.724 24.0448 45.4558 24.0448C44.6016 24.0448 43.9708 24.154 43.5635 24.3726C43.1662 24.5812 42.9675 24.9139 42.9675 25.3709C42.9675 25.7285 43.0669 25.9967 43.2655 26.1755C43.4741 26.3443 43.7523 26.4288 44.0999 26.4288ZM53.8905 19.7387C54.6057 19.7387 55.1868 19.9423 55.6338 20.3496C56.0907 20.7469 56.3192 21.333 56.3192 22.1078V27.5165H54.6206V22.4356C54.6206 21.5714 54.2034 21.1393 53.369 21.1393C53.0909 21.1393 52.7978 21.2088 52.4899 21.3479C52.182 21.477 51.9138 21.7253 51.6853 22.0929C51.4568 22.4505 51.3426 22.9471 51.3426 23.5829V27.5165H49.644V19.9175H51.1489L51.283 21.0797C51.5909 20.6426 51.9734 20.3098 52.4303 20.0814C52.8872 19.8529 53.374 19.7387 53.8905 19.7387ZM60.8985 27.6953C59.8654 27.6953 59.0658 27.4718 58.4996 27.0248C57.9334 26.5778 57.6503 25.9669 57.6503 25.1921H59.4085C59.4184 25.5397 59.5525 25.8278 59.8108 26.0563C60.079 26.2748 60.4763 26.3841 61.0028 26.3841C61.4796 26.3841 61.8471 26.3046 62.1054 26.1457C62.3637 25.9768 62.4928 25.7285 62.4928 25.4007C62.4928 25.1722 62.4282 24.9934 62.2991 24.8643C62.17 24.7252 61.9961 24.6209 61.7776 24.5514C61.569 24.4719 61.2511 24.3825 60.824 24.2832L60.4366 24.1938C59.9499 24.0746 59.5327 23.9454 59.185 23.8064C58.8473 23.6673 58.5493 23.4488 58.291 23.1508C58.0427 22.8528 57.9185 22.4654 57.9185 21.9886C57.9185 21.2833 58.1966 20.732 58.7529 20.3347C59.3092 19.9373 60.0393 19.7387 60.9432 19.7387C61.8869 19.7387 62.6269 19.9522 63.1633 20.3794C63.6997 20.7966 64.0027 21.3677 64.0722 22.0929L62.3438 22.078C62.2147 21.333 61.7279 20.9605 60.8836 20.9605C60.5161 20.9605 60.2131 21.035 59.9747 21.184C59.7462 21.323 59.632 21.5217 59.632 21.78C59.632 22.078 59.7711 22.2965 60.0492 22.4356C60.3273 22.5746 60.7594 22.7137 61.3455 22.8528C61.9514 22.9918 62.4481 23.1408 62.8355 23.2998C63.2328 23.4488 63.5656 23.6772 63.8338 23.9852C64.102 24.2931 64.2361 24.7053 64.2361 25.2219C64.2361 25.9768 63.9232 26.5778 63.2974 27.0248C62.6716 27.4718 61.872 27.6953 60.8985 27.6953Z" fill="white"/>
<path d="M154.019 25.9636H158.846V27.4834H151.665V26.0828L155.673 22.3131C156.189 21.8264 156.567 21.4092 156.805 21.0615C157.053 20.7039 157.178 20.2966 157.178 19.8397C157.178 19.3331 157.019 18.9308 156.701 18.6328C156.393 18.3249 155.951 18.1709 155.375 18.1709C154.789 18.1709 154.312 18.3398 153.944 18.6775C153.577 19.0053 153.393 19.4722 153.393 20.0781H151.665C151.665 19.3828 151.819 18.7768 152.127 18.2603C152.444 17.7438 152.881 17.3464 153.438 17.0683C154.004 16.7902 154.65 16.6511 155.375 16.6511C156.07 16.6511 156.686 16.7852 157.222 17.0534C157.759 17.3117 158.171 17.6792 158.459 18.156C158.757 18.6229 158.906 19.1642 158.906 19.7801C158.906 20.2867 158.807 20.7536 158.608 21.1807C158.409 21.5979 158.186 21.9456 157.938 22.2237C157.699 22.4919 157.376 22.8147 156.969 23.1922L154.019 25.9636ZM168.019 25.3378H166.991V27.4834H165.173V25.3378H160.465V24.0117L165.277 16.9044H166.991V23.8478H168.019V25.3378ZM165.173 23.8478V19.5864L162.283 23.8478H165.173Z" fill="white"/>
<path d="M154.019 48.3135H158.846V49.8333H151.665V48.4327L155.673 44.663C156.189 44.1762 156.567 43.759 156.805 43.4114C157.053 43.0538 157.178 42.6465 157.178 42.1896C157.178 41.683 157.019 41.2807 156.701 40.9827C156.393 40.6747 155.951 40.5208 155.375 40.5208C154.789 40.5208 154.312 40.6896 153.944 41.0274C153.577 41.3552 153.393 41.822 153.393 42.428H151.665C151.665 41.7326 151.819 41.1267 152.127 40.6102C152.444 40.0936 152.881 39.6963 153.438 39.4182C154.004 39.14 154.65 39.001 155.375 39.001C156.07 39.001 156.686 39.1351 157.222 39.4033C157.759 39.6615 158.171 40.0291 158.459 40.5059C158.757 40.9727 158.906 41.5141 158.906 42.13C158.906 42.6366 158.807 43.1034 158.608 43.5306C158.409 43.9478 158.186 44.2954 157.938 44.5736C157.699 44.8418 157.376 45.1646 156.969 45.5421L154.019 48.3135ZM168.019 47.6877H166.991V49.8333H165.173V47.6877H160.465V46.3616L165.277 39.2543H166.991V46.1977H168.019V47.6877ZM165.173 46.1977V41.9363L162.283 46.1977H165.173Z" fill="white"/>
<path d="M1.7124 63.9082H185.479" stroke="#F96E8F" stroke-width="2.48333" stroke-linecap="round"/>
</svg>
