<svg width="187" height="66" viewBox="0 0 187 66" fill="none" xmlns="http://www.w3.org/2000/svg">
<rect x="0.321289" y="0.583374" width="186.25" height="64.5667" rx="2.48333" fill="#10212E"/>
<rect x="0.321289" y="0.583374" width="132.336" height="64.5667" rx="2.48333" fill="#193347"/>
<path d="M146.8 28.961V38.6584H145.12V30.8595L142.744 31.9932V30.4771L145.872 28.961H146.8ZM151.534 38.8497C151.234 38.8497 150.974 38.7404 150.756 38.5219C150.537 38.3033 150.428 38.0438 150.428 37.7433C150.428 37.4338 150.537 37.1742 150.756 36.9648C150.974 36.7463 151.234 36.637 151.534 36.637C151.844 36.637 152.103 36.7463 152.313 36.9648C152.531 37.1742 152.641 37.4338 152.641 37.7433C152.641 38.0438 152.531 38.3033 152.313 38.5219C152.103 38.7404 151.844 38.8497 151.534 38.8497ZM151.534 33.7278C151.234 33.7278 150.974 33.6185 150.756 33.4C150.537 33.1815 150.428 32.9219 150.428 32.6215C150.428 32.3119 150.537 32.0524 150.756 31.8429C150.974 31.6244 151.234 31.5151 151.534 31.5151C151.844 31.5151 152.103 31.6244 152.313 31.8429C152.531 32.0524 152.641 32.3119 152.641 32.6215C152.641 32.9219 152.531 33.1815 152.313 33.4C152.103 33.6185 151.844 33.7278 151.534 33.7278ZM157.86 38.877C156.831 38.877 156.012 38.5765 155.402 37.9755C154.792 37.3746 154.487 36.546 154.487 35.4897V32.1298C154.487 31.0735 154.792 30.2449 155.402 29.6439C156.012 29.043 156.831 28.7425 157.86 28.7425C158.889 28.7425 159.709 29.043 160.319 29.6439C160.929 30.2449 161.234 31.0735 161.234 32.1298V35.4897C161.234 36.546 160.929 37.3746 160.319 37.9755C159.709 38.5765 158.889 38.877 157.86 38.877ZM157.86 37.4838C158.434 37.4838 158.871 37.3154 159.171 36.9785C159.472 36.6416 159.622 36.1499 159.622 35.5034V32.1161C159.622 31.4696 159.472 30.9779 159.171 30.641C158.871 30.3041 158.434 30.1356 157.86 30.1356C157.287 30.1356 156.85 30.3041 156.549 30.641C156.249 30.9779 156.098 31.4696 156.098 32.1161V35.5034C156.098 36.1499 156.249 36.6416 156.549 36.9785C156.85 37.3154 157.287 37.4838 157.86 37.4838ZM166.214 32.3756C166.86 32.3756 167.411 32.5168 167.866 32.799C168.322 33.0813 168.663 33.4683 168.891 33.96C169.128 34.4426 169.246 34.9844 169.246 35.5853C169.246 36.2682 169.109 36.8601 168.836 37.3609C168.563 37.8526 168.176 38.2305 167.675 38.4945C167.184 38.7495 166.61 38.877 165.954 38.877C165.007 38.877 164.242 38.6402 163.66 38.1667C163.077 37.6842 162.786 36.9739 162.786 36.036H164.315C164.315 36.5004 164.466 36.8601 164.766 37.1151C165.066 37.3609 165.467 37.4838 165.968 37.4838C166.532 37.4838 166.96 37.3108 167.252 36.9648C167.543 36.6188 167.689 36.159 167.689 35.5853C167.689 34.957 167.52 34.4744 167.184 34.1375C166.856 33.8006 166.423 33.6322 165.886 33.6322C165.64 33.6322 165.376 33.6777 165.094 33.7688C164.821 33.8507 164.57 33.9736 164.343 34.1375H163.072V28.961H168.727V30.3542H164.506V32.7717C164.743 32.6533 165.012 32.5577 165.312 32.4849C165.613 32.412 165.913 32.3756 166.214 32.3756ZM174.745 31.5288C175.619 31.5288 176.302 31.852 176.794 32.4985C177.294 33.145 177.545 34.0283 177.545 35.1483C177.545 35.8858 177.422 36.5323 177.176 37.0877C176.93 37.6432 176.58 38.0711 176.124 38.3716C175.678 38.6721 175.159 38.8223 174.567 38.8223C173.702 38.8223 173.019 38.449 172.519 37.7024V41.3901H170.962V31.6927H172.341L172.478 32.7444C172.742 32.3437 173.069 32.0433 173.461 31.8429C173.862 31.6335 174.29 31.5288 174.745 31.5288ZM174.253 37.5521C174.763 37.5521 175.173 37.3427 175.482 36.9238C175.792 36.505 175.947 35.9131 175.947 35.1483C175.947 34.3743 175.801 33.7915 175.51 33.4C175.228 32.9993 174.831 32.799 174.321 32.799C174.094 32.799 173.839 32.8673 173.557 33.0039C173.283 33.1405 173.042 33.3863 172.833 33.7414C172.623 34.0966 172.519 34.5746 172.519 35.1756C172.519 35.7765 172.614 36.2546 172.805 36.6097C173.006 36.9648 173.238 37.2107 173.502 37.3472C173.766 37.4838 174.016 37.5521 174.253 37.5521Z" fill="white"/>
<path d="M23.2781 39.2876C24.48 39.2876 25.3989 39.5856 26.0346 40.1816C26.6703 40.7676 26.9882 41.5772 26.9882 42.6103C26.9882 43.6731 26.6554 44.4976 25.9899 45.0837C25.3343 45.6697 24.4055 45.9578 23.2036 45.9479H20.76V49.8666H18.8975V39.2876H23.2781ZM23.0397 44.4281C23.745 44.4281 24.2764 44.2741 24.634 43.9662C25.0015 43.6582 25.1853 43.2063 25.1853 42.6103C25.1853 41.9944 25.0065 41.5424 24.6489 41.2544C24.3012 40.9564 23.7648 40.8074 23.0397 40.8074H20.76V44.4281H23.0397ZM34.2282 47.6912C34.2282 48.0289 34.2779 48.2723 34.3772 48.4213C34.4765 48.5603 34.6653 48.6299 34.9434 48.6299L34.8689 49.8666C34.6504 49.8964 34.4517 49.9113 34.2729 49.9113C33.7961 49.9113 33.4335 49.807 33.1852 49.5984C32.9369 49.3798 32.7928 49.0769 32.7531 48.6895H32.7382C32.4402 49.1563 32.0727 49.499 31.6356 49.7176C31.1985 49.9361 30.682 50.0454 30.086 50.0454C29.3708 50.0454 28.7897 49.8566 28.3427 49.4792C27.8957 49.0918 27.6722 48.5504 27.6722 47.8551C27.6722 46.9213 28.0646 46.2707 28.8493 45.9032C29.634 45.5356 30.5876 45.3519 31.7101 45.3519C31.9088 45.3519 32.1869 45.3618 32.5445 45.3817V44.6516C32.5445 44.1946 32.4253 43.8668 32.1869 43.6682C31.9485 43.4596 31.581 43.3553 31.0843 43.3553C30.5678 43.3553 30.1704 43.4745 29.8923 43.7129C29.6142 43.9513 29.4751 44.2393 29.4751 44.5771H27.8361C27.8361 44.0903 27.9752 43.6582 28.2533 43.2808C28.5414 42.9033 28.9337 42.6103 29.4304 42.4017C29.937 42.1931 30.5032 42.0888 31.129 42.0888C32.0826 42.0888 32.8375 42.3073 33.3938 42.7444C33.9501 43.1715 34.2282 43.7874 34.2282 44.592V47.6912ZM30.5628 48.7789C31.1389 48.7789 31.6108 48.605 31.9783 48.2574C32.3558 47.8998 32.5445 47.4677 32.5445 46.9611V46.4098C32.3955 46.3998 32.1869 46.3949 31.9187 46.3949C31.0644 46.3949 30.4337 46.5041 30.0264 46.7227C29.6291 46.9313 29.4304 47.264 29.4304 47.721C29.4304 48.0786 29.5297 48.3468 29.7284 48.5256C29.937 48.6944 30.2151 48.7789 30.5628 48.7789ZM40.3534 42.0888C41.0686 42.0888 41.6497 42.2924 42.0967 42.6997C42.5536 43.097 42.7821 43.6831 42.7821 44.4579V49.8666H41.0835V44.7857C41.0835 43.9215 40.6663 43.4894 39.8319 43.4894C39.5538 43.4894 39.2607 43.5589 38.9528 43.698C38.6449 43.8271 38.3767 44.0754 38.1482 44.443C37.9197 44.8006 37.8055 45.2972 37.8055 45.933V49.8666H36.1069V42.2676H37.6118L37.7459 43.4298C38.0538 42.9927 38.4363 42.6599 38.8932 42.4315C39.3501 42.203 39.8369 42.0888 40.3534 42.0888ZM47.6753 48.615C47.9435 48.615 48.2117 48.5752 48.4799 48.4958L48.3905 49.8219C47.9535 49.9311 47.581 49.9858 47.273 49.9858C46.5578 49.9858 46.0214 49.802 45.6638 49.4345C45.3062 49.0669 45.1274 48.4709 45.1274 47.6465V43.5937H43.7715L43.8013 42.2676H45.1274L45.2764 39.9879H46.826V42.2676H48.465L48.4352 43.5937H46.826V47.5571C46.826 47.9544 46.8906 48.2325 47.0197 48.3915C47.1489 48.5405 47.3674 48.615 47.6753 48.615ZM53.9729 42.0888C54.6881 42.0888 55.2692 42.2924 55.7162 42.6997C56.1732 43.097 56.4016 43.6831 56.4016 44.4579V49.8666H54.703V44.7857C54.703 43.9215 54.2858 43.4894 53.4514 43.4894C53.1733 43.4894 52.8803 43.5589 52.5723 43.698C52.2644 43.8271 51.9962 44.0754 51.7677 44.443C51.5393 44.8006 51.425 45.2972 51.425 45.933V49.8666H49.7264V38.9896H51.425V43.3553C51.733 42.948 52.1055 42.6351 52.5425 42.4166C52.9895 42.198 53.4663 42.0888 53.9729 42.0888ZM61.413 42.0888C62.1978 42.0888 62.8633 42.2725 63.4096 42.6401C63.956 42.9977 64.3632 43.5043 64.6314 44.1599C64.9096 44.8155 65.0337 45.5803 65.0039 46.4545H59.5952C59.635 47.2193 59.8287 47.7905 60.1763 48.168C60.524 48.5454 60.9909 48.7342 61.5769 48.7342C62.4411 48.7342 63.0024 48.3517 63.2606 47.5869H64.84C64.7308 48.3319 64.3881 48.9279 63.8119 49.3749C63.2457 49.8219 62.4759 50.0454 61.5024 50.0454C60.7078 50.0454 60.0323 49.8715 59.476 49.5239C58.9297 49.1762 58.5175 48.7044 58.2393 48.1084C57.9711 47.5124 57.837 46.8319 57.837 46.0671C57.837 45.3121 57.9711 44.6367 58.2393 44.0407C58.5175 43.4347 58.9247 42.9579 59.4611 42.6103C59.9975 42.2626 60.6482 42.0888 61.413 42.0888ZM61.4428 43.4C60.9362 43.4 60.519 43.5539 60.1912 43.8619C59.8734 44.1698 59.6797 44.6317 59.6101 45.2476H63.2606C63.1911 44.6317 62.9924 44.1698 62.6646 43.8619C62.3468 43.5539 61.9395 43.4 61.4428 43.4ZM67.9544 43.7576C68.6199 42.645 69.5437 42.1285 70.7258 42.208V43.8917C70.547 43.8619 70.3781 43.847 70.2192 43.847C69.5338 43.847 68.9874 44.0655 68.5802 44.5026C68.1729 44.9297 67.9693 45.5406 67.9693 46.3353V49.8666H66.2707V42.2676H67.7756L67.9544 43.7576ZM74.3968 50.0454C73.3637 50.0454 72.5641 49.8219 71.9979 49.3749C71.4316 48.9279 71.1485 48.317 71.1485 47.5422H72.9068C72.9167 47.8898 73.0508 48.1779 73.3091 48.4064C73.5773 48.6249 73.9746 48.7342 74.5011 48.7342C74.9779 48.7342 75.3454 48.6547 75.6037 48.4958C75.8619 48.3269 75.9911 48.0786 75.9911 47.7508C75.9911 47.5223 75.9265 47.3435 75.7974 47.2144C75.6682 47.0753 75.4944 46.971 75.2759 46.9015C75.0673 46.822 74.7494 46.7326 74.3223 46.6333L73.9349 46.5439C73.4481 46.4247 73.0309 46.2955 72.6833 46.1565C72.3455 46.0174 72.0475 45.7989 71.7893 45.5009C71.5409 45.2029 71.4168 44.8155 71.4168 44.3387C71.4168 43.6334 71.6949 43.0821 72.2512 42.6848C72.8074 42.2874 73.5375 42.0888 74.4415 42.0888C75.3851 42.0888 76.1252 42.3023 76.6616 42.7295C77.198 43.1467 77.5009 43.7178 77.5705 44.443L75.8421 44.4281C75.7129 43.6831 75.2262 43.3106 74.3819 43.3106C74.0143 43.3106 73.7114 43.3851 73.473 43.5341C73.2445 43.6731 73.1303 43.8718 73.1303 44.1301C73.1303 44.4281 73.2693 44.6466 73.5475 44.7857C73.8256 44.9247 74.2577 45.0638 74.8438 45.2029C75.4497 45.3419 75.9464 45.4909 76.3338 45.6499C76.7311 45.7989 77.0639 46.0273 77.3321 46.3353C77.6003 46.6432 77.7344 47.0554 77.7344 47.572C77.7344 48.3269 77.4215 48.9279 76.7957 49.3749C76.1699 49.8219 75.3702 50.0454 74.3968 50.0454Z" fill="white"/>
<path d="M31.9201 16.9375L28.9997 27.5165H27.1372L24.9171 19.396L22.7119 27.5165H20.8494L17.929 16.9375H19.8809L21.7732 24.9835H21.803L24.0082 16.9375H25.8409L28.0312 24.9835H28.061L29.9682 16.9375H31.9201ZM38.5643 25.3411C38.5643 25.6788 38.614 25.9222 38.7133 26.0712C38.8127 26.2102 39.0014 26.2798 39.2795 26.2798L39.205 27.5165C38.9865 27.5463 38.7878 27.5612 38.609 27.5612C38.1322 27.5612 37.7697 27.4569 37.5213 27.2483C37.273 27.0297 37.129 26.7268 37.0892 26.3394H37.0743C36.7763 26.8062 36.4088 27.1489 35.9717 27.3675C35.5347 27.586 35.0181 27.6953 34.4221 27.6953C33.7069 27.6953 33.1258 27.5065 32.6788 27.1291C32.2318 26.7417 32.0083 26.2003 32.0083 25.505C32.0083 24.5712 32.4007 23.9206 33.1854 23.5531C33.9702 23.1855 34.9238 23.0018 36.0462 23.0018C36.2449 23.0018 36.523 23.0117 36.8806 23.0316V22.3015C36.8806 21.8445 36.7614 21.5167 36.523 21.3181C36.2846 21.1095 35.9171 21.0052 35.4204 21.0052C34.9039 21.0052 34.5066 21.1244 34.2284 21.3628C33.9503 21.6012 33.8112 21.8892 33.8112 22.227H32.1722C32.1722 21.7402 32.3113 21.3081 32.5894 20.9307C32.8775 20.5532 33.2699 20.2602 33.7665 20.0516C34.2731 19.843 34.8393 19.7387 35.4651 19.7387C36.4187 19.7387 37.1737 19.9572 37.7299 20.3943C38.2862 20.8214 38.5643 21.4373 38.5643 22.2419V25.3411ZM34.8989 26.4288C35.4751 26.4288 35.9469 26.2549 36.3144 25.9073C36.6919 25.5497 36.8806 25.1176 36.8806 24.611V24.0597C36.7316 24.0497 36.523 24.0448 36.2548 24.0448C35.4006 24.0448 34.7698 24.154 34.3625 24.3726C33.9652 24.5812 33.7665 24.9139 33.7665 25.3709C33.7665 25.7285 33.8659 25.9967 34.0645 26.1755C34.2731 26.3443 34.5513 26.4288 34.8989 26.4288ZM43.2144 27.6953C42.1814 27.6953 41.3817 27.4718 40.8155 27.0248C40.2493 26.5778 39.9662 25.9669 39.9662 25.1921H41.7244C41.7344 25.5397 41.8685 25.8278 42.1267 26.0563C42.3949 26.2748 42.7923 26.3841 43.3187 26.3841C43.7955 26.3841 44.1631 26.3046 44.4213 26.1457C44.6796 25.9768 44.8087 25.7285 44.8087 25.4007C44.8087 25.1722 44.7442 24.9934 44.615 24.8643C44.4859 24.7252 44.3121 24.6209 44.0935 24.5514C43.8849 24.4719 43.5671 24.3825 43.1399 24.2832L42.7525 24.1938C42.2658 24.0746 41.8486 23.9454 41.5009 23.8064C41.1632 23.6673 40.8652 23.4488 40.6069 23.1508C40.3586 22.8528 40.2344 22.4654 40.2344 21.9886C40.2344 21.2833 40.5126 20.732 41.0688 20.3347C41.6251 19.9373 42.3552 19.7387 43.2591 19.7387C44.2028 19.7387 44.9428 19.9522 45.4792 20.3794C46.0156 20.7966 46.3186 21.3677 46.3881 22.0929L44.6597 22.078C44.5306 21.333 44.0439 20.9605 43.1995 20.9605C42.832 20.9605 42.529 21.035 42.2906 21.184C42.0622 21.323 41.9479 21.5217 41.9479 21.78C41.9479 22.078 42.087 22.2965 42.3651 22.4356C42.6433 22.5746 43.0754 22.7137 43.6614 22.8528C44.2674 22.9918 44.764 23.1408 45.1514 23.2998C45.5488 23.4488 45.8815 23.6772 46.1497 23.9852C46.4179 24.2931 46.552 24.7053 46.552 25.2219C46.552 25.9768 46.2391 26.5778 45.6133 27.0248C44.9875 27.4718 44.1879 27.6953 43.2144 27.6953ZM52.0959 19.7387C52.8111 19.7387 53.3922 19.9423 53.8392 20.3496C54.2961 20.7469 54.5246 21.333 54.5246 22.1078V27.5165H52.826V22.4356C52.826 21.5714 52.4088 21.1393 51.5744 21.1393C51.2962 21.1393 51.0032 21.2088 50.6953 21.3479C50.3873 21.477 50.1191 21.7253 49.8907 22.0929C49.6622 22.4505 49.548 22.9471 49.548 23.5829V27.5165H47.8494V16.6395H49.548V21.0052C49.8559 20.5979 50.2284 20.285 50.6655 20.0665C51.1125 19.8479 51.5893 19.7387 52.0959 19.7387ZM57.3904 18.7255C57.0725 18.7255 56.8142 18.6261 56.6156 18.4275C56.4268 18.2288 56.3325 17.9805 56.3325 17.6825C56.3325 17.3944 56.4268 17.151 56.6156 16.9524C56.8142 16.7438 57.0725 16.6395 57.3904 16.6395C57.6983 16.6395 57.9516 16.7438 58.1503 16.9524C58.3489 17.151 58.4483 17.3944 58.4483 17.6825C58.4483 17.9805 58.3489 18.2288 58.1503 18.4275C57.9615 18.6261 57.7082 18.7255 57.3904 18.7255ZM56.5411 19.9175H58.2397V27.5165H56.5411V19.9175ZM64.4495 19.7387C65.1647 19.7387 65.7458 19.9423 66.1928 20.3496C66.6497 20.7469 66.8782 21.333 66.8782 22.1078V27.5165H65.1796V22.4356C65.1796 21.5714 64.7624 21.1393 63.928 21.1393C63.6499 21.1393 63.3568 21.2088 63.0489 21.3479C62.741 21.477 62.4728 21.7253 62.2443 22.0929C62.0158 22.4505 61.9016 22.9471 61.9016 23.5829V27.5165H60.203V19.9175H61.7079L61.842 21.0797C62.1499 20.6426 62.5324 20.3098 62.9893 20.0814C63.4462 19.8529 63.933 19.7387 64.4495 19.7387ZM75.4954 19.9175V27.6655C75.4954 28.7681 75.1527 29.5528 74.4673 30.0197C73.7819 30.4965 72.8829 30.7349 71.7704 30.7349C70.7373 30.7349 69.9476 30.5114 69.4013 30.0644C68.855 29.6174 68.5818 29.0412 68.5818 28.336H70.2357C70.2456 28.6936 70.3847 28.9717 70.6529 29.1704C70.931 29.379 71.3184 29.4833 71.8151 29.4833C73.1362 29.4833 73.7968 28.932 73.7968 27.8294V26.399C73.5087 26.8162 73.1511 27.1291 72.724 27.3377C72.3068 27.5463 71.8548 27.6506 71.3681 27.6506C70.4145 27.6506 69.6645 27.3029 69.1182 26.6076C68.5818 25.9023 68.3136 24.9487 68.3136 23.7468C68.3136 22.9422 68.4427 22.2369 68.701 21.631C68.9692 21.025 69.3467 20.5582 69.8334 20.2304C70.3201 19.9026 70.8863 19.7387 71.532 19.7387C72.5353 19.7387 73.3051 20.1757 73.8415 21.0499L73.9905 19.9175H75.4954ZM71.83 26.2649C72.0883 26.2649 72.3664 26.1953 72.6644 26.0563C72.9624 25.9172 73.2256 25.6589 73.4541 25.2815C73.6826 24.8941 73.7968 24.3726 73.7968 23.717C73.7968 23.0614 73.6875 22.5399 73.469 22.1525C73.2505 21.7651 72.9922 21.4969 72.6942 21.3479C72.4061 21.1989 72.133 21.1244 71.8747 21.1244C71.3284 21.1244 70.8863 21.3528 70.5486 21.8098C70.2208 22.2667 70.0569 22.9124 70.0569 23.7468C70.0569 24.5613 70.2109 25.1871 70.5188 25.6242C70.8367 26.0513 71.2737 26.2649 71.83 26.2649ZM80.4001 26.2649C80.6683 26.2649 80.9365 26.2251 81.2047 26.1457L81.1153 27.4718C80.6782 27.581 80.3057 27.6357 79.9978 27.6357C79.2826 27.6357 78.7462 27.4519 78.3886 27.0844C78.031 26.7168 77.8522 26.1208 77.8522 25.2964V21.2436H76.4963L76.5261 19.9175H77.8522L78.0012 17.6378H79.5508V19.9175H81.1898L81.16 21.2436H79.5508V25.207C79.5508 25.6043 79.6153 25.8824 79.7445 26.0414C79.8736 26.1904 80.0921 26.2649 80.4001 26.2649ZM85.8483 27.6953C85.0338 27.6953 84.3434 27.5214 83.7772 27.1738C83.211 26.8261 82.7839 26.3543 82.4958 25.7583C82.2177 25.1623 82.0786 24.4818 82.0786 23.717C82.0786 22.9521 82.2177 22.2717 82.4958 21.6757C82.774 21.0697 83.1961 20.5979 83.7623 20.2602C84.3285 19.9125 85.0239 19.7387 85.8483 19.7387C86.6629 19.7387 87.3532 19.9125 87.9194 20.2602C88.4856 20.6078 88.9078 21.0797 89.1859 21.6757C89.4641 22.2717 89.6031 22.9521 89.6031 23.717C89.6031 24.4818 89.4591 25.1623 89.171 25.7583C88.8929 26.3543 88.4707 26.8261 87.9045 27.1738C87.3483 27.5214 86.6629 27.6953 85.8483 27.6953ZM85.8483 26.3394C86.494 26.3394 86.9857 26.1208 87.3234 25.6838C87.6711 25.2467 87.8449 24.5911 87.8449 23.717C87.8449 22.8428 87.6711 22.1872 87.3234 21.7502C86.9857 21.3131 86.494 21.0946 85.8483 21.0946C85.1927 21.0946 84.6911 21.3131 84.3434 21.7502C84.0057 22.1872 83.8368 22.8428 83.8368 23.717C83.8368 24.5911 84.0107 25.2467 84.3583 25.6838C84.706 26.1208 85.2027 26.3394 85.8483 26.3394ZM95.268 19.7387C95.9832 19.7387 96.5643 19.9423 97.0113 20.3496C97.4683 20.7469 97.6967 21.333 97.6967 22.1078V27.5165H95.9981V22.4356C95.9981 21.5714 95.5809 21.1393 94.7465 21.1393C94.4684 21.1393 94.1754 21.2088 93.8674 21.3479C93.5595 21.477 93.2913 21.7253 93.0628 22.0929C92.8344 22.4505 92.7201 22.9471 92.7201 23.5829V27.5165H91.0215V19.9175H92.5264L92.6605 21.0797C92.9685 20.6426 93.3509 20.3098 93.8078 20.0814C94.2648 19.8529 94.7515 19.7387 95.268 19.7387Z" fill="white"/>
</svg>
