<svg width="305" height="374" viewBox="0 0 305 374" fill="none" xmlns="http://www.w3.org/2000/svg">
<path d="M0 20C0 8.9543 8.9543 0 20 0H285C296.046 0 305 8.9543 305 20V354C305 365.046 296.046 374 285 374H20C8.9543 374 0 365.046 0 354V20Z" fill="#10212E"/>
<g filter="url(#filter0_d)">
<rect x="20" y="89" width="78" height="25" rx="2.47" fill="#335268"/>
</g>
<path d="M37.5325 107.24C36.4125 107.24 35.4625 107 34.6825 106.52C33.9125 106.03 33.3375 105.365 32.9575 104.525C32.5775 103.685 32.3875 102.735 32.3875 101.675C32.3875 100.615 32.5775 99.665 32.9575 98.825C33.3375 97.985 33.9125 97.325 34.6825 96.845C35.4625 96.355 36.4125 96.11 37.5325 96.11C38.3025 96.11 39.0175 96.25 39.6775 96.53C40.3375 96.81 40.8825 97.235 41.3125 97.805C41.7425 98.365 41.9975 99.055 42.0775 99.875H39.9775C39.8975 99.205 39.6375 98.7 39.1975 98.36C38.7675 98.02 38.2025 97.85 37.5025 97.85C36.5325 97.85 35.7925 98.195 35.2825 98.885C34.7825 99.575 34.5325 100.505 34.5325 101.675C34.5325 102.845 34.7825 103.775 35.2825 104.465C35.7925 105.155 36.5325 105.5 37.5025 105.5C38.2025 105.5 38.7675 105.33 39.1975 104.99C39.6375 104.65 39.8975 104.145 39.9775 103.475H42.0775C41.9975 104.295 41.7425 104.99 41.3125 105.56C40.8825 106.12 40.3375 106.54 39.6775 106.82C39.0175 107.1 38.3025 107.24 37.5325 107.24ZM52.3481 96.35V107H50.2031V102.425H45.8231V107H43.6781V96.35H45.8231V100.625H50.2031V96.35H52.3481ZM54.4007 96.35H56.5457V107H54.4007V96.35ZM66.2848 105.215V107H58.6048V96.35H66.2548V98.135H60.7498V100.7H65.8048V102.425H60.7498V105.215H66.2848ZM70.0809 98.135V100.82H74.6559V102.545H70.0809V107H67.9359V96.35H75.1059V98.135H70.0809ZM80.3152 107.24C79.5652 107.24 78.8552 107.12 78.1852 106.88C77.5252 106.64 76.9752 106.25 76.5352 105.71C76.1052 105.16 75.8852 104.45 75.8752 103.58H77.9752C77.9952 104.25 78.2202 104.76 78.6502 105.11C79.0902 105.45 79.6702 105.62 80.3902 105.62C81.0502 105.62 81.5902 105.495 82.0102 105.245C82.4302 104.995 82.6402 104.61 82.6402 104.09C82.6402 103.76 82.5402 103.495 82.3402 103.295C82.1502 103.095 81.8702 102.925 81.5002 102.785C81.1302 102.635 80.5552 102.45 79.7752 102.23C78.9052 101.99 78.2502 101.78 77.8102 101.6C77.3802 101.42 77.0052 101.14 76.6852 100.76C76.3652 100.38 76.2052 99.86 76.2052 99.2C76.2052 98.52 76.3902 97.95 76.7602 97.49C77.1302 97.03 77.6202 96.685 78.2302 96.455C78.8502 96.225 79.5252 96.11 80.2552 96.11C81.4552 96.11 82.4402 96.385 83.2102 96.935C83.9902 97.475 84.4102 98.31 84.4702 99.44H82.3702C82.3202 98.87 82.1052 98.445 81.7252 98.165C81.3552 97.875 80.8552 97.73 80.2252 97.73C79.6752 97.73 79.2102 97.85 78.8302 98.09C78.4602 98.32 78.2752 98.65 78.2752 99.08C78.2752 99.34 78.3602 99.555 78.5302 99.725C78.7102 99.895 78.9352 100.03 79.2052 100.13C79.4752 100.22 79.8602 100.33 80.3602 100.46L80.7202 100.55C81.6602 100.8 82.4152 101.065 82.9852 101.345C83.5652 101.615 84.0052 101.96 84.3052 102.38C84.6152 102.8 84.7702 103.33 84.7702 103.97C84.7702 105.09 84.3502 105.915 83.5102 106.445C82.6802 106.975 81.6152 107.24 80.3152 107.24Z" fill="white"/>
<g filter="url(#filter1_d)">
<rect x="111" y="89" width="78" height="25" rx="2.47" fill="#335268"/>
</g>
<path d="M149.101 96.35L146.161 107H144.061L142.036 99.245L139.996 107H137.881L134.941 96.35H137.161L138.931 104.09H138.961L141.016 96.35H143.041L145.096 104.09H145.126L146.881 96.35H149.101ZM150.213 96.35H152.358V107H150.213V96.35ZM163.087 96.35V107H160.912L156.457 99.635V107H154.417V96.35H156.592L161.047 103.82V96.35H163.087Z" fill="white"/>
<g filter="url(#filter2_d)">
<rect x="202" y="89" width="78" height="25" rx="2.47" fill="#335268"/>
</g>
<path d="M212.369 98.135V100.82H216.944V102.545H212.369V107H210.224V96.35H217.394V98.135H212.369ZM223.735 104.495H219.85L219.01 107H216.745L220.795 96.35H222.79L226.84 107H224.575L223.735 104.495ZM223.18 102.89L221.8 98.795H221.77L220.39 102.89H223.18ZM234.943 105.215V107H227.773V96.35H229.918V105.215H234.943ZM240.729 107.24C239.609 107.24 238.659 107 237.879 106.52C237.109 106.03 236.534 105.365 236.154 104.525C235.774 103.685 235.584 102.735 235.584 101.675C235.584 100.615 235.774 99.665 236.154 98.825C236.534 97.985 237.109 97.325 237.879 96.845C238.659 96.355 239.609 96.11 240.729 96.11C241.499 96.11 242.214 96.25 242.874 96.53C243.534 96.81 244.079 97.235 244.509 97.805C244.939 98.365 245.194 99.055 245.274 99.875H243.174C243.094 99.205 242.834 98.7 242.394 98.36C241.964 98.02 241.399 97.85 240.699 97.85C239.729 97.85 238.989 98.195 238.479 98.885C237.979 99.575 237.729 100.505 237.729 101.675C237.729 102.845 237.979 103.775 238.479 104.465C238.989 105.155 239.729 105.5 240.699 105.5C241.399 105.5 241.964 105.33 242.394 104.99C242.834 104.65 243.094 104.145 243.174 103.475H245.274C245.194 104.295 244.939 104.99 244.509 105.56C244.079 106.12 243.534 106.54 242.874 106.82C242.214 107.1 241.499 107.24 240.729 107.24ZM251.629 107.24C250.489 107.24 249.524 107 248.734 106.52C247.954 106.03 247.369 105.365 246.979 104.525C246.589 103.685 246.394 102.735 246.394 101.675C246.394 100.615 246.589 99.665 246.979 98.825C247.369 97.985 247.954 97.325 248.734 96.845C249.524 96.355 250.489 96.11 251.629 96.11C252.769 96.11 253.729 96.355 254.509 96.845C255.299 97.325 255.884 97.985 256.264 98.825C256.654 99.665 256.849 100.615 256.849 101.675C256.849 102.735 256.654 103.685 256.264 104.525C255.884 105.365 255.299 106.03 254.509 106.52C253.729 107 252.769 107.24 251.629 107.24ZM251.629 105.5C252.649 105.5 253.419 105.155 253.939 104.465C254.459 103.775 254.719 102.845 254.719 101.675C254.719 100.505 254.459 99.575 253.939 98.885C253.419 98.195 252.649 97.85 251.629 97.85C250.609 97.85 249.839 98.195 249.319 98.885C248.799 99.575 248.539 100.505 248.539 101.675C248.539 102.845 248.799 103.775 249.319 104.465C249.839 105.155 250.609 105.5 251.629 105.5ZM259.607 107.21C259.257 107.21 258.952 107.08 258.692 106.82C258.432 106.56 258.302 106.255 258.302 105.905C258.302 105.545 258.427 105.24 258.677 104.99C258.937 104.73 259.247 104.6 259.607 104.6C259.977 104.6 260.287 104.725 260.537 104.975C260.797 105.225 260.927 105.535 260.927 105.905C260.927 106.255 260.797 106.56 260.537 106.82C260.287 107.08 259.977 107.21 259.607 107.21ZM264.485 107.21C264.135 107.21 263.83 107.08 263.57 106.82C263.31 106.56 263.18 106.255 263.18 105.905C263.18 105.545 263.305 105.24 263.555 104.99C263.815 104.73 264.125 104.6 264.485 104.6C264.855 104.6 265.165 104.725 265.415 104.975C265.675 105.225 265.805 105.535 265.805 105.905C265.805 106.255 265.675 106.56 265.415 106.82C265.165 107.08 264.855 107.21 264.485 107.21ZM269.363 107.21C269.013 107.21 268.708 107.08 268.448 106.82C268.188 106.56 268.058 106.255 268.058 105.905C268.058 105.545 268.183 105.24 268.433 104.99C268.693 104.73 269.003 104.6 269.363 104.6C269.733 104.6 270.043 104.725 270.293 104.975C270.553 105.225 270.683 105.535 270.683 105.905C270.683 106.255 270.553 106.56 270.293 106.82C270.043 107.08 269.733 107.21 269.363 107.21Z" fill="white"/>
<g filter="url(#filter3_d)">
<rect x="20" y="217" width="261" height="25" rx="2.47" fill="#335268"/>
</g>
<g filter="url(#filter4_d)">
<rect x="20" y="280" width="266" height="25" rx="2.47" fill="#335268"/>
</g>
<g filter="url(#filter5_d)">
<rect x="115" y="153" width="76" height="25" rx="2.47" fill="#335268"/>
</g>
<g filter="url(#filter6_d)">
<rect x="205" y="153" width="76" height="25" rx="2.47" fill="#335268"/>
</g>
<g filter="url(#filter7_i)">
<rect x="20" y="153" width="76" height="25" rx="2.47" fill="#0C2131"/>
</g>
<path d="M52.9853 160.35V171H50.8403V166.425H46.4603V171H44.3153V160.35H46.4603V164.625H50.8403V160.35H52.9853ZM57.4529 169.275H62.1929V171H54.7829V169.425L58.7279 165.78C59.1079 165.43 59.3979 165.145 59.5979 164.925C59.7979 164.705 59.9579 164.465 60.0779 164.205C60.2079 163.945 60.2729 163.66 60.2729 163.35C60.2729 162.87 60.1229 162.49 59.8229 162.21C59.5329 161.93 59.1179 161.79 58.5779 161.79C58.0179 161.79 57.5629 161.95 57.2129 162.27C56.8729 162.59 56.7029 163.045 56.7029 163.635H54.7379C54.7379 162.915 54.8979 162.29 55.2179 161.76C55.5379 161.22 55.9829 160.805 56.5529 160.515C57.1329 160.225 57.8079 160.08 58.5779 160.08C59.3079 160.08 59.9479 160.215 60.4979 160.485C61.0579 160.745 61.4879 161.12 61.7879 161.61C62.0879 162.09 62.2379 162.645 62.2379 163.275C62.2379 163.785 62.1379 164.25 61.9379 164.67C61.7479 165.08 61.5229 165.425 61.2629 165.705C61.0029 165.985 60.6679 166.31 60.2579 166.68L57.4529 169.275ZM72.7021 160.35V171H70.5571V166.425H66.1771V171H64.0321V160.35H66.1771V164.625H70.5571V160.35H72.7021Z" fill="white"/>
<path d="M38.165 225.35V236H36.125V228.815L33.47 234.89H31.73L29.075 228.8V236H27.035V225.35H29.405L32.6 232.685L35.795 225.35H38.165ZM47.9132 234.215V236H40.2332V225.35H47.8832V227.135H42.3782V229.7H47.4332V231.425H42.3782V234.215H47.9132ZM58.2343 225.35V236H56.0893V231.425H51.7093V236H49.5643V225.35H51.7093V229.625H56.0893V225.35H58.2343ZM64.667 236.24C61.717 236.24 60.242 234.88 60.242 232.16V225.35H62.372V231.98C62.372 232.79 62.552 233.415 62.912 233.855C63.272 234.285 63.857 234.5 64.667 234.5C65.477 234.5 66.057 234.285 66.407 233.855C66.767 233.415 66.947 232.79 66.947 231.98V225.35H69.077V232.16C69.077 234.88 67.607 236.24 64.667 236.24ZM78.2675 234.215V236H71.0975V225.35H73.2425V234.215H78.2675ZM89.1936 233.495H85.3086L84.4686 236H82.2036L86.2536 225.35H88.2486L92.2986 236H90.0336L89.1936 233.495ZM88.6386 231.89L87.2586 227.795H87.2286L85.8486 231.89H88.6386ZM96.4563 236.24C95.2263 236.24 94.2663 235.92 93.5763 235.28C92.8863 234.63 92.5413 233.705 92.5413 232.505H94.6863C94.6863 233.135 94.8363 233.625 95.1363 233.975C95.4363 234.325 95.8713 234.5 96.4413 234.5C97.6413 234.5 98.2413 233.685 98.2413 232.055V225.35H100.371V232.16C100.371 233.49 100.036 234.505 99.3663 235.205C98.7063 235.895 97.7363 236.24 96.4563 236.24ZM102.416 225.35H104.561V236H102.416V225.35ZM114.375 227.135H111.135V236H108.99V227.135H105.75V225.35H114.375V227.135ZM124.24 225.35V236H122.095V231.425H117.715V236H115.57V225.35H117.715V229.625H122.095V225.35H124.24Z" fill="white"/>
<path d="M33.56 295.67C33.56 296.52 33.3 297.175 32.78 297.635C32.26 298.085 31.575 298.365 30.725 298.475V299.99H29.3V298.475C28.47 298.375 27.77 298.07 27.2 297.56C26.64 297.05 26.355 296.305 26.345 295.325H28.205C28.225 295.895 28.39 296.33 28.7 296.63C29.02 296.93 29.45 297.08 29.99 297.08C30.47 297.08 30.865 296.975 31.175 296.765C31.495 296.545 31.655 296.215 31.655 295.775C31.655 295.485 31.58 295.255 31.43 295.085C31.29 294.905 31.07 294.755 30.77 294.635C30.48 294.505 30.035 294.35 29.435 294.17C28.735 293.95 28.215 293.765 27.875 293.615C27.535 293.465 27.235 293.225 26.975 292.895C26.725 292.555 26.6 292.095 26.6 291.515C26.6 290.745 26.855 290.135 27.365 289.685C27.875 289.235 28.52 288.955 29.3 288.845V287.36H30.725V288.875C31.475 288.995 32.085 289.29 32.555 289.76C33.025 290.23 33.28 290.88 33.32 291.71H31.46C31.42 291.22 31.255 290.855 30.965 290.615C30.685 290.375 30.32 290.255 29.87 290.255C29.47 290.255 29.13 290.355 28.85 290.555C28.57 290.755 28.43 291.04 28.43 291.41C28.43 291.66 28.505 291.86 28.655 292.01C28.805 292.16 28.99 292.275 29.21 292.355C29.43 292.435 29.78 292.54 30.26 292.67C31.02 292.89 31.63 293.12 32.09 293.36C32.56 293.59 32.92 293.89 33.17 294.26C33.43 294.63 33.56 295.1 33.56 295.67ZM46.3563 292.055C47.0563 292.055 47.6563 292.21 48.1563 292.52C48.6663 292.82 49.0513 293.24 49.3113 293.78C49.5713 294.31 49.7013 294.915 49.7013 295.595C49.7013 296.355 49.5413 297.01 49.2213 297.56C48.9113 298.11 48.4763 298.53 47.9163 298.82C47.3563 299.1 46.7113 299.24 45.9813 299.24C44.9113 299.24 44.0463 298.97 43.3863 298.43C42.7263 297.89 42.3963 297.09 42.3963 296.03H44.2863C44.2863 296.51 44.4413 296.885 44.7513 297.155C45.0613 297.415 45.4763 297.545 45.9963 297.545C46.5763 297.545 47.0113 297.365 47.3013 297.005C47.6013 296.635 47.7513 296.16 47.7513 295.58C47.7513 294.95 47.5813 294.46 47.2413 294.11C46.9113 293.75 46.4663 293.57 45.9063 293.57C45.6463 293.57 45.3713 293.615 45.0813 293.705C44.7913 293.795 44.5213 293.93 44.2713 294.11H42.7113V288.35H49.1163V290.075H44.4513V292.475C45.0413 292.195 45.6763 292.055 46.3563 292.055ZM55.0654 299.24C53.8954 299.24 52.9704 298.915 52.2904 298.265C51.6104 297.605 51.2704 296.695 51.2704 295.535V291.815C51.2704 290.655 51.6104 289.75 52.2904 289.1C52.9704 288.44 53.8954 288.11 55.0654 288.11C56.2354 288.11 57.1604 288.44 57.8404 289.1C58.5204 289.75 58.8604 290.655 58.8604 291.815V295.535C58.8604 296.695 58.5204 297.605 57.8404 298.265C57.1604 298.915 56.2354 299.24 55.0654 299.24ZM55.0654 297.53C55.6454 297.53 56.0904 297.36 56.4004 297.02C56.7204 296.68 56.8804 296.195 56.8804 295.565V291.785C56.8804 291.155 56.7204 290.67 56.4004 290.33C56.0904 289.99 55.6454 289.82 55.0654 289.82C54.4854 289.82 54.0354 289.99 53.7154 290.33C53.4054 290.67 53.2504 291.155 53.2504 291.785V295.565C53.2504 296.195 53.4054 296.68 53.7154 297.02C54.0354 297.36 54.4854 297.53 55.0654 297.53ZM64.0596 299.24C62.8896 299.24 61.9646 298.915 61.2846 298.265C60.6046 297.605 60.2646 296.695 60.2646 295.535V291.815C60.2646 290.655 60.6046 289.75 61.2846 289.1C61.9646 288.44 62.8896 288.11 64.0596 288.11C65.2296 288.11 66.1546 288.44 66.8346 289.1C67.5146 289.75 67.8546 290.655 67.8546 291.815V295.535C67.8546 296.695 67.5146 297.605 66.8346 298.265C66.1546 298.915 65.2296 299.24 64.0596 299.24ZM64.0596 297.53C64.6396 297.53 65.0846 297.36 65.3946 297.02C65.7146 296.68 65.8746 296.195 65.8746 295.565V291.785C65.8746 291.155 65.7146 290.67 65.3946 290.33C65.0846 289.99 64.6396 289.82 64.0596 289.82C63.4796 289.82 63.0296 289.99 62.7096 290.33C62.3996 290.67 62.2446 291.155 62.2446 291.785V295.565C62.2446 296.195 62.3996 296.68 62.7096 297.02C63.0296 297.36 63.4796 297.53 64.0596 297.53ZM70.9837 299.21C70.6337 299.21 70.3287 299.08 70.0687 298.82C69.8087 298.56 69.6787 298.255 69.6787 297.905C69.6787 297.545 69.8037 297.24 70.0537 296.99C70.3137 296.73 70.6237 296.6 70.9837 296.6C71.3537 296.6 71.6637 296.725 71.9137 296.975C72.1737 297.225 72.3037 297.535 72.3037 297.905C72.3037 298.255 72.1737 298.56 71.9137 298.82C71.6637 299.08 71.3537 299.21 70.9837 299.21ZM77.9316 299.24C76.7616 299.24 75.8366 298.915 75.1566 298.265C74.4766 297.605 74.1366 296.695 74.1366 295.535V291.815C74.1366 290.655 74.4766 289.75 75.1566 289.1C75.8366 288.44 76.7616 288.11 77.9316 288.11C79.1016 288.11 80.0266 288.44 80.7066 289.1C81.3866 289.75 81.7266 290.655 81.7266 291.815V295.535C81.7266 296.695 81.3866 297.605 80.7066 298.265C80.0266 298.915 79.1016 299.24 77.9316 299.24ZM77.9316 297.53C78.5116 297.53 78.9566 297.36 79.2666 297.02C79.5866 296.68 79.7466 296.195 79.7466 295.565V291.785C79.7466 291.155 79.5866 290.67 79.2666 290.33C78.9566 289.99 78.5116 289.82 77.9316 289.82C77.3516 289.82 76.9016 289.99 76.5816 290.33C76.2716 290.67 76.1166 291.155 76.1166 291.785V295.565C76.1166 296.195 76.2716 296.68 76.5816 297.02C76.9016 297.36 77.3516 297.53 77.9316 297.53ZM86.9258 299.24C85.7558 299.24 84.8308 298.915 84.1508 298.265C83.4708 297.605 83.1308 296.695 83.1308 295.535V291.815C83.1308 290.655 83.4708 289.75 84.1508 289.1C84.8308 288.44 85.7558 288.11 86.9258 288.11C88.0958 288.11 89.0208 288.44 89.7008 289.1C90.3808 289.75 90.7208 290.655 90.7208 291.815V295.535C90.7208 296.695 90.3808 297.605 89.7008 298.265C89.0208 298.915 88.0958 299.24 86.9258 299.24ZM86.9258 297.53C87.5058 297.53 87.9508 297.36 88.2608 297.02C88.5808 296.68 88.7408 296.195 88.7408 295.565V291.785C88.7408 291.155 88.5808 290.67 88.2608 290.33C87.9508 289.99 87.5058 289.82 86.9258 289.82C86.3458 289.82 85.8958 289.99 85.5758 290.33C85.2658 290.67 85.1108 291.155 85.1108 291.785V295.565C85.1108 296.195 85.2658 296.68 85.5758 297.02C85.8958 297.36 86.3458 297.53 86.9258 297.53ZM95.9199 299.24C94.7499 299.24 93.8249 298.915 93.1449 298.265C92.4649 297.605 92.1249 296.695 92.1249 295.535V291.815C92.1249 290.655 92.4649 289.75 93.1449 289.1C93.8249 288.44 94.7499 288.11 95.9199 288.11C97.0899 288.11 98.0149 288.44 98.6949 289.1C99.3749 289.75 99.7149 290.655 99.7149 291.815V295.535C99.7149 296.695 99.3749 297.605 98.6949 298.265C98.0149 298.915 97.0899 299.24 95.9199 299.24ZM95.9199 297.53C96.4999 297.53 96.9449 297.36 97.2549 297.02C97.5749 296.68 97.7349 296.195 97.7349 295.565V291.785C97.7349 291.155 97.5749 290.67 97.2549 290.33C96.9449 289.99 96.4999 289.82 95.9199 289.82C95.3399 289.82 94.8899 289.99 94.5699 290.33C94.2599 290.67 94.1049 291.155 94.1049 291.785V295.565C94.1049 296.195 94.2599 296.68 94.5699 297.02C94.8899 297.36 95.3399 297.53 95.9199 297.53Z" fill="white"/>
<g filter="url(#filter8_d)">
<rect x="20" y="320" width="266" height="31" rx="1.87039" fill="#223743"/>
<path fill-rule="evenodd" clip-rule="evenodd" d="M152.306 342.112L160.509 331.277C160.862 330.822 160.771 330.368 160.328 330.039L159.887 329.71C159.443 329.38 159 329.437 158.647 329.892L151.489 339.342L147.2 335.018C146.814 334.597 146.358 334.597 145.949 335.006L145.565 335.391C145.178 335.778 145.178 336.221 145.565 336.63L145.563 336.63L151.032 342.203C151.442 342.634 151.954 342.589 152.306 342.112Z" fill="#5AF9A5"/>
</g>
<g filter="url(#filter9_d)">
<rect x="171" y="20" width="114" height="25" rx="1.87039" fill="#335268"/>
<path d="M190.12 30.939H187.909V37H185.808V30.939H183.586V29.19H190.12V30.939ZM194.023 34.294H193.088V37H190.987V29.19H194.749C195.35 29.19 195.867 29.3 196.3 29.52C196.74 29.7327 197.074 30.037 197.301 30.433C197.536 30.829 197.653 31.2873 197.653 31.808C197.653 32.3727 197.51 32.8493 197.224 33.238C196.945 33.6267 196.542 33.909 196.014 34.085L197.884 37H195.64L194.023 34.294ZM193.088 32.809H194.32C194.731 32.809 195.053 32.7393 195.288 32.6C195.523 32.4533 195.64 32.2003 195.64 31.841C195.64 31.4597 195.53 31.1993 195.31 31.06C195.097 30.9207 194.767 30.851 194.32 30.851H193.088V32.809ZM204.794 35.251V37H198.7V29.19H204.772V30.939H200.801V32.204H204.442V33.865H200.801V35.251H204.794ZM212.629 29.19V37H210.539L207.943 32.501V37H205.93V29.19H208.009L210.616 33.766V29.19H212.629ZM217.034 29.19C217.995 29.19 218.758 29.344 219.322 29.652C219.894 29.9527 220.298 30.389 220.532 30.961C220.774 31.5257 220.895 32.237 220.895 33.095C220.895 33.953 220.774 34.668 220.532 35.24C220.298 35.8047 219.894 36.241 219.322 36.549C218.758 36.8497 217.995 37 217.034 37H213.943V29.19H217.034ZM217.188 35.339C217.731 35.339 218.131 35.1557 218.387 34.789C218.644 34.4223 218.772 33.8577 218.772 33.095C218.772 32.3177 218.64 31.7493 218.376 31.39C218.12 31.0307 217.68 30.851 217.056 30.851H216.044V35.339H217.188ZM221.774 29.19H223.875V37H221.774V29.19ZM231.889 29.19V37H229.799L227.203 32.501V37H225.19V29.19H227.269L229.876 33.766V29.19H231.889ZM240.354 32.875V33.689C240.354 34.437 240.193 35.075 239.87 35.603C239.547 36.1237 239.115 36.516 238.572 36.78C238.029 37.044 237.424 37.176 236.757 37.176C235.921 37.176 235.217 37 234.645 36.648C234.073 36.296 233.644 35.8157 233.358 35.207C233.079 34.591 232.94 33.8907 232.94 33.106C232.94 32.3213 233.079 31.621 233.358 31.005C233.644 30.389 234.077 29.905 234.656 29.553C235.235 29.1937 235.95 29.014 236.801 29.014C237.38 29.014 237.923 29.1277 238.429 29.355C238.935 29.575 239.353 29.9013 239.683 30.334C240.013 30.7667 240.207 31.2873 240.266 31.896H238.231C238.18 31.5 238.026 31.1993 237.769 30.994C237.52 30.7813 237.186 30.675 236.768 30.675C236.196 30.675 235.767 30.895 235.481 31.335C235.202 31.7677 235.063 32.358 235.063 33.106C235.063 33.876 235.206 34.4773 235.492 34.91C235.778 35.3427 236.233 35.559 236.856 35.559C237.267 35.559 237.604 35.4637 237.868 35.273C238.132 35.0823 238.315 34.8073 238.418 34.448H236.79V32.875H240.354ZM249.319 32.93C250.434 33.128 250.991 33.7367 250.991 34.756C250.991 35.4893 250.735 36.0467 250.221 36.428C249.715 36.8093 248.989 37 248.043 37H244.182V29.19H247.944C249.734 29.19 250.628 29.8207 250.628 31.082C250.628 31.5513 250.522 31.929 250.309 32.215C250.097 32.501 249.767 32.732 249.319 32.908V32.93ZM248.604 31.511C248.604 31.2177 248.513 31.0197 248.329 30.917C248.153 30.8143 247.911 30.763 247.603 30.763H246.283V32.314H247.614C247.944 32.314 248.19 32.2553 248.351 32.138C248.52 32.0133 248.604 31.8043 248.604 31.511ZM247.812 35.427C248.15 35.427 248.414 35.3647 248.604 35.24C248.802 35.1153 248.901 34.8917 248.901 34.569C248.901 34.2683 248.81 34.052 248.626 33.92C248.45 33.788 248.194 33.722 247.856 33.722H246.283V35.427H247.812ZM258.022 35.251V37H251.928V29.19H258V30.939H254.029V32.204H257.67V33.865H254.029V35.251H258.022ZM265.24 30.939H263.029V37H260.928V30.939H258.706V29.19H265.24V30.939ZM268.956 37.176C268.091 37.176 267.325 36.978 266.657 36.582C265.99 36.186 265.649 35.482 265.634 34.47H267.669C267.691 34.866 267.823 35.1667 268.065 35.372C268.307 35.57 268.637 35.669 269.055 35.669C269.429 35.669 269.734 35.5993 269.968 35.46C270.21 35.3207 270.331 35.1117 270.331 34.833C270.331 34.6497 270.276 34.4993 270.166 34.382C270.056 34.2573 269.877 34.151 269.627 34.063C269.378 33.9677 269 33.8503 268.494 33.711C267.893 33.557 267.42 33.4103 267.075 33.271C266.731 33.1243 266.441 32.9007 266.206 32.6C265.972 32.2993 265.854 31.8923 265.854 31.379C265.854 30.8583 266.001 30.422 266.294 30.07C266.588 29.7107 266.973 29.4467 267.449 29.278C267.933 29.102 268.454 29.014 269.011 29.014C269.928 29.014 270.683 29.212 271.277 29.608C271.871 29.9967 272.183 30.609 272.212 31.445H270.188C270.159 31.137 270.031 30.906 269.803 30.752C269.583 30.598 269.305 30.521 268.967 30.521C268.674 30.521 268.417 30.587 268.197 30.719C267.977 30.8437 267.867 31.0197 267.867 31.247C267.867 31.401 267.922 31.5293 268.032 31.632C268.142 31.7273 268.289 31.8043 268.472 31.863C268.663 31.9217 268.945 31.9987 269.319 32.094C270.001 32.2553 270.562 32.435 271.002 32.633C271.45 32.831 271.798 33.0987 272.047 33.436C272.304 33.766 272.432 34.1913 272.432 34.712C272.432 35.57 272.102 36.197 271.442 36.593C270.79 36.9817 269.961 37.176 268.956 37.176Z" fill="white"/>
</g>
<path d="M63.9018 25.1993C65.1926 25.1993 66.2756 25.4441 67.151 25.9337C68.0412 26.4084 68.7014 27.0538 69.1316 27.8698C69.5619 28.6858 69.777 29.6131 69.777 30.6516C69.777 32.343 69.2281 33.6486 68.1302 34.5684C67.0323 35.4735 65.5116 35.926 63.568 35.926H60.5859V41H56.3353V25.1993H63.9018ZM63.0339 32.6323C63.8796 32.6323 64.5324 32.4988 64.9923 32.2317C65.4522 31.9498 65.6822 31.4157 65.6822 30.6294C65.6822 29.7985 65.4671 29.2496 65.0368 28.9825C64.6214 28.7007 63.9537 28.5597 63.0339 28.5597H60.5859V32.6323H63.0339ZM76.4216 37.6396H82.8531V41H71.1472V38.0179L76.6441 33.1664C76.748 33.0625 77.0595 32.7881 77.5788 32.343C78.1129 31.8831 78.4912 31.4528 78.7138 31.0522C78.9512 30.6516 79.0699 30.2511 79.0699 29.8505C79.0699 29.2719 78.8844 28.8268 78.5135 28.5152C78.1574 28.1888 77.6678 28.0256 77.0447 28.0256C76.3622 28.0256 75.7984 28.2333 75.3533 28.6487C74.9231 29.0493 74.708 29.665 74.708 30.4959H70.9247C70.9247 28.7155 71.4588 27.3209 72.527 26.312C73.5952 25.2883 75.0937 24.7764 77.0224 24.7764C78.2093 24.7764 79.2405 24.9767 80.1158 25.3773C81.006 25.7631 81.6885 26.3194 82.1632 27.0464C82.638 27.7734 82.8754 28.6265 82.8754 29.6057C82.8754 30.3772 82.7419 31.0522 82.4748 31.6308C82.2226 32.2095 81.8962 32.7065 81.4956 33.1219C81.1099 33.5373 80.5683 34.0492 79.871 34.6575L76.4216 37.6396ZM92.4807 25.1993C93.7714 25.1993 94.8545 25.4441 95.7298 25.9337C96.62 26.4084 97.2802 27.0538 97.7105 27.8698C98.1407 28.6858 98.3559 29.6131 98.3559 30.6516C98.3559 32.343 97.8069 33.6486 96.709 34.5684C95.6111 35.4735 94.0904 35.926 92.1468 35.926H89.1647V41H84.9141V25.1993H92.4807ZM91.6127 32.6323C92.4584 32.6323 93.1112 32.4988 93.5711 32.2317C94.0311 31.9498 94.261 31.4157 94.261 30.6294C94.261 29.7985 94.0459 29.2496 93.6156 28.9825C93.2002 28.7007 92.5326 28.5597 91.6127 28.5597H89.1647V32.6323H91.6127ZM116.149 32.7658C118.404 33.1664 119.532 34.3978 119.532 36.4601C119.532 37.9437 119.012 39.0713 117.974 39.8428C116.95 40.6143 115.481 41 113.567 41H105.756V25.1993H113.367C116.987 25.1993 118.797 26.4752 118.797 29.0271C118.797 29.9766 118.582 30.7407 118.152 31.3193C117.722 31.8979 117.054 32.3652 116.149 32.7213V32.7658ZM114.702 29.895C114.702 29.3015 114.517 28.9009 114.146 28.6932C113.79 28.4855 113.3 28.3817 112.677 28.3817H110.007V31.5196H112.699C113.367 31.5196 113.864 31.4009 114.19 31.1635C114.532 30.9113 114.702 30.4884 114.702 29.895ZM113.1 37.8176C113.782 37.8176 114.317 37.6915 114.702 37.4393C115.103 37.1871 115.303 36.7345 115.303 36.0817C115.303 35.4735 115.118 35.0358 114.747 34.7687C114.391 34.5017 113.872 34.3681 113.189 34.3681H110.007V37.8176H113.1ZM133.754 37.4615V41H121.425V25.1993H133.71V28.7377H125.676V31.297H133.042V34.6575H125.676V37.4615H133.754ZM148.359 28.7377H143.885V41H139.635V28.7377H135.139V25.1993H148.359V28.7377Z" fill="url(#paint0_linear)"/>
<path d="M28.432 70.08C30.0533 70.368 30.864 71.2533 30.864 72.736C30.864 73.8027 30.4907 74.6133 29.744 75.168C29.008 75.7227 27.952 76 26.576 76H20.96V64.64H26.432C29.0347 64.64 30.336 65.5573 30.336 67.392C30.336 68.0747 30.1813 68.624 29.872 69.04C29.5627 69.456 29.0827 69.792 28.432 70.048V70.08ZM27.392 68.016C27.392 67.5893 27.2587 67.3013 26.992 67.152C26.736 67.0027 26.384 66.928 25.936 66.928H24.016V69.184H25.952C26.432 69.184 26.7893 69.0987 27.024 68.928C27.2693 68.7467 27.392 68.4427 27.392 68.016ZM26.24 73.712C26.7307 73.712 27.1147 73.6213 27.392 73.44C27.68 73.2587 27.824 72.9333 27.824 72.464C27.824 72.0267 27.6907 71.712 27.424 71.52C27.168 71.328 26.7947 71.232 26.304 71.232H24.016V73.712H26.24ZM41.0896 73.456V76H32.2256V64.64H41.0576V67.184H35.2816V69.024H40.5776V71.44H35.2816V73.456H41.0896ZM51.5893 67.184H48.3733V76H45.3173V67.184H42.0853V64.64H51.5893V67.184ZM53.1579 76.224C52.7099 76.224 52.3205 76.0587 51.9899 75.728C51.6592 75.3973 51.4939 75.008 51.4939 74.56C51.4939 74.1013 51.6592 73.712 51.9899 73.392C52.3205 73.072 52.7099 72.912 53.1579 72.912C53.6272 72.912 54.0219 73.072 54.3419 73.392C54.6619 73.712 54.8219 74.1013 54.8219 74.56C54.8219 75.008 54.6565 75.3973 54.3259 75.728C54.0059 76.0587 53.6165 76.224 53.1579 76.224ZM53.1579 70.848C52.7099 70.848 52.3205 70.6827 51.9899 70.352C51.6592 70.0213 51.4939 69.632 51.4939 69.184C51.4939 68.7253 51.6592 68.336 51.9899 68.016C52.3205 67.696 52.7099 67.536 53.1579 67.536C53.6272 67.536 54.0219 67.696 54.3419 68.016C54.6619 68.336 54.8219 68.7253 54.8219 69.184C54.8219 69.632 54.6565 70.0213 54.3259 70.352C54.0059 70.6827 53.6165 70.848 53.1579 70.848Z" fill="#96B5CC"/>
<path d="M28.432 134.08C30.0533 134.368 30.864 135.253 30.864 136.736C30.864 137.803 30.4907 138.613 29.744 139.168C29.008 139.723 27.952 140 26.576 140H20.96V128.64H26.432C29.0347 128.64 30.336 129.557 30.336 131.392C30.336 132.075 30.1813 132.624 29.872 133.04C29.5627 133.456 29.0827 133.792 28.432 134.048V134.08ZM27.392 132.016C27.392 131.589 27.2587 131.301 26.992 131.152C26.736 131.003 26.384 130.928 25.936 130.928H24.016V133.184H25.952C26.432 133.184 26.7893 133.099 27.024 132.928C27.2693 132.747 27.392 132.443 27.392 132.016ZM26.24 137.712C26.7307 137.712 27.1147 137.621 27.392 137.44C27.68 137.259 27.824 136.933 27.824 136.464C27.824 136.027 27.6907 135.712 27.424 135.52C27.168 135.328 26.7947 135.232 26.304 135.232H24.016V137.712H26.24ZM41.0896 137.456V140H32.2256V128.64H41.0576V131.184H35.2816V133.024H40.5776V135.44H35.2816V137.456H41.0896ZM51.5893 131.184H48.3733V140H45.3173V131.184H42.0853V128.64H51.5893V131.184ZM65.7299 131.184H62.5139V140H59.4579V131.184H56.2259V128.64H65.7299V131.184ZM76.9433 128.64L72.8313 136.128V140H69.7753V136.128L65.6632 128.64H68.9433L71.2953 133.52L73.6473 128.64H76.9433ZM82.9781 128.64C83.9061 128.64 84.6848 128.816 85.3141 129.168C85.9541 129.509 86.4288 129.973 86.7381 130.56C87.0475 131.147 87.2021 131.813 87.2021 132.56C87.2021 133.776 86.8075 134.715 86.0181 135.376C85.2288 136.027 84.1355 136.352 82.7381 136.352H80.5941V140H77.5381V128.64H82.9781ZM82.3541 133.984C82.9621 133.984 83.4315 133.888 83.7621 133.696C84.0928 133.493 84.2581 133.109 84.2581 132.544C84.2581 131.947 84.1035 131.552 83.7941 131.36C83.4955 131.157 83.0155 131.056 82.3541 131.056H80.5941V133.984H82.3541ZM97.3553 137.456V140H88.4913V128.64H97.3233V131.184H91.5473V133.024H96.8433V135.44H91.5473V137.456H97.3553ZM100.783 140.224C100.335 140.224 99.9455 140.059 99.6149 139.728C99.2842 139.397 99.1189 139.008 99.1189 138.56C99.1189 138.101 99.2842 137.712 99.6149 137.392C99.9455 137.072 100.335 136.912 100.783 136.912C101.252 136.912 101.647 137.072 101.967 137.392C102.287 137.712 102.447 138.101 102.447 138.56C102.447 139.008 102.282 139.397 101.951 139.728C101.631 140.059 101.242 140.224 100.783 140.224ZM100.783 134.848C100.335 134.848 99.9455 134.683 99.6149 134.352C99.2842 134.021 99.1189 133.632 99.1189 133.184C99.1189 132.725 99.2842 132.336 99.6149 132.016C99.9455 131.696 100.335 131.536 100.783 131.536C101.252 131.536 101.647 131.696 101.967 132.016C102.287 132.336 102.447 132.725 102.447 133.184C102.447 133.632 102.282 134.021 101.951 134.352C101.631 134.683 101.242 134.848 100.783 134.848Z" fill="#96B5CC"/>
<path d="M26.32 204.256C25.0613 204.256 24 204 23.136 203.488C22.2827 202.965 21.6427 202.256 21.216 201.36C20.7893 200.464 20.576 199.451 20.576 198.32C20.576 197.189 20.7893 196.176 21.216 195.28C21.6427 194.384 22.2827 193.68 23.136 193.168C24 192.645 25.0613 192.384 26.32 192.384C27.5787 192.384 28.6347 192.645 29.488 193.168C30.352 193.68 30.992 194.384 31.408 195.28C31.8347 196.176 32.048 197.189 32.048 198.32C32.048 199.451 31.8347 200.464 31.408 201.36C30.992 202.256 30.352 202.965 29.488 203.488C28.6347 204 27.5787 204.256 26.32 204.256ZM26.32 201.84C27.216 201.84 27.8827 201.525 28.32 200.896C28.7573 200.256 28.976 199.397 28.976 198.32C28.976 197.243 28.7573 196.389 28.32 195.76C27.8827 195.12 27.216 194.8 26.32 194.8C25.424 194.8 24.7573 195.12 24.32 195.76C23.8827 196.389 23.664 197.243 23.664 198.32C23.664 199.397 23.8827 200.256 24.32 200.896C24.7573 201.525 25.424 201.84 26.32 201.84ZM38.7906 192.64C39.7186 192.64 40.4973 192.816 41.1266 193.168C41.7666 193.509 42.2413 193.973 42.5506 194.56C42.86 195.147 43.0146 195.813 43.0146 196.56C43.0146 197.776 42.62 198.715 41.8306 199.376C41.0413 200.027 39.948 200.352 38.5506 200.352H36.4066V204H33.3506V192.64H38.7906ZM38.1666 197.984C38.7746 197.984 39.244 197.888 39.5746 197.696C39.9053 197.493 40.0706 197.109 40.0706 196.544C40.0706 195.947 39.916 195.552 39.6066 195.36C39.308 195.157 38.828 195.056 38.1666 195.056H36.4066V197.984H38.1666ZM49.7438 192.64C50.6718 192.64 51.4504 192.816 52.0798 193.168C52.7198 193.509 53.1944 193.973 53.5038 194.56C53.8131 195.147 53.9678 195.813 53.9678 196.56C53.9678 197.776 53.5731 198.715 52.7838 199.376C51.9944 200.027 50.9011 200.352 49.5038 200.352H47.3598V204H44.3038V192.64H49.7438ZM49.1198 197.984C49.7278 197.984 50.1971 197.888 50.5278 197.696C50.8584 197.493 51.0238 197.109 51.0238 196.544C51.0238 195.947 50.8691 195.552 50.5598 195.36C50.2611 195.157 49.7811 195.056 49.1198 195.056H47.3598V197.984H49.1198ZM60.6169 204.256C59.3582 204.256 58.2969 204 57.4329 203.488C56.5795 202.965 55.9395 202.256 55.5129 201.36C55.0862 200.464 54.8729 199.451 54.8729 198.32C54.8729 197.189 55.0862 196.176 55.5129 195.28C55.9395 194.384 56.5795 193.68 57.4329 193.168C58.2969 192.645 59.3582 192.384 60.6169 192.384C61.8755 192.384 62.9315 192.645 63.7849 193.168C64.6489 193.68 65.2889 194.384 65.7049 195.28C66.1315 196.176 66.3449 197.189 66.3449 198.32C66.3449 199.451 66.1315 200.464 65.7049 201.36C65.2889 202.256 64.6489 202.965 63.7849 203.488C62.9315 204 61.8755 204.256 60.6169 204.256ZM60.6169 201.84C61.5129 201.84 62.1795 201.525 62.6169 200.896C63.0542 200.256 63.2729 199.397 63.2729 198.32C63.2729 197.243 63.0542 196.389 62.6169 195.76C62.1795 195.12 61.5129 194.8 60.6169 194.8C59.7209 194.8 59.0542 195.12 58.6169 195.76C58.1795 196.389 57.9609 197.243 57.9609 198.32C57.9609 199.397 58.1795 200.256 58.6169 200.896C59.0542 201.525 59.7209 201.84 60.6169 201.84ZM77.3915 192.64V204H74.3515L70.5755 197.456V204H67.6475V192.64H70.6715L74.4635 199.296V192.64H77.3915ZM88.1678 201.456V204H79.3038V192.64H88.1358V195.184H82.3598V197.024H87.6558V199.44H82.3598V201.456H88.1678ZM99.5634 192.64V204H96.5234L92.7474 197.456V204H89.8194V192.64H92.8434L96.6354 199.296V192.64H99.5634ZM110.324 195.184H107.108V204H104.052V195.184H100.82V192.64H110.324V195.184ZM111.892 204.224C111.444 204.224 111.055 204.059 110.724 203.728C110.394 203.397 110.228 203.008 110.228 202.56C110.228 202.101 110.394 201.712 110.724 201.392C111.055 201.072 111.444 200.912 111.892 200.912C112.362 200.912 112.756 201.072 113.076 201.392C113.396 201.712 113.556 202.101 113.556 202.56C113.556 203.008 113.391 203.397 113.06 203.728C112.74 204.059 112.351 204.224 111.892 204.224ZM111.892 198.848C111.444 198.848 111.055 198.683 110.724 198.352C110.394 198.021 110.228 197.632 110.228 197.184C110.228 196.725 110.394 196.336 110.724 196.016C111.055 195.696 111.444 195.536 111.892 195.536C112.362 195.536 112.756 195.696 113.076 196.016C113.396 196.336 113.556 196.725 113.556 197.184C113.556 197.632 113.391 198.021 113.06 198.352C112.74 198.683 112.351 198.848 111.892 198.848Z" fill="#96B5CC"/>
<path d="M27.392 265.92H23.744L23.088 268H19.872L24.192 256.64H26.928L31.248 268H28.048L27.392 265.92ZM26.704 263.76L25.584 260.192H25.552L24.432 263.76H26.704ZM44.7246 256.64V268H41.7966V261.664L39.6206 266.752H37.2046L35.0286 261.68V268H32.1006V256.64H35.3646L38.4046 263.712L41.4446 256.64H44.7246ZM51.9919 268.256C50.7332 268.256 49.6719 268 48.8079 267.488C47.9545 266.965 47.3145 266.256 46.8879 265.36C46.4612 264.464 46.2479 263.451 46.2479 262.32C46.2479 261.189 46.4612 260.176 46.8879 259.28C47.3145 258.384 47.9545 257.68 48.8079 257.168C49.6719 256.645 50.7332 256.384 51.9919 256.384C53.2505 256.384 54.3065 256.645 55.1599 257.168C56.0239 257.68 56.6639 258.384 57.0799 259.28C57.5065 260.176 57.7199 261.189 57.7199 262.32C57.7199 263.451 57.5065 264.464 57.0799 265.36C56.6639 266.256 56.0239 266.965 55.1599 267.488C54.3065 268 53.2505 268.256 51.9919 268.256ZM51.9919 265.84C52.8879 265.84 53.5545 265.525 53.9919 264.896C54.4292 264.256 54.6479 263.397 54.6479 262.32C54.6479 261.243 54.4292 260.389 53.9919 259.76C53.5545 259.12 52.8879 258.8 51.9919 258.8C51.0959 258.8 50.4292 259.12 49.9919 259.76C49.5545 260.389 49.3359 261.243 49.3359 262.32C49.3359 263.397 49.5545 264.256 49.9919 264.896C50.4292 265.525 51.0959 265.84 51.9919 265.84ZM64.2645 268.256C62.5898 268.256 61.3312 267.877 60.4885 267.12C59.6565 266.352 59.2405 265.179 59.2405 263.6V256.64H62.3285V263.248C62.3285 264.069 62.4565 264.704 62.7125 265.152C62.9792 265.6 63.4965 265.824 64.2645 265.824C65.0432 265.824 65.5605 265.6 65.8165 265.152C66.0832 264.704 66.2165 264.069 66.2165 263.248V256.64H69.3045V263.6C69.3045 265.179 68.8832 266.352 68.0405 267.12C67.2085 267.877 65.9498 268.256 64.2645 268.256ZM80.9384 256.64V268H77.8984L74.1224 261.456V268H71.1944V256.64H74.2184L78.0104 263.296V256.64H80.9384ZM91.6986 259.184H88.4826V268H85.4266V259.184H82.1946V256.64H91.6986V259.184ZM93.2673 268.224C92.8193 268.224 92.4299 268.059 92.0993 267.728C91.7686 267.397 91.6033 267.008 91.6033 266.56C91.6033 266.101 91.7686 265.712 92.0993 265.392C92.4299 265.072 92.8193 264.912 93.2673 264.912C93.7366 264.912 94.1313 265.072 94.4513 265.392C94.7713 265.712 94.9313 266.101 94.9313 266.56C94.9313 267.008 94.7659 267.397 94.4353 267.728C94.1153 268.059 93.7259 268.224 93.2673 268.224ZM93.2673 262.848C92.8193 262.848 92.4299 262.683 92.0993 262.352C91.7686 262.021 91.6033 261.632 91.6033 261.184C91.6033 260.725 91.7686 260.336 92.0993 260.016C92.4299 259.696 92.8193 259.536 93.2673 259.536C93.7366 259.536 94.1313 259.696 94.4513 260.016C94.7713 260.336 94.9313 260.725 94.9313 261.184C94.9313 261.632 94.7659 262.021 94.4353 262.352C94.1153 262.683 93.7259 262.848 93.2673 262.848Z" fill="#96B5CC"/>
<path d="M31.2486 32.8959L35.8335 28.311L34.4809 26.9584L29.896 31.5433L25.3111 26.9584L23.9585 28.311L28.5434 32.8959L23.9585 37.4808L25.3111 38.8334L29.896 34.2485L34.4809 38.8334L35.8335 37.4808L31.2486 32.8959Z" fill="white"/>
<path d="M137.471 160.35C138.701 160.35 139.641 160.66 140.291 161.28C140.941 161.9 141.266 162.735 141.266 163.785C141.266 164.875 140.921 165.72 140.231 166.32C139.551 166.91 138.596 167.205 137.366 167.205L135.026 167.19V171H132.881V160.35H137.471ZM137.141 165.495C137.801 165.495 138.311 165.355 138.671 165.075C139.031 164.785 139.211 164.35 139.211 163.77C139.211 163.17 139.041 162.74 138.701 162.48C138.361 162.21 137.841 162.075 137.141 162.075H135.026V165.495H137.141ZM147.509 171.24C146.369 171.24 145.404 171 144.614 170.52C143.834 170.03 143.249 169.365 142.859 168.525C142.469 167.685 142.274 166.735 142.274 165.675C142.274 164.615 142.469 163.665 142.859 162.825C143.249 161.985 143.834 161.325 144.614 160.845C145.404 160.355 146.369 160.11 147.509 160.11C148.649 160.11 149.609 160.355 150.389 160.845C151.179 161.325 151.764 161.985 152.144 162.825C152.534 163.665 152.729 164.615 152.729 165.675C152.729 166.735 152.534 167.685 152.144 168.525C151.764 169.365 151.179 170.03 150.389 170.52C149.609 171 148.649 171.24 147.509 171.24ZM147.509 169.5C148.529 169.5 149.299 169.155 149.819 168.465C150.339 167.775 150.599 166.845 150.599 165.675C150.599 164.505 150.339 163.575 149.819 162.885C149.299 162.195 148.529 161.85 147.509 161.85C146.489 161.85 145.719 162.195 145.199 162.885C144.679 163.575 144.419 164.505 144.419 165.675C144.419 166.845 144.679 167.775 145.199 168.465C145.719 169.155 146.489 169.5 147.509 169.5ZM159.081 171.24C157.941 171.24 156.976 171 156.186 170.52C155.406 170.03 154.821 169.365 154.431 168.525C154.041 167.685 153.846 166.735 153.846 165.675C153.846 164.615 154.041 163.665 154.431 162.825C154.821 161.985 155.406 161.325 156.186 160.845C156.976 160.355 157.941 160.11 159.081 160.11C160.221 160.11 161.181 160.355 161.961 160.845C162.751 161.325 163.336 161.985 163.716 162.825C164.106 163.665 164.301 164.615 164.301 165.675C164.301 166.735 164.106 167.685 163.716 168.525C163.336 169.365 162.751 170.03 161.961 170.52C161.181 171 160.221 171.24 159.081 171.24ZM159.081 169.5C160.101 169.5 160.871 169.155 161.391 168.465C161.911 167.775 162.171 166.845 162.171 165.675C162.171 164.505 161.911 163.575 161.391 162.885C160.871 162.195 160.101 161.85 159.081 161.85C158.061 161.85 157.291 162.195 156.771 162.885C156.251 163.575 155.991 164.505 155.991 165.675C155.991 166.845 156.251 167.775 156.771 168.465C157.291 169.155 158.061 169.5 159.081 169.5ZM172.951 169.215V171H165.781V160.35H167.926V169.215H172.951Z" fill="white"/>
<path d="M232.685 160.35V171H230.645V163.815L227.99 169.89H226.25L223.595 163.8V171H221.555V160.35H223.925L227.12 167.685L230.315 160.35H232.685ZM239.133 171.24C236.183 171.24 234.708 169.88 234.708 167.16V160.35H236.838V166.98C236.838 167.79 237.018 168.415 237.378 168.855C237.738 169.285 238.323 169.5 239.133 169.5C239.943 169.5 240.523 169.285 240.873 168.855C241.233 168.415 241.413 167.79 241.413 166.98V160.35H243.543V167.16C243.543 169.88 242.073 171.24 239.133 171.24ZM252.734 169.215V171H245.564V160.35H247.709V169.215H252.734ZM260.116 162.135H256.876V171H254.731V162.135H251.491V160.35H260.116V162.135ZM261.311 160.35H263.456V171H261.311V160.35Z" fill="white"/>
<defs>
<filter id="filter0_d" x="17.5273" y="89" width="82.9455" height="29.9455" filterUnits="userSpaceOnUse" color-interpolation-filters="sRGB">
<feFlood flood-opacity="0" result="BackgroundImageFix"/>
<feColorMatrix in="SourceAlpha" type="matrix" values="0 0 0 0 0 0 0 0 0 0 0 0 0 0 0 0 0 0 127 0" result="hardAlpha"/>
<feOffset dy="2.47273"/>
<feGaussianBlur stdDeviation="1.23636"/>
<feColorMatrix type="matrix" values="0 0 0 0 0 0 0 0 0 0 0 0 0 0 0 0 0 0 0.25 0"/>
<feBlend mode="normal" in2="BackgroundImageFix" result="effect1_dropShadow"/>
<feBlend mode="normal" in="SourceGraphic" in2="effect1_dropShadow" result="shape"/>
</filter>
<filter id="filter1_d" x="108.527" y="89" width="82.9455" height="29.9455" filterUnits="userSpaceOnUse" color-interpolation-filters="sRGB">
<feFlood flood-opacity="0" result="BackgroundImageFix"/>
<feColorMatrix in="SourceAlpha" type="matrix" values="0 0 0 0 0 0 0 0 0 0 0 0 0 0 0 0 0 0 127 0" result="hardAlpha"/>
<feOffset dy="2.47273"/>
<feGaussianBlur stdDeviation="1.23636"/>
<feColorMatrix type="matrix" values="0 0 0 0 0 0 0 0 0 0 0 0 0 0 0 0 0 0 0.25 0"/>
<feBlend mode="normal" in2="BackgroundImageFix" result="effect1_dropShadow"/>
<feBlend mode="normal" in="SourceGraphic" in2="effect1_dropShadow" result="shape"/>
</filter>
<filter id="filter2_d" x="199.527" y="89" width="82.9455" height="29.9455" filterUnits="userSpaceOnUse" color-interpolation-filters="sRGB">
<feFlood flood-opacity="0" result="BackgroundImageFix"/>
<feColorMatrix in="SourceAlpha" type="matrix" values="0 0 0 0 0 0 0 0 0 0 0 0 0 0 0 0 0 0 127 0" result="hardAlpha"/>
<feOffset dy="2.47273"/>
<feGaussianBlur stdDeviation="1.23636"/>
<feColorMatrix type="matrix" values="0 0 0 0 0 0 0 0 0 0 0 0 0 0 0 0 0 0 0.25 0"/>
<feBlend mode="normal" in2="BackgroundImageFix" result="effect1_dropShadow"/>
<feBlend mode="normal" in="SourceGraphic" in2="effect1_dropShadow" result="shape"/>
</filter>
<filter id="filter3_d" x="17.5273" y="217" width="265.945" height="29.9455" filterUnits="userSpaceOnUse" color-interpolation-filters="sRGB">
<feFlood flood-opacity="0" result="BackgroundImageFix"/>
<feColorMatrix in="SourceAlpha" type="matrix" values="0 0 0 0 0 0 0 0 0 0 0 0 0 0 0 0 0 0 127 0" result="hardAlpha"/>
<feOffset dy="2.47273"/>
<feGaussianBlur stdDeviation="1.23636"/>
<feColorMatrix type="matrix" values="0 0 0 0 0 0 0 0 0 0 0 0 0 0 0 0 0 0 0.25 0"/>
<feBlend mode="normal" in2="BackgroundImageFix" result="effect1_dropShadow"/>
<feBlend mode="normal" in="SourceGraphic" in2="effect1_dropShadow" result="shape"/>
</filter>
<filter id="filter4_d" x="17.5273" y="280" width="270.945" height="29.9455" filterUnits="userSpaceOnUse" color-interpolation-filters="sRGB">
<feFlood flood-opacity="0" result="BackgroundImageFix"/>
<feColorMatrix in="SourceAlpha" type="matrix" values="0 0 0 0 0 0 0 0 0 0 0 0 0 0 0 0 0 0 127 0" result="hardAlpha"/>
<feOffset dy="2.47273"/>
<feGaussianBlur stdDeviation="1.23636"/>
<feColorMatrix type="matrix" values="0 0 0 0 0 0 0 0 0 0 0 0 0 0 0 0 0 0 0.25 0"/>
<feBlend mode="normal" in2="BackgroundImageFix" result="effect1_dropShadow"/>
<feBlend mode="normal" in="SourceGraphic" in2="effect1_dropShadow" result="shape"/>
</filter>
<filter id="filter5_d" x="112.527" y="153" width="80.9455" height="29.9455" filterUnits="userSpaceOnUse" color-interpolation-filters="sRGB">
<feFlood flood-opacity="0" result="BackgroundImageFix"/>
<feColorMatrix in="SourceAlpha" type="matrix" values="0 0 0 0 0 0 0 0 0 0 0 0 0 0 0 0 0 0 127 0" result="hardAlpha"/>
<feOffset dy="2.47273"/>
<feGaussianBlur stdDeviation="1.23636"/>
<feColorMatrix type="matrix" values="0 0 0 0 0 0 0 0 0 0 0 0 0 0 0 0 0 0 0.25 0"/>
<feBlend mode="normal" in2="BackgroundImageFix" result="effect1_dropShadow"/>
<feBlend mode="normal" in="SourceGraphic" in2="effect1_dropShadow" result="shape"/>
</filter>
<filter id="filter6_d" x="202.527" y="153" width="80.9455" height="29.9455" filterUnits="userSpaceOnUse" color-interpolation-filters="sRGB">
<feFlood flood-opacity="0" result="BackgroundImageFix"/>
<feColorMatrix in="SourceAlpha" type="matrix" values="0 0 0 0 0 0 0 0 0 0 0 0 0 0 0 0 0 0 127 0" result="hardAlpha"/>
<feOffset dy="2.47273"/>
<feGaussianBlur stdDeviation="1.23636"/>
<feColorMatrix type="matrix" values="0 0 0 0 0 0 0 0 0 0 0 0 0 0 0 0 0 0 0.25 0"/>
<feBlend mode="normal" in2="BackgroundImageFix" result="effect1_dropShadow"/>
<feBlend mode="normal" in="SourceGraphic" in2="effect1_dropShadow" result="shape"/>
</filter>
<filter id="filter7_i" x="20" y="153" width="76" height="27.4727" filterUnits="userSpaceOnUse" color-interpolation-filters="sRGB">
<feFlood flood-opacity="0" result="BackgroundImageFix"/>
<feBlend mode="normal" in="SourceGraphic" in2="BackgroundImageFix" result="shape"/>
<feColorMatrix in="SourceAlpha" type="matrix" values="0 0 0 0 0 0 0 0 0 0 0 0 0 0 0 0 0 0 127 0" result="hardAlpha"/>
<feOffset dy="2.47273"/>
<feGaussianBlur stdDeviation="1.23636"/>
<feComposite in2="hardAlpha" operator="arithmetic" k2="-1" k3="1"/>
<feColorMatrix type="matrix" values="0 0 0 0 0 0 0 0 0 0 0 0 0 0 0 0 0 0 0.25 0"/>
<feBlend mode="normal" in2="shape" result="effect1_innerShadow"/>
</filter>
<filter id="filter8_d" x="14.3888" y="314.389" width="277.222" height="42.2224" filterUnits="userSpaceOnUse" color-interpolation-filters="sRGB">
<feFlood flood-opacity="0" result="BackgroundImageFix"/>
<feColorMatrix in="SourceAlpha" type="matrix" values="0 0 0 0 0 0 0 0 0 0 0 0 0 0 0 0 0 0 127 0" result="hardAlpha"/>
<feMorphology radius="0.935197" operator="dilate" in="SourceAlpha" result="effect1_dropShadow"/>
<feOffset/>
<feGaussianBlur stdDeviation="2.33799"/>
<feColorMatrix type="matrix" values="0 0 0 0 0 0 0 0 0 0 0 0 0 0 0 0 0 0 0.25 0"/>
<feBlend mode="normal" in2="BackgroundImageFix" result="effect1_dropShadow"/>
<feBlend mode="normal" in="SourceGraphic" in2="effect1_dropShadow" result="shape"/>
</filter>
<filter id="filter9_d" x="165.389" y="14.3888" width="125.222" height="36.2224" filterUnits="userSpaceOnUse" color-interpolation-filters="sRGB">
<feFlood flood-opacity="0" result="BackgroundImageFix"/>
<feColorMatrix in="SourceAlpha" type="matrix" values="0 0 0 0 0 0 0 0 0 0 0 0 0 0 0 0 0 0 127 0" result="hardAlpha"/>
<feMorphology radius="0.935197" operator="dilate" in="SourceAlpha" result="effect1_dropShadow"/>
<feOffset/>
<feGaussianBlur stdDeviation="2.33799"/>
<feColorMatrix type="matrix" values="0 0 0 0 0 0 0 0 0 0 0 0 0 0 0 0 0 0 0.25 0"/>
<feBlend mode="normal" in2="BackgroundImageFix" result="effect1_dropShadow"/>
<feBlend mode="normal" in="SourceGraphic" in2="effect1_dropShadow" result="shape"/>
</filter>
<linearGradient id="paint0_linear" x1="55" y1="42" x2="59.0832" y2="11.7687" gradientUnits="userSpaceOnUse">
<stop stop-color="#75F73A"/>
<stop offset="1" stop-color="#45FAFA"/>
</linearGradient>
</defs>
</svg>
