<svg width="305" height="438" viewBox="0 0 305 438" fill="none" xmlns="http://www.w3.org/2000/svg">
<path d="M0 20C0 8.95431 8.9543 0 20 0H285C296.046 0 305 8.95431 305 20V418C305 429.046 296.046 438 285 438H20C8.9543 438 0 429.046 0 418V20Z" fill="#10212E"/>
<g filter="url(#filter0_d)">
<rect x="171" y="20" width="114" height="25" rx="1.87039" fill="#335268"/>
<path d="M190.12 30.939H187.909V37H185.808V30.939H183.586V29.19H190.12V30.939ZM194.023 34.294H193.088V37H190.987V29.19H194.749C195.35 29.19 195.867 29.3 196.3 29.52C196.74 29.7327 197.074 30.037 197.301 30.433C197.536 30.829 197.653 31.2873 197.653 31.808C197.653 32.3727 197.51 32.8493 197.224 33.238C196.945 33.6267 196.542 33.909 196.014 34.085L197.884 37H195.64L194.023 34.294ZM193.088 32.809H194.32C194.731 32.809 195.053 32.7393 195.288 32.6C195.523 32.4533 195.64 32.2003 195.64 31.841C195.64 31.4597 195.53 31.1993 195.31 31.06C195.097 30.9207 194.767 30.851 194.32 30.851H193.088V32.809ZM204.794 35.251V37H198.7V29.19H204.772V30.939H200.801V32.204H204.442V33.865H200.801V35.251H204.794ZM212.629 29.19V37H210.539L207.943 32.501V37H205.93V29.19H208.009L210.616 33.766V29.19H212.629ZM217.034 29.19C217.995 29.19 218.758 29.344 219.322 29.652C219.894 29.9527 220.298 30.389 220.532 30.961C220.774 31.5257 220.895 32.237 220.895 33.095C220.895 33.953 220.774 34.668 220.532 35.24C220.298 35.8047 219.894 36.241 219.322 36.549C218.758 36.8497 217.995 37 217.034 37H213.943V29.19H217.034ZM217.188 35.339C217.731 35.339 218.131 35.1557 218.387 34.789C218.644 34.4223 218.772 33.8577 218.772 33.095C218.772 32.3177 218.64 31.7493 218.376 31.39C218.12 31.0307 217.68 30.851 217.056 30.851H216.044V35.339H217.188ZM221.774 29.19H223.875V37H221.774V29.19ZM231.889 29.19V37H229.799L227.203 32.501V37H225.19V29.19H227.269L229.876 33.766V29.19H231.889ZM240.354 32.875V33.689C240.354 34.437 240.193 35.075 239.87 35.603C239.547 36.1237 239.115 36.516 238.572 36.78C238.029 37.044 237.424 37.176 236.757 37.176C235.921 37.176 235.217 37 234.645 36.648C234.073 36.296 233.644 35.8157 233.358 35.207C233.079 34.591 232.94 33.8907 232.94 33.106C232.94 32.3213 233.079 31.621 233.358 31.005C233.644 30.389 234.077 29.905 234.656 29.553C235.235 29.1937 235.95 29.014 236.801 29.014C237.38 29.014 237.923 29.1277 238.429 29.355C238.935 29.575 239.353 29.9013 239.683 30.334C240.013 30.7667 240.207 31.2873 240.266 31.896H238.231C238.18 31.5 238.026 31.1993 237.769 30.994C237.52 30.7813 237.186 30.675 236.768 30.675C236.196 30.675 235.767 30.895 235.481 31.335C235.202 31.7677 235.063 32.358 235.063 33.106C235.063 33.876 235.206 34.4773 235.492 34.91C235.778 35.3427 236.233 35.559 236.856 35.559C237.267 35.559 237.604 35.4637 237.868 35.273C238.132 35.0823 238.315 34.8073 238.418 34.448H236.79V32.875H240.354ZM249.319 32.93C250.434 33.128 250.991 33.7367 250.991 34.756C250.991 35.4893 250.735 36.0467 250.221 36.428C249.715 36.8093 248.989 37 248.043 37H244.182V29.19H247.944C249.734 29.19 250.628 29.8207 250.628 31.082C250.628 31.5513 250.522 31.929 250.309 32.215C250.097 32.501 249.767 32.732 249.319 32.908V32.93ZM248.604 31.511C248.604 31.2177 248.513 31.0197 248.329 30.917C248.153 30.8143 247.911 30.763 247.603 30.763H246.283V32.314H247.614C247.944 32.314 248.19 32.2553 248.351 32.138C248.52 32.0133 248.604 31.8043 248.604 31.511ZM247.812 35.427C248.15 35.427 248.414 35.3647 248.604 35.24C248.802 35.1153 248.901 34.8917 248.901 34.569C248.901 34.2683 248.81 34.052 248.626 33.92C248.45 33.788 248.194 33.722 247.856 33.722H246.283V35.427H247.812ZM258.022 35.251V37H251.928V29.19H258V30.939H254.029V32.204H257.67V33.865H254.029V35.251H258.022ZM265.24 30.939H263.029V37H260.928V30.939H258.706V29.19H265.24V30.939ZM268.956 37.176C268.091 37.176 267.325 36.978 266.657 36.582C265.99 36.186 265.649 35.482 265.634 34.47H267.669C267.691 34.866 267.823 35.1667 268.065 35.372C268.307 35.57 268.637 35.669 269.055 35.669C269.429 35.669 269.734 35.5993 269.968 35.46C270.21 35.3207 270.331 35.1117 270.331 34.833C270.331 34.6497 270.276 34.4993 270.166 34.382C270.056 34.2573 269.877 34.151 269.627 34.063C269.378 33.9677 269 33.8503 268.494 33.711C267.893 33.557 267.42 33.4103 267.075 33.271C266.731 33.1243 266.441 32.9007 266.206 32.6C265.972 32.2993 265.854 31.8923 265.854 31.379C265.854 30.8583 266.001 30.422 266.294 30.07C266.588 29.7107 266.973 29.4467 267.449 29.278C267.933 29.102 268.454 29.014 269.011 29.014C269.928 29.014 270.683 29.212 271.277 29.608C271.871 29.9967 272.183 30.609 272.212 31.445H270.188C270.159 31.137 270.031 30.906 269.803 30.752C269.583 30.598 269.305 30.521 268.967 30.521C268.674 30.521 268.417 30.587 268.197 30.719C267.977 30.8437 267.867 31.0197 267.867 31.247C267.867 31.401 267.922 31.5293 268.032 31.632C268.142 31.7273 268.289 31.8043 268.472 31.863C268.663 31.9217 268.945 31.9987 269.319 32.094C270.001 32.2553 270.562 32.435 271.002 32.633C271.45 32.831 271.798 33.0987 272.047 33.436C272.304 33.766 272.432 34.1913 272.432 34.712C272.432 35.57 272.102 36.197 271.442 36.593C270.79 36.9817 269.961 37.176 268.956 37.176Z" fill="white"/>
</g>
<path d="M63.9018 25.1993C65.1926 25.1993 66.2756 25.4441 67.151 25.9337C68.0412 26.4084 68.7014 27.0538 69.1316 27.8698C69.5619 28.6858 69.777 29.6131 69.777 30.6516C69.777 32.343 69.2281 33.6486 68.1302 34.5684C67.0323 35.4735 65.5116 35.926 63.568 35.926H60.5859V41H56.3353V25.1993H63.9018ZM63.0339 32.6323C63.8796 32.6323 64.5324 32.4988 64.9923 32.2317C65.4522 31.9498 65.6822 31.4157 65.6822 30.6294C65.6822 29.7985 65.4671 29.2496 65.0368 28.9825C64.6214 28.7007 63.9537 28.5597 63.0339 28.5597H60.5859V32.6323H63.0339ZM76.4216 37.6396H82.8531V41H71.1472V38.0179L76.6441 33.1664C76.748 33.0625 77.0595 32.7881 77.5788 32.343C78.1129 31.8831 78.4912 31.4528 78.7138 31.0522C78.9512 30.6516 79.0699 30.2511 79.0699 29.8505C79.0699 29.2719 78.8844 28.8268 78.5135 28.5152C78.1574 28.1888 77.6678 28.0256 77.0447 28.0256C76.3622 28.0256 75.7984 28.2333 75.3533 28.6487C74.9231 29.0493 74.708 29.665 74.708 30.4959H70.9247C70.9247 28.7155 71.4588 27.3209 72.527 26.312C73.5952 25.2883 75.0937 24.7764 77.0224 24.7764C78.2093 24.7764 79.2405 24.9767 80.1158 25.3773C81.006 25.7631 81.6885 26.3194 82.1632 27.0464C82.638 27.7734 82.8754 28.6265 82.8754 29.6057C82.8754 30.3772 82.7419 31.0522 82.4748 31.6308C82.2226 32.2095 81.8962 32.7065 81.4956 33.1219C81.1099 33.5373 80.5683 34.0492 79.871 34.6575L76.4216 37.6396ZM92.4807 25.1993C93.7714 25.1993 94.8545 25.4441 95.7298 25.9337C96.62 26.4084 97.2802 27.0538 97.7105 27.8698C98.1407 28.6858 98.3559 29.6131 98.3559 30.6516C98.3559 32.343 97.8069 33.6486 96.709 34.5684C95.6111 35.4735 94.0904 35.926 92.1468 35.926H89.1647V41H84.9141V25.1993H92.4807ZM91.6127 32.6323C92.4584 32.6323 93.1112 32.4988 93.5711 32.2317C94.0311 31.9498 94.261 31.4157 94.261 30.6294C94.261 29.7985 94.0459 29.2496 93.6156 28.9825C93.2002 28.7007 92.5326 28.5597 91.6127 28.5597H89.1647V32.6323H91.6127ZM116.149 32.7658C118.404 33.1664 119.532 34.3978 119.532 36.4601C119.532 37.9437 119.012 39.0713 117.974 39.8428C116.95 40.6143 115.481 41 113.567 41H105.756V25.1993H113.367C116.987 25.1993 118.797 26.4752 118.797 29.0271C118.797 29.9766 118.582 30.7407 118.152 31.3193C117.722 31.8979 117.054 32.3652 116.149 32.7213V32.7658ZM114.702 29.895C114.702 29.3015 114.517 28.9009 114.146 28.6932C113.79 28.4855 113.3 28.3817 112.677 28.3817H110.007V31.5196H112.699C113.367 31.5196 113.864 31.4009 114.19 31.1635C114.532 30.9113 114.702 30.4884 114.702 29.895ZM113.1 37.8176C113.782 37.8176 114.317 37.6915 114.702 37.4393C115.103 37.1871 115.303 36.7345 115.303 36.0817C115.303 35.4735 115.118 35.0358 114.747 34.7687C114.391 34.5017 113.872 34.3681 113.189 34.3681H110.007V37.8176H113.1ZM133.754 37.4615V41H121.425V25.1993H133.71V28.7377H125.676V31.297H133.042V34.6575H125.676V37.4615H133.754ZM148.359 28.7377H143.885V41H139.635V28.7377H135.139V25.1993H148.359V28.7377Z" fill="url(#paint0_linear)"/>
<path d="M28.432 70.08C30.0533 70.368 30.864 71.2533 30.864 72.736C30.864 73.8027 30.4907 74.6133 29.744 75.168C29.008 75.7227 27.952 76 26.576 76H20.96V64.64H26.432C29.0347 64.64 30.336 65.5573 30.336 67.392C30.336 68.0747 30.1813 68.624 29.872 69.04C29.5627 69.456 29.0827 69.792 28.432 70.048V70.08ZM27.392 68.016C27.392 67.5893 27.2587 67.3013 26.992 67.152C26.736 67.0027 26.384 66.928 25.936 66.928H24.016V69.184H25.952C26.432 69.184 26.7893 69.0987 27.024 68.928C27.2693 68.7467 27.392 68.4427 27.392 68.016ZM26.24 73.712C26.7307 73.712 27.1147 73.6213 27.392 73.44C27.68 73.2587 27.824 72.9333 27.824 72.464C27.824 72.0267 27.6907 71.712 27.424 71.52C27.168 71.328 26.7947 71.232 26.304 71.232H24.016V73.712H26.24ZM41.0896 73.456V76H32.2256V64.64H41.0576V67.184H35.2816V69.024H40.5776V71.44H35.2816V73.456H41.0896ZM51.5893 67.184H48.3733V76H45.3173V67.184H42.0853V64.64H51.5893V67.184ZM62.1139 76.256C60.8765 76.256 59.8365 76 58.9939 75.488C58.1512 74.9653 57.5219 74.256 57.1059 73.36C56.7005 72.464 56.4979 71.4507 56.4979 70.32C56.4979 69.1893 56.7005 68.176 57.1059 67.28C57.5219 66.384 58.1512 65.68 58.9939 65.168C59.8365 64.6453 60.8765 64.384 62.1139 64.384C62.9565 64.384 63.7459 64.5493 64.4819 64.88C65.2179 65.2107 65.8259 65.7067 66.3059 66.368C66.7859 67.0187 67.0685 67.8187 67.1539 68.768H64.1779C64.0392 67.456 63.3352 66.8 62.0659 66.8C61.2339 66.8 60.6099 67.1147 60.1939 67.744C59.7885 68.3733 59.5859 69.232 59.5859 70.32C59.5859 71.408 59.7885 72.2667 60.1939 72.896C60.6099 73.5253 61.2339 73.84 62.0659 73.84C63.3352 73.84 64.0392 73.184 64.1779 71.872H67.1539C67.0685 72.8213 66.7859 73.6267 66.3059 74.288C65.8259 74.9387 65.2179 75.4293 64.4819 75.76C63.7459 76.0907 62.9565 76.256 62.1139 76.256ZM74.0544 76.256C72.7957 76.256 71.7344 76 70.8704 75.488C70.017 74.9653 69.377 74.256 68.9504 73.36C68.5237 72.464 68.3104 71.4507 68.3104 70.32C68.3104 69.1893 68.5237 68.176 68.9504 67.28C69.377 66.384 70.017 65.68 70.8704 65.168C71.7344 64.6453 72.7957 64.384 74.0544 64.384C75.313 64.384 76.369 64.6453 77.2224 65.168C78.0864 65.68 78.7264 66.384 79.1424 67.28C79.569 68.176 79.7824 69.1893 79.7824 70.32C79.7824 71.4507 79.569 72.464 79.1424 73.36C78.7264 74.256 78.0864 74.9653 77.2224 75.488C76.369 76 75.313 76.256 74.0544 76.256ZM74.0544 73.84C74.9504 73.84 75.617 73.5253 76.0544 72.896C76.4917 72.256 76.7104 71.3973 76.7104 70.32C76.7104 69.2427 76.4917 68.3893 76.0544 67.76C75.617 67.12 74.9504 66.8 74.0544 66.8C73.1584 66.8 72.4917 67.12 72.0544 67.76C71.617 68.3893 71.3984 69.2427 71.3984 70.32C71.3984 71.3973 71.617 72.256 72.0544 72.896C72.4917 73.5253 73.1584 73.84 74.0544 73.84ZM90.829 64.64V76H87.789L84.013 69.456V76H81.085V64.64H84.109L87.901 71.296V64.64H90.829ZM97.2373 64.64C98.6346 64.64 99.7439 64.864 100.565 65.312C101.397 65.7493 101.984 66.384 102.325 67.216C102.677 68.0373 102.853 69.072 102.853 70.32C102.853 71.568 102.677 72.608 102.325 73.44C101.984 74.2613 101.397 74.896 100.565 75.344C99.7439 75.7813 98.6346 76 97.2373 76H92.7413V64.64H97.2373ZM97.4613 73.584C98.2506 73.584 98.8319 73.3173 99.2053 72.784C99.5786 72.2507 99.7653 71.4293 99.7653 70.32C99.7653 69.1893 99.5733 68.3627 99.1893 67.84C98.8159 67.3173 98.1759 67.056 97.2693 67.056H95.7973V73.584H97.4613ZM104.132 64.64H107.188V76H104.132V64.64ZM117.949 67.184H114.733V76H111.677V67.184H108.445V64.64H117.949V67.184ZM119.21 64.64H122.266V76H119.21V64.64ZM129.539 76.256C128.28 76.256 127.219 76 126.355 75.488C125.501 74.9653 124.861 74.256 124.435 73.36C124.008 72.464 123.795 71.4507 123.795 70.32C123.795 69.1893 124.008 68.176 124.435 67.28C124.861 66.384 125.501 65.68 126.355 65.168C127.219 64.6453 128.28 64.384 129.539 64.384C130.797 64.384 131.853 64.6453 132.707 65.168C133.571 65.68 134.211 66.384 134.627 67.28C135.053 68.176 135.267 69.1893 135.267 70.32C135.267 71.4507 135.053 72.464 134.627 73.36C134.211 74.256 133.571 74.9653 132.707 75.488C131.853 76 130.797 76.256 129.539 76.256ZM129.539 73.84C130.435 73.84 131.101 73.5253 131.539 72.896C131.976 72.256 132.195 71.3973 132.195 70.32C132.195 69.2427 131.976 68.3893 131.539 67.76C131.101 67.12 130.435 66.8 129.539 66.8C128.643 66.8 127.976 67.12 127.539 67.76C127.101 68.3893 126.883 69.2427 126.883 70.32C126.883 71.3973 127.101 72.256 127.539 72.896C127.976 73.5253 128.643 73.84 129.539 73.84ZM146.313 64.64V76H143.273L139.497 69.456V76H136.569V64.64H139.593L143.385 71.296V64.64H146.313ZM150.002 76.224C149.554 76.224 149.164 76.0587 148.834 75.728C148.503 75.3973 148.338 75.008 148.338 74.56C148.338 74.1013 148.503 73.712 148.834 73.392C149.164 73.072 149.554 72.912 150.002 72.912C150.471 72.912 150.866 73.072 151.186 73.392C151.506 73.712 151.666 74.1013 151.666 74.56C151.666 75.008 151.5 75.3973 151.17 75.728C150.85 76.0587 150.46 76.224 150.002 76.224ZM150.002 70.848C149.554 70.848 149.164 70.6827 148.834 70.352C148.503 70.0213 148.338 69.632 148.338 69.184C148.338 68.7253 148.503 68.336 148.834 68.016C149.164 67.696 149.554 67.536 150.002 67.536C150.471 67.536 150.866 67.696 151.186 68.016C151.506 68.336 151.666 68.7253 151.666 69.184C151.666 69.632 151.5 70.0213 151.17 70.352C150.85 70.6827 150.46 70.848 150.002 70.848Z" fill="#96B5CC"/>
<path d="M31.2486 32.8959L35.8335 28.311L34.4809 26.9584L29.896 31.5433L25.3111 26.9584L23.9585 28.311L28.5434 32.8959L23.9585 37.4808L25.3111 38.8334L29.896 34.2485L34.4809 38.8334L35.8335 37.4808L31.2486 32.8959Z" fill="white"/>
<g filter="url(#filter1_d)">
<rect x="20" y="286" width="261" height="25" rx="2.47" fill="#335268"/>
</g>
<g filter="url(#filter2_d)">
<rect x="20" y="349" width="266" height="25" rx="2.47" fill="#335268"/>
</g>
<g filter="url(#filter3_d)">
<rect x="115" y="222" width="76" height="25" rx="2.47" fill="#335268"/>
</g>
<g filter="url(#filter4_d)">
<rect x="205" y="222" width="76" height="25" rx="2.47" fill="#335268"/>
</g>
<g filter="url(#filter5_i)">
<rect x="20" y="222" width="76" height="25" rx="2.47" fill="#0C2131"/>
</g>
<path d="M52.9853 229.35V240H50.8403V235.425H46.4603V240H44.3153V229.35H46.4603V233.625H50.8403V229.35H52.9853ZM57.4529 238.275H62.1929V240H54.7829V238.425L58.7279 234.78C59.1079 234.43 59.3979 234.145 59.5979 233.925C59.7979 233.705 59.9579 233.465 60.0779 233.205C60.2079 232.945 60.2729 232.66 60.2729 232.35C60.2729 231.87 60.1229 231.49 59.8229 231.21C59.5329 230.93 59.1179 230.79 58.5779 230.79C58.0179 230.79 57.5629 230.95 57.2129 231.27C56.8729 231.59 56.7029 232.045 56.7029 232.635H54.7379C54.7379 231.915 54.8979 231.29 55.2179 230.76C55.5379 230.22 55.9829 229.805 56.5529 229.515C57.1329 229.225 57.8079 229.08 58.5779 229.08C59.3079 229.08 59.9479 229.215 60.4979 229.485C61.0579 229.745 61.4879 230.12 61.7879 230.61C62.0879 231.09 62.2379 231.645 62.2379 232.275C62.2379 232.785 62.1379 233.25 61.9379 233.67C61.7479 234.08 61.5229 234.425 61.2629 234.705C61.0029 234.985 60.6679 235.31 60.2579 235.68L57.4529 238.275ZM72.7021 229.35V240H70.5571V235.425H66.1771V240H64.0321V229.35H66.1771V233.625H70.5571V229.35H72.7021Z" fill="white"/>
<g filter="url(#filter6_i)">
<rect x="20" y="86" width="126" height="25" rx="2.47" fill="#0C2131"/>
</g>
<path d="M73.1064 95.135H69.8664V104H67.7214V95.135H64.4814V93.35H73.1064V95.135ZM81.9816 102.215V104H74.3016V93.35H81.9516V95.135H76.4466V97.7H81.5016V99.425H76.4466V102.215H81.9816ZM89.4827 101.495H85.5977L84.7577 104H82.4927L86.5427 93.35H88.5377L92.5877 104H90.3227L89.4827 101.495ZM88.9277 99.89L87.5477 95.795H87.5177L86.1377 99.89H88.9277ZM104.65 93.35V104H102.61V96.815L99.9554 102.89H98.2154L95.5604 96.8V104H93.5204V93.35H95.8904L99.0854 100.685L102.28 93.35H104.65Z" fill="white"/>
<g filter="url(#filter7_d)">
<rect x="159" y="86" width="126" height="25" rx="2.47" fill="#335268"/>
</g>
<path d="M198.456 93.35C199.686 93.35 200.626 93.66 201.276 94.28C201.926 94.9 202.251 95.735 202.251 96.785C202.251 97.875 201.906 98.72 201.216 99.32C200.536 99.91 199.581 100.205 198.351 100.205L196.011 100.19V104H193.866V93.35H198.456ZM198.126 98.495C198.786 98.495 199.296 98.355 199.656 98.075C200.016 97.785 200.196 97.35 200.196 96.77C200.196 96.17 200.026 95.74 199.686 95.48C199.346 95.21 198.826 95.075 198.126 95.075H196.011V98.495H198.126ZM210.909 102.215V104H203.739V93.35H205.884V102.215H210.909ZM217.997 101.495H214.112L213.272 104H211.007L215.057 93.35H217.052L221.102 104H218.837L217.997 101.495ZM217.442 99.89L216.062 95.795H216.032L214.652 99.89H217.442ZM229.832 93.35L225.857 100.25V104H223.712V100.25L219.722 93.35H222.077L224.777 98.48L227.492 93.35H229.832ZM238.387 102.215V104H230.707V93.35H238.357V95.135H232.852V97.7H237.907V99.425H232.852V102.215H238.387ZM244.058 99.995L242.183 99.98V104H240.038V93.35H244.718C245.918 93.35 246.848 93.65 247.508 94.25C248.178 94.84 248.513 95.655 248.513 96.695C248.513 97.485 248.308 98.145 247.898 98.675C247.498 99.195 246.913 99.565 246.143 99.785L248.843 104H246.503L244.058 99.995ZM242.183 98.375H244.388C245.048 98.375 245.553 98.235 245.903 97.955C246.263 97.675 246.443 97.26 246.443 96.71C246.443 96.15 246.273 95.74 245.933 95.48C245.593 95.21 245.078 95.075 244.388 95.075H242.183V98.375Z" fill="white"/>
<path d="M38.165 294.35V305H36.125V297.815L33.47 303.89H31.73L29.075 297.8V305H27.035V294.35H29.405L32.6 301.685L35.795 294.35H38.165ZM47.9132 303.215V305H40.2332V294.35H47.8832V296.135H42.3782V298.7H47.4332V300.425H42.3782V303.215H47.9132ZM58.2343 294.35V305H56.0893V300.425H51.7093V305H49.5643V294.35H51.7093V298.625H56.0893V294.35H58.2343ZM64.667 305.24C61.717 305.24 60.242 303.88 60.242 301.16V294.35H62.372V300.98C62.372 301.79 62.552 302.415 62.912 302.855C63.272 303.285 63.857 303.5 64.667 303.5C65.477 303.5 66.057 303.285 66.407 302.855C66.767 302.415 66.947 301.79 66.947 300.98V294.35H69.077V301.16C69.077 303.88 67.607 305.24 64.667 305.24ZM78.2675 303.215V305H71.0975V294.35H73.2425V303.215H78.2675ZM89.1936 302.495H85.3086L84.4686 305H82.2036L86.2536 294.35H88.2486L92.2986 305H90.0336L89.1936 302.495ZM88.6386 300.89L87.2586 296.795H87.2286L85.8486 300.89H88.6386ZM96.4563 305.24C95.2263 305.24 94.2663 304.92 93.5763 304.28C92.8863 303.63 92.5413 302.705 92.5413 301.505H94.6863C94.6863 302.135 94.8363 302.625 95.1363 302.975C95.4363 303.325 95.8713 303.5 96.4413 303.5C97.6413 303.5 98.2413 302.685 98.2413 301.055V294.35H100.371V301.16C100.371 302.49 100.036 303.505 99.3663 304.205C98.7063 304.895 97.7363 305.24 96.4563 305.24ZM102.416 294.35H104.561V305H102.416V294.35ZM114.375 296.135H111.135V305H108.99V296.135H105.75V294.35H114.375V296.135ZM124.24 294.35V305H122.095V300.425H117.715V305H115.57V294.35H117.715V298.625H122.095V294.35H124.24Z" fill="white"/>
<path d="M33.56 364.67C33.56 365.52 33.3 366.175 32.78 366.635C32.26 367.085 31.575 367.365 30.725 367.475V368.99H29.3V367.475C28.47 367.375 27.77 367.07 27.2 366.56C26.64 366.05 26.355 365.305 26.345 364.325H28.205C28.225 364.895 28.39 365.33 28.7 365.63C29.02 365.93 29.45 366.08 29.99 366.08C30.47 366.08 30.865 365.975 31.175 365.765C31.495 365.545 31.655 365.215 31.655 364.775C31.655 364.485 31.58 364.255 31.43 364.085C31.29 363.905 31.07 363.755 30.77 363.635C30.48 363.505 30.035 363.35 29.435 363.17C28.735 362.95 28.215 362.765 27.875 362.615C27.535 362.465 27.235 362.225 26.975 361.895C26.725 361.555 26.6 361.095 26.6 360.515C26.6 359.745 26.855 359.135 27.365 358.685C27.875 358.235 28.52 357.955 29.3 357.845V356.36H30.725V357.875C31.475 357.995 32.085 358.29 32.555 358.76C33.025 359.23 33.28 359.88 33.32 360.71H31.46C31.42 360.22 31.255 359.855 30.965 359.615C30.685 359.375 30.32 359.255 29.87 359.255C29.47 359.255 29.13 359.355 28.85 359.555C28.57 359.755 28.43 360.04 28.43 360.41C28.43 360.66 28.505 360.86 28.655 361.01C28.805 361.16 28.99 361.275 29.21 361.355C29.43 361.435 29.78 361.54 30.26 361.67C31.02 361.89 31.63 362.12 32.09 362.36C32.56 362.59 32.92 362.89 33.17 363.26C33.43 363.63 33.56 364.1 33.56 364.67ZM46.3563 361.055C47.0563 361.055 47.6563 361.21 48.1563 361.52C48.6663 361.82 49.0513 362.24 49.3113 362.78C49.5713 363.31 49.7013 363.915 49.7013 364.595C49.7013 365.355 49.5413 366.01 49.2213 366.56C48.9113 367.11 48.4763 367.53 47.9163 367.82C47.3563 368.1 46.7113 368.24 45.9813 368.24C44.9113 368.24 44.0463 367.97 43.3863 367.43C42.7263 366.89 42.3963 366.09 42.3963 365.03H44.2863C44.2863 365.51 44.4413 365.885 44.7513 366.155C45.0613 366.415 45.4763 366.545 45.9963 366.545C46.5763 366.545 47.0113 366.365 47.3013 366.005C47.6013 365.635 47.7513 365.16 47.7513 364.58C47.7513 363.95 47.5813 363.46 47.2413 363.11C46.9113 362.75 46.4663 362.57 45.9063 362.57C45.6463 362.57 45.3713 362.615 45.0813 362.705C44.7913 362.795 44.5213 362.93 44.2713 363.11H42.7113V357.35H49.1163V359.075H44.4513V361.475C45.0413 361.195 45.6763 361.055 46.3563 361.055ZM55.0654 368.24C53.8954 368.24 52.9704 367.915 52.2904 367.265C51.6104 366.605 51.2704 365.695 51.2704 364.535V360.815C51.2704 359.655 51.6104 358.75 52.2904 358.1C52.9704 357.44 53.8954 357.11 55.0654 357.11C56.2354 357.11 57.1604 357.44 57.8404 358.1C58.5204 358.75 58.8604 359.655 58.8604 360.815V364.535C58.8604 365.695 58.5204 366.605 57.8404 367.265C57.1604 367.915 56.2354 368.24 55.0654 368.24ZM55.0654 366.53C55.6454 366.53 56.0904 366.36 56.4004 366.02C56.7204 365.68 56.8804 365.195 56.8804 364.565V360.785C56.8804 360.155 56.7204 359.67 56.4004 359.33C56.0904 358.99 55.6454 358.82 55.0654 358.82C54.4854 358.82 54.0354 358.99 53.7154 359.33C53.4054 359.67 53.2504 360.155 53.2504 360.785V364.565C53.2504 365.195 53.4054 365.68 53.7154 366.02C54.0354 366.36 54.4854 366.53 55.0654 366.53ZM64.0596 368.24C62.8896 368.24 61.9646 367.915 61.2846 367.265C60.6046 366.605 60.2646 365.695 60.2646 364.535V360.815C60.2646 359.655 60.6046 358.75 61.2846 358.1C61.9646 357.44 62.8896 357.11 64.0596 357.11C65.2296 357.11 66.1546 357.44 66.8346 358.1C67.5146 358.75 67.8546 359.655 67.8546 360.815V364.535C67.8546 365.695 67.5146 366.605 66.8346 367.265C66.1546 367.915 65.2296 368.24 64.0596 368.24ZM64.0596 366.53C64.6396 366.53 65.0846 366.36 65.3946 366.02C65.7146 365.68 65.8746 365.195 65.8746 364.565V360.785C65.8746 360.155 65.7146 359.67 65.3946 359.33C65.0846 358.99 64.6396 358.82 64.0596 358.82C63.4796 358.82 63.0296 358.99 62.7096 359.33C62.3996 359.67 62.2446 360.155 62.2446 360.785V364.565C62.2446 365.195 62.3996 365.68 62.7096 366.02C63.0296 366.36 63.4796 366.53 64.0596 366.53ZM70.9837 368.21C70.6337 368.21 70.3287 368.08 70.0687 367.82C69.8087 367.56 69.6787 367.255 69.6787 366.905C69.6787 366.545 69.8037 366.24 70.0537 365.99C70.3137 365.73 70.6237 365.6 70.9837 365.6C71.3537 365.6 71.6637 365.725 71.9137 365.975C72.1737 366.225 72.3037 366.535 72.3037 366.905C72.3037 367.255 72.1737 367.56 71.9137 367.82C71.6637 368.08 71.3537 368.21 70.9837 368.21ZM77.9316 368.24C76.7616 368.24 75.8366 367.915 75.1566 367.265C74.4766 366.605 74.1366 365.695 74.1366 364.535V360.815C74.1366 359.655 74.4766 358.75 75.1566 358.1C75.8366 357.44 76.7616 357.11 77.9316 357.11C79.1016 357.11 80.0266 357.44 80.7066 358.1C81.3866 358.75 81.7266 359.655 81.7266 360.815V364.535C81.7266 365.695 81.3866 366.605 80.7066 367.265C80.0266 367.915 79.1016 368.24 77.9316 368.24ZM77.9316 366.53C78.5116 366.53 78.9566 366.36 79.2666 366.02C79.5866 365.68 79.7466 365.195 79.7466 364.565V360.785C79.7466 360.155 79.5866 359.67 79.2666 359.33C78.9566 358.99 78.5116 358.82 77.9316 358.82C77.3516 358.82 76.9016 358.99 76.5816 359.33C76.2716 359.67 76.1166 360.155 76.1166 360.785V364.565C76.1166 365.195 76.2716 365.68 76.5816 366.02C76.9016 366.36 77.3516 366.53 77.9316 366.53ZM86.9258 368.24C85.7558 368.24 84.8308 367.915 84.1508 367.265C83.4708 366.605 83.1308 365.695 83.1308 364.535V360.815C83.1308 359.655 83.4708 358.75 84.1508 358.1C84.8308 357.44 85.7558 357.11 86.9258 357.11C88.0958 357.11 89.0208 357.44 89.7008 358.1C90.3808 358.75 90.7208 359.655 90.7208 360.815V364.535C90.7208 365.695 90.3808 366.605 89.7008 367.265C89.0208 367.915 88.0958 368.24 86.9258 368.24ZM86.9258 366.53C87.5058 366.53 87.9508 366.36 88.2608 366.02C88.5808 365.68 88.7408 365.195 88.7408 364.565V360.785C88.7408 360.155 88.5808 359.67 88.2608 359.33C87.9508 358.99 87.5058 358.82 86.9258 358.82C86.3458 358.82 85.8958 358.99 85.5758 359.33C85.2658 359.67 85.1108 360.155 85.1108 360.785V364.565C85.1108 365.195 85.2658 365.68 85.5758 366.02C85.8958 366.36 86.3458 366.53 86.9258 366.53ZM95.9199 368.24C94.7499 368.24 93.8249 367.915 93.1449 367.265C92.4649 366.605 92.1249 365.695 92.1249 364.535V360.815C92.1249 359.655 92.4649 358.75 93.1449 358.1C93.8249 357.44 94.7499 357.11 95.9199 357.11C97.0899 357.11 98.0149 357.44 98.6949 358.1C99.3749 358.75 99.7149 359.655 99.7149 360.815V364.535C99.7149 365.695 99.3749 366.605 98.6949 367.265C98.0149 367.915 97.0899 368.24 95.9199 368.24ZM95.9199 366.53C96.4999 366.53 96.9449 366.36 97.2549 366.02C97.5749 365.68 97.7349 365.195 97.7349 364.565V360.785C97.7349 360.155 97.5749 359.67 97.2549 359.33C96.9449 358.99 96.4999 358.82 95.9199 358.82C95.3399 358.82 94.8899 358.99 94.5699 359.33C94.2599 359.67 94.1049 360.155 94.1049 360.785V364.565C94.1049 365.195 94.2599 365.68 94.5699 366.02C94.8899 366.36 95.3399 366.53 95.9199 366.53Z" fill="white"/>
<g filter="url(#filter8_d)">
<rect x="20" y="389" width="266" height="31" rx="1.87039" fill="#223743"/>
<path fill-rule="evenodd" clip-rule="evenodd" d="M152.306 411.112L160.509 400.277C160.862 399.822 160.771 399.368 160.328 399.039L159.887 398.71C159.443 398.38 159 398.437 158.647 398.892L151.489 408.342L147.2 404.018C146.814 403.597 146.358 403.597 145.949 404.006L145.565 404.391C145.178 404.778 145.178 405.221 145.565 405.63L145.563 405.63L151.032 411.203C151.442 411.634 151.954 411.589 152.306 411.112Z" fill="#5AF9A5"/>
</g>
<path d="M28.432 203.08C30.0533 203.368 30.864 204.253 30.864 205.736C30.864 206.803 30.4907 207.613 29.744 208.168C29.008 208.723 27.952 209 26.576 209H20.96V197.64H26.432C29.0347 197.64 30.336 198.557 30.336 200.392C30.336 201.075 30.1813 201.624 29.872 202.04C29.5627 202.456 29.0827 202.792 28.432 203.048V203.08ZM27.392 201.016C27.392 200.589 27.2587 200.301 26.992 200.152C26.736 200.003 26.384 199.928 25.936 199.928H24.016V202.184H25.952C26.432 202.184 26.7893 202.099 27.024 201.928C27.2693 201.747 27.392 201.443 27.392 201.016ZM26.24 206.712C26.7307 206.712 27.1147 206.621 27.392 206.44C27.68 206.259 27.824 205.933 27.824 205.464C27.824 205.027 27.6907 204.712 27.424 204.52C27.168 204.328 26.7947 204.232 26.304 204.232H24.016V206.712H26.24ZM41.0896 206.456V209H32.2256V197.64H41.0576V200.184H35.2816V202.024H40.5776V204.44H35.2816V206.456H41.0896ZM51.5893 200.184H48.3733V209H45.3173V200.184H42.0853V197.64H51.5893V200.184ZM65.7299 200.184H62.5139V209H59.4579V200.184H56.2259V197.64H65.7299V200.184ZM76.9433 197.64L72.8313 205.128V209H69.7753V205.128L65.6632 197.64H68.9433L71.2953 202.52L73.6473 197.64H76.9433ZM82.9781 197.64C83.9061 197.64 84.6848 197.816 85.3141 198.168C85.9541 198.509 86.4288 198.973 86.7381 199.56C87.0475 200.147 87.2021 200.813 87.2021 201.56C87.2021 202.776 86.8075 203.715 86.0181 204.376C85.2288 205.027 84.1355 205.352 82.7381 205.352H80.5941V209H77.5381V197.64H82.9781ZM82.3541 202.984C82.9621 202.984 83.4315 202.888 83.7621 202.696C84.0928 202.493 84.2581 202.109 84.2581 201.544C84.2581 200.947 84.1035 200.552 83.7941 200.36C83.4955 200.157 83.0155 200.056 82.3541 200.056H80.5941V202.984H82.3541ZM97.3553 206.456V209H88.4913V197.64H97.3233V200.184H91.5473V202.024H96.8433V204.44H91.5473V206.456H97.3553ZM100.783 209.224C100.335 209.224 99.9455 209.059 99.6149 208.728C99.2842 208.397 99.1189 208.008 99.1189 207.56C99.1189 207.101 99.2842 206.712 99.6149 206.392C99.9455 206.072 100.335 205.912 100.783 205.912C101.252 205.912 101.647 206.072 101.967 206.392C102.287 206.712 102.447 207.101 102.447 207.56C102.447 208.008 102.282 208.397 101.951 208.728C101.631 209.059 101.242 209.224 100.783 209.224ZM100.783 203.848C100.335 203.848 99.9455 203.683 99.6149 203.352C99.2842 203.021 99.1189 202.632 99.1189 202.184C99.1189 201.725 99.2842 201.336 99.6149 201.016C99.9455 200.696 100.335 200.536 100.783 200.536C101.252 200.536 101.647 200.696 101.967 201.016C102.287 201.336 102.447 201.725 102.447 202.184C102.447 202.632 102.282 203.021 101.951 203.352C101.631 203.683 101.242 203.848 100.783 203.848Z" fill="#96B5CC"/>
<path d="M26.32 273.256C25.0613 273.256 24 273 23.136 272.488C22.2827 271.965 21.6427 271.256 21.216 270.36C20.7893 269.464 20.576 268.451 20.576 267.32C20.576 266.189 20.7893 265.176 21.216 264.28C21.6427 263.384 22.2827 262.68 23.136 262.168C24 261.645 25.0613 261.384 26.32 261.384C27.5787 261.384 28.6347 261.645 29.488 262.168C30.352 262.68 30.992 263.384 31.408 264.28C31.8347 265.176 32.048 266.189 32.048 267.32C32.048 268.451 31.8347 269.464 31.408 270.36C30.992 271.256 30.352 271.965 29.488 272.488C28.6347 273 27.5787 273.256 26.32 273.256ZM26.32 270.84C27.216 270.84 27.8827 270.525 28.32 269.896C28.7573 269.256 28.976 268.397 28.976 267.32C28.976 266.243 28.7573 265.389 28.32 264.76C27.8827 264.12 27.216 263.8 26.32 263.8C25.424 263.8 24.7573 264.12 24.32 264.76C23.8827 265.389 23.664 266.243 23.664 267.32C23.664 268.397 23.8827 269.256 24.32 269.896C24.7573 270.525 25.424 270.84 26.32 270.84ZM38.7906 261.64C39.7186 261.64 40.4973 261.816 41.1266 262.168C41.7666 262.509 42.2413 262.973 42.5506 263.56C42.86 264.147 43.0146 264.813 43.0146 265.56C43.0146 266.776 42.62 267.715 41.8306 268.376C41.0413 269.027 39.948 269.352 38.5506 269.352H36.4066V273H33.3506V261.64H38.7906ZM38.1666 266.984C38.7746 266.984 39.244 266.888 39.5746 266.696C39.9053 266.493 40.0706 266.109 40.0706 265.544C40.0706 264.947 39.916 264.552 39.6066 264.36C39.308 264.157 38.828 264.056 38.1666 264.056H36.4066V266.984H38.1666ZM49.7438 261.64C50.6718 261.64 51.4504 261.816 52.0798 262.168C52.7198 262.509 53.1944 262.973 53.5038 263.56C53.8131 264.147 53.9678 264.813 53.9678 265.56C53.9678 266.776 53.5731 267.715 52.7838 268.376C51.9944 269.027 50.9011 269.352 49.5038 269.352H47.3598V273H44.3038V261.64H49.7438ZM49.1198 266.984C49.7278 266.984 50.1971 266.888 50.5278 266.696C50.8584 266.493 51.0238 266.109 51.0238 265.544C51.0238 264.947 50.8691 264.552 50.5598 264.36C50.2611 264.157 49.7811 264.056 49.1198 264.056H47.3598V266.984H49.1198ZM60.6169 273.256C59.3582 273.256 58.2969 273 57.4329 272.488C56.5795 271.965 55.9395 271.256 55.5129 270.36C55.0862 269.464 54.8729 268.451 54.8729 267.32C54.8729 266.189 55.0862 265.176 55.5129 264.28C55.9395 263.384 56.5795 262.68 57.4329 262.168C58.2969 261.645 59.3582 261.384 60.6169 261.384C61.8755 261.384 62.9315 261.645 63.7849 262.168C64.6489 262.68 65.2889 263.384 65.7049 264.28C66.1315 265.176 66.3449 266.189 66.3449 267.32C66.3449 268.451 66.1315 269.464 65.7049 270.36C65.2889 271.256 64.6489 271.965 63.7849 272.488C62.9315 273 61.8755 273.256 60.6169 273.256ZM60.6169 270.84C61.5129 270.84 62.1795 270.525 62.6169 269.896C63.0542 269.256 63.2729 268.397 63.2729 267.32C63.2729 266.243 63.0542 265.389 62.6169 264.76C62.1795 264.12 61.5129 263.8 60.6169 263.8C59.7209 263.8 59.0542 264.12 58.6169 264.76C58.1795 265.389 57.9609 266.243 57.9609 267.32C57.9609 268.397 58.1795 269.256 58.6169 269.896C59.0542 270.525 59.7209 270.84 60.6169 270.84ZM77.3915 261.64V273H74.3515L70.5755 266.456V273H67.6475V261.64H70.6715L74.4635 268.296V261.64H77.3915ZM88.1678 270.456V273H79.3038V261.64H88.1358V264.184H82.3598V266.024H87.6558V268.44H82.3598V270.456H88.1678ZM99.5634 261.64V273H96.5234L92.7474 266.456V273H89.8194V261.64H92.8434L96.6354 268.296V261.64H99.5634ZM110.324 264.184H107.108V273H104.052V264.184H100.82V261.64H110.324V264.184ZM111.892 273.224C111.444 273.224 111.055 273.059 110.724 272.728C110.394 272.397 110.228 272.008 110.228 271.56C110.228 271.101 110.394 270.712 110.724 270.392C111.055 270.072 111.444 269.912 111.892 269.912C112.362 269.912 112.756 270.072 113.076 270.392C113.396 270.712 113.556 271.101 113.556 271.56C113.556 272.008 113.391 272.397 113.06 272.728C112.74 273.059 112.351 273.224 111.892 273.224ZM111.892 267.848C111.444 267.848 111.055 267.683 110.724 267.352C110.394 267.021 110.228 266.632 110.228 266.184C110.228 265.725 110.394 265.336 110.724 265.016C111.055 264.696 111.444 264.536 111.892 264.536C112.362 264.536 112.756 264.696 113.076 265.016C113.396 265.336 113.556 265.725 113.556 266.184C113.556 266.632 113.391 267.021 113.06 267.352C112.74 267.683 112.351 267.848 111.892 267.848Z" fill="#96B5CC"/>
<path d="M27.392 334.92H23.744L23.088 337H19.872L24.192 325.64H26.928L31.248 337H28.048L27.392 334.92ZM26.704 332.76L25.584 329.192H25.552L24.432 332.76H26.704ZM44.7246 325.64V337H41.7966V330.664L39.6206 335.752H37.2046L35.0286 330.68V337H32.1006V325.64H35.3646L38.4046 332.712L41.4446 325.64H44.7246ZM51.9919 337.256C50.7332 337.256 49.6719 337 48.8079 336.488C47.9545 335.965 47.3145 335.256 46.8879 334.36C46.4612 333.464 46.2479 332.451 46.2479 331.32C46.2479 330.189 46.4612 329.176 46.8879 328.28C47.3145 327.384 47.9545 326.68 48.8079 326.168C49.6719 325.645 50.7332 325.384 51.9919 325.384C53.2505 325.384 54.3065 325.645 55.1599 326.168C56.0239 326.68 56.6639 327.384 57.0799 328.28C57.5065 329.176 57.7199 330.189 57.7199 331.32C57.7199 332.451 57.5065 333.464 57.0799 334.36C56.6639 335.256 56.0239 335.965 55.1599 336.488C54.3065 337 53.2505 337.256 51.9919 337.256ZM51.9919 334.84C52.8879 334.84 53.5545 334.525 53.9919 333.896C54.4292 333.256 54.6479 332.397 54.6479 331.32C54.6479 330.243 54.4292 329.389 53.9919 328.76C53.5545 328.12 52.8879 327.8 51.9919 327.8C51.0959 327.8 50.4292 328.12 49.9919 328.76C49.5545 329.389 49.3359 330.243 49.3359 331.32C49.3359 332.397 49.5545 333.256 49.9919 333.896C50.4292 334.525 51.0959 334.84 51.9919 334.84ZM64.2645 337.256C62.5898 337.256 61.3312 336.877 60.4885 336.12C59.6565 335.352 59.2405 334.179 59.2405 332.6V325.64H62.3285V332.248C62.3285 333.069 62.4565 333.704 62.7125 334.152C62.9792 334.6 63.4965 334.824 64.2645 334.824C65.0432 334.824 65.5605 334.6 65.8165 334.152C66.0832 333.704 66.2165 333.069 66.2165 332.248V325.64H69.3045V332.6C69.3045 334.179 68.8832 335.352 68.0405 336.12C67.2085 336.877 65.9498 337.256 64.2645 337.256ZM80.9384 325.64V337H77.8984L74.1224 330.456V337H71.1944V325.64H74.2184L78.0104 332.296V325.64H80.9384ZM91.6986 328.184H88.4826V337H85.4266V328.184H82.1946V325.64H91.6986V328.184ZM93.2673 337.224C92.8193 337.224 92.4299 337.059 92.0993 336.728C91.7686 336.397 91.6033 336.008 91.6033 335.56C91.6033 335.101 91.7686 334.712 92.0993 334.392C92.4299 334.072 92.8193 333.912 93.2673 333.912C93.7366 333.912 94.1313 334.072 94.4513 334.392C94.7713 334.712 94.9313 335.101 94.9313 335.56C94.9313 336.008 94.7659 336.397 94.4353 336.728C94.1153 337.059 93.7259 337.224 93.2673 337.224ZM93.2673 331.848C92.8193 331.848 92.4299 331.683 92.0993 331.352C91.7686 331.021 91.6033 330.632 91.6033 330.184C91.6033 329.725 91.7686 329.336 92.0993 329.016C92.4299 328.696 92.8193 328.536 93.2673 328.536C93.7366 328.536 94.1313 328.696 94.4513 329.016C94.7713 329.336 94.9313 329.725 94.9313 330.184C94.9313 330.632 94.7659 331.021 94.4353 331.352C94.1153 331.683 93.7259 331.848 93.2673 331.848Z" fill="#96B5CC"/>
<path d="M137.471 229.35C138.701 229.35 139.641 229.66 140.291 230.28C140.941 230.9 141.266 231.735 141.266 232.785C141.266 233.875 140.921 234.72 140.231 235.32C139.551 235.91 138.596 236.205 137.366 236.205L135.026 236.19V240H132.881V229.35H137.471ZM137.141 234.495C137.801 234.495 138.311 234.355 138.671 234.075C139.031 233.785 139.211 233.35 139.211 232.77C139.211 232.17 139.041 231.74 138.701 231.48C138.361 231.21 137.841 231.075 137.141 231.075H135.026V234.495H137.141ZM147.509 240.24C146.369 240.24 145.404 240 144.614 239.52C143.834 239.03 143.249 238.365 142.859 237.525C142.469 236.685 142.274 235.735 142.274 234.675C142.274 233.615 142.469 232.665 142.859 231.825C143.249 230.985 143.834 230.325 144.614 229.845C145.404 229.355 146.369 229.11 147.509 229.11C148.649 229.11 149.609 229.355 150.389 229.845C151.179 230.325 151.764 230.985 152.144 231.825C152.534 232.665 152.729 233.615 152.729 234.675C152.729 235.735 152.534 236.685 152.144 237.525C151.764 238.365 151.179 239.03 150.389 239.52C149.609 240 148.649 240.24 147.509 240.24ZM147.509 238.5C148.529 238.5 149.299 238.155 149.819 237.465C150.339 236.775 150.599 235.845 150.599 234.675C150.599 233.505 150.339 232.575 149.819 231.885C149.299 231.195 148.529 230.85 147.509 230.85C146.489 230.85 145.719 231.195 145.199 231.885C144.679 232.575 144.419 233.505 144.419 234.675C144.419 235.845 144.679 236.775 145.199 237.465C145.719 238.155 146.489 238.5 147.509 238.5ZM159.081 240.24C157.941 240.24 156.976 240 156.186 239.52C155.406 239.03 154.821 238.365 154.431 237.525C154.041 236.685 153.846 235.735 153.846 234.675C153.846 233.615 154.041 232.665 154.431 231.825C154.821 230.985 155.406 230.325 156.186 229.845C156.976 229.355 157.941 229.11 159.081 229.11C160.221 229.11 161.181 229.355 161.961 229.845C162.751 230.325 163.336 230.985 163.716 231.825C164.106 232.665 164.301 233.615 164.301 234.675C164.301 235.735 164.106 236.685 163.716 237.525C163.336 238.365 162.751 239.03 161.961 239.52C161.181 240 160.221 240.24 159.081 240.24ZM159.081 238.5C160.101 238.5 160.871 238.155 161.391 237.465C161.911 236.775 162.171 235.845 162.171 234.675C162.171 233.505 161.911 232.575 161.391 231.885C160.871 231.195 160.101 230.85 159.081 230.85C158.061 230.85 157.291 231.195 156.771 231.885C156.251 232.575 155.991 233.505 155.991 234.675C155.991 235.845 156.251 236.775 156.771 237.465C157.291 238.155 158.061 238.5 159.081 238.5ZM172.951 238.215V240H165.781V229.35H167.926V238.215H172.951Z" fill="white"/>
<path d="M232.685 229.35V240H230.645V232.815L227.99 238.89H226.25L223.595 232.8V240H221.555V229.35H223.925L227.12 236.685L230.315 229.35H232.685ZM239.133 240.24C236.183 240.24 234.708 238.88 234.708 236.16V229.35H236.838V235.98C236.838 236.79 237.018 237.415 237.378 237.855C237.738 238.285 238.323 238.5 239.133 238.5C239.943 238.5 240.523 238.285 240.873 237.855C241.233 237.415 241.413 236.79 241.413 235.98V229.35H243.543V236.16C243.543 238.88 242.073 240.24 239.133 240.24ZM252.734 238.215V240H245.564V229.35H247.709V238.215H252.734ZM260.116 231.135H256.876V240H254.731V231.135H251.491V229.35H260.116V231.135ZM261.311 229.35H263.456V240H261.311V229.35Z" fill="white"/>
<path d="M209 179C222.807 179 234 168.031 234 154.5C234 140.969 222.807 130 209 130" stroke="url(#paint1_linear)" stroke-width="8"/>
<g filter="url(#filter9_d)">
<rect x="20" y="123" width="192" height="25" rx="2.47" fill="#335268"/>
</g>
<path d="M38.1436 141.24C37.0236 141.24 36.0736 141 35.2936 140.52C34.5236 140.03 33.9486 139.365 33.5686 138.525C33.1886 137.685 32.9986 136.735 32.9986 135.675C32.9986 134.615 33.1886 133.665 33.5686 132.825C33.9486 131.985 34.5236 131.325 35.2936 130.845C36.0736 130.355 37.0236 130.11 38.1436 130.11C38.9136 130.11 39.6286 130.25 40.2886 130.53C40.9486 130.81 41.4936 131.235 41.9236 131.805C42.3536 132.365 42.6086 133.055 42.6886 133.875H40.5886C40.5086 133.205 40.2486 132.7 39.8086 132.36C39.3786 132.02 38.8136 131.85 38.1136 131.85C37.1436 131.85 36.4036 132.195 35.8936 132.885C35.3936 133.575 35.1436 134.505 35.1436 135.675C35.1436 136.845 35.3936 137.775 35.8936 138.465C36.4036 139.155 37.1436 139.5 38.1136 139.5C38.8136 139.5 39.3786 139.33 39.8086 138.99C40.2486 138.65 40.5086 138.145 40.5886 137.475H42.6886C42.6086 138.295 42.3536 138.99 41.9236 139.56C41.4936 140.12 40.9486 140.54 40.2886 140.82C39.6286 141.1 38.9136 141.24 38.1436 141.24ZM52.9591 130.35V141H50.8141V136.425H46.4341V141H44.2891V130.35H46.4341V134.625H50.8141V130.35H52.9591ZM55.0118 130.35H57.1568V141H55.0118V130.35ZM66.8959 139.215V141H59.2159V130.35H66.8659V132.135H61.3609V134.7H66.4159V136.425H61.3609V139.215H66.8959ZM70.692 132.135V134.82H75.267V136.545H70.692V141H68.547V130.35H75.717V132.135H70.692ZM80.9263 141.24C80.1763 141.24 79.4663 141.12 78.7963 140.88C78.1363 140.64 77.5863 140.25 77.1463 139.71C76.7163 139.16 76.4963 138.45 76.4863 137.58H78.5863C78.6063 138.25 78.8313 138.76 79.2613 139.11C79.7013 139.45 80.2813 139.62 81.0013 139.62C81.6613 139.62 82.2013 139.495 82.6213 139.245C83.0413 138.995 83.2513 138.61 83.2513 138.09C83.2513 137.76 83.1513 137.495 82.9513 137.295C82.7613 137.095 82.4813 136.925 82.1113 136.785C81.7413 136.635 81.1663 136.45 80.3863 136.23C79.5163 135.99 78.8613 135.78 78.4213 135.6C77.9913 135.42 77.6163 135.14 77.2963 134.76C76.9763 134.38 76.8163 133.86 76.8163 133.2C76.8163 132.52 77.0013 131.95 77.3713 131.49C77.7413 131.03 78.2313 130.685 78.8413 130.455C79.4613 130.225 80.1363 130.11 80.8663 130.11C82.0663 130.11 83.0513 130.385 83.8213 130.935C84.6013 131.475 85.0213 132.31 85.0813 133.44H82.9813C82.9313 132.87 82.7163 132.445 82.3363 132.165C81.9663 131.875 81.4663 131.73 80.8363 131.73C80.2863 131.73 79.8213 131.85 79.4413 132.09C79.0713 132.32 78.8863 132.65 78.8863 133.08C78.8863 133.34 78.9713 133.555 79.1413 133.725C79.3213 133.895 79.5463 134.03 79.8163 134.13C80.0863 134.22 80.4713 134.33 80.9713 134.46L81.3313 134.55C82.2713 134.8 83.0263 135.065 83.5963 135.345C84.1763 135.615 84.6163 135.96 84.9163 136.38C85.2263 136.8 85.3813 137.33 85.3813 137.97C85.3813 139.09 84.9613 139.915 84.1213 140.445C83.2913 140.975 82.2263 141.24 80.9263 141.24Z" fill="white"/>
<path fill-rule="evenodd" clip-rule="evenodd" d="M197.431 139.957L197.431 139.956L204.205 133.181C204.491 132.896 204.491 132.594 204.205 132.308L203.945 132.048C203.675 131.763 203.358 131.747 203.072 132.033L196.994 138.127L190.916 132.033C190.631 131.747 190.313 131.763 190.043 132.048L189.783 132.308C189.513 132.594 189.513 132.911 189.783 133.181L196.558 139.956C196.852 140.25 197.146 140.242 197.431 139.957Z" fill="white"/>
<g filter="url(#filter10_d)">
<rect x="225" y="142" width="60" height="25" rx="2.47" fill="#335268"/>
</g>
<path d="M254.216 149.35L251.276 160H249.176L247.151 152.245L245.111 160H242.996L240.056 149.35H242.276L244.046 157.09H244.076L246.131 149.35H248.156L250.211 157.09H250.241L251.996 149.35H254.216ZM255.328 149.35H257.473V160H255.328V149.35ZM268.202 149.35V160H266.027L261.572 152.635V160H259.532V149.35H261.707L266.162 156.82V149.35H268.202Z" fill="white"/>
<g filter="url(#filter11_d)">
<rect x="20" y="160" width="192" height="25" rx="2.47" fill="#335268"/>
</g>
<path d="M33.0262 169.135V171.82H37.6012V173.545H33.0262V178H30.8812V167.35H38.0512V169.135H33.0262ZM44.3923 175.495H40.5073L39.6673 178H37.4023L41.4523 167.35H43.4473L47.4973 178H45.2323L44.3923 175.495ZM43.8373 173.89L42.4573 169.795H42.4273L41.0473 173.89H43.8373ZM55.6 176.215V178H48.43V167.35H50.575V176.215H55.6ZM61.386 178.24C60.266 178.24 59.316 178 58.536 177.52C57.766 177.03 57.191 176.365 56.811 175.525C56.431 174.685 56.241 173.735 56.241 172.675C56.241 171.615 56.431 170.665 56.811 169.825C57.191 168.985 57.766 168.325 58.536 167.845C59.316 167.355 60.266 167.11 61.386 167.11C62.156 167.11 62.871 167.25 63.531 167.53C64.191 167.81 64.736 168.235 65.166 168.805C65.596 169.365 65.851 170.055 65.931 170.875H63.831C63.751 170.205 63.491 169.7 63.051 169.36C62.621 169.02 62.056 168.85 61.356 168.85C60.386 168.85 59.646 169.195 59.136 169.885C58.636 170.575 58.386 171.505 58.386 172.675C58.386 173.845 58.636 174.775 59.136 175.465C59.646 176.155 60.386 176.5 61.356 176.5C62.056 176.5 62.621 176.33 63.051 175.99C63.491 175.65 63.751 175.145 63.831 174.475H65.931C65.851 175.295 65.596 175.99 65.166 176.56C64.736 177.12 64.191 177.54 63.531 177.82C62.871 178.1 62.156 178.24 61.386 178.24ZM72.2866 178.24C71.1466 178.24 70.1816 178 69.3916 177.52C68.6116 177.03 68.0266 176.365 67.6366 175.525C67.2466 174.685 67.0516 173.735 67.0516 172.675C67.0516 171.615 67.2466 170.665 67.6366 169.825C68.0266 168.985 68.6116 168.325 69.3916 167.845C70.1816 167.355 71.1466 167.11 72.2866 167.11C73.4266 167.11 74.3866 167.355 75.1666 167.845C75.9566 168.325 76.5416 168.985 76.9216 169.825C77.3116 170.665 77.5066 171.615 77.5066 172.675C77.5066 173.735 77.3116 174.685 76.9216 175.525C76.5416 176.365 75.9566 177.03 75.1666 177.52C74.3866 178 73.4266 178.24 72.2866 178.24ZM72.2866 176.5C73.3066 176.5 74.0766 176.155 74.5966 175.465C75.1166 174.775 75.3766 173.845 75.3766 172.675C75.3766 171.505 75.1166 170.575 74.5966 169.885C74.0766 169.195 73.3066 168.85 72.2866 168.85C71.2666 168.85 70.4966 169.195 69.9766 169.885C69.4566 170.575 69.1966 171.505 69.1966 172.675C69.1966 173.845 69.4566 174.775 69.9766 175.465C70.4966 176.155 71.2666 176.5 72.2866 176.5ZM87.6567 167.35V178H85.4817L81.0267 170.635V178H78.9867V167.35H81.1617L85.6167 174.82V167.35H87.6567ZM93.534 178.24C92.784 178.24 92.074 178.12 91.404 177.88C90.744 177.64 90.194 177.25 89.754 176.71C89.324 176.16 89.104 175.45 89.094 174.58H91.194C91.214 175.25 91.439 175.76 91.869 176.11C92.309 176.45 92.889 176.62 93.609 176.62C94.269 176.62 94.809 176.495 95.229 176.245C95.649 175.995 95.859 175.61 95.859 175.09C95.859 174.76 95.759 174.495 95.559 174.295C95.369 174.095 95.089 173.925 94.719 173.785C94.349 173.635 93.774 173.45 92.994 173.23C92.124 172.99 91.469 172.78 91.029 172.6C90.599 172.42 90.224 172.14 89.904 171.76C89.584 171.38 89.424 170.86 89.424 170.2C89.424 169.52 89.609 168.95 89.979 168.49C90.349 168.03 90.839 167.685 91.449 167.455C92.069 167.225 92.744 167.11 93.474 167.11C94.674 167.11 95.659 167.385 96.429 167.935C97.209 168.475 97.629 169.31 97.689 170.44H95.589C95.539 169.87 95.324 169.445 94.944 169.165C94.574 168.875 94.074 168.73 93.444 168.73C92.894 168.73 92.429 168.85 92.049 169.09C91.679 169.32 91.494 169.65 91.494 170.08C91.494 170.34 91.579 170.555 91.749 170.725C91.929 170.895 92.154 171.03 92.424 171.13C92.694 171.22 93.079 171.33 93.579 171.46L93.939 171.55C94.879 171.8 95.634 172.065 96.204 172.345C96.784 172.615 97.224 172.96 97.524 173.38C97.834 173.8 97.989 174.33 97.989 174.97C97.989 176.09 97.569 176.915 96.729 177.445C95.899 177.975 94.834 178.24 93.534 178.24Z" fill="white"/>
<path fill-rule="evenodd" clip-rule="evenodd" d="M197.431 176.957L197.431 176.956L204.205 170.181C204.491 169.896 204.491 169.594 204.205 169.308L203.945 169.048C203.675 168.763 203.358 168.747 203.072 169.033L196.994 175.127L190.916 169.033C190.631 168.747 190.313 168.763 190.043 169.048L189.783 169.308C189.513 169.594 189.513 169.911 189.783 170.181L196.558 176.956C196.852 177.25 197.146 177.242 197.431 176.957Z" fill="white"/>
<defs>
<filter id="filter0_d" x="165.389" y="14.3888" width="125.222" height="36.2224" filterUnits="userSpaceOnUse" color-interpolation-filters="sRGB">
<feFlood flood-opacity="0" result="BackgroundImageFix"/>
<feColorMatrix in="SourceAlpha" type="matrix" values="0 0 0 0 0 0 0 0 0 0 0 0 0 0 0 0 0 0 127 0" result="hardAlpha"/>
<feMorphology radius="0.935197" operator="dilate" in="SourceAlpha" result="effect1_dropShadow"/>
<feOffset/>
<feGaussianBlur stdDeviation="2.33799"/>
<feColorMatrix type="matrix" values="0 0 0 0 0 0 0 0 0 0 0 0 0 0 0 0 0 0 0.25 0"/>
<feBlend mode="normal" in2="BackgroundImageFix" result="effect1_dropShadow"/>
<feBlend mode="normal" in="SourceGraphic" in2="effect1_dropShadow" result="shape"/>
</filter>
<filter id="filter1_d" x="17.5273" y="286" width="265.945" height="29.9455" filterUnits="userSpaceOnUse" color-interpolation-filters="sRGB">
<feFlood flood-opacity="0" result="BackgroundImageFix"/>
<feColorMatrix in="SourceAlpha" type="matrix" values="0 0 0 0 0 0 0 0 0 0 0 0 0 0 0 0 0 0 127 0" result="hardAlpha"/>
<feOffset dy="2.47273"/>
<feGaussianBlur stdDeviation="1.23636"/>
<feColorMatrix type="matrix" values="0 0 0 0 0 0 0 0 0 0 0 0 0 0 0 0 0 0 0.25 0"/>
<feBlend mode="normal" in2="BackgroundImageFix" result="effect1_dropShadow"/>
<feBlend mode="normal" in="SourceGraphic" in2="effect1_dropShadow" result="shape"/>
</filter>
<filter id="filter2_d" x="17.5273" y="349" width="270.945" height="29.9455" filterUnits="userSpaceOnUse" color-interpolation-filters="sRGB">
<feFlood flood-opacity="0" result="BackgroundImageFix"/>
<feColorMatrix in="SourceAlpha" type="matrix" values="0 0 0 0 0 0 0 0 0 0 0 0 0 0 0 0 0 0 127 0" result="hardAlpha"/>
<feOffset dy="2.47273"/>
<feGaussianBlur stdDeviation="1.23636"/>
<feColorMatrix type="matrix" values="0 0 0 0 0 0 0 0 0 0 0 0 0 0 0 0 0 0 0.25 0"/>
<feBlend mode="normal" in2="BackgroundImageFix" result="effect1_dropShadow"/>
<feBlend mode="normal" in="SourceGraphic" in2="effect1_dropShadow" result="shape"/>
</filter>
<filter id="filter3_d" x="112.527" y="222" width="80.9455" height="29.9455" filterUnits="userSpaceOnUse" color-interpolation-filters="sRGB">
<feFlood flood-opacity="0" result="BackgroundImageFix"/>
<feColorMatrix in="SourceAlpha" type="matrix" values="0 0 0 0 0 0 0 0 0 0 0 0 0 0 0 0 0 0 127 0" result="hardAlpha"/>
<feOffset dy="2.47273"/>
<feGaussianBlur stdDeviation="1.23636"/>
<feColorMatrix type="matrix" values="0 0 0 0 0 0 0 0 0 0 0 0 0 0 0 0 0 0 0.25 0"/>
<feBlend mode="normal" in2="BackgroundImageFix" result="effect1_dropShadow"/>
<feBlend mode="normal" in="SourceGraphic" in2="effect1_dropShadow" result="shape"/>
</filter>
<filter id="filter4_d" x="202.527" y="222" width="80.9455" height="29.9455" filterUnits="userSpaceOnUse" color-interpolation-filters="sRGB">
<feFlood flood-opacity="0" result="BackgroundImageFix"/>
<feColorMatrix in="SourceAlpha" type="matrix" values="0 0 0 0 0 0 0 0 0 0 0 0 0 0 0 0 0 0 127 0" result="hardAlpha"/>
<feOffset dy="2.47273"/>
<feGaussianBlur stdDeviation="1.23636"/>
<feColorMatrix type="matrix" values="0 0 0 0 0 0 0 0 0 0 0 0 0 0 0 0 0 0 0.25 0"/>
<feBlend mode="normal" in2="BackgroundImageFix" result="effect1_dropShadow"/>
<feBlend mode="normal" in="SourceGraphic" in2="effect1_dropShadow" result="shape"/>
</filter>
<filter id="filter5_i" x="20" y="222" width="76" height="27.4727" filterUnits="userSpaceOnUse" color-interpolation-filters="sRGB">
<feFlood flood-opacity="0" result="BackgroundImageFix"/>
<feBlend mode="normal" in="SourceGraphic" in2="BackgroundImageFix" result="shape"/>
<feColorMatrix in="SourceAlpha" type="matrix" values="0 0 0 0 0 0 0 0 0 0 0 0 0 0 0 0 0 0 127 0" result="hardAlpha"/>
<feOffset dy="2.47273"/>
<feGaussianBlur stdDeviation="1.23636"/>
<feComposite in2="hardAlpha" operator="arithmetic" k2="-1" k3="1"/>
<feColorMatrix type="matrix" values="0 0 0 0 0 0 0 0 0 0 0 0 0 0 0 0 0 0 0.25 0"/>
<feBlend mode="normal" in2="shape" result="effect1_innerShadow"/>
</filter>
<filter id="filter6_i" x="20" y="86" width="126" height="27.4727" filterUnits="userSpaceOnUse" color-interpolation-filters="sRGB">
<feFlood flood-opacity="0" result="BackgroundImageFix"/>
<feBlend mode="normal" in="SourceGraphic" in2="BackgroundImageFix" result="shape"/>
<feColorMatrix in="SourceAlpha" type="matrix" values="0 0 0 0 0 0 0 0 0 0 0 0 0 0 0 0 0 0 127 0" result="hardAlpha"/>
<feOffset dy="2.47273"/>
<feGaussianBlur stdDeviation="1.23636"/>
<feComposite in2="hardAlpha" operator="arithmetic" k2="-1" k3="1"/>
<feColorMatrix type="matrix" values="0 0 0 0 0 0 0 0 0 0 0 0 0 0 0 0 0 0 0.25 0"/>
<feBlend mode="normal" in2="shape" result="effect1_innerShadow"/>
</filter>
<filter id="filter7_d" x="156.527" y="86" width="130.945" height="29.9455" filterUnits="userSpaceOnUse" color-interpolation-filters="sRGB">
<feFlood flood-opacity="0" result="BackgroundImageFix"/>
<feColorMatrix in="SourceAlpha" type="matrix" values="0 0 0 0 0 0 0 0 0 0 0 0 0 0 0 0 0 0 127 0" result="hardAlpha"/>
<feOffset dy="2.47273"/>
<feGaussianBlur stdDeviation="1.23636"/>
<feColorMatrix type="matrix" values="0 0 0 0 0 0 0 0 0 0 0 0 0 0 0 0 0 0 0.25 0"/>
<feBlend mode="normal" in2="BackgroundImageFix" result="effect1_dropShadow"/>
<feBlend mode="normal" in="SourceGraphic" in2="effect1_dropShadow" result="shape"/>
</filter>
<filter id="filter8_d" x="14.3888" y="383.389" width="277.222" height="42.2224" filterUnits="userSpaceOnUse" color-interpolation-filters="sRGB">
<feFlood flood-opacity="0" result="BackgroundImageFix"/>
<feColorMatrix in="SourceAlpha" type="matrix" values="0 0 0 0 0 0 0 0 0 0 0 0 0 0 0 0 0 0 127 0" result="hardAlpha"/>
<feMorphology radius="0.935197" operator="dilate" in="SourceAlpha" result="effect1_dropShadow"/>
<feOffset/>
<feGaussianBlur stdDeviation="2.33799"/>
<feColorMatrix type="matrix" values="0 0 0 0 0 0 0 0 0 0 0 0 0 0 0 0 0 0 0.25 0"/>
<feBlend mode="normal" in2="BackgroundImageFix" result="effect1_dropShadow"/>
<feBlend mode="normal" in="SourceGraphic" in2="effect1_dropShadow" result="shape"/>
</filter>
<filter id="filter9_d" x="17.5273" y="123" width="196.945" height="29.9455" filterUnits="userSpaceOnUse" color-interpolation-filters="sRGB">
<feFlood flood-opacity="0" result="BackgroundImageFix"/>
<feColorMatrix in="SourceAlpha" type="matrix" values="0 0 0 0 0 0 0 0 0 0 0 0 0 0 0 0 0 0 127 0" result="hardAlpha"/>
<feOffset dy="2.47273"/>
<feGaussianBlur stdDeviation="1.23636"/>
<feColorMatrix type="matrix" values="0 0 0 0 0 0 0 0 0 0 0 0 0 0 0 0 0 0 0.25 0"/>
<feBlend mode="normal" in2="BackgroundImageFix" result="effect1_dropShadow"/>
<feBlend mode="normal" in="SourceGraphic" in2="effect1_dropShadow" result="shape"/>
</filter>
<filter id="filter10_d" x="222.527" y="142" width="64.9455" height="29.9455" filterUnits="userSpaceOnUse" color-interpolation-filters="sRGB">
<feFlood flood-opacity="0" result="BackgroundImageFix"/>
<feColorMatrix in="SourceAlpha" type="matrix" values="0 0 0 0 0 0 0 0 0 0 0 0 0 0 0 0 0 0 127 0" result="hardAlpha"/>
<feOffset dy="2.47273"/>
<feGaussianBlur stdDeviation="1.23636"/>
<feColorMatrix type="matrix" values="0 0 0 0 0 0 0 0 0 0 0 0 0 0 0 0 0 0 0.25 0"/>
<feBlend mode="normal" in2="BackgroundImageFix" result="effect1_dropShadow"/>
<feBlend mode="normal" in="SourceGraphic" in2="effect1_dropShadow" result="shape"/>
</filter>
<filter id="filter11_d" x="17.5273" y="160" width="196.945" height="29.9455" filterUnits="userSpaceOnUse" color-interpolation-filters="sRGB">
<feFlood flood-opacity="0" result="BackgroundImageFix"/>
<feColorMatrix in="SourceAlpha" type="matrix" values="0 0 0 0 0 0 0 0 0 0 0 0 0 0 0 0 0 0 127 0" result="hardAlpha"/>
<feOffset dy="2.47273"/>
<feGaussianBlur stdDeviation="1.23636"/>
<feColorMatrix type="matrix" values="0 0 0 0 0 0 0 0 0 0 0 0 0 0 0 0 0 0 0.25 0"/>
<feBlend mode="normal" in2="BackgroundImageFix" result="effect1_dropShadow"/>
<feBlend mode="normal" in="SourceGraphic" in2="effect1_dropShadow" result="shape"/>
</filter>
<linearGradient id="paint0_linear" x1="55" y1="42" x2="59.0832" y2="11.7687" gradientUnits="userSpaceOnUse">
<stop stop-color="#75F73A"/>
<stop offset="1" stop-color="#45FAFA"/>
</linearGradient>
<linearGradient id="paint1_linear" x1="221.5" y1="130" x2="221.5" y2="179" gradientUnits="userSpaceOnUse">
<stop stop-color="#18FF59"/>
<stop offset="1" stop-color="#00FFE0"/>
</linearGradient>
</defs>
</svg>
