<svg width="79" height="15" viewBox="0 0 79 15" fill="none" xmlns="http://www.w3.org/2000/svg">
<path d="M12.0125 3.74448H8.26885V14.0069H4.71147V3.74448H0.949219V0.783107H12.0125V3.74448Z" fill="#96B5CC"/>
<path d="M30.1874 0.783107L26.5369 14.0069H23.1285L21.2474 5.96086L19.3663 14.0069H15.9579L12.3074 0.783107H15.9579L17.5969 9.18298H17.6342L19.6829 0.783107H22.8119L24.842 9.18298H24.8793L26.5369 0.783107H30.1874Z" fill="#96B5CC"/>
<path d="M41.5692 11.0455V14.0069H31.2509V0.783107H41.5319V3.74448H34.8083V5.88636H40.9732V8.69873H34.8083V11.0455H41.5692Z" fill="#96B5CC"/>
<path d="M53.81 11.0455V14.0069H43.4918V0.783107H53.7728V3.74448H47.0492V5.88636H53.214V8.69873H47.0492V11.0455H53.81Z" fill="#96B5CC"/>
<path d="M66.0322 3.74448H62.2886V14.0069H58.7312V3.74448H54.969V0.783107H66.0322V3.74448Z" fill="#96B5CC"/>
<path d="M72.3244 14.3049C70.8593 14.3049 69.5617 13.9696 68.4318 13.2991C67.3019 12.6286 66.7245 11.4366 66.6997 9.72311H70.1453C70.1826 10.3936 70.4061 10.9027 70.8158 11.2504C71.2256 11.5856 71.7843 11.7532 72.4921 11.7532C73.1253 11.7532 73.6406 11.6353 74.0379 11.3994C74.4477 11.1634 74.6526 10.8096 74.6526 10.3377C74.6526 10.0273 74.5594 9.77277 74.3732 9.57411C74.1869 9.36302 73.8827 9.18298 73.4606 9.03398C73.0384 8.87257 72.3989 8.6739 71.5422 8.43798C70.524 8.17723 69.7232 7.9289 69.1396 7.69298C68.556 7.44465 68.0655 7.06594 67.6682 6.55686C67.2709 6.04777 67.0722 5.35865 67.0722 4.48948C67.0722 3.6079 67.3205 2.86911 67.8172 2.27311C68.3139 1.66469 68.9657 1.21769 69.7728 0.932107C70.5923 0.634107 71.4739 0.485107 72.4176 0.485107C73.9697 0.485107 75.2486 0.820357 76.2543 1.49086C77.2601 2.14894 77.7878 3.18573 77.8374 4.60123H74.4104C74.3608 4.07973 74.1435 3.68861 73.7586 3.42786C73.3861 3.16711 72.9142 3.03673 72.3431 3.03673C71.8464 3.03673 71.4118 3.14848 71.0393 3.37198C70.6668 3.58307 70.4806 3.88107 70.4806 4.26598C70.4806 4.52673 70.5737 4.74402 70.7599 4.91786C70.9462 5.07927 71.1945 5.20965 71.5049 5.30898C71.8278 5.40832 72.3058 5.53869 72.9391 5.70011C74.0938 5.97327 75.0437 6.27748 75.7887 6.61273C76.5461 6.94798 77.1359 7.40119 77.5581 7.97236C77.9927 8.53111 78.2099 9.25127 78.2099 10.1329C78.2099 11.5856 77.6512 12.6472 76.5337 13.3177C75.4286 13.9758 74.0255 14.3049 72.3244 14.3049Z" fill="#96B5CC"/>
</svg>
