<svg width="161" height="74" viewBox="0 0 161 74" fill="none" xmlns="http://www.w3.org/2000/svg">
<path d="M87.5424 30.6314C87.5424 33.1322 86.7625 35.0818 85.2028 36.4802C83.6432 37.8516 81.3305 38.5373 78.265 38.5373H72.2145V50.9609H70.3994V22.6448H78.265C81.3843 22.6448 83.7104 23.3708 85.2432 24.8229C86.776 26.2482 87.5424 28.1843 87.5424 30.6314ZM78.265 36.9239C83.2398 36.9239 85.7272 34.8264 85.7272 30.6314C85.7272 28.5608 85.1356 26.9877 83.9524 25.912C82.7692 24.8095 80.8734 24.2582 78.265 24.2582H72.2145V36.9239H78.265ZM107.706 50.9609L100.446 38.9004H100.285H94.2341V50.9609H92.419V22.6448H100.204C103.35 22.6448 105.703 23.3843 107.263 24.8633C108.849 26.3423 109.643 28.3053 109.643 30.7524C109.643 32.9306 109.024 34.7323 107.787 36.1575C106.577 37.5558 104.802 38.4163 102.463 38.739L109.885 50.9609H107.706ZM94.2341 37.3676H100.285C102.785 37.3676 104.654 36.7625 105.891 35.5524C107.128 34.3423 107.747 32.7423 107.747 30.7524C107.747 26.423 105.232 24.2582 100.204 24.2582H94.2341V37.3676ZM127.655 51.2836C125.046 51.2836 122.693 50.6786 120.596 49.4685C118.498 48.2315 116.858 46.5105 115.675 44.3054C114.492 42.1004 113.9 39.613 113.9 36.8432C113.9 34.0465 114.492 31.5591 115.675 29.381C116.858 27.1759 118.498 25.4683 120.596 24.2582C122.693 23.0213 125.046 22.4028 127.655 22.4028C130.263 22.4028 132.616 23.0213 134.714 24.2582C136.811 25.4683 138.451 27.1759 139.635 29.381C140.818 31.5591 141.409 34.0465 141.409 36.8432C141.409 39.613 140.818 42.1004 139.635 44.3054C138.451 46.5105 136.811 48.2315 134.714 49.4685C132.616 50.6786 130.263 51.2836 127.655 51.2836ZM127.655 49.6702C129.887 49.6702 131.903 49.1458 133.705 48.0971C135.507 47.0483 136.919 45.5559 137.94 43.6197C138.989 41.6836 139.514 39.4247 139.514 36.8432C139.514 34.2348 138.989 31.9625 137.94 30.0263C136.919 28.0902 135.507 26.5977 133.705 25.549C131.903 24.5003 129.887 23.9759 127.655 23.9759C125.423 23.9759 123.406 24.5003 121.604 25.549C119.803 26.5977 118.377 28.0902 117.329 30.0263C116.28 31.9625 115.755 34.2348 115.755 36.8432C115.755 39.4247 116.28 41.6836 117.329 43.6197C118.377 45.5559 119.803 47.0483 121.604 48.0971C123.406 49.1458 125.423 49.6702 127.655 49.6702Z" fill="url(#paint0_linear)"/>
<path fill-rule="evenodd" clip-rule="evenodd" d="M39.549 10.9781C45.2448 12.3791 49.6545 10.1054 51.9741 8.45177H53.7426V54.2248C53.7426 55.3732 53.467 57.6699 51.5837 59.9436C49.264 62.7456 45.3367 64.5829 39.8935 65.3638C35.5757 65.9839 32.3604 67.3389 30.1096 69.5208C28.5019 71.0596 26.8713 73.8845 26.8713 73.8845C26.8713 73.8845 25.2866 71.1285 23.633 69.5208C21.3822 67.3619 18.1898 65.9839 13.849 65.3638C8.40589 64.5829 4.47855 62.7685 2.15889 59.9436C0.275603 57.6699 0 55.3732 0 54.2248V8.45177H1.76845C4.08811 10.1284 8.49776 12.3791 14.1936 10.9781C24.0464 8.56661 26.8713 0.0688477 26.8713 0.0688477C26.8713 0.0688477 29.6962 8.54364 39.549 10.9781ZM39.1586 12.5399C46.7377 14.4462 52.1349 10.2432 52.1349 10.2432V54.2249C52.1349 55.7177 51.5148 62.0566 39.6639 63.7791C34.9786 64.4452 31.4876 65.961 28.9842 68.3725C28.0885 69.2223 27.3995 70.118 26.8713 70.9218C26.3431 70.118 25.654 69.2452 24.7583 68.3725C22.2549 65.961 18.764 64.4452 14.0787 63.7791C2.22779 62.0566 1.60768 55.7177 1.60768 54.2249V10.2432C1.60768 10.2432 7.00491 14.4462 14.584 12.5399C23.4263 10.3351 26.8713 3.69767 26.8713 3.69767C26.8713 3.69767 30.3163 10.3351 39.1586 12.5399Z" fill="url(#paint1_linear)"/>
<path fill-rule="evenodd" clip-rule="evenodd" d="M39.2275 60.8623C30.3163 62.2404 26.8713 66.4663 26.8713 66.4663C26.8713 66.4663 23.4263 62.2174 14.4921 60.8394C4.48072 59.3095 4.5626 54.6724 4.57013 54.246L4.57041 54.2249V31.1891H49.1492V54.2479L49.1495 54.2671C49.1569 54.6683 49.2433 59.3093 39.2275 60.8623ZM16.4902 37.0686V48.0238L11.7361 33.4398H6.6604V36.2877L8.22215 37.0456V52.8239L6.68337 53.421V55.9015L13.3897 57.601V54.7072L11.8509 53.5359V44.1194L16.6969 58.4049L20.0501 59.4154V37.0686L21.3592 36.2877V33.4398H15.1122V36.2877L16.4902 37.0686ZM27.9967 58.0374L29.3287 59.6451V62.493L22.6683 60.0125V57.601L24.1382 57.0039V37.0916L22.6683 36.3566V33.4858H34.2207V39.2734H31.6714L30.8905 36.9078H27.9507V43.5912H30.1556L31.0283 42.328H32.7968V48.2305H31.0283L30.2015 47.0362H27.9507V58.0374H27.9967ZM35.3461 56.2V59.0479L47.0822 55.9015V48.598H44.3721L43.8209 52.9617L40.95 53.7426V37.0686L42.2591 36.3337V33.4628H35.5987V36.3337L36.9997 37.0686V54.845L35.3461 56.2Z" fill="url(#paint2_linear)"/>
<path fill-rule="evenodd" clip-rule="evenodd" d="M32.4293 12.2413C32.4293 12.2413 31.3958 12.7925 29.9259 14.2165C30.2474 14.4002 30.6149 14.6529 30.8446 14.8366C30.7329 14.9371 30.6267 15.0375 30.5233 15.1354L30.5233 15.1354C30.4139 15.2388 30.3077 15.3393 30.2015 15.4337C29.2598 14.6529 28.2723 14.2624 27.4914 14.0787C27.744 13.8949 28.0196 13.7112 28.2723 13.5504C28.6857 13.6653 29.0761 13.826 29.0761 13.826C30.7297 12.5629 32.1537 12.0346 32.1537 12.0346C32.1537 12.0346 31.9929 11.9428 31.5565 11.9657C25.0799 12.0576 19.1314 16.8806 20.2568 25.1487C20.3717 26.0215 20.7162 27.6292 21.1525 28.3182C21.2903 26.9401 21.8186 23.9085 23.3574 20.6472C22.8291 20.4635 22.3927 20.3716 22.3927 20.3716C22.5535 20.0501 22.7602 19.6137 22.7602 19.6137C23.8856 19.8204 24.8961 20.3027 25.7689 20.9917C25.6248 21.2319 25.5142 21.4051 25.4215 21.5502C25.3812 21.6133 25.3443 21.671 25.3095 21.7267C25.011 21.497 24.6894 21.2903 24.3679 21.0836L24.3679 21.0836C22.6454 24.0923 21.8415 26.9401 21.52 28.433C21.543 28.5249 21.7267 28.5708 21.8875 28.5478C28.9842 27.6292 32.2915 24.0234 33.302 20.096C33.9681 17.5237 33.7384 14.8366 32.8657 12.6318C32.845 12.6028 32.8243 12.5708 32.803 12.5381L32.803 12.538L32.803 12.538L32.803 12.538C32.7064 12.3888 32.5987 12.2225 32.4293 12.2413ZM5.74173 18.5802L3.72064 17.0644H6.1781L6.98194 14.7217L7.78579 17.0644H10.2432L8.22216 18.5802L8.9571 20.9458L6.95898 19.5448L4.96086 20.9458L5.74173 18.5802ZM3.72064 24.942L5.74173 26.4578L4.96086 28.8234L6.95898 27.4225L8.9571 28.8234L8.22216 26.4578L10.2432 24.942H7.78579L6.98194 22.5994L6.1781 24.942H3.72064ZM12.471 24.942L14.4921 26.4578L13.7113 28.8234L15.7094 27.4225L17.7075 28.8234L16.9726 26.4578L18.9936 24.942H16.5362L15.7323 22.5994L14.9285 24.942H12.471ZM12.471 17.0644L14.4921 18.5802L13.7113 20.9458L15.7094 19.5448L17.7075 20.9458L16.9726 18.5802L18.9936 17.0644H16.5362L15.7323 14.7217L14.9285 17.0644H12.471ZM48.7358 28.8464L46.7377 27.4454L44.7396 28.8464L45.4745 26.4808L43.4534 24.965H45.9338L46.7377 22.6224L47.5415 24.965H49.999L47.9779 26.4808L48.7358 28.8464ZM38.0102 27.4454L40.0084 28.8464L39.2275 26.4808L41.2486 24.965H38.7911L37.9873 22.6224L37.1834 24.965H34.726L36.7471 26.4808L36.0121 28.8464L38.0102 27.4454ZM48.7358 20.9458L46.7377 19.5448L44.7396 20.9458L45.4745 18.5802L43.4534 17.0644H45.9338L46.7377 14.7217L47.5415 17.0644H49.999L47.9779 18.5802L48.7358 20.9458ZM38.0102 19.5448L40.0084 20.9458L39.2275 18.5802L41.2486 17.0644H38.7911L37.9873 14.7217L37.1834 17.0644H34.726L36.7471 18.5802L36.0121 20.9458L38.0102 19.5448ZM23.2655 18.6032C24.322 18.8099 25.4014 19.2922 26.3201 20.0501C26.4809 19.8205 26.6646 19.5449 26.8483 19.2692C26.1134 18.6491 25.0569 18.052 23.7708 17.7994C23.587 18.075 23.2655 18.6032 23.2655 18.6032ZM27.4914 18.4195C26.6416 17.7075 25.5851 17.1563 24.4138 16.9266C24.5976 16.6969 24.8043 16.4443 25.011 16.2146C25.9067 16.3754 27.055 16.8577 28.0656 17.6845C27.8589 17.9372 27.6751 18.1668 27.4914 18.4195ZM25.8378 15.4108C26.8943 15.6405 27.9048 16.1228 28.8005 16.8577C28.9842 16.628 29.1909 16.4213 29.4436 16.1917C28.8235 15.6864 27.9278 15.0893 26.5957 14.7677C26.5562 14.7993 26.5153 14.8317 26.4734 14.8648C26.2718 15.024 26.0469 15.2016 25.8378 15.4108Z" fill="url(#paint3_linear)"/>
<defs>
<linearGradient id="paint0_linear" x1="67.0918" y1="60.2302" x2="105.059" y2="-15.1974" gradientUnits="userSpaceOnUse">
<stop stop-color="#E47AFF"/>
<stop offset="1" stop-color="#45FAFA"/>
</linearGradient>
<linearGradient id="paint1_linear" x1="-2.38997e-07" y1="73.8845" x2="70.2481" y2="22.7393" gradientUnits="userSpaceOnUse">
<stop stop-color="#E47AFF"/>
<stop offset="1" stop-color="#45FAFA"/>
</linearGradient>
<linearGradient id="paint2_linear" x1="4.5695" y1="66.4663" x2="38.9019" y2="23.0796" gradientUnits="userSpaceOnUse">
<stop stop-color="#E47AFF"/>
<stop offset="1" stop-color="#45FAFA"/>
</linearGradient>
<linearGradient id="paint3_linear" x1="3.72064" y1="28.8464" x2="14.5936" y2="-0.955384" gradientUnits="userSpaceOnUse">
<stop stop-color="#E47AFF"/>
<stop offset="1" stop-color="#45FAFA"/>
</linearGradient>
</defs>
</svg>
