<svg width="1538" height="313" viewBox="0 0 1538 313" fill="none" xmlns="http://www.w3.org/2000/svg">
<path d="M1501.78 310H1248V232.092V150H1501.78L1532.28 219.901C1536.57 229.739 1536.57 229.739 1532.28 239.642L1501.78 310Z" fill="#193347"/>
<path d="M1501.78 310H1248V232.092V150H1501.78L1532.28 219.901C1536.57 229.739 1536.57 229.739 1532.28 239.642L1501.78 310Z" fill="url(#paint0_linear)"/>
<path d="M1501.78 310H1248V232.092V150H1501.78L1532.28 219.901C1536.57 229.739 1536.57 229.739 1532.28 239.642L1501.78 310Z" stroke="url(#paint1_linear)" stroke-width="5"/>
<path d="M1335.63 197.785C1338.78 197.785 1341.27 198.289 1343.09 199.298C1344.94 200.283 1346.25 201.735 1347.04 203.655C1347.83 205.551 1348.22 207.963 1348.22 210.892C1348.22 213.822 1347.83 216.246 1347.04 218.166C1346.25 220.062 1344.94 221.514 1343.09 222.523C1341.27 223.508 1338.78 224 1335.63 224H1326.66V197.785H1335.63ZM1335.85 220.234C1337.45 220.234 1338.81 220 1339.91 219.532C1341.05 219.065 1341.94 218.154 1342.61 216.8C1343.3 215.422 1343.64 213.452 1343.64 210.892C1343.64 208.332 1343.3 206.375 1342.61 205.022C1341.94 203.643 1341.05 202.72 1339.91 202.252C1338.78 201.785 1337.38 201.551 1335.7 201.551H1331.27V220.234H1335.85ZM1353.37 197.785H1358.02L1355.69 208.123H1352.3L1353.37 197.785ZM1377.65 217.317H1367.68L1365.4 224H1360.48L1370.45 197.785H1374.85L1384.82 224H1379.94L1377.65 217.317ZM1376.4 213.735L1372.71 202.991H1372.63L1368.94 213.735H1376.4ZM1397.28 204.726C1399.05 204.726 1400.49 205.231 1401.6 206.24C1402.73 207.225 1403.3 208.677 1403.3 210.597V224H1399.09V211.409C1399.09 209.268 1398.05 208.197 1395.99 208.197C1395.3 208.197 1394.57 208.369 1393.81 208.714C1393.05 209.034 1392.38 209.649 1391.81 210.56C1391.25 211.446 1390.97 212.677 1390.97 214.252V224H1386.76V205.169H1390.49L1390.82 208.049C1391.58 206.966 1392.53 206.142 1393.66 205.575C1394.79 205.009 1396 204.726 1397.28 204.726ZM1424.65 197.046V224H1420.92L1420.55 221.194C1419.22 223.36 1417.29 224.443 1414.76 224.443C1413.16 224.443 1411.75 224.037 1410.55 223.225C1409.37 222.412 1408.45 221.268 1407.81 219.791C1407.17 218.289 1406.85 216.542 1406.85 214.548C1406.85 211.52 1407.53 209.132 1408.89 207.385C1410.26 205.612 1412.15 204.726 1414.53 204.726C1415.72 204.726 1416.81 204.985 1417.82 205.502C1418.85 206.018 1419.73 206.794 1420.44 207.828V197.046H1424.65ZM1415.72 221.009C1416.36 221.009 1417.03 220.825 1417.75 220.455C1418.46 220.086 1419.09 219.422 1419.63 218.462C1420.17 217.502 1420.44 216.209 1420.44 214.585C1420.44 212.96 1420.16 211.668 1419.59 210.708C1419.05 209.748 1418.41 209.083 1417.67 208.714C1416.93 208.345 1416.25 208.16 1415.61 208.16C1414.23 208.16 1413.14 208.714 1412.36 209.822C1411.57 210.905 1411.17 212.48 1411.17 214.548C1411.17 216.615 1411.58 218.215 1412.39 219.348C1413.23 220.455 1414.34 221.009 1415.72 221.009ZM1433.33 208.862C1434.98 206.105 1437.27 204.825 1440.2 205.022V209.194C1439.76 209.12 1439.34 209.083 1438.94 209.083C1437.25 209.083 1435.89 209.625 1434.88 210.708C1433.87 211.766 1433.37 213.28 1433.37 215.249V224H1429.16V205.169H1432.89L1433.33 208.862ZM1449.79 204.726C1451.74 204.726 1453.38 205.182 1454.74 206.092C1456.09 206.978 1457.1 208.234 1457.77 209.858C1458.46 211.483 1458.76 213.378 1458.69 215.545H1445.29C1445.38 217.44 1445.86 218.855 1446.73 219.791C1447.59 220.726 1448.74 221.194 1450.2 221.194C1452.34 221.194 1453.73 220.246 1454.37 218.351H1458.28C1458.01 220.197 1457.16 221.674 1455.74 222.782C1454.33 223.889 1452.42 224.443 1450.01 224.443C1448.04 224.443 1446.37 224.012 1444.99 223.151C1443.64 222.289 1442.62 221.12 1441.93 219.643C1441.26 218.166 1440.93 216.48 1440.93 214.585C1440.93 212.714 1441.26 211.04 1441.93 209.563C1442.62 208.062 1443.62 206.88 1444.95 206.018C1446.28 205.157 1447.9 204.726 1449.79 204.726ZM1449.86 207.975C1448.61 207.975 1447.58 208.357 1446.76 209.12C1445.98 209.883 1445.5 211.028 1445.32 212.554H1454.37C1454.2 211.028 1453.7 209.883 1452.89 209.12C1452.1 208.357 1451.1 207.975 1449.86 207.975ZM1336 267.591C1334.1 267.591 1332.33 267.283 1330.68 266.668C1329.06 266.052 1327.73 265.08 1326.7 263.751C1325.66 262.397 1325.13 260.686 1325.11 258.618H1329.65C1329.72 260.366 1330.34 261.695 1331.5 262.606C1332.65 263.517 1334.19 263.972 1336.11 263.972C1337.86 263.972 1339.29 263.64 1340.39 262.975C1341.53 262.311 1342.09 261.277 1342.09 259.874C1342.09 258.988 1341.83 258.286 1341.32 257.769C1340.8 257.228 1340.07 256.785 1339.14 256.44C1338.2 256.071 1336.73 255.591 1334.71 255L1333.9 254.778C1332.1 254.262 1330.67 253.782 1329.61 253.338C1328.58 252.871 1327.72 252.182 1327.03 251.271C1326.34 250.36 1325.99 249.154 1325.99 247.652C1325.99 246.028 1326.44 244.662 1327.32 243.554C1328.21 242.422 1329.39 241.585 1330.87 241.043C1332.34 240.477 1333.97 240.194 1335.74 240.194C1338.62 240.194 1341 240.871 1342.87 242.225C1344.76 243.578 1345.78 245.634 1345.93 248.391H1341.39C1341.27 246.84 1340.7 245.695 1339.69 244.957C1338.71 244.194 1337.38 243.812 1335.7 243.812C1334.23 243.812 1332.98 244.12 1331.98 244.735C1330.97 245.351 1330.46 246.249 1330.46 247.431C1330.46 248.12 1330.68 248.686 1331.13 249.129C1331.57 249.572 1332.12 249.917 1332.79 250.163C1333.48 250.409 1334.41 250.68 1335.59 250.975L1336.89 251.345C1339.22 251.985 1341.08 252.649 1342.46 253.338C1343.84 254.003 1344.89 254.84 1345.6 255.849C1346.31 256.858 1346.67 258.126 1346.67 259.652C1346.67 262.36 1345.66 264.366 1343.64 265.671C1341.65 266.951 1339.1 267.591 1336 267.591ZM1376.64 248.169L1370.54 267H1366.19L1362.38 253.449L1358.58 267H1354.22L1348.13 248.169H1352.71L1356.51 261.868L1360.39 248.169H1364.41L1368.29 261.868L1372.06 248.169H1376.64ZM1381.88 245.215C1381.09 245.215 1380.45 244.969 1379.96 244.477C1379.49 243.985 1379.26 243.369 1379.26 242.631C1379.26 241.917 1379.49 241.314 1379.96 240.822C1380.45 240.305 1381.09 240.046 1381.88 240.046C1382.64 240.046 1383.27 240.305 1383.76 240.822C1384.25 241.314 1384.5 241.917 1384.5 242.631C1384.5 243.369 1384.25 243.985 1383.76 244.477C1383.29 244.969 1382.67 245.215 1381.88 245.215ZM1379.77 248.169H1383.98V267H1379.77V248.169ZM1396.9 243.148C1396.08 243.148 1395.49 243.357 1395.12 243.775C1394.76 244.194 1394.57 244.908 1394.57 245.917V248.169H1398.48L1398.41 251.455H1394.57V267H1390.36V251.455H1387L1387.08 248.169H1390.36V245.843C1390.36 243.726 1390.83 242.175 1391.76 241.191C1392.7 240.206 1394.16 239.714 1396.16 239.714C1397.07 239.714 1398.02 239.825 1399 240.046L1398.82 243.406C1398.23 243.234 1397.59 243.148 1396.9 243.148ZM1408.93 263.898C1409.6 263.898 1410.26 263.8 1410.93 263.603L1410.71 266.889C1409.62 267.16 1408.7 267.295 1407.94 267.295C1406.16 267.295 1404.83 266.84 1403.95 265.929C1403.06 265.018 1402.62 263.542 1402.62 261.498V251.455H1399.26L1399.33 248.169H1402.62L1402.99 242.52H1406.83V248.169H1410.89L1410.82 251.455H1406.83V261.277C1406.83 262.262 1406.99 262.951 1407.31 263.345C1407.63 263.714 1408.17 263.898 1408.93 263.898Z" fill="white"/>
<path d="M1250.66 310H996V232.092V150H1250.66L1281.27 219.901C1285.58 229.739 1285.58 229.739 1281.27 239.642L1250.66 310Z" fill="#193347"/>
<path d="M1250.66 310H996V232.092V150H1250.66L1281.27 219.901C1285.58 229.739 1285.58 229.739 1281.27 239.642L1250.66 310Z" fill="url(#paint2_linear)"/>
<path d="M1250.66 310H996V232.092V150H1250.66L1281.27 219.901C1285.58 229.739 1285.58 229.739 1281.27 239.642L1250.66 310Z" stroke="url(#paint3_linear)" stroke-width="5"/>
<path d="M1101.96 224.591C1099.22 224.591 1096.91 224 1095.02 222.818C1093.14 221.612 1091.73 219.975 1090.77 217.908C1089.83 215.84 1089.37 213.502 1089.37 210.892C1089.37 208.283 1089.83 205.945 1090.77 203.877C1091.73 201.809 1093.14 200.185 1095.02 199.003C1096.91 197.797 1099.22 197.194 1101.96 197.194C1103.83 197.194 1105.55 197.526 1107.13 198.191C1108.73 198.855 1110.04 199.865 1111.08 201.218C1112.14 202.548 1112.78 204.197 1113 206.166H1108.38C1108.18 204.468 1107.51 203.175 1106.35 202.289C1105.19 201.403 1103.7 200.96 1101.88 200.96C1099.32 200.96 1097.37 201.858 1096.01 203.655C1094.66 205.452 1093.98 207.865 1093.98 210.892C1093.98 213.92 1094.66 216.332 1096.01 218.129C1097.37 219.926 1099.32 220.825 1101.88 220.825C1103.7 220.825 1105.19 220.382 1106.35 219.495C1107.51 218.609 1108.18 217.317 1108.38 215.618H1113C1112.78 217.588 1112.14 219.249 1111.08 220.603C1110.04 221.932 1108.73 222.929 1107.13 223.594C1105.55 224.258 1103.83 224.591 1101.96 224.591ZM1131.64 218.609C1131.64 219.446 1131.76 220.049 1132.01 220.418C1132.26 220.763 1132.72 220.935 1133.41 220.935L1133.23 224C1132.69 224.074 1132.2 224.111 1131.75 224.111C1130.57 224.111 1129.67 223.852 1129.06 223.335C1128.44 222.794 1128.08 222.043 1127.99 221.083H1127.95C1127.21 222.24 1126.3 223.089 1125.22 223.631C1124.13 224.172 1122.85 224.443 1121.38 224.443C1119.6 224.443 1118.16 223.975 1117.06 223.04C1115.95 222.08 1115.4 220.738 1115.4 219.015C1115.4 216.702 1116.37 215.089 1118.31 214.178C1120.26 213.268 1122.62 212.812 1125.4 212.812C1125.89 212.812 1126.58 212.837 1127.47 212.886V211.077C1127.47 209.945 1127.17 209.132 1126.58 208.64C1125.99 208.123 1125.08 207.865 1123.85 207.865C1122.57 207.865 1121.59 208.16 1120.9 208.751C1120.21 209.342 1119.86 210.055 1119.86 210.892H1115.8C1115.8 209.686 1116.15 208.615 1116.84 207.68C1117.55 206.745 1118.52 206.018 1119.75 205.502C1121.01 204.985 1122.41 204.726 1123.96 204.726C1126.32 204.726 1128.2 205.268 1129.57 206.351C1130.95 207.409 1131.64 208.935 1131.64 210.929V218.609ZM1122.56 221.305C1123.99 221.305 1125.16 220.874 1126.07 220.012C1127 219.126 1127.47 218.055 1127.47 216.8V215.434C1127.1 215.409 1126.58 215.397 1125.92 215.397C1123.8 215.397 1122.24 215.668 1121.23 216.209C1120.24 216.726 1119.75 217.551 1119.75 218.683C1119.75 219.569 1120 220.234 1120.49 220.677C1121.01 221.095 1121.7 221.305 1122.56 221.305ZM1142.2 224C1141.47 224.123 1140.86 224.185 1140.4 224.185C1138.99 224.185 1137.96 223.815 1137.29 223.077C1136.63 222.314 1136.3 221.132 1136.3 219.532V197.046H1140.51V218.572C1140.51 219.508 1140.63 220.135 1140.88 220.455C1141.12 220.775 1141.63 220.935 1142.39 220.935L1142.2 224ZM1162.29 205.169L1155.05 224H1150.92L1143.68 205.169H1148.26L1152.98 219.495L1157.71 205.169H1162.29ZM1167.4 202.215C1166.62 202.215 1165.98 201.969 1165.48 201.477C1165.02 200.985 1164.78 200.369 1164.78 199.631C1164.78 198.917 1165.02 198.314 1165.48 197.822C1165.98 197.305 1166.62 197.046 1167.4 197.046C1168.17 197.046 1168.79 197.305 1169.29 197.822C1169.78 198.314 1170.03 198.917 1170.03 199.631C1170.03 200.369 1169.78 200.985 1169.29 201.477C1168.82 201.969 1168.19 202.215 1167.4 202.215ZM1165.3 205.169H1169.51V224H1165.3V205.169ZM1184.9 204.726C1186.67 204.726 1188.11 205.231 1189.22 206.24C1190.35 207.225 1190.92 208.677 1190.92 210.597V224H1186.71V211.409C1186.71 209.268 1185.67 208.197 1183.6 208.197C1182.92 208.197 1182.19 208.369 1181.43 208.714C1180.66 209.034 1180 209.649 1179.43 210.56C1178.87 211.446 1178.58 212.677 1178.58 214.252V224H1174.37V205.169H1178.1L1178.44 208.049C1179.2 206.966 1180.15 206.142 1181.28 205.575C1182.41 205.009 1183.62 204.726 1184.9 204.726ZM1100.44 256.846L1095.27 256.809V267H1090.66V240.785H1101.77C1104.7 240.785 1106.97 241.498 1108.57 242.926C1110.19 244.329 1111 246.286 1111 248.797C1111 250.742 1110.5 252.366 1109.49 253.671C1108.48 254.975 1106.99 255.886 1105.02 256.403L1111.85 267H1106.68L1100.44 256.846ZM1095.27 253.228H1101.22C1102.94 253.228 1104.26 252.846 1105.17 252.083C1106.08 251.32 1106.54 250.237 1106.54 248.834C1106.54 245.978 1104.76 244.551 1101.22 244.551H1095.27V253.228ZM1117.57 245.215C1116.78 245.215 1116.14 244.969 1115.65 244.477C1115.18 243.985 1114.95 243.369 1114.95 242.631C1114.95 241.917 1115.18 241.314 1115.65 240.822C1116.14 240.305 1116.78 240.046 1117.57 240.046C1118.34 240.046 1118.96 240.305 1119.46 240.822C1119.95 241.314 1120.19 241.917 1120.19 242.631C1120.19 243.369 1119.95 243.985 1119.46 244.477C1118.99 244.969 1118.36 245.215 1117.57 245.215ZM1115.47 248.169H1119.68V267H1115.47V248.169ZM1141.42 240.046V267H1137.69L1137.32 264.194C1135.99 266.36 1134.06 267.443 1131.52 267.443C1129.92 267.443 1128.52 267.037 1127.31 266.225C1126.13 265.412 1125.22 264.268 1124.58 262.791C1123.94 261.289 1123.62 259.542 1123.62 257.548C1123.62 254.52 1124.3 252.132 1125.65 250.385C1127.03 248.612 1128.91 247.726 1131.3 247.726C1132.48 247.726 1133.58 247.985 1134.59 248.502C1135.62 249.018 1136.49 249.794 1137.21 250.828V240.046H1141.42ZM1132.48 264.009C1133.12 264.009 1133.8 263.825 1134.51 263.455C1135.23 263.086 1135.85 262.422 1136.39 261.462C1136.94 260.502 1137.21 259.209 1137.21 257.585C1137.21 255.96 1136.92 254.668 1136.36 253.708C1135.82 252.748 1135.18 252.083 1134.44 251.714C1133.7 251.345 1133.01 251.16 1132.37 251.16C1130.99 251.16 1129.91 251.714 1129.12 252.822C1128.33 253.905 1127.94 255.48 1127.94 257.548C1127.94 259.615 1128.35 261.215 1129.16 262.348C1129.99 263.455 1131.1 264.009 1132.48 264.009ZM1151.83 267C1151.09 267.123 1150.49 267.185 1150.02 267.185C1148.62 267.185 1147.59 266.815 1146.92 266.077C1146.26 265.314 1145.92 264.132 1145.92 262.532V240.046H1150.13V261.572C1150.13 262.508 1150.26 263.135 1150.5 263.455C1150.75 263.775 1151.25 263.935 1152.02 263.935L1151.83 267ZM1163.17 247.726C1165.11 247.726 1166.76 248.182 1168.11 249.092C1169.47 249.978 1170.48 251.234 1171.14 252.858C1171.83 254.483 1172.14 256.378 1172.06 258.545H1158.66C1158.76 260.44 1159.24 261.855 1160.1 262.791C1160.96 263.726 1162.12 264.194 1163.57 264.194C1165.71 264.194 1167.1 263.246 1167.74 261.351H1171.66C1171.39 263.197 1170.54 264.674 1169.11 265.782C1167.71 266.889 1165.8 267.443 1163.39 267.443C1161.42 267.443 1159.74 267.012 1158.37 266.151C1157.01 265.289 1155.99 264.12 1155.3 262.643C1154.64 261.166 1154.3 259.48 1154.3 257.585C1154.3 255.714 1154.64 254.04 1155.3 252.563C1155.99 251.062 1157 249.88 1158.33 249.018C1159.66 248.157 1161.27 247.726 1163.17 247.726ZM1163.24 250.975C1161.98 250.975 1160.95 251.357 1160.14 252.12C1159.35 252.883 1158.87 254.028 1158.7 255.554H1167.74C1167.57 254.028 1167.08 252.883 1166.27 252.12C1165.48 251.357 1164.47 250.975 1163.24 250.975ZM1190.88 248.169L1180.8 274.385H1176.29L1179.88 267H1179.77L1172.23 248.169H1176.81L1181.76 262.237L1186.3 248.169H1190.88Z" fill="white"/>
<path d="M994.658 310H740V232.092V150H994.658L1025.27 219.901C1029.58 229.739 1029.58 229.739 1025.27 239.642L994.658 310Z" fill="#193347"/>
<path d="M994.658 310H740V232.092V150H994.658L1025.27 219.901C1029.58 229.739 1029.58 229.739 1025.27 239.642L994.658 310Z" fill="url(#paint4_linear)"/>
<path d="M994.658 310H740V232.092V150H994.658L1025.27 219.901C1029.58 229.739 1029.58 229.739 1025.27 239.642L994.658 310Z" stroke="url(#paint5_linear)" stroke-width="5"/>
<path d="M810.514 197.785C813.492 197.785 815.769 198.523 817.345 200C818.92 201.452 819.708 203.458 819.708 206.018C819.708 208.652 818.883 210.695 817.234 212.148C815.609 213.6 813.308 214.314 810.329 214.289H804.274V224H799.658V197.785H810.514ZM809.923 210.523C811.671 210.523 812.988 210.142 813.874 209.378C814.785 208.615 815.24 207.495 815.24 206.018C815.24 204.492 814.797 203.372 813.911 202.658C813.049 201.92 811.72 201.551 809.923 201.551H804.274V210.523H809.923ZM837.649 218.609C837.649 219.446 837.772 220.049 838.018 220.418C838.264 220.763 838.732 220.935 839.421 220.935L839.237 224C838.695 224.074 838.203 224.111 837.76 224.111C836.578 224.111 835.68 223.852 835.064 223.335C834.449 222.794 834.092 222.043 833.993 221.083H833.957C833.218 222.24 832.307 223.089 831.224 223.631C830.141 224.172 828.861 224.443 827.384 224.443C825.612 224.443 824.172 223.975 823.064 223.04C821.957 222.08 821.403 220.738 821.403 219.015C821.403 216.702 822.375 215.089 824.32 214.178C826.264 213.268 828.627 212.812 831.409 212.812C831.901 212.812 832.59 212.837 833.477 212.886V211.077C833.477 209.945 833.181 209.132 832.59 208.64C832 208.123 831.089 207.865 829.858 207.865C828.578 207.865 827.593 208.16 826.904 208.751C826.215 209.342 825.87 210.055 825.87 210.892H821.809C821.809 209.686 822.153 208.615 822.843 207.68C823.557 206.745 824.529 206.018 825.76 205.502C827.015 204.985 828.418 204.726 829.969 204.726C832.332 204.726 834.203 205.268 835.581 206.351C836.96 207.409 837.649 208.935 837.649 210.929V218.609ZM828.566 221.305C829.993 221.305 831.163 220.874 832.073 220.012C833.009 219.126 833.477 218.055 833.477 216.8V215.434C833.107 215.409 832.59 215.397 831.926 215.397C829.809 215.397 828.246 215.668 827.237 216.209C826.252 216.726 825.76 217.551 825.76 218.683C825.76 219.569 826.006 220.234 826.498 220.677C827.015 221.095 827.704 221.305 828.566 221.305ZM849.77 220.898C850.434 220.898 851.099 220.8 851.764 220.603L851.542 223.889C850.459 224.16 849.536 224.295 848.773 224.295C847 224.295 845.671 223.84 844.785 222.929C843.899 222.018 843.456 220.542 843.456 218.498V208.455H840.096L840.17 205.169H843.456L843.825 199.52H847.665V205.169H851.727L851.653 208.455H847.665V218.277C847.665 219.262 847.825 219.951 848.145 220.345C848.465 220.714 849.007 220.898 849.77 220.898ZM859.025 208.862C860.674 206.105 862.963 204.825 865.892 205.022V209.194C865.449 209.12 865.031 209.083 864.637 209.083C862.939 209.083 861.585 209.625 860.575 210.708C859.566 211.766 859.062 213.28 859.062 215.249V224H854.852V205.169H858.582L859.025 208.862ZM870.743 202.215C869.955 202.215 869.315 201.969 868.823 201.477C868.355 200.985 868.122 200.369 868.122 199.631C868.122 198.917 868.355 198.314 868.823 197.822C869.315 197.305 869.955 197.046 870.743 197.046C871.506 197.046 872.134 197.305 872.626 197.822C873.119 198.314 873.365 198.917 873.365 199.631C873.365 200.369 873.119 200.985 872.626 201.477C872.159 201.969 871.531 202.215 870.743 202.215ZM868.639 205.169H872.848V224H868.639V205.169ZM886.058 224.443C884.064 224.443 882.365 224.012 880.962 223.151C879.584 222.289 878.538 221.12 877.824 219.643C877.135 218.166 876.79 216.48 876.79 214.585C876.79 212.689 877.135 211.003 877.824 209.526C878.538 208.049 879.584 206.88 880.962 206.018C882.365 205.157 884.064 204.726 886.058 204.726C888.519 204.726 890.476 205.329 891.928 206.535C893.381 207.742 894.205 209.354 894.402 211.372H890.304C889.861 209.182 888.47 208.086 886.131 208.086C884.556 208.086 883.325 208.628 882.439 209.711C881.578 210.794 881.147 212.418 881.147 214.585C881.147 216.751 881.578 218.375 882.439 219.458C883.325 220.542 884.556 221.083 886.131 221.083C888.47 221.083 889.861 219.988 890.304 217.797H894.402C894.205 219.815 893.381 221.428 891.928 222.634C890.476 223.84 888.519 224.443 886.058 224.443ZM904.33 215.582L902.115 217.945V224H897.905V197.046H902.115V213.218L909.204 205.169H914.078L906.988 212.775L915.333 224H910.496L904.33 215.582ZM826.465 240.785V267H822.034V248.243L814.982 264.305H811.142L804.089 248.206V267H799.658V240.785H804.865L813.025 259.542L821.258 240.785H826.465ZM846.519 261.609C846.519 262.446 846.642 263.049 846.888 263.418C847.134 263.763 847.602 263.935 848.291 263.935L848.107 267C847.565 267.074 847.073 267.111 846.63 267.111C845.448 267.111 844.55 266.852 843.934 266.335C843.319 265.794 842.962 265.043 842.864 264.083H842.827C842.088 265.24 841.178 266.089 840.094 266.631C839.011 267.172 837.731 267.443 836.254 267.443C834.482 267.443 833.042 266.975 831.934 266.04C830.827 265.08 830.273 263.738 830.273 262.015C830.273 259.702 831.245 258.089 833.19 257.178C835.134 256.268 837.498 255.812 840.279 255.812C840.771 255.812 841.461 255.837 842.347 255.886V254.077C842.347 252.945 842.051 252.132 841.461 251.64C840.87 251.123 839.959 250.865 838.728 250.865C837.448 250.865 836.464 251.16 835.774 251.751C835.085 252.342 834.741 253.055 834.741 253.892H830.679C830.679 252.686 831.024 251.615 831.713 250.68C832.427 249.745 833.399 249.018 834.63 248.502C835.885 247.985 837.288 247.726 838.839 247.726C841.202 247.726 843.073 248.268 844.451 249.351C845.83 250.409 846.519 251.935 846.519 253.929V261.609ZM837.436 264.305C838.864 264.305 840.033 263.874 840.944 263.012C841.879 262.126 842.347 261.055 842.347 259.8V258.434C841.978 258.409 841.461 258.397 840.796 258.397C838.679 258.397 837.116 258.668 836.107 259.209C835.122 259.726 834.63 260.551 834.63 261.683C834.63 262.569 834.876 263.234 835.368 263.677C835.885 264.095 836.574 264.305 837.436 264.305ZM861.698 247.726C863.47 247.726 864.91 248.231 866.018 249.24C867.15 250.225 867.716 251.677 867.716 253.597V267H863.507V254.409C863.507 252.268 862.473 251.197 860.405 251.197C859.716 251.197 858.99 251.369 858.227 251.714C857.464 252.034 856.799 252.649 856.233 253.56C855.667 254.446 855.384 255.677 855.384 257.252V267H851.175V240.046H855.384V250.865C856.147 249.855 857.07 249.08 858.153 248.538C859.261 247.997 860.442 247.726 861.698 247.726ZM880.615 267.443C878.596 267.443 876.885 267.012 875.482 266.151C874.079 265.289 873.021 264.12 872.307 262.643C871.618 261.166 871.273 259.48 871.273 257.585C871.273 255.689 871.618 254.003 872.307 252.526C872.996 251.025 874.042 249.855 875.445 249.018C876.848 248.157 878.572 247.726 880.615 247.726C882.633 247.726 884.344 248.157 885.747 249.018C887.15 249.88 888.196 251.049 888.885 252.526C889.575 254.003 889.919 255.689 889.919 257.585C889.919 259.48 889.562 261.166 888.848 262.643C888.159 264.12 887.113 265.289 885.71 266.151C884.332 267.012 882.633 267.443 880.615 267.443ZM880.615 264.083C882.215 264.083 883.433 263.542 884.27 262.458C885.132 261.375 885.562 259.751 885.562 257.585C885.562 255.418 885.132 253.794 884.27 252.711C883.433 251.628 882.215 251.086 880.615 251.086C878.99 251.086 877.747 251.628 876.885 252.711C876.048 253.794 875.63 255.418 875.63 257.585C875.63 259.751 876.061 261.375 876.922 262.458C877.784 263.542 879.015 264.083 880.615 264.083ZM915.699 247.726C917.397 247.726 918.813 248.231 919.945 249.24C921.077 250.249 921.643 251.702 921.643 253.597V267H917.434V254.409C917.434 253.597 917.225 252.858 916.806 252.194C916.388 251.529 915.576 251.197 914.37 251.197C913.705 251.197 913.016 251.369 912.302 251.714C911.588 252.034 910.96 252.649 910.419 253.56C909.902 254.446 909.643 255.677 909.643 257.252V267H905.434V254.409C905.434 253.597 905.225 252.858 904.806 252.194C904.388 251.529 903.576 251.197 902.37 251.197C901.705 251.197 901.016 251.369 900.302 251.714C899.588 252.034 898.96 252.649 898.419 253.56C897.902 254.446 897.643 255.677 897.643 257.252V267H893.434V248.169H897.163L897.496 250.975C898.234 249.917 899.133 249.117 900.191 248.575C901.25 248.009 902.419 247.726 903.699 247.726C905.003 247.726 906.148 248.034 907.133 248.649C908.142 249.24 908.856 250.126 909.274 251.308C910.013 250.151 910.936 249.265 912.043 248.649C913.151 248.034 914.37 247.726 915.699 247.726ZM934.041 247.726C935.985 247.726 937.635 248.182 938.989 249.092C940.342 249.978 941.352 251.234 942.016 252.858C942.705 254.483 943.013 256.378 942.939 258.545H929.536C929.635 260.44 930.115 261.855 930.976 262.791C931.838 263.726 932.995 264.194 934.447 264.194C936.589 264.194 937.979 263.246 938.619 261.351H942.533C942.262 263.197 941.413 264.674 939.985 265.782C938.582 266.889 936.675 267.443 934.262 267.443C932.293 267.443 930.619 267.012 929.241 266.151C927.887 265.289 926.865 264.12 926.176 262.643C925.512 261.166 925.179 259.48 925.179 257.585C925.179 255.714 925.512 254.04 926.176 252.563C926.865 251.062 927.875 249.88 929.204 249.018C930.533 248.157 932.145 247.726 934.041 247.726ZM934.115 250.975C932.859 250.975 931.825 251.357 931.013 252.12C930.225 252.883 929.745 254.028 929.573 255.554H938.619C938.447 254.028 937.955 252.883 937.142 252.12C936.355 251.357 935.345 250.975 934.115 250.975ZM952.946 267.443C950.386 267.443 948.405 266.889 947.001 265.782C945.598 264.674 944.897 263.16 944.897 261.24H949.254C949.278 262.102 949.611 262.815 950.251 263.382C950.915 263.923 951.9 264.194 953.205 264.194C954.386 264.194 955.297 263.997 955.937 263.603C956.577 263.185 956.897 262.569 956.897 261.757C956.897 261.191 956.737 260.748 956.417 260.428C956.097 260.083 955.666 259.825 955.125 259.652C954.608 259.455 953.82 259.234 952.761 258.988L951.801 258.766C950.595 258.471 949.561 258.151 948.7 257.806C947.863 257.462 947.125 256.92 946.485 256.182C945.869 255.443 945.561 254.483 945.561 253.302C945.561 251.554 946.251 250.188 947.629 249.203C949.008 248.218 950.817 247.726 953.057 247.726C955.395 247.726 957.229 248.255 958.558 249.314C959.888 250.348 960.638 251.763 960.811 253.56L956.528 253.523C956.208 251.677 955.001 250.754 952.909 250.754C951.998 250.754 951.248 250.938 950.657 251.308C950.091 251.652 949.808 252.145 949.808 252.785C949.808 253.523 950.152 254.065 950.841 254.409C951.531 254.754 952.601 255.098 954.054 255.443C955.555 255.788 956.786 256.157 957.746 256.551C958.731 256.92 959.555 257.486 960.22 258.249C960.885 259.012 961.217 260.034 961.217 261.314C961.217 263.185 960.441 264.674 958.891 265.782C957.34 266.889 955.358 267.443 952.946 267.443Z" fill="white"/>
<path d="M739.893 310H487V232.092V150H739.893L770.291 219.901C774.57 229.739 774.57 229.739 770.291 239.642L739.893 310Z" fill="#193347"/>
<path d="M739.893 310H487V232.092V150H739.893L770.291 219.901C774.57 229.739 774.57 229.739 770.291 239.642L739.893 310Z" fill="url(#paint6_linear)"/>
<path d="M739.893 310H487V232.092V150H739.893L770.291 219.901C774.57 229.739 774.57 229.739 770.291 239.642L739.893 310Z" stroke="url(#paint7_linear)" stroke-width="5"/>
<path d="M585.268 201.662H577.108V224H572.492V201.662H564.295V197.785H585.268V201.662ZM587.503 224.517C586.691 224.517 585.989 224.222 585.398 223.631C584.808 223.04 584.512 222.338 584.512 221.526C584.512 220.689 584.808 219.988 585.398 219.422C585.989 218.831 586.691 218.535 587.503 218.535C588.34 218.535 589.041 218.831 589.608 219.422C590.198 219.988 590.494 220.689 590.494 221.526C590.494 222.338 590.198 223.04 589.608 223.631C589.041 224.222 588.34 224.517 587.503 224.517ZM614.574 211.631L610.254 216.394V224H605.565V197.785H610.254V210.782L621.626 197.785H627.054L617.565 208.308L627.423 224H622.143L614.574 211.631ZM636.425 204.726C638.37 204.726 640.019 205.182 641.373 206.092C642.727 206.978 643.736 208.234 644.401 209.858C645.09 211.483 645.398 213.378 645.324 215.545H631.921C632.019 217.44 632.499 218.855 633.361 219.791C634.222 220.726 635.379 221.194 636.832 221.194C638.973 221.194 640.364 220.246 641.004 218.351H644.918C644.647 220.197 643.798 221.674 642.37 222.782C640.967 223.889 639.059 224.443 636.647 224.443C634.678 224.443 633.004 224.012 631.625 223.151C630.272 222.289 629.25 221.12 628.561 219.643C627.896 218.166 627.564 216.48 627.564 214.585C627.564 212.714 627.896 211.04 628.561 209.563C629.25 208.062 630.259 206.88 631.589 206.018C632.918 205.157 634.53 204.726 636.425 204.726ZM636.499 207.975C635.244 207.975 634.21 208.357 633.398 209.12C632.61 209.883 632.13 211.028 631.958 212.554H641.004C640.832 211.028 640.339 209.883 639.527 209.12C638.739 208.357 637.73 207.975 636.499 207.975ZM654.371 224C653.632 224.123 653.029 224.185 652.561 224.185C651.158 224.185 650.125 223.815 649.46 223.077C648.795 222.314 648.463 221.132 648.463 219.532V197.046H652.672V218.572C652.672 219.508 652.795 220.135 653.041 220.455C653.288 220.775 653.792 220.935 654.555 220.935L654.371 224ZM666.11 224.443C664.117 224.443 662.418 224.012 661.015 223.151C659.637 222.289 658.59 221.12 657.877 219.643C657.187 218.166 656.843 216.48 656.843 214.585C656.843 212.689 657.187 211.003 657.877 209.526C658.59 208.049 659.637 206.88 661.015 206.018C662.418 205.157 664.117 204.726 666.11 204.726C668.572 204.726 670.529 205.329 671.981 206.535C673.434 207.742 674.258 209.354 674.455 211.372H670.357C669.914 209.182 668.523 208.086 666.184 208.086C664.609 208.086 663.378 208.628 662.492 209.711C661.63 210.794 661.2 212.418 661.2 214.585C661.2 216.751 661.63 218.375 662.492 219.458C663.378 220.542 664.609 221.083 666.184 221.083C668.523 221.083 669.914 219.988 670.357 217.797H674.455C674.258 219.815 673.434 221.428 671.981 222.634C670.529 223.84 668.572 224.443 666.11 224.443ZM685.897 204.726C687.841 204.726 689.49 205.182 690.844 206.092C692.198 206.978 693.207 208.234 693.872 209.858C694.561 211.483 694.869 213.378 694.795 215.545H681.392C681.49 217.44 681.97 218.855 682.832 219.791C683.694 220.726 684.85 221.194 686.303 221.194C688.444 221.194 689.835 220.246 690.475 218.351H694.389C694.118 220.197 693.269 221.674 691.841 222.782C690.438 223.889 688.53 224.443 686.118 224.443C684.149 224.443 682.475 224.012 681.097 223.151C679.743 222.289 678.721 221.12 678.032 219.643C677.367 218.166 677.035 216.48 677.035 214.585C677.035 212.714 677.367 211.04 678.032 209.563C678.721 208.062 679.73 206.88 681.06 206.018C682.389 205.157 684.001 204.726 685.897 204.726ZM685.97 207.975C684.715 207.975 683.681 208.357 682.869 209.12C682.081 209.883 681.601 211.028 681.429 212.554H690.475C690.303 211.028 689.81 209.883 688.998 209.12C688.21 208.357 687.201 207.975 685.97 207.975ZM585.268 244.662H577.108V267H572.492V244.662H564.295V240.785H585.268V244.662ZM597.157 240.785C600.308 240.785 602.794 241.289 604.616 242.298C606.462 243.283 607.779 244.735 608.566 246.655C609.354 248.551 609.748 250.963 609.748 253.892C609.748 256.822 609.354 259.246 608.566 261.166C607.779 263.062 606.462 264.514 604.616 265.523C602.794 266.508 600.308 267 597.157 267H588.185V240.785H597.157ZM597.379 263.234C598.979 263.234 600.333 263 601.44 262.532C602.573 262.065 603.471 261.154 604.136 259.8C604.825 258.422 605.17 256.452 605.17 253.892C605.17 251.332 604.825 249.375 604.136 248.022C603.471 246.643 602.573 245.72 601.44 245.252C600.308 244.785 598.905 244.551 597.231 244.551H592.8V263.234H597.379ZM638.888 253.338C640.635 253.634 641.952 254.311 642.838 255.369C643.749 256.428 644.204 257.806 644.204 259.505C644.204 261.72 643.454 263.529 641.952 264.932C640.475 266.311 638.334 267 635.528 267H623.269V240.785H634.309C636.992 240.785 639.158 241.24 640.808 242.151C642.481 243.062 643.318 244.711 643.318 247.098C643.318 250.077 641.841 252.132 638.888 253.265V253.338ZM638.814 247.948C638.814 246.914 638.568 246.151 638.075 245.658C637.583 245.142 637.004 244.822 636.34 244.698C635.675 244.551 634.888 244.477 633.977 244.477H627.884V251.825H634.014C637.214 251.825 638.814 250.532 638.814 247.948ZM635.158 263.308C636.586 263.308 637.694 262.975 638.481 262.311C639.269 261.646 639.663 260.649 639.663 259.32C639.663 257.917 639.208 256.895 638.297 256.255C637.386 255.615 636.168 255.295 634.641 255.295H627.884V263.308H635.158ZM655.752 247.726C657.697 247.726 659.346 248.182 660.7 249.092C662.054 249.978 663.063 251.234 663.728 252.858C664.417 254.483 664.725 256.378 664.651 258.545H651.248C651.346 260.44 651.826 261.855 652.688 262.791C653.549 263.726 654.706 264.194 656.159 264.194C658.3 264.194 659.691 263.246 660.331 261.351H664.245C663.974 263.197 663.125 264.674 661.697 265.782C660.294 266.889 658.386 267.443 655.974 267.443C654.005 267.443 652.331 267.012 650.952 266.151C649.599 265.289 648.577 264.12 647.888 262.643C647.223 261.166 646.891 259.48 646.891 257.585C646.891 255.714 647.223 254.04 647.888 252.563C648.577 251.062 649.586 249.88 650.915 249.018C652.245 248.157 653.857 247.726 655.752 247.726ZM655.826 250.975C654.571 250.975 653.537 251.357 652.725 252.12C651.937 252.883 651.457 254.028 651.285 255.554H660.331C660.159 254.028 659.666 252.883 658.854 252.12C658.066 251.357 657.057 250.975 655.826 250.975ZM674.931 263.898C675.595 263.898 676.26 263.8 676.925 263.603L676.703 266.889C675.62 267.16 674.697 267.295 673.934 267.295C672.162 267.295 670.832 266.84 669.946 265.929C669.06 265.018 668.617 263.542 668.617 261.498V251.455H665.257L665.331 248.169H668.617L668.986 242.52H672.826V248.169H676.888L676.814 251.455H672.826V261.277C672.826 262.262 672.986 262.951 673.306 263.345C673.626 263.714 674.168 263.898 674.931 263.898Z" fill="white"/>
<path d="M485.776 310H232V232.092V150H485.776L516.28 219.901C520.573 229.739 520.573 229.739 516.28 239.642L485.776 310Z" fill="#193347"/>
<path d="M485.776 310H232V232.092V150H485.776L516.28 219.901C520.573 229.739 520.573 229.739 516.28 239.642L485.776 310Z" fill="url(#paint8_linear)"/>
<path d="M485.776 310H232V232.092V150H485.776L516.28 219.901C520.573 229.739 520.573 229.739 516.28 239.642L485.776 310Z" stroke="url(#paint9_linear)" stroke-width="5"/>
<path d="M322 224.591C320.105 224.591 318.332 224.283 316.683 223.668C315.058 223.052 313.729 222.08 312.695 220.751C311.662 219.397 311.132 217.686 311.108 215.618H315.649C315.723 217.366 316.338 218.695 317.495 219.606C318.652 220.517 320.191 220.972 322.111 220.972C323.858 220.972 325.286 220.64 326.394 219.975C327.526 219.311 328.092 218.277 328.092 216.874C328.092 215.988 327.834 215.286 327.317 214.769C326.8 214.228 326.074 213.785 325.138 213.44C324.203 213.071 322.726 212.591 320.708 212L319.895 211.778C318.098 211.262 316.671 210.782 315.612 210.338C314.578 209.871 313.717 209.182 313.028 208.271C312.338 207.36 311.994 206.154 311.994 204.652C311.994 203.028 312.437 201.662 313.323 200.554C314.209 199.422 315.391 198.585 316.868 198.043C318.345 197.477 319.969 197.194 321.742 197.194C324.622 197.194 326.997 197.871 328.868 199.225C330.763 200.578 331.785 202.634 331.932 205.391H327.391C327.268 203.84 326.702 202.695 325.692 201.957C324.708 201.194 323.378 200.812 321.705 200.812C320.228 200.812 318.985 201.12 317.975 201.735C316.966 202.351 316.462 203.249 316.462 204.431C316.462 205.12 316.683 205.686 317.126 206.129C317.569 206.572 318.123 206.917 318.788 207.163C319.477 207.409 320.412 207.68 321.594 207.975L322.886 208.345C325.225 208.985 327.083 209.649 328.462 210.338C329.84 211.003 330.886 211.84 331.6 212.849C332.314 213.858 332.671 215.126 332.671 216.652C332.671 219.36 331.662 221.366 329.643 222.671C327.649 223.951 325.102 224.591 322 224.591ZM343.731 220.898C344.396 220.898 345.06 220.8 345.725 220.603L345.504 223.889C344.42 224.16 343.497 224.295 342.734 224.295C340.962 224.295 339.633 223.84 338.747 222.929C337.86 222.018 337.417 220.542 337.417 218.498V208.455H334.057L334.131 205.169H337.417L337.787 199.52H341.627V205.169H345.688L345.614 208.455H341.627V218.277C341.627 219.262 341.787 219.951 342.107 220.345C342.427 220.714 342.968 220.898 343.731 220.898ZM356.752 204.726C358.697 204.726 360.346 205.182 361.7 206.092C363.054 206.978 364.063 208.234 364.728 209.858C365.417 211.483 365.725 213.378 365.651 215.545H352.248C352.346 217.44 352.826 218.855 353.688 219.791C354.549 220.726 355.706 221.194 357.159 221.194C359.3 221.194 360.691 220.246 361.331 218.351H365.245C364.974 220.197 364.125 221.674 362.697 222.782C361.294 223.889 359.386 224.443 356.974 224.443C355.005 224.443 353.331 224.012 351.952 223.151C350.599 222.289 349.577 221.12 348.888 219.643C348.223 218.166 347.891 216.48 347.891 214.585C347.891 212.714 348.223 211.04 348.888 209.563C349.577 208.062 350.586 206.88 351.915 206.018C353.245 205.157 354.857 204.726 356.752 204.726ZM356.826 207.975C355.571 207.975 354.537 208.357 353.725 209.12C352.937 209.883 352.457 211.028 352.285 212.554H361.331C361.159 211.028 360.666 209.883 359.854 209.12C359.066 208.357 358.057 207.975 356.826 207.975ZM376.728 204.726C378.673 204.726 380.322 205.182 381.676 206.092C383.03 206.978 384.039 208.234 384.704 209.858C385.393 211.483 385.701 213.378 385.627 215.545H372.224C372.322 217.44 372.802 218.855 373.664 219.791C374.525 220.726 375.682 221.194 377.135 221.194C379.276 221.194 380.667 220.246 381.307 218.351H385.221C384.95 220.197 384.101 221.674 382.673 222.782C381.27 223.889 379.362 224.443 376.95 224.443C374.981 224.443 373.307 224.012 371.928 223.151C370.575 222.289 369.553 221.12 368.864 219.643C368.199 218.166 367.867 216.48 367.867 214.585C367.867 212.714 368.199 211.04 368.864 209.563C369.553 208.062 370.562 206.88 371.891 206.018C373.221 205.157 374.833 204.726 376.728 204.726ZM376.802 207.975C375.547 207.975 374.513 208.357 373.701 209.12C372.913 209.883 372.433 211.028 372.261 212.554H381.307C381.135 211.028 380.642 209.883 379.83 209.12C379.042 208.357 378.033 207.975 376.802 207.975ZM394.674 224C393.935 224.123 393.332 224.185 392.864 224.185C391.461 224.185 390.427 223.815 389.763 223.077C389.098 222.314 388.766 221.132 388.766 219.532V197.046H392.975V218.572C392.975 219.508 393.098 220.135 393.344 220.455C393.59 220.775 394.095 220.935 394.858 220.935L394.674 224ZM406.007 204.726C407.952 204.726 409.601 205.182 410.955 206.092C412.309 206.978 413.318 208.234 413.983 209.858C414.672 211.483 414.98 213.378 414.906 215.545H401.503C401.601 217.44 402.081 218.855 402.943 219.791C403.804 220.726 404.961 221.194 406.413 221.194C408.555 221.194 409.946 220.246 410.586 218.351H414.5C414.229 220.197 413.38 221.674 411.952 222.782C410.549 223.889 408.641 224.443 406.229 224.443C404.26 224.443 402.586 224.012 401.207 223.151C399.853 222.289 398.832 221.12 398.143 219.643C397.478 218.166 397.146 216.48 397.146 214.585C397.146 212.714 397.478 211.04 398.143 209.563C398.832 208.062 399.841 206.88 401.17 206.018C402.5 205.157 404.112 204.726 406.007 204.726ZM406.081 207.975C404.826 207.975 403.792 208.357 402.98 209.12C402.192 209.883 401.712 211.028 401.54 212.554H410.586C410.413 211.028 409.921 209.883 409.109 209.12C408.321 208.357 407.312 207.975 406.081 207.975ZM422.217 208.862C423.866 206.105 426.155 204.825 429.085 205.022V209.194C428.642 209.12 428.223 209.083 427.829 209.083C426.131 209.083 424.777 209.625 423.768 210.708C422.759 211.766 422.254 213.28 422.254 215.249V224H418.045V205.169H421.774L422.217 208.862ZM438.182 224.443C435.622 224.443 433.64 223.889 432.237 222.782C430.834 221.674 430.132 220.16 430.132 218.24H434.489C434.514 219.102 434.846 219.815 435.486 220.382C436.151 220.923 437.135 221.194 438.44 221.194C439.622 221.194 440.532 220.997 441.172 220.603C441.812 220.185 442.132 219.569 442.132 218.757C442.132 218.191 441.972 217.748 441.652 217.428C441.332 217.083 440.902 216.825 440.36 216.652C439.843 216.455 439.055 216.234 437.997 215.988L437.037 215.766C435.831 215.471 434.797 215.151 433.935 214.806C433.099 214.462 432.36 213.92 431.72 213.182C431.105 212.443 430.797 211.483 430.797 210.302C430.797 208.554 431.486 207.188 432.865 206.203C434.243 205.218 436.052 204.726 438.292 204.726C440.631 204.726 442.465 205.255 443.794 206.314C445.123 207.348 445.874 208.763 446.046 210.56L441.763 210.523C441.443 208.677 440.237 207.754 438.145 207.754C437.234 207.754 436.483 207.938 435.892 208.308C435.326 208.652 435.043 209.145 435.043 209.785C435.043 210.523 435.388 211.065 436.077 211.409C436.766 211.754 437.837 212.098 439.289 212.443C440.791 212.788 442.022 213.157 442.982 213.551C443.966 213.92 444.791 214.486 445.455 215.249C446.12 216.012 446.452 217.034 446.452 218.314C446.452 220.185 445.677 221.674 444.126 222.782C442.575 223.889 440.594 224.443 438.182 224.443ZM344.929 240.785L337.692 267H333.077L327.575 246.877L322.111 267H317.495L310.258 240.785H315.095L319.785 260.723H319.858L325.323 240.785H329.865L335.292 260.723H335.366L340.092 240.785H344.929ZM350.029 245.215C349.242 245.215 348.602 244.969 348.109 244.477C347.642 243.985 347.408 243.369 347.408 242.631C347.408 241.917 347.642 241.314 348.109 240.822C348.602 240.305 349.242 240.046 350.029 240.046C350.792 240.046 351.42 240.305 351.912 240.822C352.405 241.314 352.651 241.917 352.651 242.631C352.651 243.369 352.405 243.985 351.912 244.477C351.445 244.969 350.817 245.215 350.029 245.215ZM347.925 248.169H352.134V267H347.925V248.169ZM367.522 247.726C369.294 247.726 370.734 248.231 371.842 249.24C372.974 250.225 373.541 251.677 373.541 253.597V267H369.331V254.409C369.331 252.268 368.297 251.197 366.23 251.197C365.541 251.197 364.814 251.369 364.051 251.714C363.288 252.034 362.624 252.649 362.057 253.56C361.491 254.446 361.208 255.677 361.208 257.252V267H356.999V248.169H360.728L361.061 251.049C361.824 249.966 362.771 249.142 363.904 248.575C365.036 248.009 366.242 247.726 367.522 247.726ZM403.565 253.338C405.313 253.634 406.63 254.311 407.516 255.369C408.427 256.428 408.882 257.806 408.882 259.505C408.882 261.72 408.132 263.529 406.63 264.932C405.153 266.311 403.012 267 400.205 267H387.947V240.785H398.987C401.67 240.785 403.836 241.24 405.485 242.151C407.159 243.062 407.996 244.711 407.996 247.098C407.996 250.077 406.519 252.132 403.565 253.265V253.338ZM403.492 247.948C403.492 246.914 403.245 246.151 402.753 245.658C402.261 245.142 401.682 244.822 401.018 244.698C400.353 244.551 399.565 244.477 398.655 244.477H392.562V251.825H398.692C401.892 251.825 403.492 250.532 403.492 247.948ZM399.836 263.308C401.264 263.308 402.372 262.975 403.159 262.311C403.947 261.646 404.341 260.649 404.341 259.32C404.341 257.917 403.885 256.895 402.975 256.255C402.064 255.615 400.845 255.295 399.319 255.295H392.562V263.308H399.836ZM420.43 247.726C422.375 247.726 424.024 248.182 425.378 249.092C426.732 249.978 427.741 251.234 428.406 252.858C429.095 254.483 429.403 256.378 429.329 258.545H415.926C416.024 260.44 416.504 261.855 417.366 262.791C418.227 263.726 419.384 264.194 420.836 264.194C422.978 264.194 424.369 263.246 425.009 261.351H428.923C428.652 263.197 427.803 264.674 426.375 265.782C424.972 266.889 423.064 267.443 420.652 267.443C418.683 267.443 417.009 267.012 415.63 266.151C414.276 265.289 413.255 264.12 412.566 262.643C411.901 261.166 411.569 259.48 411.569 257.585C411.569 255.714 411.901 254.04 412.566 252.563C413.255 251.062 414.264 249.88 415.593 249.018C416.923 248.157 418.535 247.726 420.43 247.726ZM420.504 250.975C419.249 250.975 418.215 251.357 417.403 252.12C416.615 252.883 416.135 254.028 415.963 255.554H425.009C424.836 254.028 424.344 252.883 423.532 252.12C422.744 251.357 421.735 250.975 420.504 250.975ZM439.609 263.898C440.273 263.898 440.938 263.8 441.602 263.603L441.381 266.889C440.298 267.16 439.375 267.295 438.612 267.295C436.839 267.295 435.51 266.84 434.624 265.929C433.738 265.018 433.295 263.542 433.295 261.498V251.455H429.935L430.009 248.169H433.295L433.664 242.52H437.504V248.169H441.566L441.492 251.455H437.504V261.277C437.504 262.262 437.664 262.951 437.984 263.345C438.304 263.714 438.846 263.898 439.609 263.898Z" fill="white"/>
<path d="M230.104 310H7.00858L7.22718 233.465V233.456V151H230.109L260.002 221.26C262.267 226.584 263 228.454 263 230.24C263 232.029 262.264 233.917 259.999 239.275L230.104 310Z" fill="#193347"/>
<path d="M230.104 310H7.00858L7.22718 233.465V233.456V151H230.109L260.002 221.26C262.267 226.584 263 228.454 263 230.24C263 232.029 262.264 233.917 259.999 239.275L230.104 310Z" fill="url(#paint10_linear)"/>
<path d="M230.104 310H7.00858L7.22718 233.465V233.456V151H230.109L260.002 221.26C262.267 226.584 263 228.454 263 230.24C263 232.029 262.264 233.917 259.999 239.275L230.104 310Z" stroke="url(#paint11_linear)" stroke-width="6"/>
<path d="M66.2923 210.486V213.071C66.2923 215.532 65.7631 217.637 64.7046 219.385C63.6708 221.108 62.2554 222.412 60.4585 223.298C58.6862 224.16 56.7046 224.591 54.5138 224.591C51.9292 224.591 49.7138 224.025 47.8677 222.892C46.0462 221.735 44.6677 220.135 43.7323 218.092C42.8215 216.049 42.3662 213.698 42.3662 211.04C42.3662 208.382 42.8338 206.018 43.7692 203.951C44.7292 201.858 46.1446 200.209 48.0154 199.003C49.9108 197.797 52.2246 197.194 54.9569 197.194C56.8277 197.194 58.5508 197.526 60.1262 198.191C61.7262 198.855 63.0431 199.852 64.0769 201.182C65.1354 202.486 65.7754 204.098 65.9969 206.018H61.4185C61.1969 204.369 60.4954 203.114 59.3138 202.252C58.1569 201.391 56.68 200.96 54.8831 200.96C52.3231 200.96 50.3662 201.871 49.0123 203.692C47.6585 205.489 46.9815 207.938 46.9815 211.04C46.9815 214.166 47.6338 216.591 48.9385 218.314C50.2431 220.012 52.2246 220.862 54.8831 220.862C57 220.862 58.6985 220.283 59.9785 219.126C61.2585 217.945 61.9723 216.295 62.12 214.178H54.7723V210.486H66.2923ZM73.8901 208.862C75.5393 206.105 77.8286 204.825 80.7578 205.022V209.194C80.3147 209.12 79.8963 209.083 79.5024 209.083C77.8039 209.083 76.4501 209.625 75.4409 210.708C74.4316 211.766 73.927 213.28 73.927 215.249V224H69.7178V205.169H73.447L73.8901 208.862ZM90.3486 204.726C92.2932 204.726 93.9424 205.182 95.2962 206.092C96.6501 206.978 97.6593 208.234 98.3239 209.858C99.0132 211.483 99.3209 213.378 99.247 215.545H85.8439C85.9424 217.44 86.4224 218.855 87.2839 219.791C88.1455 220.726 89.3024 221.194 90.7547 221.194C92.8962 221.194 94.287 220.246 94.927 218.351H98.8409C98.5701 220.197 97.7209 221.674 96.2932 222.782C94.8901 223.889 92.9824 224.443 90.5701 224.443C88.6009 224.443 86.927 224.012 85.5486 223.151C84.1947 222.289 83.1732 221.12 82.4839 219.643C81.8193 218.166 81.487 216.48 81.487 214.585C81.487 212.714 81.8193 211.04 82.4839 209.563C83.1732 208.062 84.1824 206.88 85.5116 206.018C86.8409 205.157 88.4532 204.726 90.3486 204.726ZM90.4224 207.975C89.167 207.975 88.1332 208.357 87.3209 209.12C86.5332 209.883 86.0532 211.028 85.8809 212.554H94.927C94.7547 211.028 94.2624 209.883 93.4501 209.12C92.6624 208.357 91.6532 207.975 90.4224 207.975ZM110.325 204.726C112.269 204.726 113.918 205.182 115.272 206.092C116.626 206.978 117.635 208.234 118.3 209.858C118.989 211.483 119.297 213.378 119.223 215.545H105.82C105.918 217.44 106.398 218.855 107.26 219.791C108.121 220.726 109.278 221.194 110.731 221.194C112.872 221.194 114.263 220.246 114.903 218.351H118.817C118.546 220.197 117.697 221.674 116.269 222.782C114.866 223.889 112.958 224.443 110.546 224.443C108.577 224.443 106.903 224.012 105.525 223.151C104.171 222.289 103.149 221.12 102.46 219.643C101.795 218.166 101.463 216.48 101.463 214.585C101.463 212.714 101.795 211.04 102.46 209.563C103.149 208.062 104.158 206.88 105.488 206.018C106.817 205.157 108.429 204.726 110.325 204.726ZM110.398 207.975C109.143 207.975 108.109 208.357 107.297 209.12C106.509 209.883 106.029 211.028 105.857 212.554H114.903C114.731 211.028 114.238 209.883 113.426 209.12C112.638 208.357 111.629 207.975 110.398 207.975ZM132.885 204.726C134.657 204.726 136.097 205.231 137.205 206.24C138.337 207.225 138.904 208.677 138.904 210.597V224H134.694V211.409C134.694 209.268 133.66 208.197 131.593 208.197C130.904 208.197 130.177 208.369 129.414 208.714C128.651 209.034 127.987 209.649 127.42 210.56C126.854 211.446 126.571 212.677 126.571 214.252V224H122.362V205.169H126.091L126.424 208.049C127.187 206.966 128.134 206.142 129.267 205.575C130.399 205.009 131.605 204.726 132.885 204.726ZM168.928 210.338C170.676 210.634 171.993 211.311 172.879 212.369C173.79 213.428 174.245 214.806 174.245 216.505C174.245 218.72 173.495 220.529 171.993 221.932C170.516 223.311 168.375 224 165.568 224H153.31V197.785H164.35C167.033 197.785 169.199 198.24 170.848 199.151C172.522 200.062 173.359 201.711 173.359 204.098C173.359 207.077 171.882 209.132 168.928 210.265V210.338ZM168.855 204.948C168.855 203.914 168.608 203.151 168.116 202.658C167.624 202.142 167.045 201.822 166.381 201.698C165.716 201.551 164.928 201.477 164.018 201.477H157.925V208.825H164.055C167.255 208.825 168.855 207.532 168.855 204.948ZM165.199 220.308C166.627 220.308 167.735 219.975 168.522 219.311C169.31 218.646 169.704 217.649 169.704 216.32C169.704 214.917 169.248 213.895 168.338 213.255C167.427 212.615 166.208 212.295 164.682 212.295H157.925V220.308H165.199ZM193.067 218.609C193.067 219.446 193.19 220.049 193.436 220.418C193.682 220.763 194.15 220.935 194.839 220.935L194.655 224C194.113 224.074 193.621 224.111 193.178 224.111C191.996 224.111 191.098 223.852 190.482 223.335C189.867 222.794 189.51 222.043 189.412 221.083H189.375C188.636 222.24 187.726 223.089 186.642 223.631C185.559 224.172 184.279 224.443 182.802 224.443C181.03 224.443 179.59 223.975 178.482 223.04C177.375 222.08 176.821 220.738 176.821 219.015C176.821 216.702 177.793 215.089 179.738 214.178C181.682 213.268 184.046 212.812 186.827 212.812C187.319 212.812 188.009 212.837 188.895 212.886V211.077C188.895 209.945 188.599 209.132 188.009 208.64C187.418 208.123 186.507 207.865 185.276 207.865C183.996 207.865 183.012 208.16 182.322 208.751C181.633 209.342 181.289 210.055 181.289 210.892H177.227C177.227 209.686 177.572 208.615 178.261 207.68C178.975 206.745 179.947 206.018 181.178 205.502C182.433 204.985 183.836 204.726 185.387 204.726C187.75 204.726 189.621 205.268 190.999 206.351C192.378 207.409 193.067 208.935 193.067 210.929V218.609ZM183.984 221.305C185.412 221.305 186.581 220.874 187.492 220.012C188.427 219.126 188.895 218.055 188.895 216.8V215.434C188.526 215.409 188.009 215.397 187.344 215.397C185.227 215.397 183.664 215.668 182.655 216.209C181.67 216.726 181.178 217.551 181.178 218.683C181.178 219.569 181.424 220.234 181.916 220.677C182.433 221.095 183.122 221.305 183.984 221.305ZM213.723 205.169L203.643 231.385H199.139L202.72 224H202.609L195.077 205.169H199.656L204.603 219.237L209.145 205.169H213.723ZM48.2738 244.662V251.898H59.6092V255.665H48.2738V267H43.6585V240.785H60.7169V244.662H48.2738ZM86.9534 253.486V256.071C86.9534 258.532 86.4241 260.637 85.3657 262.385C84.3318 264.108 82.9164 265.412 81.1195 266.298C79.3472 267.16 77.3657 267.591 75.1749 267.591C72.5903 267.591 70.3749 267.025 68.5288 265.892C66.7072 264.735 65.3288 263.135 64.3934 261.092C63.4826 259.049 63.0272 256.698 63.0272 254.04C63.0272 251.382 63.4949 249.018 64.4303 246.951C65.3903 244.858 66.8057 243.209 68.6764 242.003C70.5718 240.797 72.8857 240.194 75.618 240.194C77.4888 240.194 79.2118 240.526 80.7872 241.191C82.3872 241.855 83.7041 242.852 84.738 244.182C85.7964 245.486 86.4364 247.098 86.658 249.018H82.0795C81.858 247.369 81.1564 246.114 79.9749 245.252C78.818 244.391 77.3411 243.96 75.5441 243.96C72.9841 243.96 71.0272 244.871 69.6734 246.692C68.3195 248.489 67.6426 250.938 67.6426 254.04C67.6426 257.166 68.2949 259.591 69.5995 261.314C70.9041 263.012 72.8857 263.862 75.5441 263.862C77.6611 263.862 79.3595 263.283 80.6395 262.126C81.9195 260.945 82.6334 259.295 82.7811 257.178H75.4334V253.486H86.9534ZM116.104 253.338C117.852 253.634 119.168 254.311 120.055 255.369C120.965 256.428 121.421 257.806 121.421 259.505C121.421 261.72 120.67 263.529 119.168 264.932C117.692 266.311 115.55 267 112.744 267H100.485V240.785H111.525C114.208 240.785 116.375 241.24 118.024 242.151C119.698 243.062 120.535 244.711 120.535 247.098C120.535 250.077 119.058 252.132 116.104 253.265V253.338ZM116.03 247.948C116.03 246.914 115.784 246.151 115.292 245.658C114.799 245.142 114.221 244.822 113.556 244.698C112.892 244.551 112.104 244.477 111.193 244.477H105.101V251.825H111.23C114.43 251.825 116.03 250.532 116.03 247.948ZM112.375 263.308C113.802 263.308 114.91 262.975 115.698 262.311C116.485 261.646 116.879 260.649 116.879 259.32C116.879 257.917 116.424 256.895 115.513 256.255C114.602 255.615 113.384 255.295 111.858 255.295H105.101V263.308H112.375ZM132.969 247.726C134.913 247.726 136.563 248.182 137.916 249.092C139.27 249.978 140.28 251.234 140.944 252.858C141.633 254.483 141.941 256.378 141.867 258.545H128.464C128.563 260.44 129.043 261.855 129.904 262.791C130.766 263.726 131.923 264.194 133.375 264.194C135.516 264.194 136.907 263.246 137.547 261.351H141.461C141.19 263.197 140.341 264.674 138.913 265.782C137.51 266.889 135.603 267.443 133.19 267.443C131.221 267.443 129.547 267.012 128.169 266.151C126.815 265.289 125.793 264.12 125.104 262.643C124.44 261.166 124.107 259.48 124.107 257.585C124.107 255.714 124.44 254.04 125.104 252.563C125.793 251.062 126.803 249.88 128.132 249.018C129.461 248.157 131.073 247.726 132.969 247.726ZM133.043 250.975C131.787 250.975 130.753 251.357 129.941 252.12C129.153 252.883 128.673 254.028 128.501 255.554H137.547C137.375 254.028 136.883 252.883 136.07 252.12C135.283 251.357 134.273 250.975 133.043 250.975ZM152.147 263.898C152.812 263.898 153.476 263.8 154.141 263.603L153.919 266.889C152.836 267.16 151.913 267.295 151.15 267.295C149.378 267.295 148.049 266.84 147.163 265.929C146.276 265.018 145.833 263.542 145.833 261.498V251.455H142.473L142.547 248.169H145.833L146.203 242.52H150.043V248.169H154.104L154.03 251.455H150.043V261.277C150.043 262.262 150.203 262.951 150.523 263.345C150.843 263.714 151.384 263.898 152.147 263.898Z" fill="white"/>
<g filter="url(#filter0_d)">
<rect x="4" width="1351" height="77" rx="8" fill="#223743"/>
<path d="M49.3535 51.56C47.5568 51.56 45.8768 51.2683 44.3135 50.685C42.7735 50.1017 41.5135 49.18 40.5335 47.92C39.5535 46.6367 39.0518 45.015 39.0285 43.055H43.3335C43.4035 44.7117 43.9868 45.9717 45.0835 46.835C46.1802 47.6983 47.6385 48.13 49.4585 48.13C51.1152 48.13 52.4685 47.815 53.5185 47.185C54.5918 46.555 55.1285 45.575 55.1285 44.245C55.1285 43.405 54.8835 42.74 54.3935 42.25C53.9035 41.7367 53.2152 41.3167 52.3285 40.99C51.4418 40.64 50.0418 40.185 48.1285 39.625L47.3585 39.415C45.6552 38.925 44.3018 38.47 43.2985 38.05C42.3185 37.6067 41.5018 36.9533 40.8485 36.09C40.1952 35.2267 39.8685 34.0833 39.8685 32.66C39.8685 31.12 40.2885 29.825 41.1285 28.775C41.9685 27.7017 43.0885 26.9083 44.4885 26.395C45.8885 25.8583 47.4285 25.59 49.1085 25.59C51.8385 25.59 54.0902 26.2317 55.8635 27.515C57.6602 28.7983 58.6285 30.7467 58.7685 33.36H54.4635C54.3468 31.89 53.8102 30.805 52.8535 30.105C51.9202 29.3817 50.6602 29.02 49.0735 29.02C47.6735 29.02 46.4952 29.3117 45.5385 29.895C44.5818 30.4783 44.1035 31.33 44.1035 32.45C44.1035 33.1033 44.3135 33.64 44.7335 34.06C45.1535 34.48 45.6785 34.8067 46.3085 35.04C46.9618 35.2733 47.8485 35.53 48.9685 35.81L50.1935 36.16C52.4102 36.7667 54.1718 37.3967 55.4785 38.05C56.7852 38.68 57.7769 39.4733 58.4535 40.43C59.1302 41.3867 59.4685 42.5883 59.4685 44.035C59.4685 46.6017 58.5118 48.5033 56.5985 49.74C54.7085 50.9533 52.2935 51.56 49.3535 51.56ZM70.1279 32.73C71.9713 32.73 73.5346 33.1617 74.8179 34.025C76.1013 34.865 77.0579 36.055 77.6879 37.595C78.3413 39.135 78.6329 40.9317 78.5629 42.985H65.8579C65.9513 44.7817 66.4063 46.1233 67.2229 47.01C68.0396 47.8967 69.1363 48.34 70.5129 48.34C72.5429 48.34 73.8613 47.4417 74.4679 45.645H78.1779C77.9213 47.395 77.1163 48.795 75.7629 49.845C74.4329 50.895 72.6246 51.42 70.3379 51.42C68.4713 51.42 66.8846 51.0117 65.5779 50.195C64.2946 49.3783 63.3263 48.27 62.6729 46.87C62.0429 45.47 61.7279 43.8717 61.7279 42.075C61.7279 40.3017 62.0429 38.715 62.6729 37.315C63.3263 35.8917 64.2829 34.7717 65.5429 33.955C66.8029 33.1383 68.3313 32.73 70.1279 32.73ZM70.1979 35.81C69.0079 35.81 68.0279 36.1717 67.2579 36.895C66.5113 37.6183 66.0563 38.7033 65.8929 40.15H74.4679C74.3046 38.7033 73.8379 37.6183 73.0679 36.895C72.3213 36.1717 71.3646 35.81 70.1979 35.81ZM95.9585 45.89C95.9585 46.6833 96.0751 47.255 96.3085 47.605C96.5418 47.9317 96.9851 48.095 97.6385 48.095L97.4635 51C96.9501 51.07 96.4835 51.105 96.0635 51.105C94.9435 51.105 94.0918 50.86 93.5085 50.37C92.9251 49.8567 92.5868 49.145 92.4935 48.235H92.4585C91.7585 49.3317 90.8951 50.1367 89.8685 50.65C88.8418 51.1633 87.6285 51.42 86.2285 51.42C84.5485 51.42 83.1835 50.9767 82.1335 50.09C81.0835 49.18 80.5585 47.9083 80.5585 46.275C80.5585 44.0817 81.4801 42.5533 83.3235 41.69C85.1668 40.8267 87.4068 40.395 90.0435 40.395C90.5101 40.395 91.1635 40.4183 92.0035 40.465V38.75C92.0035 37.6767 91.7235 36.9067 91.1635 36.44C90.6035 35.95 89.7401 35.705 88.5735 35.705C87.3601 35.705 86.4268 35.985 85.7735 36.545C85.1201 37.105 84.7935 37.7817 84.7935 38.575H80.9435C80.9435 37.4317 81.2701 36.4167 81.9235 35.53C82.6001 34.6433 83.5218 33.955 84.6885 33.465C85.8785 32.975 87.2085 32.73 88.6785 32.73C90.9185 32.73 92.6918 33.2433 93.9985 34.27C95.3051 35.2733 95.9585 36.72 95.9585 38.61V45.89ZM87.3485 48.445C88.7018 48.445 89.8101 48.0367 90.6735 47.22C91.5601 46.38 92.0035 45.365 92.0035 44.175V42.88C91.6535 42.8567 91.1635 42.845 90.5335 42.845C88.5268 42.845 87.0451 43.1017 86.0885 43.615C85.1551 44.105 84.6885 44.8867 84.6885 45.96C84.6885 46.8 84.9218 47.43 85.3885 47.85C85.8785 48.2467 86.5318 48.445 87.3485 48.445ZM104.326 36.65C105.89 34.0367 108.06 32.8233 110.836 33.01V36.965C110.416 36.895 110.02 36.86 109.646 36.86C108.036 36.86 106.753 37.3733 105.796 38.4C104.84 39.4033 104.361 40.8383 104.361 42.705V51H100.371V33.15H103.906L104.326 36.65ZM120.313 51.42C118.423 51.42 116.813 51.0117 115.483 50.195C114.176 49.3783 113.184 48.27 112.508 46.87C111.854 45.47 111.528 43.8717 111.528 42.075C111.528 40.2783 111.854 38.68 112.508 37.28C113.184 35.88 114.176 34.7717 115.483 33.955C116.813 33.1383 118.423 32.73 120.313 32.73C122.646 32.73 124.501 33.3017 125.878 34.445C127.254 35.5883 128.036 37.1167 128.223 39.03H124.338C123.918 36.9533 122.599 35.915 120.383 35.915C118.889 35.915 117.723 36.4283 116.883 37.455C116.066 38.4817 115.658 40.0217 115.658 42.075C115.658 44.1283 116.066 45.6683 116.883 46.695C117.723 47.7217 118.889 48.235 120.383 48.235C122.599 48.235 123.918 47.1967 124.338 45.12H128.223C128.036 47.0333 127.254 48.5617 125.878 49.705C124.501 50.8483 122.646 51.42 120.313 51.42ZM141.518 32.73C143.198 32.73 144.563 33.2083 145.613 34.165C146.687 35.0983 147.223 36.475 147.223 38.295V51H143.233V39.065C143.233 37.035 142.253 36.02 140.293 36.02C139.64 36.02 138.952 36.1833 138.228 36.51C137.505 36.8133 136.875 37.3967 136.338 38.26C135.802 39.1 135.533 40.2667 135.533 41.76V51H131.543V25.45H135.533V35.705C136.257 34.7483 137.132 34.0133 138.158 33.5C139.208 32.9867 140.328 32.73 141.518 32.73ZM174.879 45.89C174.879 46.6833 174.996 47.255 175.229 47.605C175.463 47.9317 175.906 48.095 176.559 48.095L176.384 51C175.871 51.07 175.404 51.105 174.984 51.105C173.864 51.105 173.013 50.86 172.429 50.37C171.846 49.8567 171.508 49.145 171.414 48.235H171.379C170.679 49.3317 169.816 50.1367 168.789 50.65C167.763 51.1633 166.549 51.42 165.149 51.42C163.469 51.42 162.104 50.9767 161.054 50.09C160.004 49.18 159.479 47.9083 159.479 46.275C159.479 44.0817 160.401 42.5533 162.244 41.69C164.088 40.8267 166.328 40.395 168.964 40.395C169.431 40.395 170.084 40.4183 170.924 40.465V38.75C170.924 37.6767 170.644 36.9067 170.084 36.44C169.524 35.95 168.661 35.705 167.494 35.705C166.281 35.705 165.348 35.985 164.694 36.545C164.041 37.105 163.714 37.7817 163.714 38.575H159.864C159.864 37.4317 160.191 36.4167 160.844 35.53C161.521 34.6433 162.443 33.955 163.609 33.465C164.799 32.975 166.129 32.73 167.599 32.73C169.839 32.73 171.613 33.2433 172.919 34.27C174.226 35.2733 174.879 36.72 174.879 38.61V45.89ZM166.269 48.445C167.623 48.445 168.731 48.0367 169.594 47.22C170.481 46.38 170.924 45.365 170.924 44.175V42.88C170.574 42.8567 170.084 42.845 169.454 42.845C167.448 42.845 165.966 43.1017 165.009 43.615C164.076 44.105 163.609 44.8867 163.609 45.96C163.609 46.8 163.843 47.43 164.309 47.85C164.799 48.2467 165.453 48.445 166.269 48.445ZM189.267 32.73C190.947 32.73 192.312 33.2083 193.362 34.165C194.436 35.0983 194.972 36.475 194.972 38.295V51H190.982V39.065C190.982 37.035 190.002 36.02 188.042 36.02C187.389 36.02 186.701 36.1833 185.977 36.51C185.254 36.8133 184.624 37.3967 184.087 38.26C183.551 39.1 183.282 40.2667 183.282 41.76V51H179.292V33.15H182.827L183.142 35.88C183.866 34.8533 184.764 34.0717 185.837 33.535C186.911 32.9983 188.054 32.73 189.267 32.73ZM214.66 33.15L205.105 58H200.835L204.23 51H204.125L196.985 33.15H201.325L206.015 46.485L210.32 33.15H214.66ZM236.555 26.15C239.378 26.15 241.537 26.85 243.03 28.25C244.523 29.6267 245.27 31.5283 245.27 33.955C245.27 36.4517 244.488 38.3883 242.925 39.765C241.385 41.1417 239.203 41.8183 236.38 41.795H230.64V51H226.265V26.15H236.555ZM235.995 38.225C237.652 38.225 238.9 37.8633 239.74 37.14C240.603 36.4167 241.035 35.355 241.035 33.955C241.035 32.5083 240.615 31.4467 239.775 30.77C238.958 30.07 237.698 29.72 235.995 29.72H230.64V38.225H235.995ZM254.14 51C253.44 51.1167 252.869 51.175 252.425 51.175C251.095 51.175 250.115 50.825 249.485 50.125C248.855 49.4017 248.54 48.2817 248.54 46.765V25.45H252.53V45.855C252.53 46.7417 252.647 47.3367 252.88 47.64C253.114 47.9433 253.592 48.095 254.315 48.095L254.14 51ZM271.779 45.89C271.779 46.6833 271.895 47.255 272.129 47.605C272.362 47.9317 272.805 48.095 273.459 48.095L273.284 51C272.77 51.07 272.304 51.105 271.884 51.105C270.764 51.105 269.912 50.86 269.329 50.37C268.745 49.8567 268.407 49.145 268.314 48.235H268.279C267.579 49.3317 266.715 50.1367 265.689 50.65C264.662 51.1633 263.449 51.42 262.049 51.42C260.369 51.42 259.004 50.9767 257.954 50.09C256.904 49.18 256.379 47.9083 256.379 46.275C256.379 44.0817 257.3 42.5533 259.144 41.69C260.987 40.8267 263.227 40.395 265.864 40.395C266.33 40.395 266.984 40.4183 267.824 40.465V38.75C267.824 37.6767 267.544 36.9067 266.984 36.44C266.424 35.95 265.56 35.705 264.394 35.705C263.18 35.705 262.247 35.985 261.594 36.545C260.94 37.105 260.614 37.7817 260.614 38.575H256.764C256.764 37.4317 257.09 36.4167 257.744 35.53C258.42 34.6433 259.342 33.955 260.509 33.465C261.699 32.975 263.029 32.73 264.499 32.73C266.739 32.73 268.512 33.2433 269.819 34.27C271.125 35.2733 271.779 36.72 271.779 38.61V45.89ZM263.169 48.445C264.522 48.445 265.63 48.0367 266.494 47.22C267.38 46.38 267.824 45.365 267.824 44.175V42.88C267.474 42.8567 266.984 42.845 266.354 42.845C264.347 42.845 262.865 43.1017 261.909 43.615C260.975 44.105 260.509 44.8867 260.509 45.96C260.509 46.8 260.742 47.43 261.209 47.85C261.699 48.2467 262.352 48.445 263.169 48.445ZM291.359 33.15L281.804 58H277.534L280.929 51H280.824L273.684 33.15H278.024L282.714 46.485L287.019 33.15H291.359ZM300.26 32.73C302.103 32.73 303.666 33.1617 304.95 34.025C306.233 34.865 307.19 36.055 307.82 37.595C308.473 39.135 308.765 40.9317 308.695 42.985H295.99C296.083 44.7817 296.538 46.1233 297.355 47.01C298.171 47.8967 299.268 48.34 300.645 48.34C302.675 48.34 303.993 47.4417 304.6 45.645H308.31C308.053 47.395 307.248 48.795 305.895 49.845C304.565 50.895 302.756 51.42 300.47 51.42C298.603 51.42 297.016 51.0117 295.71 50.195C294.426 49.3783 293.458 48.27 292.805 46.87C292.175 45.47 291.86 43.8717 291.86 42.075C291.86 40.3017 292.175 38.715 292.805 37.315C293.458 35.8917 294.415 34.7717 295.675 33.955C296.935 33.1383 298.463 32.73 300.26 32.73ZM300.33 35.81C299.14 35.81 298.16 36.1717 297.39 36.895C296.643 37.6183 296.188 38.7033 296.025 40.15H304.6C304.436 38.7033 303.97 37.6183 303.2 36.895C302.453 36.1717 301.496 35.81 300.33 35.81ZM315.625 36.65C317.189 34.0367 319.359 32.8233 322.135 33.01V36.965C321.715 36.895 321.319 36.86 320.945 36.86C319.335 36.86 318.052 37.3733 317.095 38.4C316.139 39.4033 315.66 40.8383 315.66 42.705V51H311.67V33.15H315.205L315.625 36.65ZM322.647 46.205H327.057L324.817 56.18H321.597L322.647 46.205ZM358.988 29.825H351.253V51H346.878V29.825H339.108V26.15H358.988V29.825ZM365.885 32.73C367.728 32.73 369.291 33.1617 370.575 34.025C371.858 34.865 372.815 36.055 373.445 37.595C374.098 39.135 374.39 40.9317 374.32 42.985H361.615C361.708 44.7817 362.163 46.1233 362.98 47.01C363.796 47.8967 364.893 48.34 366.27 48.34C368.3 48.34 369.618 47.4417 370.225 45.645H373.935C373.678 47.395 372.873 48.795 371.52 49.845C370.19 50.895 368.381 51.42 366.095 51.42C364.228 51.42 362.641 51.0117 361.335 50.195C360.051 49.3783 359.083 48.27 358.43 46.87C357.8 45.47 357.485 43.8717 357.485 42.075C357.485 40.3017 357.8 38.715 358.43 37.315C359.083 35.8917 360.04 34.7717 361.3 33.955C362.56 33.1383 364.088 32.73 365.885 32.73ZM365.955 35.81C364.765 35.81 363.785 36.1717 363.015 36.895C362.268 37.6183 361.813 38.7033 361.65 40.15H370.225C370.061 38.7033 369.595 37.6183 368.825 36.895C368.078 36.1717 367.121 35.81 365.955 35.81ZM391.715 45.89C391.715 46.6833 391.832 47.255 392.065 47.605C392.299 47.9317 392.742 48.095 393.395 48.095L393.22 51C392.707 51.07 392.24 51.105 391.82 51.105C390.7 51.105 389.849 50.86 389.265 50.37C388.682 49.8567 388.344 49.145 388.25 48.235H388.215C387.515 49.3317 386.652 50.1367 385.625 50.65C384.599 51.1633 383.385 51.42 381.985 51.42C380.305 51.42 378.94 50.9767 377.89 50.09C376.84 49.18 376.315 47.9083 376.315 46.275C376.315 44.0817 377.237 42.5533 379.08 41.69C380.924 40.8267 383.164 40.395 385.8 40.395C386.267 40.395 386.92 40.4183 387.76 40.465V38.75C387.76 37.6767 387.48 36.9067 386.92 36.44C386.36 35.95 385.497 35.705 384.33 35.705C383.117 35.705 382.184 35.985 381.53 36.545C380.877 37.105 380.55 37.7817 380.55 38.575H376.7C376.7 37.4317 377.027 36.4167 377.68 35.53C378.357 34.6433 379.279 33.955 380.445 33.465C381.635 32.975 382.965 32.73 384.435 32.73C386.675 32.73 388.449 33.2433 389.755 34.27C391.062 35.2733 391.715 36.72 391.715 38.61V45.89ZM383.105 48.445C384.459 48.445 385.567 48.0367 386.43 47.22C387.317 46.38 387.76 45.365 387.76 44.175V42.88C387.41 42.8567 386.92 42.845 386.29 42.845C384.284 42.845 382.802 43.1017 381.845 43.615C380.912 44.105 380.445 44.8867 380.445 45.96C380.445 46.8 380.679 47.43 381.145 47.85C381.635 48.2467 382.289 48.445 383.105 48.445ZM417.233 32.73C418.843 32.73 420.185 33.2083 421.258 34.165C422.332 35.1217 422.868 36.4983 422.868 38.295V51H418.878V39.065C418.878 38.295 418.68 37.595 418.283 36.965C417.887 36.335 417.117 36.02 415.973 36.02C415.343 36.02 414.69 36.1833 414.013 36.51C413.337 36.8133 412.742 37.3967 412.228 38.26C411.738 39.1 411.493 40.2667 411.493 41.76V51H407.503V39.065C407.503 38.295 407.305 37.595 406.908 36.965C406.512 36.335 405.742 36.02 404.598 36.02C403.968 36.02 403.315 36.1833 402.638 36.51C401.962 36.8133 401.367 37.3967 400.853 38.26C400.363 39.1 400.118 40.2667 400.118 41.76V51H396.128V33.15H399.663L399.978 35.81C400.678 34.8067 401.53 34.0483 402.533 33.535C403.537 32.9983 404.645 32.73 405.858 32.73C407.095 32.73 408.18 33.0217 409.113 33.605C410.07 34.165 410.747 35.005 411.143 36.125C411.843 35.0283 412.718 34.1883 413.768 33.605C414.818 33.0217 415.973 32.73 417.233 32.73ZM428.775 46.205H433.185L430.945 56.18H427.725L428.775 46.205ZM462.281 38.05C463.938 38.33 465.186 38.9717 466.026 39.975C466.889 40.9783 467.321 42.285 467.321 43.895C467.321 45.995 466.609 47.71 465.186 49.04C463.786 50.3467 461.756 51 459.096 51H447.476V26.15H457.941C460.484 26.15 462.538 26.5817 464.101 27.445C465.688 28.3083 466.481 29.8717 466.481 32.135C466.481 34.9583 465.081 36.9067 462.281 37.98V38.05ZM462.211 32.94C462.211 31.96 461.978 31.2367 461.511 30.77C461.044 30.28 460.496 29.9767 459.866 29.86C459.236 29.72 458.489 29.65 457.626 29.65H451.851V36.615H457.661C460.694 36.615 462.211 35.39 462.211 32.94ZM458.746 47.5C460.099 47.5 461.149 47.185 461.896 46.555C462.643 45.925 463.016 44.98 463.016 43.72C463.016 42.39 462.584 41.4217 461.721 40.815C460.858 40.2083 459.703 39.905 458.256 39.905H451.851V47.5H458.746ZM478.268 32.73C480.111 32.73 481.674 33.1617 482.958 34.025C484.241 34.865 485.198 36.055 485.828 37.595C486.481 39.135 486.773 40.9317 486.703 42.985H473.998C474.091 44.7817 474.546 46.1233 475.363 47.01C476.179 47.8967 477.276 48.34 478.653 48.34C480.683 48.34 482.001 47.4417 482.608 45.645H486.318C486.061 47.395 485.256 48.795 483.903 49.845C482.573 50.895 480.764 51.42 478.478 51.42C476.611 51.42 475.024 51.0117 473.718 50.195C472.434 49.3783 471.466 48.27 470.813 46.87C470.183 45.47 469.868 43.8717 469.868 42.075C469.868 40.3017 470.183 38.715 470.813 37.315C471.466 35.8917 472.423 34.7717 473.683 33.955C474.943 33.1383 476.471 32.73 478.268 32.73ZM478.338 35.81C477.148 35.81 476.168 36.1717 475.398 36.895C474.651 37.6183 474.196 38.7033 474.033 40.15H482.608C482.444 38.7033 481.978 37.6183 481.208 36.895C480.461 36.1717 479.504 35.81 478.338 35.81ZM496.447 48.06C497.077 48.06 497.707 47.9667 498.337 47.78L498.127 50.895C497.1 51.1517 496.225 51.28 495.502 51.28C493.822 51.28 492.562 50.8483 491.722 49.985C490.882 49.1217 490.462 47.7217 490.462 45.785V36.265H487.277L487.347 33.15H490.462L490.812 27.795H494.452V33.15H498.302L498.232 36.265H494.452V45.575C494.452 46.5083 494.604 47.1617 494.907 47.535C495.21 47.885 495.724 48.06 496.447 48.06ZM518.234 51.42C516.321 51.42 514.699 51.0117 513.369 50.195C512.039 49.3783 511.036 48.27 510.359 46.87C509.706 45.47 509.379 43.8717 509.379 42.075C509.379 40.2783 509.706 38.68 510.359 37.28C511.013 35.8567 512.004 34.7483 513.334 33.955C514.664 33.1383 516.298 32.73 518.234 32.73C520.148 32.73 521.769 33.1383 523.099 33.955C524.429 34.7717 525.421 35.88 526.074 37.28C526.728 38.68 527.054 40.2783 527.054 42.075C527.054 43.8717 526.716 45.47 526.039 46.87C525.386 48.27 524.394 49.3783 523.064 50.195C521.758 51.0117 520.148 51.42 518.234 51.42ZM518.234 48.235C519.751 48.235 520.906 47.7217 521.699 46.695C522.516 45.6683 522.924 44.1283 522.924 42.075C522.924 40.0217 522.516 38.4817 521.699 37.455C520.906 36.4283 519.751 35.915 518.234 35.915C516.694 35.915 515.516 36.4283 514.699 37.455C513.906 38.4817 513.509 40.0217 513.509 42.075C513.509 44.1283 513.918 45.6683 514.734 46.695C515.551 47.7217 516.718 48.235 518.234 48.235ZM534.341 36.65C535.904 34.0367 538.074 32.8233 540.851 33.01V36.965C540.431 36.895 540.034 36.86 539.661 36.86C538.051 36.86 536.768 37.3733 535.811 38.4C534.854 39.4033 534.376 40.8383 534.376 42.705V51H530.386V33.15H533.921L534.341 36.65ZM573.829 38.19V40.64C573.829 42.9733 573.327 44.9683 572.324 46.625C571.344 48.2583 570.002 49.495 568.299 50.335C566.619 51.1517 564.74 51.56 562.664 51.56C560.214 51.56 558.114 51.0233 556.364 49.95C554.637 48.8533 553.33 47.3367 552.444 45.4C551.58 43.4633 551.149 41.235 551.149 38.715C551.149 36.195 551.592 33.955 552.479 31.995C553.389 30.0117 554.73 28.4483 556.504 27.305C558.3 26.1617 560.494 25.59 563.084 25.59C564.857 25.59 566.49 25.905 567.984 26.535C569.5 27.165 570.749 28.11 571.729 29.37C572.732 30.6067 573.339 32.135 573.549 33.955H569.209C568.999 32.3917 568.334 31.2017 567.214 30.385C566.117 29.5683 564.717 29.16 563.014 29.16C560.587 29.16 558.732 30.0233 557.449 31.75C556.165 33.4533 555.524 35.775 555.524 38.715C555.524 41.6783 556.142 43.9767 557.379 45.61C558.615 47.22 560.494 48.025 563.014 48.025C565.02 48.025 566.63 47.4767 567.844 46.38C569.057 45.26 569.734 43.6967 569.874 41.69H562.909V38.19H573.829ZM591.496 45.89C591.496 46.6833 591.612 47.255 591.846 47.605C592.079 47.9317 592.522 48.095 593.176 48.095L593.001 51C592.487 51.07 592.021 51.105 591.601 51.105C590.481 51.105 589.629 50.86 589.046 50.37C588.462 49.8567 588.124 49.145 588.031 48.235H587.996C587.296 49.3317 586.432 50.1367 585.406 50.65C584.379 51.1633 583.166 51.42 581.766 51.42C580.086 51.42 578.721 50.9767 577.671 50.09C576.621 49.18 576.096 47.9083 576.096 46.275C576.096 44.0817 577.017 42.5533 578.861 41.69C580.704 40.8267 582.944 40.395 585.581 40.395C586.047 40.395 586.701 40.4183 587.541 40.465V38.75C587.541 37.6767 587.261 36.9067 586.701 36.44C586.141 35.95 585.277 35.705 584.111 35.705C582.897 35.705 581.964 35.985 581.311 36.545C580.657 37.105 580.331 37.7817 580.331 38.575H576.481C576.481 37.4317 576.807 36.4167 577.461 35.53C578.137 34.6433 579.059 33.955 580.226 33.465C581.416 32.975 582.746 32.73 584.216 32.73C586.456 32.73 588.229 33.2433 589.536 34.27C590.842 35.2733 591.496 36.72 591.496 38.61V45.89ZM582.886 48.445C584.239 48.445 585.347 48.0367 586.211 47.22C587.097 46.38 587.541 45.365 587.541 44.175V42.88C587.191 42.8567 586.701 42.845 586.071 42.845C584.064 42.845 582.582 43.1017 581.626 43.615C580.692 44.105 580.226 44.8867 580.226 45.96C580.226 46.8 580.459 47.43 580.926 47.85C581.416 48.2467 582.069 48.445 582.886 48.445ZM617.014 32.73C618.624 32.73 619.965 33.2083 621.039 34.165C622.112 35.1217 622.649 36.4983 622.649 38.295V51H618.659V39.065C618.659 38.295 618.46 37.595 618.064 36.965C617.667 36.335 616.897 36.02 615.754 36.02C615.124 36.02 614.47 36.1833 613.794 36.51C613.117 36.8133 612.522 37.3967 612.009 38.26C611.519 39.1 611.274 40.2667 611.274 41.76V51H607.284V39.065C607.284 38.295 607.085 37.595 606.689 36.965C606.292 36.335 605.522 36.02 604.379 36.02C603.749 36.02 603.095 36.1833 602.419 36.51C601.742 36.8133 601.147 37.3967 600.634 38.26C600.144 39.1 599.899 40.2667 599.899 41.76V51H595.909V33.15H599.444L599.759 35.81C600.459 34.8067 601.31 34.0483 602.314 33.535C603.317 32.9983 604.425 32.73 605.639 32.73C606.875 32.73 607.96 33.0217 608.894 33.605C609.85 34.165 610.527 35.005 610.924 36.125C611.624 35.0283 612.499 34.1883 613.549 33.605C614.599 33.0217 615.754 32.73 617.014 32.73ZM634.4 32.73C636.244 32.73 637.807 33.1617 639.09 34.025C640.374 34.865 641.33 36.055 641.96 37.595C642.614 39.135 642.905 40.9317 642.835 42.985H630.13C630.224 44.7817 630.679 46.1233 631.495 47.01C632.312 47.8967 633.409 48.34 634.785 48.34C636.815 48.34 638.134 47.4417 638.74 45.645H642.45C642.194 47.395 641.389 48.795 640.035 49.845C638.705 50.895 636.897 51.42 634.61 51.42C632.744 51.42 631.157 51.0117 629.85 50.195C628.567 49.3783 627.599 48.27 626.945 46.87C626.315 45.47 626 43.8717 626 42.075C626 40.3017 626.315 38.715 626.945 37.315C627.599 35.8917 628.555 34.7717 629.815 33.955C631.075 33.1383 632.604 32.73 634.4 32.73ZM634.47 35.81C633.28 35.81 632.3 36.1717 631.53 36.895C630.784 37.6183 630.329 38.7033 630.165 40.15H638.74C638.577 38.7033 638.11 37.6183 637.34 36.895C636.594 36.1717 635.637 35.81 634.47 35.81Z" fill="#829ABE"/>
</g>
<defs>
<filter id="filter0_d" x="0" y="0" width="1359" height="85" filterUnits="userSpaceOnUse" color-interpolation-filters="sRGB">
<feFlood flood-opacity="0" result="BackgroundImageFix"/>
<feColorMatrix in="SourceAlpha" type="matrix" values="0 0 0 0 0 0 0 0 0 0 0 0 0 0 0 0 0 0 127 0" result="hardAlpha"/>
<feOffset dy="4"/>
<feGaussianBlur stdDeviation="2"/>
<feColorMatrix type="matrix" values="0 0 0 0 0 0 0 0 0 0 0 0 0 0 0 0 0 0 0.25 0"/>
<feBlend mode="normal" in2="BackgroundImageFix" result="effect1_dropShadow"/>
<feBlend mode="normal" in="SourceGraphic" in2="effect1_dropShadow" result="shape"/>
</filter>
<linearGradient id="paint0_linear" x1="1405.21" y1="150" x2="1405.21" y2="310" gradientUnits="userSpaceOnUse">
<stop offset="0.453125" stop-color="#193347"/>
<stop offset="1" stop-color="#1B1A26"/>
</linearGradient>
<linearGradient id="paint1_linear" x1="1391.75" y1="150" x2="1391.75" y2="310" gradientUnits="userSpaceOnUse">
<stop offset="0.765625" stop-color="#223743"/>
<stop offset="1" stop-color="#1B1A26"/>
</linearGradient>
<linearGradient id="paint2_linear" x1="1153.75" y1="150" x2="1153.75" y2="310" gradientUnits="userSpaceOnUse">
<stop offset="0.453125" stop-color="#193347"/>
<stop offset="1" stop-color="#1B1A26"/>
</linearGradient>
<linearGradient id="paint3_linear" x1="1140.25" y1="150" x2="1140.25" y2="310" gradientUnits="userSpaceOnUse">
<stop offset="0.765625" stop-color="#223743"/>
<stop offset="1" stop-color="#1B1A26"/>
</linearGradient>
<linearGradient id="paint4_linear" x1="897.754" y1="150" x2="897.754" y2="310" gradientUnits="userSpaceOnUse">
<stop offset="0.453125" stop-color="#193347"/>
<stop offset="1" stop-color="#1B1A26"/>
</linearGradient>
<linearGradient id="paint5_linear" x1="884.25" y1="150" x2="884.25" y2="310" gradientUnits="userSpaceOnUse">
<stop offset="0.765625" stop-color="#223743"/>
<stop offset="1" stop-color="#1B1A26"/>
</linearGradient>
<linearGradient id="paint6_linear" x1="643.66" y1="150" x2="643.66" y2="310" gradientUnits="userSpaceOnUse">
<stop offset="0.453125" stop-color="#193347"/>
<stop offset="1" stop-color="#1B1A26"/>
</linearGradient>
<linearGradient id="paint7_linear" x1="630.25" y1="150" x2="630.25" y2="310" gradientUnits="userSpaceOnUse">
<stop offset="0.765625" stop-color="#223743"/>
<stop offset="1" stop-color="#1B1A26"/>
</linearGradient>
<linearGradient id="paint8_linear" x1="389.207" y1="150" x2="389.207" y2="310" gradientUnits="userSpaceOnUse">
<stop offset="0.453125" stop-color="#193347"/>
<stop offset="1" stop-color="#1B1A26"/>
</linearGradient>
<linearGradient id="paint9_linear" x1="375.75" y1="150" x2="375.75" y2="310" gradientUnits="userSpaceOnUse">
<stop offset="0.765625" stop-color="#223743"/>
<stop offset="1" stop-color="#1B1A26"/>
</linearGradient>
<linearGradient id="paint10_linear" x1="135" y1="148" x2="135" y2="313" gradientUnits="userSpaceOnUse">
<stop offset="0.453125" stop-color="#193347"/>
<stop offset="1" stop-color="#1B1A26"/>
</linearGradient>
<linearGradient id="paint11_linear" x1="135" y1="148" x2="135" y2="313" gradientUnits="userSpaceOnUse">
<stop stop-color="#223743"/>
<stop offset="0.708333" stop-color="#223743"/>
<stop offset="0.9999" stop-color="#1C1C28"/>
<stop offset="1" stop-color="#223743" stop-opacity="0"/>
</linearGradient>
</defs>
</svg>
